%TF.GenerationSoftware,KiCad,Pcbnew,9.0.6*%
%TF.CreationDate,2026-01-14T13:32:50+01:00*%
%TF.ProjectId,DHT11 weather station,44485431-3120-4776-9561-746865722073,rev?*%
%TF.SameCoordinates,Original*%
%TF.FileFunction,Copper,L2,Bot*%
%TF.FilePolarity,Positive*%
%FSLAX46Y46*%
G04 Gerber Fmt 4.6, Leading zero omitted, Abs format (unit mm)*
G04 Created by KiCad (PCBNEW 9.0.6) date 2026-01-14 13:32:50*
%MOMM*%
%LPD*%
G01*
G04 APERTURE LIST*
G04 Aperture macros list*
%AMRoundRect*
0 Rectangle with rounded corners*
0 $1 Rounding radius*
0 $2 $3 $4 $5 $6 $7 $8 $9 X,Y pos of 4 corners*
0 Add a 4 corners polygon primitive as box body*
4,1,4,$2,$3,$4,$5,$6,$7,$8,$9,$2,$3,0*
0 Add four circle primitives for the rounded corners*
1,1,$1+$1,$2,$3*
1,1,$1+$1,$4,$5*
1,1,$1+$1,$6,$7*
1,1,$1+$1,$8,$9*
0 Add four rect primitives between the rounded corners*
20,1,$1+$1,$2,$3,$4,$5,0*
20,1,$1+$1,$4,$5,$6,$7,0*
20,1,$1+$1,$6,$7,$8,$9,0*
20,1,$1+$1,$8,$9,$2,$3,0*%
G04 Aperture macros list end*
%TA.AperFunction,ComponentPad*%
%ADD10R,1.700000X1.700000*%
%TD*%
%TA.AperFunction,ComponentPad*%
%ADD11C,1.700000*%
%TD*%
%TA.AperFunction,ComponentPad*%
%ADD12RoundRect,0.250000X0.350000X0.350000X-0.350000X0.350000X-0.350000X-0.350000X0.350000X-0.350000X0*%
%TD*%
%TA.AperFunction,ComponentPad*%
%ADD13C,1.200000*%
%TD*%
%TA.AperFunction,ComponentPad*%
%ADD14R,2.000000X4.600000*%
%TD*%
%TA.AperFunction,ComponentPad*%
%ADD15O,2.000000X4.200000*%
%TD*%
%TA.AperFunction,ComponentPad*%
%ADD16O,4.200000X2.000000*%
%TD*%
%TA.AperFunction,ComponentPad*%
%ADD17C,2.000000*%
%TD*%
%TA.AperFunction,ComponentPad*%
%ADD18R,1.800000X1.800000*%
%TD*%
%TA.AperFunction,ComponentPad*%
%ADD19C,1.800000*%
%TD*%
%TA.AperFunction,ComponentPad*%
%ADD20C,2.100000*%
%TD*%
%TA.AperFunction,ComponentPad*%
%ADD21C,1.750000*%
%TD*%
%TA.AperFunction,ViaPad*%
%ADD22C,0.600000*%
%TD*%
%TA.AperFunction,Conductor*%
%ADD23C,1.270000*%
%TD*%
G04 APERTURE END LIST*
D10*
%TO.P,J2,1,Pin_1*%
%TO.N,/Microcontroller with OLED and DHT11/3.3V*%
X40930000Y-76800000D03*
D11*
%TO.P,J2,2,Pin_2*%
%TO.N,/Microcontroller with OLED and DHT11/SWDIO*%
X40930000Y-79340000D03*
%TO.P,J2,3,Pin_3*%
%TO.N,/Microcontroller with OLED and DHT11/SWDCLK*%
X40930000Y-81880000D03*
%TO.P,J2,4,Pin_4*%
%TO.N,GND*%
X40930000Y-84420000D03*
%TD*%
D10*
%TO.P,J3,1,Pin_1*%
%TO.N,GND*%
X60190000Y-84720000D03*
D11*
%TO.P,J3,2,Pin_2*%
%TO.N,/Microcontroller with OLED and DHT11/3.3V*%
X62730000Y-84720000D03*
%TO.P,J3,3,Pin_3*%
%TO.N,/Microcontroller with OLED and DHT11/SCL*%
X65270000Y-84720000D03*
%TO.P,J3,4,Pin_4*%
%TO.N,/Microcontroller with OLED and DHT11/SDA*%
X67810000Y-84720000D03*
%TD*%
%TO.P,J4,1,Pin_1*%
%TO.N,/Microcontroller with OLED and DHT11/DHT11_DATA*%
X89630000Y-42720000D03*
%TO.P,J4,2,Pin_2*%
%TO.N,/Microcontroller with OLED and DHT11/3.3V*%
X87090000Y-42720000D03*
%TO.P,J4,3,Pin_3*%
%TO.N,GND*%
X84550000Y-42720000D03*
%TD*%
D12*
%TO.P,C2,1*%
%TO.N,/Power/5V*%
X56602600Y-63000000D03*
D13*
%TO.P,C2,2*%
%TO.N,GND*%
X54602600Y-63000000D03*
%TD*%
D14*
%TO.P,J1,1*%
%TO.N,/Power/V_IN*%
X44500000Y-56020000D03*
D15*
%TO.P,J1,2*%
%TO.N,GND*%
X38200000Y-56020000D03*
D16*
%TO.P,J1,3*%
X41600000Y-60820000D03*
%TD*%
D17*
%TO.P,SW1,*%
%TO.N,*%
X64360000Y-47620000D03*
X64360000Y-41620000D03*
X52360000Y-47620000D03*
X52360000Y-41620000D03*
D11*
%TO.P,SW1,1,A*%
%TO.N,unconnected-(SW1-A-Pad1)*%
X62360000Y-45870000D03*
%TO.P,SW1,2,B*%
%TO.N,/Power/V_IN*%
X58360000Y-45870000D03*
%TO.P,SW1,3,C*%
%TO.N,Net-(D1-A)*%
X54360000Y-45870000D03*
%TD*%
D18*
%TO.P,D2,1,K*%
%TO.N,Net-(D2-K)*%
X70595000Y-47395000D03*
D19*
%TO.P,D2,2,A*%
%TO.N,/Microcontroller with OLED and DHT11/3.3V*%
X68055000Y-47395000D03*
%TD*%
D20*
%TO.P,SW2,*%
%TO.N,*%
X32770000Y-45690000D03*
X39780000Y-45690000D03*
D21*
%TO.P,SW2,1,1*%
%TO.N,/Microcontroller with OLED and DHT11/NRST*%
X34020000Y-43200000D03*
%TO.P,SW2,2,2*%
%TO.N,GND*%
X38520000Y-43200000D03*
%TD*%
D22*
%TO.N,GND*%
X95000000Y-62500000D03*
X95000000Y-57500000D03*
X95000000Y-80000000D03*
X37500000Y-50000000D03*
X47500000Y-52500000D03*
X57500000Y-67500000D03*
X77500000Y-67500000D03*
X32500000Y-75000000D03*
X39900000Y-68900000D03*
X70000000Y-45000000D03*
X55000000Y-85000000D03*
X57500000Y-85000000D03*
X90000000Y-90000000D03*
X35000000Y-57500000D03*
X50000000Y-80000000D03*
X55000000Y-67500000D03*
X55000000Y-77500000D03*
X77500000Y-57500000D03*
X82500000Y-90000000D03*
X65000000Y-45000000D03*
X32500000Y-65000000D03*
X90000000Y-87500000D03*
X85000000Y-85000000D03*
X77500000Y-82500000D03*
X42500000Y-57500000D03*
X42500000Y-47500000D03*
X55000000Y-42500000D03*
X37500000Y-72500000D03*
X62500000Y-42500000D03*
X85000000Y-50000000D03*
X47500000Y-60000000D03*
X92500000Y-90000000D03*
X65000000Y-82500000D03*
X92500000Y-57500000D03*
X47500000Y-75000000D03*
X35000000Y-60000000D03*
X71700000Y-66900000D03*
X80000000Y-67500000D03*
X47500000Y-42500000D03*
X92500000Y-67500000D03*
X59984796Y-92500000D03*
X95000000Y-72500000D03*
X57500000Y-77500000D03*
X42500000Y-90000000D03*
X32500000Y-52500000D03*
X65000000Y-92500000D03*
X52500000Y-85000000D03*
X75000000Y-82500000D03*
X92500000Y-82500000D03*
X92500000Y-85000000D03*
X77500000Y-52500000D03*
X57500000Y-80000000D03*
X35000000Y-80000000D03*
X37500000Y-67500000D03*
X47500000Y-57500000D03*
X60000000Y-77500000D03*
X47500000Y-65000000D03*
X37500000Y-45000000D03*
X90000000Y-82500000D03*
X95000000Y-55000000D03*
X72500000Y-55000000D03*
X45000000Y-62500000D03*
X60000000Y-57500000D03*
X57500000Y-47500000D03*
X82500000Y-52500000D03*
X90000000Y-57500000D03*
X80000000Y-65000000D03*
X40000000Y-42500000D03*
X90000000Y-85000000D03*
X50000000Y-85000000D03*
X45000000Y-65000000D03*
X47500000Y-80000000D03*
X75000000Y-80000000D03*
X52500000Y-67500000D03*
X87500000Y-77500000D03*
X95000000Y-42500000D03*
X42500000Y-52500000D03*
X57500000Y-50000000D03*
X80000000Y-85000000D03*
X90000000Y-62500000D03*
X80000000Y-55000000D03*
X90000000Y-67500000D03*
X50000000Y-90000000D03*
X60000000Y-80000000D03*
X40000000Y-92500000D03*
X80000000Y-90000000D03*
X95000000Y-50000000D03*
X50000000Y-92500000D03*
X50000000Y-75000000D03*
X82500000Y-45000000D03*
X32500000Y-80000000D03*
X82500000Y-47500000D03*
X50000000Y-55000000D03*
X92500000Y-50000000D03*
X95000000Y-92500000D03*
X57500000Y-42500000D03*
X92500000Y-52500000D03*
X75000000Y-87500000D03*
X82500000Y-87500000D03*
X50000000Y-60000000D03*
X60000000Y-47500000D03*
X65010000Y-74710000D03*
X95000000Y-85000000D03*
X65021054Y-62521054D03*
X35000000Y-77500000D03*
X87500000Y-55000000D03*
X90000000Y-52500000D03*
X62500000Y-82500000D03*
X90000000Y-60000000D03*
X52500000Y-62500000D03*
X70000000Y-70000000D03*
X50000000Y-50000000D03*
X77500000Y-42500000D03*
X45000000Y-85000000D03*
X40000000Y-57500000D03*
X80000000Y-47500000D03*
X82500000Y-92500000D03*
X32500000Y-55000000D03*
X92500000Y-55000000D03*
X32500000Y-57500000D03*
X60000000Y-62500000D03*
X35000000Y-82500000D03*
X47500000Y-85000000D03*
X60000000Y-75000000D03*
X72500000Y-42500000D03*
X65000000Y-72500000D03*
X55000000Y-90000000D03*
X50000000Y-70000000D03*
X77500000Y-47500000D03*
X57500000Y-90000000D03*
X82500000Y-42500000D03*
X95000000Y-47500000D03*
X72500000Y-92500000D03*
X62500000Y-62500000D03*
X70000000Y-75000000D03*
X47500000Y-55000000D03*
X95000000Y-77500000D03*
X67500000Y-45000000D03*
X65000000Y-57500000D03*
X62000000Y-67700000D03*
X60000000Y-45000000D03*
X47500000Y-77500000D03*
X50000000Y-52500000D03*
X87500000Y-57500000D03*
X40000000Y-90000000D03*
X32500000Y-92500000D03*
X47500000Y-45000000D03*
X50000000Y-65000000D03*
X77500000Y-87500000D03*
X82500000Y-85000000D03*
X32500000Y-85000000D03*
X57500000Y-92500000D03*
X95000000Y-65000000D03*
X90000000Y-50000000D03*
X77500000Y-85000000D03*
X75000000Y-90000000D03*
X62500000Y-90000000D03*
X62500000Y-77500000D03*
X47500000Y-67500000D03*
X77500000Y-92500000D03*
X75000000Y-57500000D03*
X72500000Y-57500000D03*
X32500000Y-87500000D03*
X85000000Y-92500000D03*
X40000000Y-47500000D03*
X37500000Y-60000000D03*
X92500000Y-60000000D03*
X47500000Y-92500000D03*
X37500000Y-90000000D03*
X95000000Y-82500000D03*
X65000000Y-80000000D03*
X35000000Y-85000000D03*
X35000000Y-75000000D03*
X67500000Y-42500000D03*
X40000000Y-65000000D03*
X40000000Y-52500000D03*
X52500000Y-70000000D03*
X32500000Y-82500000D03*
X80000000Y-82500000D03*
X45000000Y-42500000D03*
X60000000Y-42500000D03*
X90000000Y-55000000D03*
X45000000Y-60000000D03*
X50000000Y-57500000D03*
X85000000Y-57500000D03*
X92500000Y-92500000D03*
X55000000Y-65000000D03*
X62500000Y-50000000D03*
X42500000Y-45000000D03*
X52500000Y-50000000D03*
X75000000Y-92500000D03*
X55000000Y-70000000D03*
X77500000Y-45000000D03*
X67500000Y-50000000D03*
X77500000Y-65000000D03*
X55000000Y-92500000D03*
X47500000Y-90000000D03*
X92500000Y-80000000D03*
X50000000Y-42500000D03*
X67500000Y-92500000D03*
X42500000Y-62500000D03*
X87500000Y-85000000D03*
X70000000Y-90000000D03*
X92500000Y-47500000D03*
X60000000Y-50000000D03*
X35000000Y-87500000D03*
X55000000Y-80000000D03*
X80000000Y-50000000D03*
X70000000Y-42500000D03*
X77500000Y-90000000D03*
X85000000Y-47500000D03*
X32500000Y-90000000D03*
X67500000Y-90000000D03*
X60000000Y-90000000D03*
X95000000Y-45000000D03*
X50000000Y-62500000D03*
X42500000Y-50000000D03*
X50000000Y-77500000D03*
X40000000Y-50000000D03*
X32500000Y-77500000D03*
X65000000Y-90000000D03*
X80000000Y-52500000D03*
X95000000Y-75000000D03*
X75000000Y-42500000D03*
X87500000Y-80000000D03*
X55000000Y-75000000D03*
X40000000Y-55000000D03*
X87500000Y-87500000D03*
X87500000Y-90000000D03*
X75000000Y-85000000D03*
X42500000Y-85000000D03*
X45000000Y-75000000D03*
X72500000Y-90000000D03*
X87500000Y-92500000D03*
X35000000Y-55000000D03*
X92500000Y-62500000D03*
X95000000Y-70000000D03*
X67500000Y-70000000D03*
X80000000Y-42500000D03*
X80000000Y-45000000D03*
X32500000Y-62500000D03*
X35000000Y-67500000D03*
X80000000Y-92500000D03*
X85000000Y-70000000D03*
X35000000Y-90000000D03*
X77500000Y-77500000D03*
X75000000Y-55000000D03*
X72500000Y-45000000D03*
X57500000Y-65000000D03*
X45000000Y-90000000D03*
X45000000Y-47500000D03*
X92500000Y-45000000D03*
X47500000Y-70000000D03*
X42500000Y-42500000D03*
X35000000Y-52500000D03*
X52500000Y-90000000D03*
X42500000Y-55000000D03*
X92500000Y-42500000D03*
X72500000Y-50000000D03*
X50000000Y-67500000D03*
X85000000Y-90000000D03*
X87500000Y-67500000D03*
X32500000Y-72500000D03*
X75000000Y-60000000D03*
X37500000Y-92500000D03*
X35000000Y-50000000D03*
X87500000Y-62500000D03*
X67500000Y-75000000D03*
X35000000Y-72500000D03*
X92500000Y-87500000D03*
X52500000Y-92500000D03*
X70000000Y-92500000D03*
X90000000Y-45000000D03*
X35000000Y-70000000D03*
X80000000Y-70000000D03*
X32500000Y-50000000D03*
X85000000Y-87500000D03*
X52500000Y-80000000D03*
X52500000Y-65000000D03*
X32500000Y-60000000D03*
X32500000Y-70000000D03*
X37500000Y-87500000D03*
X65000000Y-50000000D03*
X32500000Y-67500000D03*
X82500000Y-50000000D03*
X65000000Y-60000000D03*
X37500000Y-65000000D03*
X52500000Y-77500000D03*
X60000000Y-55000000D03*
X85000000Y-45000000D03*
X62500000Y-92500000D03*
X77500000Y-80000000D03*
X35000000Y-65000000D03*
X77500000Y-55000000D03*
X47500000Y-62500000D03*
X90000000Y-92500000D03*
X37500000Y-52500000D03*
X52500000Y-57500000D03*
X95000000Y-52500000D03*
X77500000Y-50000000D03*
X67500000Y-57500000D03*
X95000000Y-67500000D03*
X70500000Y-83200000D03*
X35000000Y-92500000D03*
X90000000Y-47500000D03*
X52500000Y-75000000D03*
X75000000Y-52500000D03*
X80000000Y-62500000D03*
X40000000Y-62500000D03*
X80000000Y-87500000D03*
X75000000Y-50000000D03*
X87500000Y-60000000D03*
X72500000Y-87500000D03*
X52500000Y-60000000D03*
X37500000Y-62500000D03*
X37500000Y-47500000D03*
%TO.N,/Microcontroller with OLED and DHT11/3.3V*%
X73200000Y-65300000D03*
X60000000Y-69800000D03*
X60000000Y-67200000D03*
X74750000Y-66850000D03*
%TD*%
D23*
%TO.N,/Microcontroller with OLED and DHT11/3.3V*%
X73200000Y-65300000D02*
X74750000Y-66850000D01*
X60000000Y-69800000D02*
X60000000Y-67200000D01*
%TD*%
%TA.AperFunction,Conductor*%
%TO.N,GND*%
G36*
X50880098Y-41019685D02*
G01*
X50925853Y-41072489D01*
X50935797Y-41141647D01*
X50930990Y-41162318D01*
X50896447Y-41268627D01*
X50896447Y-41268630D01*
X50859500Y-41501902D01*
X50859500Y-41738097D01*
X50896446Y-41971368D01*
X50969433Y-42195996D01*
X51075295Y-42403760D01*
X51076657Y-42406433D01*
X51215483Y-42597510D01*
X51382490Y-42764517D01*
X51573567Y-42903343D01*
X51672991Y-42954002D01*
X51784003Y-43010566D01*
X51784005Y-43010566D01*
X51784008Y-43010568D01*
X51904412Y-43049689D01*
X52008631Y-43083553D01*
X52241903Y-43120500D01*
X52241908Y-43120500D01*
X52478097Y-43120500D01*
X52711368Y-43083553D01*
X52935992Y-43010568D01*
X53146433Y-42903343D01*
X53337510Y-42764517D01*
X53504517Y-42597510D01*
X53643343Y-42406433D01*
X53750568Y-42195992D01*
X53823553Y-41971368D01*
X53844327Y-41840208D01*
X53860500Y-41738097D01*
X53860500Y-41501902D01*
X53839005Y-41366197D01*
X53823553Y-41268632D01*
X53823552Y-41268628D01*
X53823552Y-41268627D01*
X53789010Y-41162318D01*
X53787015Y-41092477D01*
X53823095Y-41032644D01*
X53885796Y-41001816D01*
X53906941Y-41000000D01*
X62813059Y-41000000D01*
X62880098Y-41019685D01*
X62925853Y-41072489D01*
X62935797Y-41141647D01*
X62930990Y-41162318D01*
X62896447Y-41268627D01*
X62896447Y-41268630D01*
X62859500Y-41501902D01*
X62859500Y-41738097D01*
X62896446Y-41971368D01*
X62969433Y-42195996D01*
X63075295Y-42403760D01*
X63076657Y-42406433D01*
X63215483Y-42597510D01*
X63382490Y-42764517D01*
X63573567Y-42903343D01*
X63672991Y-42954002D01*
X63784003Y-43010566D01*
X63784005Y-43010566D01*
X63784008Y-43010568D01*
X63904412Y-43049689D01*
X64008631Y-43083553D01*
X64241903Y-43120500D01*
X64241908Y-43120500D01*
X64478097Y-43120500D01*
X64711368Y-43083553D01*
X64935992Y-43010568D01*
X65146433Y-42903343D01*
X65337510Y-42764517D01*
X65488274Y-42613753D01*
X83200000Y-42613753D01*
X83200000Y-42826246D01*
X83233242Y-43036127D01*
X83233242Y-43036130D01*
X83298904Y-43238217D01*
X83395375Y-43427550D01*
X83434728Y-43481716D01*
X84067037Y-42849408D01*
X84084075Y-42912993D01*
X84149901Y-43027007D01*
X84242993Y-43120099D01*
X84357007Y-43185925D01*
X84420590Y-43202962D01*
X83788282Y-43835269D01*
X83788282Y-43835270D01*
X83842449Y-43874624D01*
X84031782Y-43971095D01*
X84233870Y-44036757D01*
X84443754Y-44070000D01*
X84656246Y-44070000D01*
X84866127Y-44036757D01*
X84866130Y-44036757D01*
X85068217Y-43971095D01*
X85257554Y-43874622D01*
X85311716Y-43835270D01*
X85311717Y-43835270D01*
X84679408Y-43202962D01*
X84742993Y-43185925D01*
X84857007Y-43120099D01*
X84950099Y-43027007D01*
X85015925Y-42912993D01*
X85032962Y-42849408D01*
X85665270Y-43481717D01*
X85665270Y-43481716D01*
X85704622Y-43427555D01*
X85709232Y-43418507D01*
X85757205Y-43367709D01*
X85825025Y-43350912D01*
X85891161Y-43373447D01*
X85930204Y-43418504D01*
X85934949Y-43427817D01*
X86059890Y-43599786D01*
X86210213Y-43750109D01*
X86382179Y-43875048D01*
X86382181Y-43875049D01*
X86382184Y-43875051D01*
X86571588Y-43971557D01*
X86773757Y-44037246D01*
X86983713Y-44070500D01*
X86983714Y-44070500D01*
X87196286Y-44070500D01*
X87196287Y-44070500D01*
X87406243Y-44037246D01*
X87608412Y-43971557D01*
X87797816Y-43875051D01*
X87932411Y-43777263D01*
X87969786Y-43750109D01*
X87969788Y-43750106D01*
X87969792Y-43750104D01*
X88120104Y-43599792D01*
X88120106Y-43599788D01*
X88120109Y-43599786D01*
X88245048Y-43427820D01*
X88245050Y-43427817D01*
X88245051Y-43427816D01*
X88249514Y-43419054D01*
X88297488Y-43368259D01*
X88365308Y-43351463D01*
X88431444Y-43373999D01*
X88470486Y-43419056D01*
X88474951Y-43427820D01*
X88599890Y-43599786D01*
X88750213Y-43750109D01*
X88922179Y-43875048D01*
X88922181Y-43875049D01*
X88922184Y-43875051D01*
X89111588Y-43971557D01*
X89313757Y-44037246D01*
X89523713Y-44070500D01*
X89523714Y-44070500D01*
X89736286Y-44070500D01*
X89736287Y-44070500D01*
X89946243Y-44037246D01*
X90148412Y-43971557D01*
X90337816Y-43875051D01*
X90472411Y-43777263D01*
X90509786Y-43750109D01*
X90509788Y-43750106D01*
X90509792Y-43750104D01*
X90660104Y-43599792D01*
X90660106Y-43599788D01*
X90660109Y-43599786D01*
X90785048Y-43427820D01*
X90785050Y-43427817D01*
X90785051Y-43427816D01*
X90881557Y-43238412D01*
X90947246Y-43036243D01*
X90980500Y-42826287D01*
X90980500Y-42613713D01*
X90947246Y-42403757D01*
X90881557Y-42201588D01*
X90785051Y-42012184D01*
X90785049Y-42012181D01*
X90785048Y-42012179D01*
X90660109Y-41840213D01*
X90509786Y-41689890D01*
X90337820Y-41564951D01*
X90148414Y-41468444D01*
X90148413Y-41468443D01*
X90148412Y-41468443D01*
X89946243Y-41402754D01*
X89946241Y-41402753D01*
X89946240Y-41402753D01*
X89784957Y-41377208D01*
X89736287Y-41369500D01*
X89523713Y-41369500D01*
X89475042Y-41377208D01*
X89313760Y-41402753D01*
X89111585Y-41468444D01*
X88922179Y-41564951D01*
X88750213Y-41689890D01*
X88599890Y-41840213D01*
X88474949Y-42012182D01*
X88470484Y-42020946D01*
X88422509Y-42071742D01*
X88354688Y-42088536D01*
X88288553Y-42065998D01*
X88249516Y-42020946D01*
X88245050Y-42012182D01*
X88120109Y-41840213D01*
X87969786Y-41689890D01*
X87797820Y-41564951D01*
X87608414Y-41468444D01*
X87608413Y-41468443D01*
X87608412Y-41468443D01*
X87406243Y-41402754D01*
X87406241Y-41402753D01*
X87406240Y-41402753D01*
X87244957Y-41377208D01*
X87196287Y-41369500D01*
X86983713Y-41369500D01*
X86935042Y-41377208D01*
X86773760Y-41402753D01*
X86571585Y-41468444D01*
X86382179Y-41564951D01*
X86210213Y-41689890D01*
X86059890Y-41840213D01*
X85934949Y-42012182D01*
X85930202Y-42021499D01*
X85882227Y-42072293D01*
X85814405Y-42089087D01*
X85748271Y-42066548D01*
X85709234Y-42021495D01*
X85704626Y-42012452D01*
X85665270Y-41958282D01*
X85665269Y-41958282D01*
X85032962Y-42590590D01*
X85015925Y-42527007D01*
X84950099Y-42412993D01*
X84857007Y-42319901D01*
X84742993Y-42254075D01*
X84679409Y-42237037D01*
X85311716Y-41604728D01*
X85257550Y-41565375D01*
X85068217Y-41468904D01*
X84866129Y-41403242D01*
X84656246Y-41370000D01*
X84443754Y-41370000D01*
X84233872Y-41403242D01*
X84233869Y-41403242D01*
X84031782Y-41468904D01*
X83842439Y-41565380D01*
X83788282Y-41604727D01*
X83788282Y-41604728D01*
X84420591Y-42237037D01*
X84357007Y-42254075D01*
X84242993Y-42319901D01*
X84149901Y-42412993D01*
X84084075Y-42527007D01*
X84067037Y-42590591D01*
X83434728Y-41958282D01*
X83434727Y-41958282D01*
X83395380Y-42012439D01*
X83298904Y-42201782D01*
X83233242Y-42403869D01*
X83233242Y-42403872D01*
X83200000Y-42613753D01*
X65488274Y-42613753D01*
X65504517Y-42597510D01*
X65643343Y-42406433D01*
X65750568Y-42195992D01*
X65823553Y-41971368D01*
X65844327Y-41840208D01*
X65860500Y-41738097D01*
X65860500Y-41501902D01*
X65839005Y-41366197D01*
X65823553Y-41268632D01*
X65823552Y-41268628D01*
X65823552Y-41268627D01*
X65789010Y-41162318D01*
X65787015Y-41092477D01*
X65823095Y-41032644D01*
X65885796Y-41001816D01*
X65906941Y-41000000D01*
X97456000Y-41000000D01*
X97523039Y-41019685D01*
X97568794Y-41072489D01*
X97580000Y-41124000D01*
X97580000Y-58863634D01*
X97560315Y-58930673D01*
X97507511Y-58976428D01*
X97438353Y-58986372D01*
X97374797Y-58957347D01*
X97368319Y-58951315D01*
X97262743Y-58845739D01*
X97262736Y-58845733D01*
X97070293Y-58698067D01*
X97070292Y-58698066D01*
X97070289Y-58698064D01*
X96871105Y-58583065D01*
X96860214Y-58576777D01*
X96860205Y-58576773D01*
X96636104Y-58483947D01*
X96401785Y-58421161D01*
X96161289Y-58389500D01*
X96161288Y-58389500D01*
X95918712Y-58389500D01*
X95918711Y-58389500D01*
X95678214Y-58421161D01*
X95443895Y-58483947D01*
X95219794Y-58576773D01*
X95219785Y-58576777D01*
X95009706Y-58698067D01*
X94817263Y-58845733D01*
X94817256Y-58845739D01*
X94645739Y-59017256D01*
X94645733Y-59017263D01*
X94498067Y-59209706D01*
X94376777Y-59419785D01*
X94376773Y-59419794D01*
X94283947Y-59643895D01*
X94221161Y-59878214D01*
X94189500Y-60118711D01*
X94189500Y-60361288D01*
X94221161Y-60601785D01*
X94283947Y-60836104D01*
X94304543Y-60885826D01*
X94376776Y-61060212D01*
X94498064Y-61270289D01*
X94498066Y-61270292D01*
X94498067Y-61270293D01*
X94645733Y-61462736D01*
X94645739Y-61462743D01*
X94817256Y-61634260D01*
X94817262Y-61634265D01*
X95009711Y-61781936D01*
X95219788Y-61903224D01*
X95443900Y-61996054D01*
X95678211Y-62058838D01*
X95858586Y-62082584D01*
X95918711Y-62090500D01*
X95918712Y-62090500D01*
X96161289Y-62090500D01*
X96209388Y-62084167D01*
X96401789Y-62058838D01*
X96636100Y-61996054D01*
X96860212Y-61903224D01*
X97070289Y-61781936D01*
X97262738Y-61634265D01*
X97290832Y-61606171D01*
X97368319Y-61528685D01*
X97429642Y-61495200D01*
X97499334Y-61500184D01*
X97555267Y-61542056D01*
X97579684Y-61607520D01*
X97580000Y-61616366D01*
X97580000Y-86803634D01*
X97560315Y-86870673D01*
X97507511Y-86916428D01*
X97438353Y-86926372D01*
X97374797Y-86897347D01*
X97368319Y-86891315D01*
X97262743Y-86785739D01*
X97262736Y-86785733D01*
X97070293Y-86638067D01*
X97070292Y-86638066D01*
X97070289Y-86638064D01*
X96860212Y-86516776D01*
X96860205Y-86516773D01*
X96636104Y-86423947D01*
X96401785Y-86361161D01*
X96161289Y-86329500D01*
X96161288Y-86329500D01*
X95918712Y-86329500D01*
X95918711Y-86329500D01*
X95678214Y-86361161D01*
X95443895Y-86423947D01*
X95219794Y-86516773D01*
X95219785Y-86516777D01*
X95009706Y-86638067D01*
X94817263Y-86785733D01*
X94817256Y-86785739D01*
X94645739Y-86957256D01*
X94645733Y-86957263D01*
X94498067Y-87149706D01*
X94376777Y-87359785D01*
X94376773Y-87359794D01*
X94283947Y-87583895D01*
X94221161Y-87818214D01*
X94189500Y-88058711D01*
X94189500Y-88301288D01*
X94221161Y-88541785D01*
X94283947Y-88776104D01*
X94376773Y-89000205D01*
X94376776Y-89000212D01*
X94498064Y-89210289D01*
X94498066Y-89210292D01*
X94498067Y-89210293D01*
X94645733Y-89402736D01*
X94645739Y-89402743D01*
X94817256Y-89574260D01*
X94817262Y-89574265D01*
X95009711Y-89721936D01*
X95219788Y-89843224D01*
X95443900Y-89936054D01*
X95678211Y-89998838D01*
X95858586Y-90022584D01*
X95918711Y-90030500D01*
X95918712Y-90030500D01*
X96161289Y-90030500D01*
X96209388Y-90024167D01*
X96401789Y-89998838D01*
X96636100Y-89936054D01*
X96860212Y-89843224D01*
X97070289Y-89721936D01*
X97262738Y-89574265D01*
X97289483Y-89547520D01*
X97368319Y-89468685D01*
X97429642Y-89435200D01*
X97499334Y-89440184D01*
X97555267Y-89482056D01*
X97579684Y-89547520D01*
X97580000Y-89556366D01*
X97580000Y-94676000D01*
X97560315Y-94743039D01*
X97507511Y-94788794D01*
X97456000Y-94800000D01*
X45346366Y-94800000D01*
X45279327Y-94780315D01*
X45233572Y-94727511D01*
X45223628Y-94658353D01*
X45252653Y-94594797D01*
X45258685Y-94588319D01*
X45364260Y-94482743D01*
X45364265Y-94482738D01*
X45511936Y-94290289D01*
X45633224Y-94080212D01*
X45726054Y-93856100D01*
X45788838Y-93621789D01*
X45820500Y-93381288D01*
X45820500Y-93138712D01*
X45788838Y-92898211D01*
X45726054Y-92663900D01*
X45633224Y-92439788D01*
X45511936Y-92229711D01*
X45364265Y-92037262D01*
X45364260Y-92037256D01*
X45192743Y-91865739D01*
X45192736Y-91865733D01*
X45000293Y-91718067D01*
X45000292Y-91718066D01*
X45000289Y-91718064D01*
X44790212Y-91596776D01*
X44790205Y-91596773D01*
X44566104Y-91503947D01*
X44331785Y-91441161D01*
X44091289Y-91409500D01*
X44091288Y-91409500D01*
X43848712Y-91409500D01*
X43848711Y-91409500D01*
X43608214Y-91441161D01*
X43373895Y-91503947D01*
X43149794Y-91596773D01*
X43149785Y-91596777D01*
X42939706Y-91718067D01*
X42747263Y-91865733D01*
X42747256Y-91865739D01*
X42575739Y-92037256D01*
X42575733Y-92037263D01*
X42428067Y-92229706D01*
X42306777Y-92439785D01*
X42306773Y-92439794D01*
X42213947Y-92663895D01*
X42151161Y-92898214D01*
X42119500Y-93138711D01*
X42119500Y-93381288D01*
X42151161Y-93621785D01*
X42213947Y-93856104D01*
X42306773Y-94080205D01*
X42306776Y-94080212D01*
X42428064Y-94290289D01*
X42428066Y-94290292D01*
X42428067Y-94290293D01*
X42575733Y-94482736D01*
X42575739Y-94482743D01*
X42681315Y-94588319D01*
X42714800Y-94649642D01*
X42709816Y-94719334D01*
X42667944Y-94775267D01*
X42602480Y-94799684D01*
X42593634Y-94800000D01*
X31124000Y-94800000D01*
X31056961Y-94780315D01*
X31011206Y-94727511D01*
X31000000Y-94676000D01*
X31000000Y-75902135D01*
X39579500Y-75902135D01*
X39579500Y-77697870D01*
X39579501Y-77697876D01*
X39585908Y-77757483D01*
X39636202Y-77892328D01*
X39636206Y-77892335D01*
X39722452Y-78007544D01*
X39722455Y-78007547D01*
X39837664Y-78093793D01*
X39837671Y-78093797D01*
X39969082Y-78142810D01*
X40025016Y-78184681D01*
X40049433Y-78250145D01*
X40034582Y-78318418D01*
X40013431Y-78346673D01*
X39899889Y-78460215D01*
X39774951Y-78632179D01*
X39678444Y-78821585D01*
X39612753Y-79023760D01*
X39579500Y-79233713D01*
X39579500Y-79446286D01*
X39612753Y-79656239D01*
X39678444Y-79858414D01*
X39774951Y-80047820D01*
X39899890Y-80219786D01*
X40050213Y-80370109D01*
X40222182Y-80495050D01*
X40230946Y-80499516D01*
X40281742Y-80547491D01*
X40298536Y-80615312D01*
X40275998Y-80681447D01*
X40230946Y-80720484D01*
X40222182Y-80724949D01*
X40050213Y-80849890D01*
X39899890Y-81000213D01*
X39774951Y-81172179D01*
X39678444Y-81361585D01*
X39612753Y-81563760D01*
X39579500Y-81773713D01*
X39579500Y-81986286D01*
X39612753Y-82196239D01*
X39678444Y-82398414D01*
X39774951Y-82587820D01*
X39899890Y-82759786D01*
X40050213Y-82910109D01*
X40222179Y-83035048D01*
X40222181Y-83035049D01*
X40222184Y-83035051D01*
X40231493Y-83039794D01*
X40282290Y-83087766D01*
X40299087Y-83155587D01*
X40276552Y-83221722D01*
X40231505Y-83260760D01*
X40222446Y-83265376D01*
X40222440Y-83265380D01*
X40168282Y-83304727D01*
X40168282Y-83304728D01*
X40800591Y-83937037D01*
X40737007Y-83954075D01*
X40622993Y-84019901D01*
X40529901Y-84112993D01*
X40464075Y-84227007D01*
X40447037Y-84290591D01*
X39814728Y-83658282D01*
X39814727Y-83658282D01*
X39775380Y-83712439D01*
X39678904Y-83901782D01*
X39613242Y-84103869D01*
X39613242Y-84103872D01*
X39580000Y-84313753D01*
X39580000Y-84526246D01*
X39613242Y-84736127D01*
X39613242Y-84736130D01*
X39678904Y-84938217D01*
X39775375Y-85127550D01*
X39814728Y-85181716D01*
X40447037Y-84549408D01*
X40464075Y-84612993D01*
X40529901Y-84727007D01*
X40622993Y-84820099D01*
X40737007Y-84885925D01*
X40800590Y-84902962D01*
X40168282Y-85535269D01*
X40168282Y-85535270D01*
X40222449Y-85574624D01*
X40411782Y-85671095D01*
X40613870Y-85736757D01*
X40823754Y-85770000D01*
X41036246Y-85770000D01*
X41246127Y-85736757D01*
X41246130Y-85736757D01*
X41448217Y-85671095D01*
X41637554Y-85574622D01*
X41691716Y-85535270D01*
X41691717Y-85535270D01*
X41059408Y-84902962D01*
X41122993Y-84885925D01*
X41237007Y-84820099D01*
X41330099Y-84727007D01*
X41395925Y-84612993D01*
X41412962Y-84549409D01*
X42045270Y-85181717D01*
X42045270Y-85181716D01*
X42084622Y-85127554D01*
X42181096Y-84938215D01*
X42199907Y-84880321D01*
X42199907Y-84880320D01*
X42246757Y-84736130D01*
X42246757Y-84736127D01*
X42280000Y-84526246D01*
X42280000Y-84313753D01*
X42246757Y-84103872D01*
X42246757Y-84103869D01*
X42181094Y-83901780D01*
X42167524Y-83875147D01*
X42167523Y-83875146D01*
X42140522Y-83822155D01*
X58840000Y-83822155D01*
X58840000Y-84470000D01*
X59756988Y-84470000D01*
X59724075Y-84527007D01*
X59690000Y-84654174D01*
X59690000Y-84785826D01*
X59724075Y-84912993D01*
X59756988Y-84970000D01*
X58840000Y-84970000D01*
X58840000Y-85617844D01*
X58846401Y-85677372D01*
X58846403Y-85677379D01*
X58896645Y-85812086D01*
X58896649Y-85812093D01*
X58982809Y-85927187D01*
X58982812Y-85927190D01*
X59097906Y-86013350D01*
X59097913Y-86013354D01*
X59232620Y-86063596D01*
X59232627Y-86063598D01*
X59292155Y-86069999D01*
X59292172Y-86070000D01*
X59940000Y-86070000D01*
X59940000Y-85153012D01*
X59997007Y-85185925D01*
X60124174Y-85220000D01*
X60255826Y-85220000D01*
X60382993Y-85185925D01*
X60440000Y-85153012D01*
X60440000Y-86070000D01*
X61087828Y-86070000D01*
X61087844Y-86069999D01*
X61147372Y-86063598D01*
X61147379Y-86063596D01*
X61282086Y-86013354D01*
X61282093Y-86013350D01*
X61397187Y-85927190D01*
X61397190Y-85927187D01*
X61483350Y-85812093D01*
X61483354Y-85812086D01*
X61532422Y-85680529D01*
X61574293Y-85624595D01*
X61639757Y-85600178D01*
X61708030Y-85615030D01*
X61736285Y-85636181D01*
X61850213Y-85750109D01*
X62022179Y-85875048D01*
X62022181Y-85875049D01*
X62022184Y-85875051D01*
X62211588Y-85971557D01*
X62413757Y-86037246D01*
X62623713Y-86070500D01*
X62623714Y-86070500D01*
X62836286Y-86070500D01*
X62836287Y-86070500D01*
X63046243Y-86037246D01*
X63248412Y-85971557D01*
X63437816Y-85875051D01*
X63524471Y-85812093D01*
X63609786Y-85750109D01*
X63609788Y-85750106D01*
X63609792Y-85750104D01*
X63760104Y-85599792D01*
X63760106Y-85599788D01*
X63760109Y-85599786D01*
X63885048Y-85427820D01*
X63885047Y-85427820D01*
X63885051Y-85427816D01*
X63889514Y-85419054D01*
X63937488Y-85368259D01*
X64005308Y-85351463D01*
X64071444Y-85373999D01*
X64110486Y-85419056D01*
X64114951Y-85427820D01*
X64239890Y-85599786D01*
X64390213Y-85750109D01*
X64562179Y-85875048D01*
X64562181Y-85875049D01*
X64562184Y-85875051D01*
X64751588Y-85971557D01*
X64953757Y-86037246D01*
X65163713Y-86070500D01*
X65163714Y-86070500D01*
X65376286Y-86070500D01*
X65376287Y-86070500D01*
X65586243Y-86037246D01*
X65788412Y-85971557D01*
X65977816Y-85875051D01*
X66064471Y-85812093D01*
X66149786Y-85750109D01*
X66149788Y-85750106D01*
X66149792Y-85750104D01*
X66300104Y-85599792D01*
X66300106Y-85599788D01*
X66300109Y-85599786D01*
X66425048Y-85427820D01*
X66425047Y-85427820D01*
X66425051Y-85427816D01*
X66429514Y-85419054D01*
X66477488Y-85368259D01*
X66545308Y-85351463D01*
X66611444Y-85373999D01*
X66650486Y-85419056D01*
X66654951Y-85427820D01*
X66779890Y-85599786D01*
X66930213Y-85750109D01*
X67102179Y-85875048D01*
X67102181Y-85875049D01*
X67102184Y-85875051D01*
X67291588Y-85971557D01*
X67493757Y-86037246D01*
X67703713Y-86070500D01*
X67703714Y-86070500D01*
X67916286Y-86070500D01*
X67916287Y-86070500D01*
X68126243Y-86037246D01*
X68328412Y-85971557D01*
X68517816Y-85875051D01*
X68604471Y-85812093D01*
X68689786Y-85750109D01*
X68689788Y-85750106D01*
X68689792Y-85750104D01*
X68840104Y-85599792D01*
X68840106Y-85599788D01*
X68840109Y-85599786D01*
X68965048Y-85427820D01*
X68965047Y-85427820D01*
X68965051Y-85427816D01*
X69061557Y-85238412D01*
X69127246Y-85036243D01*
X69160500Y-84826287D01*
X69160500Y-84613713D01*
X69127246Y-84403757D01*
X69061557Y-84201588D01*
X68965051Y-84012184D01*
X68965049Y-84012181D01*
X68965048Y-84012179D01*
X68840109Y-83840213D01*
X68689786Y-83689890D01*
X68517820Y-83564951D01*
X68328414Y-83468444D01*
X68328413Y-83468443D01*
X68328412Y-83468443D01*
X68126243Y-83402754D01*
X68126241Y-83402753D01*
X68126240Y-83402753D01*
X67964957Y-83377208D01*
X67916287Y-83369500D01*
X67703713Y-83369500D01*
X67655042Y-83377208D01*
X67493760Y-83402753D01*
X67291585Y-83468444D01*
X67102179Y-83564951D01*
X66930213Y-83689890D01*
X66779890Y-83840213D01*
X66654949Y-84012182D01*
X66650484Y-84020946D01*
X66602509Y-84071742D01*
X66534688Y-84088536D01*
X66468553Y-84065998D01*
X66429516Y-84020946D01*
X66425050Y-84012182D01*
X66300109Y-83840213D01*
X66149786Y-83689890D01*
X65977820Y-83564951D01*
X65788414Y-83468444D01*
X65788413Y-83468443D01*
X65788412Y-83468443D01*
X65586243Y-83402754D01*
X65586241Y-83402753D01*
X65586240Y-83402753D01*
X65424957Y-83377208D01*
X65376287Y-83369500D01*
X65163713Y-83369500D01*
X65115042Y-83377208D01*
X64953760Y-83402753D01*
X64751585Y-83468444D01*
X64562179Y-83564951D01*
X64390213Y-83689890D01*
X64239890Y-83840213D01*
X64114949Y-84012182D01*
X64110484Y-84020946D01*
X64062509Y-84071742D01*
X63994688Y-84088536D01*
X63928553Y-84065998D01*
X63889516Y-84020946D01*
X63885050Y-84012182D01*
X63760109Y-83840213D01*
X63609786Y-83689890D01*
X63437820Y-83564951D01*
X63248414Y-83468444D01*
X63248413Y-83468443D01*
X63248412Y-83468443D01*
X63046243Y-83402754D01*
X63046241Y-83402753D01*
X63046240Y-83402753D01*
X62884957Y-83377208D01*
X62836287Y-83369500D01*
X62623713Y-83369500D01*
X62575042Y-83377208D01*
X62413760Y-83402753D01*
X62211585Y-83468444D01*
X62022179Y-83564951D01*
X61850215Y-83689889D01*
X61736285Y-83803819D01*
X61674962Y-83837303D01*
X61605270Y-83832319D01*
X61549337Y-83790447D01*
X61532422Y-83759470D01*
X61483354Y-83627913D01*
X61483350Y-83627906D01*
X61397190Y-83512812D01*
X61397187Y-83512809D01*
X61282093Y-83426649D01*
X61282086Y-83426645D01*
X61147379Y-83376403D01*
X61147372Y-83376401D01*
X61087844Y-83370000D01*
X60440000Y-83370000D01*
X60440000Y-84286988D01*
X60382993Y-84254075D01*
X60255826Y-84220000D01*
X60124174Y-84220000D01*
X59997007Y-84254075D01*
X59940000Y-84286988D01*
X59940000Y-83370000D01*
X59292155Y-83370000D01*
X59232627Y-83376401D01*
X59232620Y-83376403D01*
X59097913Y-83426645D01*
X59097906Y-83426649D01*
X58982812Y-83512809D01*
X58982809Y-83512812D01*
X58896649Y-83627906D01*
X58896645Y-83627913D01*
X58846403Y-83762620D01*
X58846401Y-83762627D01*
X58840000Y-83822155D01*
X42140522Y-83822155D01*
X42084624Y-83712449D01*
X42045270Y-83658282D01*
X42045269Y-83658282D01*
X41412962Y-84290590D01*
X41395925Y-84227007D01*
X41330099Y-84112993D01*
X41237007Y-84019901D01*
X41122993Y-83954075D01*
X41059409Y-83937037D01*
X41691716Y-83304728D01*
X41637547Y-83265373D01*
X41637547Y-83265372D01*
X41628500Y-83260763D01*
X41577706Y-83212788D01*
X41560912Y-83144966D01*
X41583451Y-83078832D01*
X41628508Y-83039793D01*
X41637816Y-83035051D01*
X41717007Y-82977515D01*
X41809786Y-82910109D01*
X41809788Y-82910106D01*
X41809792Y-82910104D01*
X41960104Y-82759792D01*
X41960106Y-82759788D01*
X41960109Y-82759786D01*
X42085048Y-82587820D01*
X42085047Y-82587820D01*
X42085051Y-82587816D01*
X42181557Y-82398412D01*
X42247246Y-82196243D01*
X42280500Y-81986287D01*
X42280500Y-81773713D01*
X42247246Y-81563757D01*
X42181557Y-81361588D01*
X42085051Y-81172184D01*
X42085049Y-81172181D01*
X42085048Y-81172179D01*
X41960109Y-81000213D01*
X41809786Y-80849890D01*
X41637820Y-80724951D01*
X41637115Y-80724591D01*
X41629054Y-80720485D01*
X41578259Y-80672512D01*
X41561463Y-80604692D01*
X41583999Y-80538556D01*
X41629054Y-80499515D01*
X41637816Y-80495051D01*
X41659789Y-80479086D01*
X41809786Y-80370109D01*
X41809788Y-80370106D01*
X41809792Y-80370104D01*
X41960104Y-80219792D01*
X41960106Y-80219788D01*
X41960109Y-80219786D01*
X42085048Y-80047820D01*
X42085047Y-80047820D01*
X42085051Y-80047816D01*
X42181557Y-79858412D01*
X42247246Y-79656243D01*
X42280500Y-79446287D01*
X42280500Y-79233713D01*
X42247246Y-79023757D01*
X42181557Y-78821588D01*
X42085051Y-78632184D01*
X42085049Y-78632181D01*
X42085048Y-78632179D01*
X41960109Y-78460213D01*
X41846569Y-78346673D01*
X41813084Y-78285350D01*
X41818068Y-78215658D01*
X41859940Y-78159725D01*
X41890915Y-78142810D01*
X42022331Y-78093796D01*
X42137546Y-78007546D01*
X42223796Y-77892331D01*
X42274091Y-77757483D01*
X42280500Y-77697873D01*
X42280499Y-75902128D01*
X42274091Y-75842517D01*
X42223796Y-75707669D01*
X42223795Y-75707668D01*
X42223793Y-75707664D01*
X42137547Y-75592455D01*
X42137544Y-75592452D01*
X42022335Y-75506206D01*
X42022328Y-75506202D01*
X41887482Y-75455908D01*
X41887483Y-75455908D01*
X41827883Y-75449501D01*
X41827881Y-75449500D01*
X41827873Y-75449500D01*
X41827864Y-75449500D01*
X40032129Y-75449500D01*
X40032123Y-75449501D01*
X39972516Y-75455908D01*
X39837671Y-75506202D01*
X39837664Y-75506206D01*
X39722455Y-75592452D01*
X39722452Y-75592455D01*
X39636206Y-75707664D01*
X39636202Y-75707671D01*
X39585908Y-75842517D01*
X39579501Y-75902116D01*
X39579501Y-75902123D01*
X39579500Y-75902135D01*
X31000000Y-75902135D01*
X31000000Y-67110634D01*
X58864500Y-67110634D01*
X58864500Y-69889365D01*
X58892460Y-70065898D01*
X58892460Y-70065901D01*
X58947689Y-70235878D01*
X58947691Y-70235881D01*
X59028833Y-70395132D01*
X59133889Y-70539728D01*
X59260272Y-70666111D01*
X59404868Y-70771167D01*
X59564119Y-70852309D01*
X59564121Y-70852310D01*
X59722670Y-70903825D01*
X59734103Y-70907540D01*
X59910634Y-70935500D01*
X59910635Y-70935500D01*
X60089365Y-70935500D01*
X60089366Y-70935500D01*
X60265897Y-70907540D01*
X60265900Y-70907539D01*
X60265901Y-70907539D01*
X60435878Y-70852310D01*
X60435878Y-70852309D01*
X60435881Y-70852309D01*
X60595132Y-70771167D01*
X60739728Y-70666111D01*
X60866111Y-70539728D01*
X60971167Y-70395132D01*
X61052309Y-70235881D01*
X61107540Y-70065897D01*
X61135500Y-69889366D01*
X61135500Y-67110634D01*
X61107540Y-66934103D01*
X61107539Y-66934099D01*
X61107539Y-66934098D01*
X61052310Y-66764121D01*
X61052308Y-66764118D01*
X61050531Y-66760629D01*
X60971167Y-66604868D01*
X60866111Y-66460272D01*
X60739728Y-66333889D01*
X60595132Y-66228833D01*
X60435881Y-66147691D01*
X60435878Y-66147689D01*
X60265899Y-66092460D01*
X60148209Y-66073820D01*
X60089366Y-66064500D01*
X59910634Y-66064500D01*
X59851790Y-66073820D01*
X59734101Y-66092460D01*
X59734098Y-66092460D01*
X59564121Y-66147689D01*
X59564118Y-66147691D01*
X59404867Y-66228833D01*
X59260270Y-66333890D01*
X59133890Y-66460270D01*
X59028833Y-66604867D01*
X58947691Y-66764118D01*
X58947689Y-66764121D01*
X58892460Y-66934098D01*
X58892460Y-66934101D01*
X58864500Y-67110634D01*
X31000000Y-67110634D01*
X31000000Y-65210629D01*
X72064500Y-65210629D01*
X72064500Y-65389370D01*
X72092458Y-65565891D01*
X72092459Y-65565897D01*
X72134441Y-65695101D01*
X72147692Y-65735884D01*
X72228833Y-65895131D01*
X72333889Y-66039728D01*
X74010272Y-67716111D01*
X74154869Y-67821167D01*
X74230109Y-67859503D01*
X74314115Y-67902307D01*
X74314117Y-67902307D01*
X74314120Y-67902309D01*
X74484103Y-67957541D01*
X74582175Y-67973073D01*
X74660630Y-67985500D01*
X74660634Y-67985500D01*
X74839370Y-67985500D01*
X74909978Y-67974316D01*
X75015897Y-67957541D01*
X75185880Y-67902309D01*
X75345131Y-67821167D01*
X75489728Y-67716111D01*
X75616111Y-67589728D01*
X75721167Y-67445131D01*
X75802309Y-67285880D01*
X75857541Y-67115897D01*
X75874316Y-67009978D01*
X75885500Y-66939370D01*
X75885500Y-66760629D01*
X75871520Y-66672368D01*
X75857541Y-66584103D01*
X75802309Y-66414120D01*
X75802307Y-66414117D01*
X75802307Y-66414115D01*
X75721166Y-66254868D01*
X75616111Y-66110272D01*
X73939728Y-64433889D01*
X73795131Y-64328833D01*
X73635884Y-64247692D01*
X73595101Y-64234441D01*
X73465897Y-64192459D01*
X73465891Y-64192458D01*
X73289370Y-64164500D01*
X73289366Y-64164500D01*
X73110634Y-64164500D01*
X73110630Y-64164500D01*
X72934108Y-64192458D01*
X72934106Y-64192458D01*
X72934103Y-64192459D01*
X72849111Y-64220075D01*
X72764115Y-64247692D01*
X72604868Y-64328833D01*
X72522370Y-64388771D01*
X72460272Y-64433889D01*
X72460270Y-64433891D01*
X72460269Y-64433891D01*
X72333891Y-64560269D01*
X72333891Y-64560270D01*
X72333889Y-64560272D01*
X72288771Y-64622370D01*
X72228833Y-64704868D01*
X72147692Y-64864115D01*
X72120075Y-64949111D01*
X72092459Y-65034103D01*
X72092458Y-65034106D01*
X72092458Y-65034108D01*
X72064500Y-65210629D01*
X31000000Y-65210629D01*
X31000000Y-63936289D01*
X54019861Y-63936289D01*
X54019862Y-63936290D01*
X54026071Y-63940801D01*
X54180342Y-64019408D01*
X54345015Y-64072914D01*
X54516029Y-64100000D01*
X54689171Y-64100000D01*
X54860184Y-64072914D01*
X55024857Y-64019408D01*
X55179125Y-63940803D01*
X55185336Y-63936289D01*
X55185337Y-63936289D01*
X54602601Y-63353553D01*
X54602600Y-63353553D01*
X54019861Y-63936289D01*
X31000000Y-63936289D01*
X31000000Y-62913428D01*
X53502600Y-62913428D01*
X53502600Y-63086571D01*
X53529685Y-63257584D01*
X53583192Y-63422259D01*
X53661796Y-63576525D01*
X53666309Y-63582736D01*
X53666309Y-63582737D01*
X54249046Y-63000001D01*
X54249046Y-62999999D01*
X54209551Y-62960504D01*
X54302600Y-62960504D01*
X54302600Y-63039496D01*
X54323044Y-63115796D01*
X54362540Y-63184205D01*
X54418395Y-63240060D01*
X54486804Y-63279556D01*
X54563104Y-63300000D01*
X54642096Y-63300000D01*
X54718396Y-63279556D01*
X54786805Y-63240060D01*
X54842660Y-63184205D01*
X54882156Y-63115796D01*
X54902600Y-63039496D01*
X54902600Y-62999999D01*
X54956153Y-62999999D01*
X54956153Y-63000000D01*
X55518407Y-63562254D01*
X55548431Y-63610929D01*
X55567784Y-63669331D01*
X55567786Y-63669334D01*
X55659888Y-63818656D01*
X55783944Y-63942712D01*
X55933266Y-64034814D01*
X56099803Y-64089999D01*
X56202591Y-64100500D01*
X57002608Y-64100499D01*
X57002616Y-64100498D01*
X57002619Y-64100498D01*
X57058902Y-64094748D01*
X57105397Y-64089999D01*
X57271934Y-64034814D01*
X57421256Y-63942712D01*
X57545312Y-63818656D01*
X57637414Y-63669334D01*
X57692599Y-63502797D01*
X57703100Y-63400009D01*
X57703099Y-62599992D01*
X57692599Y-62497203D01*
X57637414Y-62330666D01*
X57545312Y-62181344D01*
X57421256Y-62057288D01*
X57271934Y-61965186D01*
X57105397Y-61910001D01*
X57105395Y-61910000D01*
X57002610Y-61899500D01*
X56202598Y-61899500D01*
X56202580Y-61899501D01*
X56099803Y-61910000D01*
X56099800Y-61910001D01*
X55933268Y-61965185D01*
X55933263Y-61965187D01*
X55783942Y-62057289D01*
X55659889Y-62181342D01*
X55567786Y-62330666D01*
X55548434Y-62389066D01*
X55518409Y-62437742D01*
X54956153Y-62999999D01*
X54902600Y-62999999D01*
X54902600Y-62960504D01*
X54882156Y-62884204D01*
X54842660Y-62815795D01*
X54786805Y-62759940D01*
X54718396Y-62720444D01*
X54642096Y-62700000D01*
X54563104Y-62700000D01*
X54486804Y-62720444D01*
X54418395Y-62759940D01*
X54362540Y-62815795D01*
X54323044Y-62884204D01*
X54302600Y-62960504D01*
X54209551Y-62960504D01*
X53666309Y-62417261D01*
X53666308Y-62417261D01*
X53661803Y-62423463D01*
X53661793Y-62423480D01*
X53583192Y-62577740D01*
X53529685Y-62742415D01*
X53502600Y-62913428D01*
X31000000Y-62913428D01*
X31000000Y-60570000D01*
X39020898Y-60570000D01*
X40066988Y-60570000D01*
X40034075Y-60627007D01*
X40000000Y-60754174D01*
X40000000Y-60885826D01*
X40034075Y-61012993D01*
X40066988Y-61070000D01*
X39020898Y-61070000D01*
X39036934Y-61171247D01*
X39109897Y-61395802D01*
X39217085Y-61606171D01*
X39355866Y-61797186D01*
X39522813Y-61964133D01*
X39713828Y-62102914D01*
X39924197Y-62210102D01*
X40148752Y-62283065D01*
X40148751Y-62283065D01*
X40381948Y-62320000D01*
X41350000Y-62320000D01*
X41350000Y-61320000D01*
X41850000Y-61320000D01*
X41850000Y-62320000D01*
X42818052Y-62320000D01*
X43051247Y-62283065D01*
X43275802Y-62210102D01*
X43486171Y-62102914D01*
X43540134Y-62063708D01*
X54019861Y-62063708D01*
X54019861Y-62063709D01*
X54602600Y-62646446D01*
X54602601Y-62646446D01*
X55185337Y-62063709D01*
X55179125Y-62059196D01*
X55024859Y-61980592D01*
X54860184Y-61927085D01*
X54689171Y-61900000D01*
X54516029Y-61900000D01*
X54345015Y-61927085D01*
X54180340Y-61980592D01*
X54026080Y-62059193D01*
X54026063Y-62059203D01*
X54019861Y-62063708D01*
X43540134Y-62063708D01*
X43613165Y-62010648D01*
X43677186Y-61964133D01*
X43844133Y-61797186D01*
X43982914Y-61606171D01*
X44090102Y-61395802D01*
X44163065Y-61171247D01*
X44179102Y-61070000D01*
X43133012Y-61070000D01*
X43165925Y-61012993D01*
X43200000Y-60885826D01*
X43200000Y-60754174D01*
X43165925Y-60627007D01*
X43133012Y-60570000D01*
X44179102Y-60570000D01*
X44163065Y-60468752D01*
X44090102Y-60244197D01*
X43982914Y-60033828D01*
X43844133Y-59842813D01*
X43677186Y-59675866D01*
X43486171Y-59537085D01*
X43275802Y-59429897D01*
X43051247Y-59356934D01*
X43051248Y-59356934D01*
X42818052Y-59320000D01*
X41850000Y-59320000D01*
X41850000Y-60320000D01*
X41350000Y-60320000D01*
X41350000Y-59320000D01*
X40381948Y-59320000D01*
X40148752Y-59356934D01*
X39924197Y-59429897D01*
X39713828Y-59537085D01*
X39522813Y-59675866D01*
X39355866Y-59842813D01*
X39217085Y-60033828D01*
X39109897Y-60244197D01*
X39036934Y-60468752D01*
X39020898Y-60570000D01*
X31000000Y-60570000D01*
X31000000Y-54801947D01*
X36700000Y-54801947D01*
X36700000Y-55770000D01*
X37700000Y-55770000D01*
X37700000Y-56270000D01*
X36700000Y-56270000D01*
X36700000Y-57238052D01*
X36736934Y-57471247D01*
X36809897Y-57695802D01*
X36917085Y-57906171D01*
X37055866Y-58097186D01*
X37222813Y-58264133D01*
X37413828Y-58402914D01*
X37624195Y-58510102D01*
X37848744Y-58583063D01*
X37848750Y-58583065D01*
X37950000Y-58599101D01*
X37950000Y-57553012D01*
X38007007Y-57585925D01*
X38134174Y-57620000D01*
X38265826Y-57620000D01*
X38392993Y-57585925D01*
X38450000Y-57553012D01*
X38450000Y-58599100D01*
X38551249Y-58583065D01*
X38551255Y-58583063D01*
X38775804Y-58510102D01*
X38986171Y-58402914D01*
X39177186Y-58264133D01*
X39344133Y-58097186D01*
X39482914Y-57906171D01*
X39590102Y-57695802D01*
X39663065Y-57471247D01*
X39700000Y-57238052D01*
X39700000Y-56270000D01*
X38700000Y-56270000D01*
X38700000Y-55770000D01*
X39700000Y-55770000D01*
X39700000Y-54801947D01*
X39663065Y-54568752D01*
X39590102Y-54344197D01*
X39482914Y-54133828D01*
X39344133Y-53942813D01*
X39177187Y-53775867D01*
X39167907Y-53769125D01*
X39167906Y-53769124D01*
X39034413Y-53672135D01*
X42999500Y-53672135D01*
X42999500Y-58367870D01*
X42999501Y-58367876D01*
X43005908Y-58427483D01*
X43056202Y-58562328D01*
X43056206Y-58562335D01*
X43142452Y-58677544D01*
X43142455Y-58677547D01*
X43257664Y-58763793D01*
X43257671Y-58763797D01*
X43392517Y-58814091D01*
X43392516Y-58814091D01*
X43399444Y-58814835D01*
X43452127Y-58820500D01*
X45547872Y-58820499D01*
X45607483Y-58814091D01*
X45742331Y-58763796D01*
X45857546Y-58677546D01*
X45943796Y-58562331D01*
X45994091Y-58427483D01*
X46000500Y-58367873D01*
X46000499Y-53672128D01*
X45994091Y-53612517D01*
X45943796Y-53477669D01*
X45943795Y-53477668D01*
X45943793Y-53477664D01*
X45857547Y-53362455D01*
X45857544Y-53362452D01*
X45742335Y-53276206D01*
X45742328Y-53276202D01*
X45607482Y-53225908D01*
X45607483Y-53225908D01*
X45547883Y-53219501D01*
X45547881Y-53219500D01*
X45547873Y-53219500D01*
X45547864Y-53219500D01*
X43452129Y-53219500D01*
X43452123Y-53219501D01*
X43392516Y-53225908D01*
X43257671Y-53276202D01*
X43257664Y-53276206D01*
X43142455Y-53362452D01*
X43142452Y-53362455D01*
X43056206Y-53477664D01*
X43056202Y-53477671D01*
X43005908Y-53612517D01*
X42999501Y-53672116D01*
X42999501Y-53672123D01*
X42999500Y-53672135D01*
X39034413Y-53672135D01*
X38986171Y-53637085D01*
X38775802Y-53529897D01*
X38551247Y-53456934D01*
X38450000Y-53440897D01*
X38450000Y-54486988D01*
X38392993Y-54454075D01*
X38265826Y-54420000D01*
X38134174Y-54420000D01*
X38007007Y-54454075D01*
X37950000Y-54486988D01*
X37950000Y-53440897D01*
X37848752Y-53456934D01*
X37624197Y-53529897D01*
X37413828Y-53637085D01*
X37222813Y-53775866D01*
X37055866Y-53942813D01*
X36917085Y-54133828D01*
X36809897Y-54344197D01*
X36736934Y-54568752D01*
X36700000Y-54801947D01*
X31000000Y-54801947D01*
X31000000Y-47501902D01*
X50859500Y-47501902D01*
X50859500Y-47738097D01*
X50896446Y-47971368D01*
X50969433Y-48195996D01*
X51062978Y-48379586D01*
X51076657Y-48406433D01*
X51215483Y-48597510D01*
X51382490Y-48764517D01*
X51573567Y-48903343D01*
X51672991Y-48954002D01*
X51784003Y-49010566D01*
X51784005Y-49010566D01*
X51784008Y-49010568D01*
X51904412Y-49049689D01*
X52008631Y-49083553D01*
X52241903Y-49120500D01*
X52241908Y-49120500D01*
X52478097Y-49120500D01*
X52711368Y-49083553D01*
X52935992Y-49010568D01*
X53146433Y-48903343D01*
X53337510Y-48764517D01*
X53504517Y-48597510D01*
X53643343Y-48406433D01*
X53750568Y-48195992D01*
X53823553Y-47971368D01*
X53829693Y-47932603D01*
X53860500Y-47738097D01*
X53860500Y-47501903D01*
X53844239Y-47399244D01*
X53829670Y-47307255D01*
X53838624Y-47237964D01*
X53883620Y-47184512D01*
X53950372Y-47163872D01*
X53990454Y-47169926D01*
X54043757Y-47187246D01*
X54253713Y-47220500D01*
X54253714Y-47220500D01*
X54466286Y-47220500D01*
X54466287Y-47220500D01*
X54676243Y-47187246D01*
X54878412Y-47121557D01*
X55067816Y-47025051D01*
X55089789Y-47009086D01*
X55239786Y-46900109D01*
X55239788Y-46900106D01*
X55239792Y-46900104D01*
X55390104Y-46749792D01*
X55390106Y-46749788D01*
X55390109Y-46749786D01*
X55515048Y-46577820D01*
X55515047Y-46577820D01*
X55515051Y-46577816D01*
X55611557Y-46388412D01*
X55677246Y-46186243D01*
X55710500Y-45976287D01*
X55710500Y-45763713D01*
X57009500Y-45763713D01*
X57009500Y-45976286D01*
X57040455Y-46171731D01*
X57042754Y-46186243D01*
X57108152Y-46387517D01*
X57108444Y-46388414D01*
X57204951Y-46577820D01*
X57329890Y-46749786D01*
X57480213Y-46900109D01*
X57652179Y-47025048D01*
X57652181Y-47025049D01*
X57652184Y-47025051D01*
X57841588Y-47121557D01*
X58043757Y-47187246D01*
X58253713Y-47220500D01*
X58253714Y-47220500D01*
X58466286Y-47220500D01*
X58466287Y-47220500D01*
X58676243Y-47187246D01*
X58878412Y-47121557D01*
X59067816Y-47025051D01*
X59089789Y-47009086D01*
X59239786Y-46900109D01*
X59239788Y-46900106D01*
X59239792Y-46900104D01*
X59390104Y-46749792D01*
X59390106Y-46749788D01*
X59390109Y-46749786D01*
X59515048Y-46577820D01*
X59515047Y-46577820D01*
X59515051Y-46577816D01*
X59611557Y-46388412D01*
X59677246Y-46186243D01*
X59710500Y-45976287D01*
X59710500Y-45763713D01*
X61009500Y-45763713D01*
X61009500Y-45976286D01*
X61040455Y-46171731D01*
X61042754Y-46186243D01*
X61108152Y-46387517D01*
X61108444Y-46388414D01*
X61204951Y-46577820D01*
X61329890Y-46749786D01*
X61480213Y-46900109D01*
X61652179Y-47025048D01*
X61652181Y-47025049D01*
X61652184Y-47025051D01*
X61841588Y-47121557D01*
X62043757Y-47187246D01*
X62253713Y-47220500D01*
X62253714Y-47220500D01*
X62466286Y-47220500D01*
X62466287Y-47220500D01*
X62676243Y-47187246D01*
X62729539Y-47169928D01*
X62799377Y-47167932D01*
X62859211Y-47204012D01*
X62890040Y-47266712D01*
X62890329Y-47307257D01*
X62859500Y-47501902D01*
X62859500Y-47738097D01*
X62896446Y-47971368D01*
X62969433Y-48195996D01*
X63062978Y-48379586D01*
X63076657Y-48406433D01*
X63215483Y-48597510D01*
X63382490Y-48764517D01*
X63573567Y-48903343D01*
X63672991Y-48954002D01*
X63784003Y-49010566D01*
X63784005Y-49010566D01*
X63784008Y-49010568D01*
X63904412Y-49049689D01*
X64008631Y-49083553D01*
X64241903Y-49120500D01*
X64241908Y-49120500D01*
X64478097Y-49120500D01*
X64711368Y-49083553D01*
X64935992Y-49010568D01*
X65146433Y-48903343D01*
X65337510Y-48764517D01*
X65504517Y-48597510D01*
X65643343Y-48406433D01*
X65750568Y-48195992D01*
X65823553Y-47971368D01*
X65829693Y-47932603D01*
X65860500Y-47738097D01*
X65860500Y-47501902D01*
X65828411Y-47299304D01*
X65828411Y-47299303D01*
X65826110Y-47284778D01*
X66654500Y-47284778D01*
X66654500Y-47505221D01*
X66688985Y-47722952D01*
X66757103Y-47932603D01*
X66757104Y-47932606D01*
X66857187Y-48129025D01*
X66986752Y-48307358D01*
X66986756Y-48307363D01*
X67142636Y-48463243D01*
X67142641Y-48463247D01*
X67244606Y-48537328D01*
X67320978Y-48592815D01*
X67449375Y-48658237D01*
X67517393Y-48692895D01*
X67517396Y-48692896D01*
X67622221Y-48726955D01*
X67727049Y-48761015D01*
X67944778Y-48795500D01*
X67944779Y-48795500D01*
X68165221Y-48795500D01*
X68165222Y-48795500D01*
X68382951Y-48761015D01*
X68592606Y-48692895D01*
X68789022Y-48592815D01*
X68967365Y-48463242D01*
X69017536Y-48413070D01*
X69078857Y-48379586D01*
X69148548Y-48384570D01*
X69204482Y-48426441D01*
X69221398Y-48457419D01*
X69251202Y-48537328D01*
X69251206Y-48537335D01*
X69337452Y-48652544D01*
X69337455Y-48652547D01*
X69452664Y-48738793D01*
X69452671Y-48738797D01*
X69587517Y-48789091D01*
X69587516Y-48789091D01*
X69594444Y-48789835D01*
X69647127Y-48795500D01*
X71542872Y-48795499D01*
X71602483Y-48789091D01*
X71737331Y-48738796D01*
X71852546Y-48652546D01*
X71938796Y-48537331D01*
X71989091Y-48402483D01*
X71995500Y-48342873D01*
X71995499Y-46447128D01*
X71990226Y-46398079D01*
X71989091Y-46387516D01*
X71938797Y-46252671D01*
X71938793Y-46252664D01*
X71852547Y-46137455D01*
X71852544Y-46137452D01*
X71737335Y-46051206D01*
X71737328Y-46051202D01*
X71602482Y-46000908D01*
X71602483Y-46000908D01*
X71542883Y-45994501D01*
X71542881Y-45994500D01*
X71542873Y-45994500D01*
X71542864Y-45994500D01*
X69647129Y-45994500D01*
X69647123Y-45994501D01*
X69587516Y-46000908D01*
X69452671Y-46051202D01*
X69452664Y-46051206D01*
X69337455Y-46137452D01*
X69337452Y-46137455D01*
X69251206Y-46252664D01*
X69251203Y-46252669D01*
X69221398Y-46332581D01*
X69179526Y-46388514D01*
X69114062Y-46412931D01*
X69045789Y-46398079D01*
X69017535Y-46376928D01*
X68967363Y-46326756D01*
X68967358Y-46326752D01*
X68789025Y-46197187D01*
X68789024Y-46197186D01*
X68789022Y-46197185D01*
X68709068Y-46156446D01*
X68592606Y-46097104D01*
X68592603Y-46097103D01*
X68382952Y-46028985D01*
X68274086Y-46011742D01*
X68165222Y-45994500D01*
X67944778Y-45994500D01*
X67899174Y-46001723D01*
X67727047Y-46028985D01*
X67517396Y-46097103D01*
X67517393Y-46097104D01*
X67320974Y-46197187D01*
X67142641Y-46326752D01*
X67142636Y-46326756D01*
X66986756Y-46482636D01*
X66986752Y-46482641D01*
X66857187Y-46660974D01*
X66757104Y-46857393D01*
X66757103Y-46857396D01*
X66688985Y-47067047D01*
X66654500Y-47284778D01*
X65826110Y-47284778D01*
X65823553Y-47268632D01*
X65823553Y-47268631D01*
X65775765Y-47121557D01*
X65750568Y-47044008D01*
X65750566Y-47044005D01*
X65750566Y-47044003D01*
X65655483Y-46857393D01*
X65643343Y-46833567D01*
X65504517Y-46642490D01*
X65337510Y-46475483D01*
X65146433Y-46336657D01*
X65127001Y-46326756D01*
X64935996Y-46229433D01*
X64711368Y-46156446D01*
X64478097Y-46119500D01*
X64478092Y-46119500D01*
X64241908Y-46119500D01*
X64241903Y-46119500D01*
X64008630Y-46156447D01*
X64008627Y-46156447D01*
X63856687Y-46205816D01*
X63786846Y-46207811D01*
X63727013Y-46171731D01*
X63696185Y-46109030D01*
X63695896Y-46068492D01*
X63710500Y-45976287D01*
X63710500Y-45763713D01*
X63677246Y-45553757D01*
X63611557Y-45351588D01*
X63515051Y-45162184D01*
X63515049Y-45162181D01*
X63515048Y-45162179D01*
X63390109Y-44990213D01*
X63239786Y-44839890D01*
X63067820Y-44714951D01*
X62878414Y-44618444D01*
X62878413Y-44618443D01*
X62878412Y-44618443D01*
X62676243Y-44552754D01*
X62676241Y-44552753D01*
X62676240Y-44552753D01*
X62514957Y-44527208D01*
X62466287Y-44519500D01*
X62253713Y-44519500D01*
X62205042Y-44527208D01*
X62043760Y-44552753D01*
X61841585Y-44618444D01*
X61652179Y-44714951D01*
X61480213Y-44839890D01*
X61329890Y-44990213D01*
X61204951Y-45162179D01*
X61108444Y-45351585D01*
X61108443Y-45351587D01*
X61108443Y-45351588D01*
X61099772Y-45378276D01*
X61042753Y-45553760D01*
X61009500Y-45763713D01*
X59710500Y-45763713D01*
X59677246Y-45553757D01*
X59611557Y-45351588D01*
X59515051Y-45162184D01*
X59515049Y-45162181D01*
X59515048Y-45162179D01*
X59390109Y-44990213D01*
X59239786Y-44839890D01*
X59067820Y-44714951D01*
X58878414Y-44618444D01*
X58878413Y-44618443D01*
X58878412Y-44618443D01*
X58676243Y-44552754D01*
X58676241Y-44552753D01*
X58676240Y-44552753D01*
X58514957Y-44527208D01*
X58466287Y-44519500D01*
X58253713Y-44519500D01*
X58205042Y-44527208D01*
X58043760Y-44552753D01*
X57841585Y-44618444D01*
X57652179Y-44714951D01*
X57480213Y-44839890D01*
X57329890Y-44990213D01*
X57204951Y-45162179D01*
X57108444Y-45351585D01*
X57108443Y-45351587D01*
X57108443Y-45351588D01*
X57099772Y-45378276D01*
X57042753Y-45553760D01*
X57009500Y-45763713D01*
X55710500Y-45763713D01*
X55677246Y-45553757D01*
X55611557Y-45351588D01*
X55515051Y-45162184D01*
X55515049Y-45162181D01*
X55515048Y-45162179D01*
X55390109Y-44990213D01*
X55239786Y-44839890D01*
X55067820Y-44714951D01*
X54878414Y-44618444D01*
X54878413Y-44618443D01*
X54878412Y-44618443D01*
X54676243Y-44552754D01*
X54676241Y-44552753D01*
X54676240Y-44552753D01*
X54514957Y-44527208D01*
X54466287Y-44519500D01*
X54253713Y-44519500D01*
X54205042Y-44527208D01*
X54043760Y-44552753D01*
X53841585Y-44618444D01*
X53652179Y-44714951D01*
X53480213Y-44839890D01*
X53329890Y-44990213D01*
X53204951Y-45162179D01*
X53108444Y-45351585D01*
X53108443Y-45351587D01*
X53108443Y-45351588D01*
X53099772Y-45378276D01*
X53042753Y-45553760D01*
X53009500Y-45763713D01*
X53009500Y-45976286D01*
X53024103Y-46068487D01*
X53015148Y-46137781D01*
X52970152Y-46191233D01*
X52903400Y-46211872D01*
X52863312Y-46205816D01*
X52711370Y-46156447D01*
X52478097Y-46119500D01*
X52478092Y-46119500D01*
X52241908Y-46119500D01*
X52241903Y-46119500D01*
X52008631Y-46156446D01*
X51784003Y-46229433D01*
X51573566Y-46336657D01*
X51494275Y-46394266D01*
X51382490Y-46475483D01*
X51382488Y-46475485D01*
X51382487Y-46475485D01*
X51215485Y-46642487D01*
X51215485Y-46642488D01*
X51215483Y-46642490D01*
X51173644Y-46700076D01*
X51076657Y-46833566D01*
X50969433Y-47044003D01*
X50896446Y-47268631D01*
X50859500Y-47501902D01*
X31000000Y-47501902D01*
X31000000Y-46001723D01*
X31019685Y-45934684D01*
X31072489Y-45888929D01*
X31141647Y-45878985D01*
X31205203Y-45908010D01*
X31242977Y-45966788D01*
X31246473Y-45982325D01*
X31257382Y-46051206D01*
X31257679Y-46053076D01*
X31333096Y-46285185D01*
X31433701Y-46482635D01*
X31443896Y-46502642D01*
X31587339Y-46700076D01*
X31587343Y-46700081D01*
X31759918Y-46872656D01*
X31759923Y-46872660D01*
X31797697Y-46900104D01*
X31957361Y-47016106D01*
X32174815Y-47126904D01*
X32406924Y-47202321D01*
X32647973Y-47240500D01*
X32647974Y-47240500D01*
X32892026Y-47240500D01*
X32892027Y-47240500D01*
X33133076Y-47202321D01*
X33365185Y-47126904D01*
X33582639Y-47016106D01*
X33780083Y-46872655D01*
X33952655Y-46700083D01*
X34096106Y-46502639D01*
X34206904Y-46285185D01*
X34282321Y-46053076D01*
X34320500Y-45812027D01*
X34320500Y-45567973D01*
X34282321Y-45326924D01*
X34206904Y-45094815D01*
X34096106Y-44877361D01*
X34096104Y-44877358D01*
X34096103Y-44877356D01*
X34019838Y-44772385D01*
X33996358Y-44706578D01*
X34012184Y-44638525D01*
X34062290Y-44589830D01*
X34120156Y-44575500D01*
X34128253Y-44575500D01*
X34128254Y-44575500D01*
X34342097Y-44541630D01*
X34548009Y-44474726D01*
X34740919Y-44376433D01*
X34916078Y-44249172D01*
X35069172Y-44096078D01*
X35196433Y-43920919D01*
X35294726Y-43728009D01*
X35361630Y-43522097D01*
X35395500Y-43308254D01*
X35395500Y-43091779D01*
X37145000Y-43091779D01*
X37145000Y-43308220D01*
X37178857Y-43521981D01*
X37245735Y-43727814D01*
X37245736Y-43727817D01*
X37343996Y-43920660D01*
X37386829Y-43979615D01*
X37386830Y-43979616D01*
X38041119Y-43325327D01*
X38058734Y-43391063D01*
X38123902Y-43503937D01*
X38216063Y-43596098D01*
X38328937Y-43661266D01*
X38394672Y-43678880D01*
X37740382Y-44333168D01*
X37799342Y-44376005D01*
X37992182Y-44474263D01*
X37992185Y-44474264D01*
X38198018Y-44541142D01*
X38411780Y-44575000D01*
X38430208Y-44575000D01*
X38497247Y-44594685D01*
X38543002Y-44647489D01*
X38552946Y-44716647D01*
X38530526Y-44771885D01*
X38453896Y-44877357D01*
X38343097Y-45094812D01*
X38267678Y-45326927D01*
X38257028Y-45394168D01*
X38229500Y-45567973D01*
X38229500Y-45812027D01*
X38230797Y-45820214D01*
X38267382Y-46051206D01*
X38267679Y-46053076D01*
X38343096Y-46285185D01*
X38443701Y-46482635D01*
X38453896Y-46502642D01*
X38597339Y-46700076D01*
X38597343Y-46700081D01*
X38769918Y-46872656D01*
X38769923Y-46872660D01*
X38807697Y-46900104D01*
X38967361Y-47016106D01*
X39184815Y-47126904D01*
X39416924Y-47202321D01*
X39657973Y-47240500D01*
X39657974Y-47240500D01*
X39902026Y-47240500D01*
X39902027Y-47240500D01*
X40143076Y-47202321D01*
X40375185Y-47126904D01*
X40592639Y-47016106D01*
X40790083Y-46872655D01*
X40962655Y-46700083D01*
X41106106Y-46502639D01*
X41216904Y-46285185D01*
X41292321Y-46053076D01*
X41330500Y-45812027D01*
X41330500Y-45567973D01*
X41292321Y-45326924D01*
X41216904Y-45094815D01*
X41106794Y-44878711D01*
X43389500Y-44878711D01*
X43389500Y-45121288D01*
X43421161Y-45361785D01*
X43483947Y-45596104D01*
X43553373Y-45763713D01*
X43576776Y-45820212D01*
X43698064Y-46030289D01*
X43698066Y-46030292D01*
X43698067Y-46030293D01*
X43845733Y-46222736D01*
X43845739Y-46222743D01*
X44017256Y-46394260D01*
X44017263Y-46394266D01*
X44086156Y-46447129D01*
X44209711Y-46541936D01*
X44419788Y-46663224D01*
X44643900Y-46756054D01*
X44878211Y-46818838D01*
X45058586Y-46842584D01*
X45118711Y-46850500D01*
X45118712Y-46850500D01*
X45361289Y-46850500D01*
X45409388Y-46844167D01*
X45601789Y-46818838D01*
X45836100Y-46756054D01*
X46060212Y-46663224D01*
X46270289Y-46541936D01*
X46462738Y-46394265D01*
X46634265Y-46222738D01*
X46781936Y-46030289D01*
X46903224Y-45820212D01*
X46996054Y-45596100D01*
X47058838Y-45361789D01*
X47090500Y-45121288D01*
X47090500Y-44878712D01*
X47090321Y-44877356D01*
X47068941Y-44714951D01*
X47058838Y-44638211D01*
X46996054Y-44403900D01*
X46903224Y-44179788D01*
X46781936Y-43969711D01*
X46761143Y-43942613D01*
X46700436Y-43863497D01*
X46634266Y-43777263D01*
X46634260Y-43777256D01*
X46462743Y-43605739D01*
X46462736Y-43605733D01*
X46270293Y-43458067D01*
X46270292Y-43458066D01*
X46270289Y-43458064D01*
X46060212Y-43336776D01*
X45991354Y-43308254D01*
X45836104Y-43243947D01*
X45672089Y-43199999D01*
X45601789Y-43181162D01*
X45601788Y-43181161D01*
X45601785Y-43181161D01*
X45361289Y-43149500D01*
X45361288Y-43149500D01*
X45118712Y-43149500D01*
X45118711Y-43149500D01*
X44878214Y-43181161D01*
X44643895Y-43243947D01*
X44419794Y-43336773D01*
X44419785Y-43336777D01*
X44209706Y-43458067D01*
X44017263Y-43605733D01*
X44017256Y-43605739D01*
X43845739Y-43777256D01*
X43845733Y-43777263D01*
X43698067Y-43969706D01*
X43576777Y-44179785D01*
X43576773Y-44179794D01*
X43483947Y-44403895D01*
X43421161Y-44638214D01*
X43389500Y-44878711D01*
X41106794Y-44878711D01*
X41106106Y-44877361D01*
X41029837Y-44772385D01*
X40962660Y-44679923D01*
X40962656Y-44679918D01*
X40790081Y-44507343D01*
X40790076Y-44507339D01*
X40592642Y-44363896D01*
X40592641Y-44363895D01*
X40592639Y-44363894D01*
X40375185Y-44253096D01*
X40143076Y-44177679D01*
X40143074Y-44177678D01*
X40143072Y-44177678D01*
X39974769Y-44151021D01*
X39902027Y-44139500D01*
X39780371Y-44139500D01*
X39713332Y-44119815D01*
X39667577Y-44067011D01*
X39657633Y-43997853D01*
X39680053Y-43942614D01*
X39696005Y-43920657D01*
X39794263Y-43727817D01*
X39794264Y-43727814D01*
X39861142Y-43521981D01*
X39895000Y-43308220D01*
X39895000Y-43091779D01*
X39861142Y-42878018D01*
X39794264Y-42672185D01*
X39794263Y-42672182D01*
X39696005Y-42479342D01*
X39653168Y-42420383D01*
X39653168Y-42420382D01*
X38998880Y-43074672D01*
X38981266Y-43008937D01*
X38916098Y-42896063D01*
X38823937Y-42803902D01*
X38711063Y-42738734D01*
X38645326Y-42721119D01*
X39299616Y-42066830D01*
X39299615Y-42066829D01*
X39240660Y-42023996D01*
X39047817Y-41925736D01*
X39047814Y-41925735D01*
X38841981Y-41858857D01*
X38628220Y-41825000D01*
X38411780Y-41825000D01*
X38198018Y-41858857D01*
X37992185Y-41925735D01*
X37992182Y-41925736D01*
X37799346Y-42023992D01*
X37740383Y-42066830D01*
X38394673Y-42721119D01*
X38328937Y-42738734D01*
X38216063Y-42803902D01*
X38123902Y-42896063D01*
X38058734Y-43008937D01*
X38041119Y-43074672D01*
X37386830Y-42420383D01*
X37343992Y-42479346D01*
X37245736Y-42672182D01*
X37245735Y-42672185D01*
X37178857Y-42878018D01*
X37145000Y-43091779D01*
X35395500Y-43091779D01*
X35395500Y-43091746D01*
X35361630Y-42877903D01*
X35294726Y-42671991D01*
X35294726Y-42671990D01*
X35225432Y-42535995D01*
X35196433Y-42479081D01*
X35069172Y-42303922D01*
X34916078Y-42150828D01*
X34740919Y-42023567D01*
X34736860Y-42021499D01*
X34548009Y-41925273D01*
X34548006Y-41925272D01*
X34342098Y-41858370D01*
X34227429Y-41840208D01*
X34128254Y-41824500D01*
X33911746Y-41824500D01*
X33840465Y-41835790D01*
X33697901Y-41858370D01*
X33491993Y-41925272D01*
X33491990Y-41925273D01*
X33299080Y-42023567D01*
X33209659Y-42088536D01*
X33123922Y-42150828D01*
X33123920Y-42150830D01*
X33123919Y-42150830D01*
X32970830Y-42303919D01*
X32970830Y-42303920D01*
X32970828Y-42303922D01*
X32916174Y-42379145D01*
X32843567Y-42479080D01*
X32745273Y-42671990D01*
X32745272Y-42671993D01*
X32678370Y-42877901D01*
X32654754Y-43027007D01*
X32644500Y-43091746D01*
X32644500Y-43308254D01*
X32651344Y-43351463D01*
X32678370Y-43522098D01*
X32745272Y-43728006D01*
X32745273Y-43728009D01*
X32843567Y-43920920D01*
X32859329Y-43942613D01*
X32882810Y-44008419D01*
X32866985Y-44076473D01*
X32816881Y-44125169D01*
X32759012Y-44139500D01*
X32647973Y-44139500D01*
X32592093Y-44148350D01*
X32406927Y-44177678D01*
X32174812Y-44253097D01*
X31957357Y-44363896D01*
X31759923Y-44507339D01*
X31759918Y-44507343D01*
X31587343Y-44679918D01*
X31587339Y-44679923D01*
X31443896Y-44877357D01*
X31333097Y-45094812D01*
X31257678Y-45326927D01*
X31246473Y-45397674D01*
X31216544Y-45460809D01*
X31157232Y-45497740D01*
X31087370Y-45496742D01*
X31029137Y-45458132D01*
X31001023Y-45394168D01*
X31000000Y-45378276D01*
X31000000Y-41124000D01*
X31019685Y-41056961D01*
X31072489Y-41011206D01*
X31124000Y-41000000D01*
X50813059Y-41000000D01*
X50880098Y-41019685D01*
G37*
%TD.AperFunction*%
%TD*%
M02*
