%TF.GenerationSoftware,KiCad,Pcbnew,9.0.6*%
%TF.CreationDate,2026-01-14T13:32:50+01:00*%
%TF.ProjectId,DHT11 weather station,44485431-3120-4776-9561-746865722073,rev?*%
%TF.SameCoordinates,Original*%
%TF.FileFunction,Legend,Top*%
%TF.FilePolarity,Positive*%
%FSLAX46Y46*%
G04 Gerber Fmt 4.6, Leading zero omitted, Abs format (unit mm)*
G04 Created by KiCad (PCBNEW 9.0.6) date 2026-01-14 13:32:50*
%MOMM*%
%LPD*%
G01*
G04 APERTURE LIST*
%ADD10C,0.200000*%
%ADD11C,0.100000*%
%ADD12C,0.300000*%
%ADD13C,0.150000*%
%ADD14C,0.120000*%
%ADD15C,0.127000*%
G04 APERTURE END LIST*
D10*
X56200000Y-49900000D02*
X56700000Y-50400000D01*
D11*
X56200000Y-49900000D02*
X56700000Y-49400000D01*
D10*
X58000000Y-49900000D02*
X56200000Y-49900000D01*
X59950000Y-49400000D02*
X60450000Y-49900000D01*
X58650000Y-49900000D02*
X60450000Y-49900000D01*
X56700000Y-49400000D02*
X56200000Y-49900000D01*
X60450000Y-49900000D02*
X59950000Y-50400000D01*
X61360149Y-49367219D02*
X61550625Y-49367219D01*
X61550625Y-49367219D02*
X61645863Y-49414838D01*
X61645863Y-49414838D02*
X61741101Y-49510076D01*
X61741101Y-49510076D02*
X61788720Y-49700552D01*
X61788720Y-49700552D02*
X61788720Y-50033885D01*
X61788720Y-50033885D02*
X61741101Y-50224361D01*
X61741101Y-50224361D02*
X61645863Y-50319600D01*
X61645863Y-50319600D02*
X61550625Y-50367219D01*
X61550625Y-50367219D02*
X61360149Y-50367219D01*
X61360149Y-50367219D02*
X61264911Y-50319600D01*
X61264911Y-50319600D02*
X61169673Y-50224361D01*
X61169673Y-50224361D02*
X61122054Y-50033885D01*
X61122054Y-50033885D02*
X61122054Y-49700552D01*
X61122054Y-49700552D02*
X61169673Y-49510076D01*
X61169673Y-49510076D02*
X61264911Y-49414838D01*
X61264911Y-49414838D02*
X61360149Y-49367219D01*
X62550625Y-49843409D02*
X62217292Y-49843409D01*
X62217292Y-50367219D02*
X62217292Y-49367219D01*
X62217292Y-49367219D02*
X62693482Y-49367219D01*
X63407768Y-49843409D02*
X63074435Y-49843409D01*
X63074435Y-50367219D02*
X63074435Y-49367219D01*
X63074435Y-49367219D02*
X63550625Y-49367219D01*
D12*
X58554510Y-82300828D02*
X58554510Y-80800828D01*
X59197368Y-80943685D02*
X59268796Y-80872257D01*
X59268796Y-80872257D02*
X59411654Y-80800828D01*
X59411654Y-80800828D02*
X59768796Y-80800828D01*
X59768796Y-80800828D02*
X59911654Y-80872257D01*
X59911654Y-80872257D02*
X59983082Y-80943685D01*
X59983082Y-80943685D02*
X60054511Y-81086542D01*
X60054511Y-81086542D02*
X60054511Y-81229400D01*
X60054511Y-81229400D02*
X59983082Y-81443685D01*
X59983082Y-81443685D02*
X59125939Y-82300828D01*
X59125939Y-82300828D02*
X60054511Y-82300828D01*
X61554510Y-82157971D02*
X61483082Y-82229400D01*
X61483082Y-82229400D02*
X61268796Y-82300828D01*
X61268796Y-82300828D02*
X61125939Y-82300828D01*
X61125939Y-82300828D02*
X60911653Y-82229400D01*
X60911653Y-82229400D02*
X60768796Y-82086542D01*
X60768796Y-82086542D02*
X60697367Y-81943685D01*
X60697367Y-81943685D02*
X60625939Y-81657971D01*
X60625939Y-81657971D02*
X60625939Y-81443685D01*
X60625939Y-81443685D02*
X60697367Y-81157971D01*
X60697367Y-81157971D02*
X60768796Y-81015114D01*
X60768796Y-81015114D02*
X60911653Y-80872257D01*
X60911653Y-80872257D02*
X61125939Y-80800828D01*
X61125939Y-80800828D02*
X61268796Y-80800828D01*
X61268796Y-80800828D02*
X61483082Y-80872257D01*
X61483082Y-80872257D02*
X61554510Y-80943685D01*
X63625939Y-80800828D02*
X63911653Y-80800828D01*
X63911653Y-80800828D02*
X64054510Y-80872257D01*
X64054510Y-80872257D02*
X64197367Y-81015114D01*
X64197367Y-81015114D02*
X64268796Y-81300828D01*
X64268796Y-81300828D02*
X64268796Y-81800828D01*
X64268796Y-81800828D02*
X64197367Y-82086542D01*
X64197367Y-82086542D02*
X64054510Y-82229400D01*
X64054510Y-82229400D02*
X63911653Y-82300828D01*
X63911653Y-82300828D02*
X63625939Y-82300828D01*
X63625939Y-82300828D02*
X63483082Y-82229400D01*
X63483082Y-82229400D02*
X63340224Y-82086542D01*
X63340224Y-82086542D02*
X63268796Y-81800828D01*
X63268796Y-81800828D02*
X63268796Y-81300828D01*
X63268796Y-81300828D02*
X63340224Y-81015114D01*
X63340224Y-81015114D02*
X63483082Y-80872257D01*
X63483082Y-80872257D02*
X63625939Y-80800828D01*
X65625939Y-82300828D02*
X64911653Y-82300828D01*
X64911653Y-82300828D02*
X64911653Y-80800828D01*
X66125939Y-81515114D02*
X66625939Y-81515114D01*
X66840225Y-82300828D02*
X66125939Y-82300828D01*
X66125939Y-82300828D02*
X66125939Y-80800828D01*
X66125939Y-80800828D02*
X66840225Y-80800828D01*
X67483082Y-82300828D02*
X67483082Y-80800828D01*
X67483082Y-80800828D02*
X67840225Y-80800828D01*
X67840225Y-80800828D02*
X68054511Y-80872257D01*
X68054511Y-80872257D02*
X68197368Y-81015114D01*
X68197368Y-81015114D02*
X68268797Y-81157971D01*
X68268797Y-81157971D02*
X68340225Y-81443685D01*
X68340225Y-81443685D02*
X68340225Y-81657971D01*
X68340225Y-81657971D02*
X68268797Y-81943685D01*
X68268797Y-81943685D02*
X68197368Y-82086542D01*
X68197368Y-82086542D02*
X68054511Y-82229400D01*
X68054511Y-82229400D02*
X67840225Y-82300828D01*
X67840225Y-82300828D02*
X67483082Y-82300828D01*
X34111653Y-49700828D02*
X33611653Y-48986542D01*
X33254510Y-49700828D02*
X33254510Y-48200828D01*
X33254510Y-48200828D02*
X33825939Y-48200828D01*
X33825939Y-48200828D02*
X33968796Y-48272257D01*
X33968796Y-48272257D02*
X34040225Y-48343685D01*
X34040225Y-48343685D02*
X34111653Y-48486542D01*
X34111653Y-48486542D02*
X34111653Y-48700828D01*
X34111653Y-48700828D02*
X34040225Y-48843685D01*
X34040225Y-48843685D02*
X33968796Y-48915114D01*
X33968796Y-48915114D02*
X33825939Y-48986542D01*
X33825939Y-48986542D02*
X33254510Y-48986542D01*
X34754510Y-48915114D02*
X35254510Y-48915114D01*
X35468796Y-49700828D02*
X34754510Y-49700828D01*
X34754510Y-49700828D02*
X34754510Y-48200828D01*
X34754510Y-48200828D02*
X35468796Y-48200828D01*
X36040225Y-49629400D02*
X36254511Y-49700828D01*
X36254511Y-49700828D02*
X36611653Y-49700828D01*
X36611653Y-49700828D02*
X36754511Y-49629400D01*
X36754511Y-49629400D02*
X36825939Y-49557971D01*
X36825939Y-49557971D02*
X36897368Y-49415114D01*
X36897368Y-49415114D02*
X36897368Y-49272257D01*
X36897368Y-49272257D02*
X36825939Y-49129400D01*
X36825939Y-49129400D02*
X36754511Y-49057971D01*
X36754511Y-49057971D02*
X36611653Y-48986542D01*
X36611653Y-48986542D02*
X36325939Y-48915114D01*
X36325939Y-48915114D02*
X36183082Y-48843685D01*
X36183082Y-48843685D02*
X36111653Y-48772257D01*
X36111653Y-48772257D02*
X36040225Y-48629400D01*
X36040225Y-48629400D02*
X36040225Y-48486542D01*
X36040225Y-48486542D02*
X36111653Y-48343685D01*
X36111653Y-48343685D02*
X36183082Y-48272257D01*
X36183082Y-48272257D02*
X36325939Y-48200828D01*
X36325939Y-48200828D02*
X36683082Y-48200828D01*
X36683082Y-48200828D02*
X36897368Y-48272257D01*
X37540224Y-48915114D02*
X38040224Y-48915114D01*
X38254510Y-49700828D02*
X37540224Y-49700828D01*
X37540224Y-49700828D02*
X37540224Y-48200828D01*
X37540224Y-48200828D02*
X38254510Y-48200828D01*
X38683082Y-48200828D02*
X39540225Y-48200828D01*
X39111653Y-49700828D02*
X39111653Y-48200828D01*
X35083082Y-74329400D02*
X35297368Y-74400828D01*
X35297368Y-74400828D02*
X35654510Y-74400828D01*
X35654510Y-74400828D02*
X35797368Y-74329400D01*
X35797368Y-74329400D02*
X35868796Y-74257971D01*
X35868796Y-74257971D02*
X35940225Y-74115114D01*
X35940225Y-74115114D02*
X35940225Y-73972257D01*
X35940225Y-73972257D02*
X35868796Y-73829400D01*
X35868796Y-73829400D02*
X35797368Y-73757971D01*
X35797368Y-73757971D02*
X35654510Y-73686542D01*
X35654510Y-73686542D02*
X35368796Y-73615114D01*
X35368796Y-73615114D02*
X35225939Y-73543685D01*
X35225939Y-73543685D02*
X35154510Y-73472257D01*
X35154510Y-73472257D02*
X35083082Y-73329400D01*
X35083082Y-73329400D02*
X35083082Y-73186542D01*
X35083082Y-73186542D02*
X35154510Y-73043685D01*
X35154510Y-73043685D02*
X35225939Y-72972257D01*
X35225939Y-72972257D02*
X35368796Y-72900828D01*
X35368796Y-72900828D02*
X35725939Y-72900828D01*
X35725939Y-72900828D02*
X35940225Y-72972257D01*
X36440224Y-72900828D02*
X36797367Y-74400828D01*
X36797367Y-74400828D02*
X37083081Y-73329400D01*
X37083081Y-73329400D02*
X37368796Y-74400828D01*
X37368796Y-74400828D02*
X37725939Y-72900828D01*
X38297367Y-74400828D02*
X38297367Y-72900828D01*
X38297367Y-72900828D02*
X38654510Y-72900828D01*
X38654510Y-72900828D02*
X38868796Y-72972257D01*
X38868796Y-72972257D02*
X39011653Y-73115114D01*
X39011653Y-73115114D02*
X39083082Y-73257971D01*
X39083082Y-73257971D02*
X39154510Y-73543685D01*
X39154510Y-73543685D02*
X39154510Y-73757971D01*
X39154510Y-73757971D02*
X39083082Y-74043685D01*
X39083082Y-74043685D02*
X39011653Y-74186542D01*
X39011653Y-74186542D02*
X38868796Y-74329400D01*
X38868796Y-74329400D02*
X38654510Y-74400828D01*
X38654510Y-74400828D02*
X38297367Y-74400828D01*
X85397367Y-91785912D02*
X85397367Y-90285912D01*
X85397367Y-90285912D02*
X85968796Y-90285912D01*
X85968796Y-90285912D02*
X86111653Y-90357341D01*
X86111653Y-90357341D02*
X86183082Y-90428769D01*
X86183082Y-90428769D02*
X86254510Y-90571626D01*
X86254510Y-90571626D02*
X86254510Y-90785912D01*
X86254510Y-90785912D02*
X86183082Y-90928769D01*
X86183082Y-90928769D02*
X86111653Y-91000198D01*
X86111653Y-91000198D02*
X85968796Y-91071626D01*
X85968796Y-91071626D02*
X85397367Y-91071626D01*
X88111653Y-91785912D02*
X88040225Y-91785912D01*
X88040225Y-91785912D02*
X87897367Y-91714484D01*
X87897367Y-91714484D02*
X87683082Y-91500198D01*
X87683082Y-91500198D02*
X87325939Y-91071626D01*
X87325939Y-91071626D02*
X87183082Y-90857341D01*
X87183082Y-90857341D02*
X87111653Y-90643055D01*
X87111653Y-90643055D02*
X87111653Y-90500198D01*
X87111653Y-90500198D02*
X87183082Y-90357341D01*
X87183082Y-90357341D02*
X87325939Y-90285912D01*
X87325939Y-90285912D02*
X87397367Y-90285912D01*
X87397367Y-90285912D02*
X87540225Y-90357341D01*
X87540225Y-90357341D02*
X87611653Y-90500198D01*
X87611653Y-90500198D02*
X87611653Y-90571626D01*
X87611653Y-90571626D02*
X87540225Y-90714484D01*
X87540225Y-90714484D02*
X87468796Y-90785912D01*
X87468796Y-90785912D02*
X87040225Y-91071626D01*
X87040225Y-91071626D02*
X86968796Y-91143055D01*
X86968796Y-91143055D02*
X86897367Y-91285912D01*
X86897367Y-91285912D02*
X86897367Y-91500198D01*
X86897367Y-91500198D02*
X86968796Y-91643055D01*
X86968796Y-91643055D02*
X87040225Y-91714484D01*
X87040225Y-91714484D02*
X87183082Y-91785912D01*
X87183082Y-91785912D02*
X87397367Y-91785912D01*
X87397367Y-91785912D02*
X87540225Y-91714484D01*
X87540225Y-91714484D02*
X87611653Y-91643055D01*
X87611653Y-91643055D02*
X87825939Y-91357341D01*
X87825939Y-91357341D02*
X87897367Y-91143055D01*
X87897367Y-91143055D02*
X87897367Y-91000198D01*
X88754510Y-91785912D02*
X88754510Y-90285912D01*
X90683082Y-91785912D02*
X90611654Y-91785912D01*
X90611654Y-91785912D02*
X90468796Y-91714484D01*
X90468796Y-91714484D02*
X90254511Y-91500198D01*
X90254511Y-91500198D02*
X89897368Y-91071626D01*
X89897368Y-91071626D02*
X89754511Y-90857341D01*
X89754511Y-90857341D02*
X89683082Y-90643055D01*
X89683082Y-90643055D02*
X89683082Y-90500198D01*
X89683082Y-90500198D02*
X89754511Y-90357341D01*
X89754511Y-90357341D02*
X89897368Y-90285912D01*
X89897368Y-90285912D02*
X89968796Y-90285912D01*
X89968796Y-90285912D02*
X90111654Y-90357341D01*
X90111654Y-90357341D02*
X90183082Y-90500198D01*
X90183082Y-90500198D02*
X90183082Y-90571626D01*
X90183082Y-90571626D02*
X90111654Y-90714484D01*
X90111654Y-90714484D02*
X90040225Y-90785912D01*
X90040225Y-90785912D02*
X89611654Y-91071626D01*
X89611654Y-91071626D02*
X89540225Y-91143055D01*
X89540225Y-91143055D02*
X89468796Y-91285912D01*
X89468796Y-91285912D02*
X89468796Y-91500198D01*
X89468796Y-91500198D02*
X89540225Y-91643055D01*
X89540225Y-91643055D02*
X89611654Y-91714484D01*
X89611654Y-91714484D02*
X89754511Y-91785912D01*
X89754511Y-91785912D02*
X89968796Y-91785912D01*
X89968796Y-91785912D02*
X90111654Y-91714484D01*
X90111654Y-91714484D02*
X90183082Y-91643055D01*
X90183082Y-91643055D02*
X90397368Y-91357341D01*
X90397368Y-91357341D02*
X90468796Y-91143055D01*
X90468796Y-91143055D02*
X90468796Y-91000198D01*
X91325939Y-91785912D02*
X91325939Y-90285912D01*
X91325939Y-90285912D02*
X91825939Y-91357341D01*
X91825939Y-91357341D02*
X92325939Y-90285912D01*
X92325939Y-90285912D02*
X92325939Y-91785912D01*
X85040225Y-94200828D02*
X84183082Y-94200828D01*
X84611653Y-94200828D02*
X84611653Y-92700828D01*
X84611653Y-92700828D02*
X84468796Y-92915114D01*
X84468796Y-92915114D02*
X84325939Y-93057971D01*
X84325939Y-93057971D02*
X84183082Y-93129400D01*
X85611653Y-92843685D02*
X85683081Y-92772257D01*
X85683081Y-92772257D02*
X85825939Y-92700828D01*
X85825939Y-92700828D02*
X86183081Y-92700828D01*
X86183081Y-92700828D02*
X86325939Y-92772257D01*
X86325939Y-92772257D02*
X86397367Y-92843685D01*
X86397367Y-92843685D02*
X86468796Y-92986542D01*
X86468796Y-92986542D02*
X86468796Y-93129400D01*
X86468796Y-93129400D02*
X86397367Y-93343685D01*
X86397367Y-93343685D02*
X85540224Y-94200828D01*
X85540224Y-94200828D02*
X86468796Y-94200828D01*
X87111652Y-94057971D02*
X87183081Y-94129400D01*
X87183081Y-94129400D02*
X87111652Y-94200828D01*
X87111652Y-94200828D02*
X87040224Y-94129400D01*
X87040224Y-94129400D02*
X87111652Y-94057971D01*
X87111652Y-94057971D02*
X87111652Y-94200828D01*
X87754510Y-92843685D02*
X87825938Y-92772257D01*
X87825938Y-92772257D02*
X87968796Y-92700828D01*
X87968796Y-92700828D02*
X88325938Y-92700828D01*
X88325938Y-92700828D02*
X88468796Y-92772257D01*
X88468796Y-92772257D02*
X88540224Y-92843685D01*
X88540224Y-92843685D02*
X88611653Y-92986542D01*
X88611653Y-92986542D02*
X88611653Y-93129400D01*
X88611653Y-93129400D02*
X88540224Y-93343685D01*
X88540224Y-93343685D02*
X87683081Y-94200828D01*
X87683081Y-94200828D02*
X88611653Y-94200828D01*
X89540224Y-92700828D02*
X89683081Y-92700828D01*
X89683081Y-92700828D02*
X89825938Y-92772257D01*
X89825938Y-92772257D02*
X89897367Y-92843685D01*
X89897367Y-92843685D02*
X89968795Y-92986542D01*
X89968795Y-92986542D02*
X90040224Y-93272257D01*
X90040224Y-93272257D02*
X90040224Y-93629400D01*
X90040224Y-93629400D02*
X89968795Y-93915114D01*
X89968795Y-93915114D02*
X89897367Y-94057971D01*
X89897367Y-94057971D02*
X89825938Y-94129400D01*
X89825938Y-94129400D02*
X89683081Y-94200828D01*
X89683081Y-94200828D02*
X89540224Y-94200828D01*
X89540224Y-94200828D02*
X89397367Y-94129400D01*
X89397367Y-94129400D02*
X89325938Y-94057971D01*
X89325938Y-94057971D02*
X89254509Y-93915114D01*
X89254509Y-93915114D02*
X89183081Y-93629400D01*
X89183081Y-93629400D02*
X89183081Y-93272257D01*
X89183081Y-93272257D02*
X89254509Y-92986542D01*
X89254509Y-92986542D02*
X89325938Y-92843685D01*
X89325938Y-92843685D02*
X89397367Y-92772257D01*
X89397367Y-92772257D02*
X89540224Y-92700828D01*
X90611652Y-92843685D02*
X90683080Y-92772257D01*
X90683080Y-92772257D02*
X90825938Y-92700828D01*
X90825938Y-92700828D02*
X91183080Y-92700828D01*
X91183080Y-92700828D02*
X91325938Y-92772257D01*
X91325938Y-92772257D02*
X91397366Y-92843685D01*
X91397366Y-92843685D02*
X91468795Y-92986542D01*
X91468795Y-92986542D02*
X91468795Y-93129400D01*
X91468795Y-93129400D02*
X91397366Y-93343685D01*
X91397366Y-93343685D02*
X90540223Y-94200828D01*
X90540223Y-94200828D02*
X91468795Y-94200828D01*
X92825937Y-92700828D02*
X92111651Y-92700828D01*
X92111651Y-92700828D02*
X92040223Y-93415114D01*
X92040223Y-93415114D02*
X92111651Y-93343685D01*
X92111651Y-93343685D02*
X92254509Y-93272257D01*
X92254509Y-93272257D02*
X92611651Y-93272257D01*
X92611651Y-93272257D02*
X92754509Y-93343685D01*
X92754509Y-93343685D02*
X92825937Y-93415114D01*
X92825937Y-93415114D02*
X92897366Y-93557971D01*
X92897366Y-93557971D02*
X92897366Y-93915114D01*
X92897366Y-93915114D02*
X92825937Y-94057971D01*
X92825937Y-94057971D02*
X92754509Y-94129400D01*
X92754509Y-94129400D02*
X92611651Y-94200828D01*
X92611651Y-94200828D02*
X92254509Y-94200828D01*
X92254509Y-94200828D02*
X92111651Y-94129400D01*
X92111651Y-94129400D02*
X92040223Y-94057971D01*
D10*
X54060149Y-49367219D02*
X54250625Y-49367219D01*
X54250625Y-49367219D02*
X54345863Y-49414838D01*
X54345863Y-49414838D02*
X54441101Y-49510076D01*
X54441101Y-49510076D02*
X54488720Y-49700552D01*
X54488720Y-49700552D02*
X54488720Y-50033885D01*
X54488720Y-50033885D02*
X54441101Y-50224361D01*
X54441101Y-50224361D02*
X54345863Y-50319600D01*
X54345863Y-50319600D02*
X54250625Y-50367219D01*
X54250625Y-50367219D02*
X54060149Y-50367219D01*
X54060149Y-50367219D02*
X53964911Y-50319600D01*
X53964911Y-50319600D02*
X53869673Y-50224361D01*
X53869673Y-50224361D02*
X53822054Y-50033885D01*
X53822054Y-50033885D02*
X53822054Y-49700552D01*
X53822054Y-49700552D02*
X53869673Y-49510076D01*
X53869673Y-49510076D02*
X53964911Y-49414838D01*
X53964911Y-49414838D02*
X54060149Y-49367219D01*
X54917292Y-50367219D02*
X54917292Y-49367219D01*
X54917292Y-49367219D02*
X55488720Y-50367219D01*
X55488720Y-50367219D02*
X55488720Y-49367219D01*
D13*
X71738095Y-67654819D02*
X71738095Y-68464342D01*
X71738095Y-68464342D02*
X71785714Y-68559580D01*
X71785714Y-68559580D02*
X71833333Y-68607200D01*
X71833333Y-68607200D02*
X71928571Y-68654819D01*
X71928571Y-68654819D02*
X72119047Y-68654819D01*
X72119047Y-68654819D02*
X72214285Y-68607200D01*
X72214285Y-68607200D02*
X72261904Y-68559580D01*
X72261904Y-68559580D02*
X72309523Y-68464342D01*
X72309523Y-68464342D02*
X72309523Y-67654819D01*
X72690476Y-67654819D02*
X73309523Y-67654819D01*
X73309523Y-67654819D02*
X72976190Y-68035771D01*
X72976190Y-68035771D02*
X73119047Y-68035771D01*
X73119047Y-68035771D02*
X73214285Y-68083390D01*
X73214285Y-68083390D02*
X73261904Y-68131009D01*
X73261904Y-68131009D02*
X73309523Y-68226247D01*
X73309523Y-68226247D02*
X73309523Y-68464342D01*
X73309523Y-68464342D02*
X73261904Y-68559580D01*
X73261904Y-68559580D02*
X73214285Y-68607200D01*
X73214285Y-68607200D02*
X73119047Y-68654819D01*
X73119047Y-68654819D02*
X72833333Y-68654819D01*
X72833333Y-68654819D02*
X72738095Y-68607200D01*
X72738095Y-68607200D02*
X72690476Y-68559580D01*
X36466666Y-86654819D02*
X36466666Y-87369104D01*
X36466666Y-87369104D02*
X36419047Y-87511961D01*
X36419047Y-87511961D02*
X36323809Y-87607200D01*
X36323809Y-87607200D02*
X36180952Y-87654819D01*
X36180952Y-87654819D02*
X36085714Y-87654819D01*
X36895238Y-86750057D02*
X36942857Y-86702438D01*
X36942857Y-86702438D02*
X37038095Y-86654819D01*
X37038095Y-86654819D02*
X37276190Y-86654819D01*
X37276190Y-86654819D02*
X37371428Y-86702438D01*
X37371428Y-86702438D02*
X37419047Y-86750057D01*
X37419047Y-86750057D02*
X37466666Y-86845295D01*
X37466666Y-86845295D02*
X37466666Y-86940533D01*
X37466666Y-86940533D02*
X37419047Y-87083390D01*
X37419047Y-87083390D02*
X36847619Y-87654819D01*
X36847619Y-87654819D02*
X37466666Y-87654819D01*
X66208333Y-62079580D02*
X66160714Y-62127200D01*
X66160714Y-62127200D02*
X66017857Y-62174819D01*
X66017857Y-62174819D02*
X65922619Y-62174819D01*
X65922619Y-62174819D02*
X65779762Y-62127200D01*
X65779762Y-62127200D02*
X65684524Y-62031961D01*
X65684524Y-62031961D02*
X65636905Y-61936723D01*
X65636905Y-61936723D02*
X65589286Y-61746247D01*
X65589286Y-61746247D02*
X65589286Y-61603390D01*
X65589286Y-61603390D02*
X65636905Y-61412914D01*
X65636905Y-61412914D02*
X65684524Y-61317676D01*
X65684524Y-61317676D02*
X65779762Y-61222438D01*
X65779762Y-61222438D02*
X65922619Y-61174819D01*
X65922619Y-61174819D02*
X66017857Y-61174819D01*
X66017857Y-61174819D02*
X66160714Y-61222438D01*
X66160714Y-61222438D02*
X66208333Y-61270057D01*
X67065476Y-61508152D02*
X67065476Y-62174819D01*
X66827381Y-61127200D02*
X66589286Y-61841485D01*
X66589286Y-61841485D02*
X67208333Y-61841485D01*
X90897142Y-78199580D02*
X90849523Y-78247200D01*
X90849523Y-78247200D02*
X90706666Y-78294819D01*
X90706666Y-78294819D02*
X90611428Y-78294819D01*
X90611428Y-78294819D02*
X90468571Y-78247200D01*
X90468571Y-78247200D02*
X90373333Y-78151961D01*
X90373333Y-78151961D02*
X90325714Y-78056723D01*
X90325714Y-78056723D02*
X90278095Y-77866247D01*
X90278095Y-77866247D02*
X90278095Y-77723390D01*
X90278095Y-77723390D02*
X90325714Y-77532914D01*
X90325714Y-77532914D02*
X90373333Y-77437676D01*
X90373333Y-77437676D02*
X90468571Y-77342438D01*
X90468571Y-77342438D02*
X90611428Y-77294819D01*
X90611428Y-77294819D02*
X90706666Y-77294819D01*
X90706666Y-77294819D02*
X90849523Y-77342438D01*
X90849523Y-77342438D02*
X90897142Y-77390057D01*
X91849523Y-78294819D02*
X91278095Y-78294819D01*
X91563809Y-78294819D02*
X91563809Y-77294819D01*
X91563809Y-77294819D02*
X91468571Y-77437676D01*
X91468571Y-77437676D02*
X91373333Y-77532914D01*
X91373333Y-77532914D02*
X91278095Y-77580533D01*
X92468571Y-77294819D02*
X92563809Y-77294819D01*
X92563809Y-77294819D02*
X92659047Y-77342438D01*
X92659047Y-77342438D02*
X92706666Y-77390057D01*
X92706666Y-77390057D02*
X92754285Y-77485295D01*
X92754285Y-77485295D02*
X92801904Y-77675771D01*
X92801904Y-77675771D02*
X92801904Y-77913866D01*
X92801904Y-77913866D02*
X92754285Y-78104342D01*
X92754285Y-78104342D02*
X92706666Y-78199580D01*
X92706666Y-78199580D02*
X92659047Y-78247200D01*
X92659047Y-78247200D02*
X92563809Y-78294819D01*
X92563809Y-78294819D02*
X92468571Y-78294819D01*
X92468571Y-78294819D02*
X92373333Y-78247200D01*
X92373333Y-78247200D02*
X92325714Y-78199580D01*
X92325714Y-78199580D02*
X92278095Y-78104342D01*
X92278095Y-78104342D02*
X92230476Y-77913866D01*
X92230476Y-77913866D02*
X92230476Y-77675771D01*
X92230476Y-77675771D02*
X92278095Y-77485295D01*
X92278095Y-77485295D02*
X92325714Y-77390057D01*
X92325714Y-77390057D02*
X92373333Y-77342438D01*
X92373333Y-77342438D02*
X92468571Y-77294819D01*
X64338095Y-50404819D02*
X64338095Y-51214342D01*
X64338095Y-51214342D02*
X64385714Y-51309580D01*
X64385714Y-51309580D02*
X64433333Y-51357200D01*
X64433333Y-51357200D02*
X64528571Y-51404819D01*
X64528571Y-51404819D02*
X64719047Y-51404819D01*
X64719047Y-51404819D02*
X64814285Y-51357200D01*
X64814285Y-51357200D02*
X64861904Y-51309580D01*
X64861904Y-51309580D02*
X64909523Y-51214342D01*
X64909523Y-51214342D02*
X64909523Y-50404819D01*
X65909523Y-51404819D02*
X65338095Y-51404819D01*
X65623809Y-51404819D02*
X65623809Y-50404819D01*
X65623809Y-50404819D02*
X65528571Y-50547676D01*
X65528571Y-50547676D02*
X65433333Y-50642914D01*
X65433333Y-50642914D02*
X65338095Y-50690533D01*
X71838095Y-50404819D02*
X71838095Y-51214342D01*
X71838095Y-51214342D02*
X71885714Y-51309580D01*
X71885714Y-51309580D02*
X71933333Y-51357200D01*
X71933333Y-51357200D02*
X72028571Y-51404819D01*
X72028571Y-51404819D02*
X72219047Y-51404819D01*
X72219047Y-51404819D02*
X72314285Y-51357200D01*
X72314285Y-51357200D02*
X72361904Y-51309580D01*
X72361904Y-51309580D02*
X72409523Y-51214342D01*
X72409523Y-51214342D02*
X72409523Y-50404819D01*
X72838095Y-50500057D02*
X72885714Y-50452438D01*
X72885714Y-50452438D02*
X72980952Y-50404819D01*
X72980952Y-50404819D02*
X73219047Y-50404819D01*
X73219047Y-50404819D02*
X73314285Y-50452438D01*
X73314285Y-50452438D02*
X73361904Y-50500057D01*
X73361904Y-50500057D02*
X73409523Y-50595295D01*
X73409523Y-50595295D02*
X73409523Y-50690533D01*
X73409523Y-50690533D02*
X73361904Y-50833390D01*
X73361904Y-50833390D02*
X72790476Y-51404819D01*
X72790476Y-51404819D02*
X73409523Y-51404819D01*
X56666666Y-89454819D02*
X56666666Y-90169104D01*
X56666666Y-90169104D02*
X56619047Y-90311961D01*
X56619047Y-90311961D02*
X56523809Y-90407200D01*
X56523809Y-90407200D02*
X56380952Y-90454819D01*
X56380952Y-90454819D02*
X56285714Y-90454819D01*
X57047619Y-89454819D02*
X57666666Y-89454819D01*
X57666666Y-89454819D02*
X57333333Y-89835771D01*
X57333333Y-89835771D02*
X57476190Y-89835771D01*
X57476190Y-89835771D02*
X57571428Y-89883390D01*
X57571428Y-89883390D02*
X57619047Y-89931009D01*
X57619047Y-89931009D02*
X57666666Y-90026247D01*
X57666666Y-90026247D02*
X57666666Y-90264342D01*
X57666666Y-90264342D02*
X57619047Y-90359580D01*
X57619047Y-90359580D02*
X57571428Y-90407200D01*
X57571428Y-90407200D02*
X57476190Y-90454819D01*
X57476190Y-90454819D02*
X57190476Y-90454819D01*
X57190476Y-90454819D02*
X57095238Y-90407200D01*
X57095238Y-90407200D02*
X57047619Y-90359580D01*
X37857142Y-70289580D02*
X37809523Y-70337200D01*
X37809523Y-70337200D02*
X37666666Y-70384819D01*
X37666666Y-70384819D02*
X37571428Y-70384819D01*
X37571428Y-70384819D02*
X37428571Y-70337200D01*
X37428571Y-70337200D02*
X37333333Y-70241961D01*
X37333333Y-70241961D02*
X37285714Y-70146723D01*
X37285714Y-70146723D02*
X37238095Y-69956247D01*
X37238095Y-69956247D02*
X37238095Y-69813390D01*
X37238095Y-69813390D02*
X37285714Y-69622914D01*
X37285714Y-69622914D02*
X37333333Y-69527676D01*
X37333333Y-69527676D02*
X37428571Y-69432438D01*
X37428571Y-69432438D02*
X37571428Y-69384819D01*
X37571428Y-69384819D02*
X37666666Y-69384819D01*
X37666666Y-69384819D02*
X37809523Y-69432438D01*
X37809523Y-69432438D02*
X37857142Y-69480057D01*
X38809523Y-70384819D02*
X38238095Y-70384819D01*
X38523809Y-70384819D02*
X38523809Y-69384819D01*
X38523809Y-69384819D02*
X38428571Y-69527676D01*
X38428571Y-69527676D02*
X38333333Y-69622914D01*
X38333333Y-69622914D02*
X38238095Y-69670533D01*
X39714285Y-69384819D02*
X39238095Y-69384819D01*
X39238095Y-69384819D02*
X39190476Y-69861009D01*
X39190476Y-69861009D02*
X39238095Y-69813390D01*
X39238095Y-69813390D02*
X39333333Y-69765771D01*
X39333333Y-69765771D02*
X39571428Y-69765771D01*
X39571428Y-69765771D02*
X39666666Y-69813390D01*
X39666666Y-69813390D02*
X39714285Y-69861009D01*
X39714285Y-69861009D02*
X39761904Y-69956247D01*
X39761904Y-69956247D02*
X39761904Y-70194342D01*
X39761904Y-70194342D02*
X39714285Y-70289580D01*
X39714285Y-70289580D02*
X39666666Y-70337200D01*
X39666666Y-70337200D02*
X39571428Y-70384819D01*
X39571428Y-70384819D02*
X39333333Y-70384819D01*
X39333333Y-70384819D02*
X39238095Y-70337200D01*
X39238095Y-70337200D02*
X39190476Y-70289580D01*
X74133333Y-49954819D02*
X73800000Y-49478628D01*
X73561905Y-49954819D02*
X73561905Y-48954819D01*
X73561905Y-48954819D02*
X73942857Y-48954819D01*
X73942857Y-48954819D02*
X74038095Y-49002438D01*
X74038095Y-49002438D02*
X74085714Y-49050057D01*
X74085714Y-49050057D02*
X74133333Y-49145295D01*
X74133333Y-49145295D02*
X74133333Y-49288152D01*
X74133333Y-49288152D02*
X74085714Y-49383390D01*
X74085714Y-49383390D02*
X74038095Y-49431009D01*
X74038095Y-49431009D02*
X73942857Y-49478628D01*
X73942857Y-49478628D02*
X73561905Y-49478628D01*
X75085714Y-49954819D02*
X74514286Y-49954819D01*
X74800000Y-49954819D02*
X74800000Y-48954819D01*
X74800000Y-48954819D02*
X74704762Y-49097676D01*
X74704762Y-49097676D02*
X74609524Y-49192914D01*
X74609524Y-49192914D02*
X74514286Y-49240533D01*
D12*
X83654510Y-53900828D02*
X83654510Y-52400828D01*
X83654510Y-52400828D02*
X84011653Y-52400828D01*
X84011653Y-52400828D02*
X84225939Y-52472257D01*
X84225939Y-52472257D02*
X84368796Y-52615114D01*
X84368796Y-52615114D02*
X84440225Y-52757971D01*
X84440225Y-52757971D02*
X84511653Y-53043685D01*
X84511653Y-53043685D02*
X84511653Y-53257971D01*
X84511653Y-53257971D02*
X84440225Y-53543685D01*
X84440225Y-53543685D02*
X84368796Y-53686542D01*
X84368796Y-53686542D02*
X84225939Y-53829400D01*
X84225939Y-53829400D02*
X84011653Y-53900828D01*
X84011653Y-53900828D02*
X83654510Y-53900828D01*
X85154510Y-53900828D02*
X85154510Y-52400828D01*
X85154510Y-53115114D02*
X86011653Y-53115114D01*
X86011653Y-53900828D02*
X86011653Y-52400828D01*
X86511654Y-52400828D02*
X87368797Y-52400828D01*
X86940225Y-53900828D02*
X86940225Y-52400828D01*
X88654511Y-53900828D02*
X87797368Y-53900828D01*
X88225939Y-53900828D02*
X88225939Y-52400828D01*
X88225939Y-52400828D02*
X88083082Y-52615114D01*
X88083082Y-52615114D02*
X87940225Y-52757971D01*
X87940225Y-52757971D02*
X87797368Y-52829400D01*
X90083082Y-53900828D02*
X89225939Y-53900828D01*
X89654510Y-53900828D02*
X89654510Y-52400828D01*
X89654510Y-52400828D02*
X89511653Y-52615114D01*
X89511653Y-52615114D02*
X89368796Y-52757971D01*
X89368796Y-52757971D02*
X89225939Y-52829400D01*
D13*
X51963333Y-63459580D02*
X51915714Y-63507200D01*
X51915714Y-63507200D02*
X51772857Y-63554819D01*
X51772857Y-63554819D02*
X51677619Y-63554819D01*
X51677619Y-63554819D02*
X51534762Y-63507200D01*
X51534762Y-63507200D02*
X51439524Y-63411961D01*
X51439524Y-63411961D02*
X51391905Y-63316723D01*
X51391905Y-63316723D02*
X51344286Y-63126247D01*
X51344286Y-63126247D02*
X51344286Y-62983390D01*
X51344286Y-62983390D02*
X51391905Y-62792914D01*
X51391905Y-62792914D02*
X51439524Y-62697676D01*
X51439524Y-62697676D02*
X51534762Y-62602438D01*
X51534762Y-62602438D02*
X51677619Y-62554819D01*
X51677619Y-62554819D02*
X51772857Y-62554819D01*
X51772857Y-62554819D02*
X51915714Y-62602438D01*
X51915714Y-62602438D02*
X51963333Y-62650057D01*
X52344286Y-62650057D02*
X52391905Y-62602438D01*
X52391905Y-62602438D02*
X52487143Y-62554819D01*
X52487143Y-62554819D02*
X52725238Y-62554819D01*
X52725238Y-62554819D02*
X52820476Y-62602438D01*
X52820476Y-62602438D02*
X52868095Y-62650057D01*
X52868095Y-62650057D02*
X52915714Y-62745295D01*
X52915714Y-62745295D02*
X52915714Y-62840533D01*
X52915714Y-62840533D02*
X52868095Y-62983390D01*
X52868095Y-62983390D02*
X52296667Y-63554819D01*
X52296667Y-63554819D02*
X52915714Y-63554819D01*
X72033333Y-66244819D02*
X71700000Y-65768628D01*
X71461905Y-66244819D02*
X71461905Y-65244819D01*
X71461905Y-65244819D02*
X71842857Y-65244819D01*
X71842857Y-65244819D02*
X71938095Y-65292438D01*
X71938095Y-65292438D02*
X71985714Y-65340057D01*
X71985714Y-65340057D02*
X72033333Y-65435295D01*
X72033333Y-65435295D02*
X72033333Y-65578152D01*
X72033333Y-65578152D02*
X71985714Y-65673390D01*
X71985714Y-65673390D02*
X71938095Y-65721009D01*
X71938095Y-65721009D02*
X71842857Y-65768628D01*
X71842857Y-65768628D02*
X71461905Y-65768628D01*
X72366667Y-65244819D02*
X72985714Y-65244819D01*
X72985714Y-65244819D02*
X72652381Y-65625771D01*
X72652381Y-65625771D02*
X72795238Y-65625771D01*
X72795238Y-65625771D02*
X72890476Y-65673390D01*
X72890476Y-65673390D02*
X72938095Y-65721009D01*
X72938095Y-65721009D02*
X72985714Y-65816247D01*
X72985714Y-65816247D02*
X72985714Y-66054342D01*
X72985714Y-66054342D02*
X72938095Y-66149580D01*
X72938095Y-66149580D02*
X72890476Y-66197200D01*
X72890476Y-66197200D02*
X72795238Y-66244819D01*
X72795238Y-66244819D02*
X72509524Y-66244819D01*
X72509524Y-66244819D02*
X72414286Y-66197200D01*
X72414286Y-66197200D02*
X72366667Y-66149580D01*
X56133333Y-74859580D02*
X56085714Y-74907200D01*
X56085714Y-74907200D02*
X55942857Y-74954819D01*
X55942857Y-74954819D02*
X55847619Y-74954819D01*
X55847619Y-74954819D02*
X55704762Y-74907200D01*
X55704762Y-74907200D02*
X55609524Y-74811961D01*
X55609524Y-74811961D02*
X55561905Y-74716723D01*
X55561905Y-74716723D02*
X55514286Y-74526247D01*
X55514286Y-74526247D02*
X55514286Y-74383390D01*
X55514286Y-74383390D02*
X55561905Y-74192914D01*
X55561905Y-74192914D02*
X55609524Y-74097676D01*
X55609524Y-74097676D02*
X55704762Y-74002438D01*
X55704762Y-74002438D02*
X55847619Y-73954819D01*
X55847619Y-73954819D02*
X55942857Y-73954819D01*
X55942857Y-73954819D02*
X56085714Y-74002438D01*
X56085714Y-74002438D02*
X56133333Y-74050057D01*
X56466667Y-73954819D02*
X57133333Y-73954819D01*
X57133333Y-73954819D02*
X56704762Y-74954819D01*
X67333333Y-79854819D02*
X67000000Y-79378628D01*
X66761905Y-79854819D02*
X66761905Y-78854819D01*
X66761905Y-78854819D02*
X67142857Y-78854819D01*
X67142857Y-78854819D02*
X67238095Y-78902438D01*
X67238095Y-78902438D02*
X67285714Y-78950057D01*
X67285714Y-78950057D02*
X67333333Y-79045295D01*
X67333333Y-79045295D02*
X67333333Y-79188152D01*
X67333333Y-79188152D02*
X67285714Y-79283390D01*
X67285714Y-79283390D02*
X67238095Y-79331009D01*
X67238095Y-79331009D02*
X67142857Y-79378628D01*
X67142857Y-79378628D02*
X66761905Y-79378628D01*
X67714286Y-78950057D02*
X67761905Y-78902438D01*
X67761905Y-78902438D02*
X67857143Y-78854819D01*
X67857143Y-78854819D02*
X68095238Y-78854819D01*
X68095238Y-78854819D02*
X68190476Y-78902438D01*
X68190476Y-78902438D02*
X68238095Y-78950057D01*
X68238095Y-78950057D02*
X68285714Y-79045295D01*
X68285714Y-79045295D02*
X68285714Y-79140533D01*
X68285714Y-79140533D02*
X68238095Y-79283390D01*
X68238095Y-79283390D02*
X67666667Y-79854819D01*
X67666667Y-79854819D02*
X68285714Y-79854819D01*
X38833333Y-67524819D02*
X38500000Y-67048628D01*
X38261905Y-67524819D02*
X38261905Y-66524819D01*
X38261905Y-66524819D02*
X38642857Y-66524819D01*
X38642857Y-66524819D02*
X38738095Y-66572438D01*
X38738095Y-66572438D02*
X38785714Y-66620057D01*
X38785714Y-66620057D02*
X38833333Y-66715295D01*
X38833333Y-66715295D02*
X38833333Y-66858152D01*
X38833333Y-66858152D02*
X38785714Y-66953390D01*
X38785714Y-66953390D02*
X38738095Y-67001009D01*
X38738095Y-67001009D02*
X38642857Y-67048628D01*
X38642857Y-67048628D02*
X38261905Y-67048628D01*
X39690476Y-66858152D02*
X39690476Y-67524819D01*
X39452381Y-66477200D02*
X39214286Y-67191485D01*
X39214286Y-67191485D02*
X39833333Y-67191485D01*
X83157142Y-59659580D02*
X83109523Y-59707200D01*
X83109523Y-59707200D02*
X82966666Y-59754819D01*
X82966666Y-59754819D02*
X82871428Y-59754819D01*
X82871428Y-59754819D02*
X82728571Y-59707200D01*
X82728571Y-59707200D02*
X82633333Y-59611961D01*
X82633333Y-59611961D02*
X82585714Y-59516723D01*
X82585714Y-59516723D02*
X82538095Y-59326247D01*
X82538095Y-59326247D02*
X82538095Y-59183390D01*
X82538095Y-59183390D02*
X82585714Y-58992914D01*
X82585714Y-58992914D02*
X82633333Y-58897676D01*
X82633333Y-58897676D02*
X82728571Y-58802438D01*
X82728571Y-58802438D02*
X82871428Y-58754819D01*
X82871428Y-58754819D02*
X82966666Y-58754819D01*
X82966666Y-58754819D02*
X83109523Y-58802438D01*
X83109523Y-58802438D02*
X83157142Y-58850057D01*
X84109523Y-59754819D02*
X83538095Y-59754819D01*
X83823809Y-59754819D02*
X83823809Y-58754819D01*
X83823809Y-58754819D02*
X83728571Y-58897676D01*
X83728571Y-58897676D02*
X83633333Y-58992914D01*
X83633333Y-58992914D02*
X83538095Y-59040533D01*
X84442857Y-58754819D02*
X85061904Y-58754819D01*
X85061904Y-58754819D02*
X84728571Y-59135771D01*
X84728571Y-59135771D02*
X84871428Y-59135771D01*
X84871428Y-59135771D02*
X84966666Y-59183390D01*
X84966666Y-59183390D02*
X85014285Y-59231009D01*
X85014285Y-59231009D02*
X85061904Y-59326247D01*
X85061904Y-59326247D02*
X85061904Y-59564342D01*
X85061904Y-59564342D02*
X85014285Y-59659580D01*
X85014285Y-59659580D02*
X84966666Y-59707200D01*
X84966666Y-59707200D02*
X84871428Y-59754819D01*
X84871428Y-59754819D02*
X84585714Y-59754819D01*
X84585714Y-59754819D02*
X84490476Y-59707200D01*
X84490476Y-59707200D02*
X84442857Y-59659580D01*
X36966666Y-61624819D02*
X36966666Y-62339104D01*
X36966666Y-62339104D02*
X36919047Y-62481961D01*
X36919047Y-62481961D02*
X36823809Y-62577200D01*
X36823809Y-62577200D02*
X36680952Y-62624819D01*
X36680952Y-62624819D02*
X36585714Y-62624819D01*
X37966666Y-62624819D02*
X37395238Y-62624819D01*
X37680952Y-62624819D02*
X37680952Y-61624819D01*
X37680952Y-61624819D02*
X37585714Y-61767676D01*
X37585714Y-61767676D02*
X37490476Y-61862914D01*
X37490476Y-61862914D02*
X37395238Y-61910533D01*
X93503809Y-67048628D02*
X93503809Y-67524819D01*
X93170476Y-66524819D02*
X93503809Y-67048628D01*
X93503809Y-67048628D02*
X93837142Y-66524819D01*
X94694285Y-67524819D02*
X94122857Y-67524819D01*
X94408571Y-67524819D02*
X94408571Y-66524819D01*
X94408571Y-66524819D02*
X94313333Y-66667676D01*
X94313333Y-66667676D02*
X94218095Y-66762914D01*
X94218095Y-66762914D02*
X94122857Y-66810533D01*
X51993333Y-59709580D02*
X51945714Y-59757200D01*
X51945714Y-59757200D02*
X51802857Y-59804819D01*
X51802857Y-59804819D02*
X51707619Y-59804819D01*
X51707619Y-59804819D02*
X51564762Y-59757200D01*
X51564762Y-59757200D02*
X51469524Y-59661961D01*
X51469524Y-59661961D02*
X51421905Y-59566723D01*
X51421905Y-59566723D02*
X51374286Y-59376247D01*
X51374286Y-59376247D02*
X51374286Y-59233390D01*
X51374286Y-59233390D02*
X51421905Y-59042914D01*
X51421905Y-59042914D02*
X51469524Y-58947676D01*
X51469524Y-58947676D02*
X51564762Y-58852438D01*
X51564762Y-58852438D02*
X51707619Y-58804819D01*
X51707619Y-58804819D02*
X51802857Y-58804819D01*
X51802857Y-58804819D02*
X51945714Y-58852438D01*
X51945714Y-58852438D02*
X51993333Y-58900057D01*
X52326667Y-58804819D02*
X52945714Y-58804819D01*
X52945714Y-58804819D02*
X52612381Y-59185771D01*
X52612381Y-59185771D02*
X52755238Y-59185771D01*
X52755238Y-59185771D02*
X52850476Y-59233390D01*
X52850476Y-59233390D02*
X52898095Y-59281009D01*
X52898095Y-59281009D02*
X52945714Y-59376247D01*
X52945714Y-59376247D02*
X52945714Y-59614342D01*
X52945714Y-59614342D02*
X52898095Y-59709580D01*
X52898095Y-59709580D02*
X52850476Y-59757200D01*
X52850476Y-59757200D02*
X52755238Y-59804819D01*
X52755238Y-59804819D02*
X52469524Y-59804819D01*
X52469524Y-59804819D02*
X52374286Y-59757200D01*
X52374286Y-59757200D02*
X52326667Y-59709580D01*
X78813333Y-70889580D02*
X78765714Y-70937200D01*
X78765714Y-70937200D02*
X78622857Y-70984819D01*
X78622857Y-70984819D02*
X78527619Y-70984819D01*
X78527619Y-70984819D02*
X78384762Y-70937200D01*
X78384762Y-70937200D02*
X78289524Y-70841961D01*
X78289524Y-70841961D02*
X78241905Y-70746723D01*
X78241905Y-70746723D02*
X78194286Y-70556247D01*
X78194286Y-70556247D02*
X78194286Y-70413390D01*
X78194286Y-70413390D02*
X78241905Y-70222914D01*
X78241905Y-70222914D02*
X78289524Y-70127676D01*
X78289524Y-70127676D02*
X78384762Y-70032438D01*
X78384762Y-70032438D02*
X78527619Y-69984819D01*
X78527619Y-69984819D02*
X78622857Y-69984819D01*
X78622857Y-69984819D02*
X78765714Y-70032438D01*
X78765714Y-70032438D02*
X78813333Y-70080057D01*
X79670476Y-69984819D02*
X79480000Y-69984819D01*
X79480000Y-69984819D02*
X79384762Y-70032438D01*
X79384762Y-70032438D02*
X79337143Y-70080057D01*
X79337143Y-70080057D02*
X79241905Y-70222914D01*
X79241905Y-70222914D02*
X79194286Y-70413390D01*
X79194286Y-70413390D02*
X79194286Y-70794342D01*
X79194286Y-70794342D02*
X79241905Y-70889580D01*
X79241905Y-70889580D02*
X79289524Y-70937200D01*
X79289524Y-70937200D02*
X79384762Y-70984819D01*
X79384762Y-70984819D02*
X79575238Y-70984819D01*
X79575238Y-70984819D02*
X79670476Y-70937200D01*
X79670476Y-70937200D02*
X79718095Y-70889580D01*
X79718095Y-70889580D02*
X79765714Y-70794342D01*
X79765714Y-70794342D02*
X79765714Y-70556247D01*
X79765714Y-70556247D02*
X79718095Y-70461009D01*
X79718095Y-70461009D02*
X79670476Y-70413390D01*
X79670476Y-70413390D02*
X79575238Y-70365771D01*
X79575238Y-70365771D02*
X79384762Y-70365771D01*
X79384762Y-70365771D02*
X79289524Y-70413390D01*
X79289524Y-70413390D02*
X79241905Y-70461009D01*
X79241905Y-70461009D02*
X79194286Y-70556247D01*
X52033333Y-57139580D02*
X51985714Y-57187200D01*
X51985714Y-57187200D02*
X51842857Y-57234819D01*
X51842857Y-57234819D02*
X51747619Y-57234819D01*
X51747619Y-57234819D02*
X51604762Y-57187200D01*
X51604762Y-57187200D02*
X51509524Y-57091961D01*
X51509524Y-57091961D02*
X51461905Y-56996723D01*
X51461905Y-56996723D02*
X51414286Y-56806247D01*
X51414286Y-56806247D02*
X51414286Y-56663390D01*
X51414286Y-56663390D02*
X51461905Y-56472914D01*
X51461905Y-56472914D02*
X51509524Y-56377676D01*
X51509524Y-56377676D02*
X51604762Y-56282438D01*
X51604762Y-56282438D02*
X51747619Y-56234819D01*
X51747619Y-56234819D02*
X51842857Y-56234819D01*
X51842857Y-56234819D02*
X51985714Y-56282438D01*
X51985714Y-56282438D02*
X52033333Y-56330057D01*
X52985714Y-57234819D02*
X52414286Y-57234819D01*
X52700000Y-57234819D02*
X52700000Y-56234819D01*
X52700000Y-56234819D02*
X52604762Y-56377676D01*
X52604762Y-56377676D02*
X52509524Y-56472914D01*
X52509524Y-56472914D02*
X52414286Y-56520533D01*
X49131905Y-53984819D02*
X49131905Y-52984819D01*
X49131905Y-52984819D02*
X49370000Y-52984819D01*
X49370000Y-52984819D02*
X49512857Y-53032438D01*
X49512857Y-53032438D02*
X49608095Y-53127676D01*
X49608095Y-53127676D02*
X49655714Y-53222914D01*
X49655714Y-53222914D02*
X49703333Y-53413390D01*
X49703333Y-53413390D02*
X49703333Y-53556247D01*
X49703333Y-53556247D02*
X49655714Y-53746723D01*
X49655714Y-53746723D02*
X49608095Y-53841961D01*
X49608095Y-53841961D02*
X49512857Y-53937200D01*
X49512857Y-53937200D02*
X49370000Y-53984819D01*
X49370000Y-53984819D02*
X49131905Y-53984819D01*
X50655714Y-53984819D02*
X50084286Y-53984819D01*
X50370000Y-53984819D02*
X50370000Y-52984819D01*
X50370000Y-52984819D02*
X50274762Y-53127676D01*
X50274762Y-53127676D02*
X50179524Y-53222914D01*
X50179524Y-53222914D02*
X50084286Y-53270533D01*
X83157142Y-81159580D02*
X83109523Y-81207200D01*
X83109523Y-81207200D02*
X82966666Y-81254819D01*
X82966666Y-81254819D02*
X82871428Y-81254819D01*
X82871428Y-81254819D02*
X82728571Y-81207200D01*
X82728571Y-81207200D02*
X82633333Y-81111961D01*
X82633333Y-81111961D02*
X82585714Y-81016723D01*
X82585714Y-81016723D02*
X82538095Y-80826247D01*
X82538095Y-80826247D02*
X82538095Y-80683390D01*
X82538095Y-80683390D02*
X82585714Y-80492914D01*
X82585714Y-80492914D02*
X82633333Y-80397676D01*
X82633333Y-80397676D02*
X82728571Y-80302438D01*
X82728571Y-80302438D02*
X82871428Y-80254819D01*
X82871428Y-80254819D02*
X82966666Y-80254819D01*
X82966666Y-80254819D02*
X83109523Y-80302438D01*
X83109523Y-80302438D02*
X83157142Y-80350057D01*
X84109523Y-81254819D02*
X83538095Y-81254819D01*
X83823809Y-81254819D02*
X83823809Y-80254819D01*
X83823809Y-80254819D02*
X83728571Y-80397676D01*
X83728571Y-80397676D02*
X83633333Y-80492914D01*
X83633333Y-80492914D02*
X83538095Y-80540533D01*
X84490476Y-80350057D02*
X84538095Y-80302438D01*
X84538095Y-80302438D02*
X84633333Y-80254819D01*
X84633333Y-80254819D02*
X84871428Y-80254819D01*
X84871428Y-80254819D02*
X84966666Y-80302438D01*
X84966666Y-80302438D02*
X85014285Y-80350057D01*
X85014285Y-80350057D02*
X85061904Y-80445295D01*
X85061904Y-80445295D02*
X85061904Y-80540533D01*
X85061904Y-80540533D02*
X85014285Y-80683390D01*
X85014285Y-80683390D02*
X84442857Y-81254819D01*
X84442857Y-81254819D02*
X85061904Y-81254819D01*
X78743333Y-76129580D02*
X78695714Y-76177200D01*
X78695714Y-76177200D02*
X78552857Y-76224819D01*
X78552857Y-76224819D02*
X78457619Y-76224819D01*
X78457619Y-76224819D02*
X78314762Y-76177200D01*
X78314762Y-76177200D02*
X78219524Y-76081961D01*
X78219524Y-76081961D02*
X78171905Y-75986723D01*
X78171905Y-75986723D02*
X78124286Y-75796247D01*
X78124286Y-75796247D02*
X78124286Y-75653390D01*
X78124286Y-75653390D02*
X78171905Y-75462914D01*
X78171905Y-75462914D02*
X78219524Y-75367676D01*
X78219524Y-75367676D02*
X78314762Y-75272438D01*
X78314762Y-75272438D02*
X78457619Y-75224819D01*
X78457619Y-75224819D02*
X78552857Y-75224819D01*
X78552857Y-75224819D02*
X78695714Y-75272438D01*
X78695714Y-75272438D02*
X78743333Y-75320057D01*
X79314762Y-75653390D02*
X79219524Y-75605771D01*
X79219524Y-75605771D02*
X79171905Y-75558152D01*
X79171905Y-75558152D02*
X79124286Y-75462914D01*
X79124286Y-75462914D02*
X79124286Y-75415295D01*
X79124286Y-75415295D02*
X79171905Y-75320057D01*
X79171905Y-75320057D02*
X79219524Y-75272438D01*
X79219524Y-75272438D02*
X79314762Y-75224819D01*
X79314762Y-75224819D02*
X79505238Y-75224819D01*
X79505238Y-75224819D02*
X79600476Y-75272438D01*
X79600476Y-75272438D02*
X79648095Y-75320057D01*
X79648095Y-75320057D02*
X79695714Y-75415295D01*
X79695714Y-75415295D02*
X79695714Y-75462914D01*
X79695714Y-75462914D02*
X79648095Y-75558152D01*
X79648095Y-75558152D02*
X79600476Y-75605771D01*
X79600476Y-75605771D02*
X79505238Y-75653390D01*
X79505238Y-75653390D02*
X79314762Y-75653390D01*
X79314762Y-75653390D02*
X79219524Y-75701009D01*
X79219524Y-75701009D02*
X79171905Y-75748628D01*
X79171905Y-75748628D02*
X79124286Y-75843866D01*
X79124286Y-75843866D02*
X79124286Y-76034342D01*
X79124286Y-76034342D02*
X79171905Y-76129580D01*
X79171905Y-76129580D02*
X79219524Y-76177200D01*
X79219524Y-76177200D02*
X79314762Y-76224819D01*
X79314762Y-76224819D02*
X79505238Y-76224819D01*
X79505238Y-76224819D02*
X79600476Y-76177200D01*
X79600476Y-76177200D02*
X79648095Y-76129580D01*
X79648095Y-76129580D02*
X79695714Y-76034342D01*
X79695714Y-76034342D02*
X79695714Y-75843866D01*
X79695714Y-75843866D02*
X79648095Y-75748628D01*
X79648095Y-75748628D02*
X79600476Y-75701009D01*
X79600476Y-75701009D02*
X79505238Y-75653390D01*
X59953333Y-66132080D02*
X59905714Y-66179700D01*
X59905714Y-66179700D02*
X59762857Y-66227319D01*
X59762857Y-66227319D02*
X59667619Y-66227319D01*
X59667619Y-66227319D02*
X59524762Y-66179700D01*
X59524762Y-66179700D02*
X59429524Y-66084461D01*
X59429524Y-66084461D02*
X59381905Y-65989223D01*
X59381905Y-65989223D02*
X59334286Y-65798747D01*
X59334286Y-65798747D02*
X59334286Y-65655890D01*
X59334286Y-65655890D02*
X59381905Y-65465414D01*
X59381905Y-65465414D02*
X59429524Y-65370176D01*
X59429524Y-65370176D02*
X59524762Y-65274938D01*
X59524762Y-65274938D02*
X59667619Y-65227319D01*
X59667619Y-65227319D02*
X59762857Y-65227319D01*
X59762857Y-65227319D02*
X59905714Y-65274938D01*
X59905714Y-65274938D02*
X59953333Y-65322557D01*
X60429524Y-66227319D02*
X60620000Y-66227319D01*
X60620000Y-66227319D02*
X60715238Y-66179700D01*
X60715238Y-66179700D02*
X60762857Y-66132080D01*
X60762857Y-66132080D02*
X60858095Y-65989223D01*
X60858095Y-65989223D02*
X60905714Y-65798747D01*
X60905714Y-65798747D02*
X60905714Y-65417795D01*
X60905714Y-65417795D02*
X60858095Y-65322557D01*
X60858095Y-65322557D02*
X60810476Y-65274938D01*
X60810476Y-65274938D02*
X60715238Y-65227319D01*
X60715238Y-65227319D02*
X60524762Y-65227319D01*
X60524762Y-65227319D02*
X60429524Y-65274938D01*
X60429524Y-65274938D02*
X60381905Y-65322557D01*
X60381905Y-65322557D02*
X60334286Y-65417795D01*
X60334286Y-65417795D02*
X60334286Y-65655890D01*
X60334286Y-65655890D02*
X60381905Y-65751128D01*
X60381905Y-65751128D02*
X60429524Y-65798747D01*
X60429524Y-65798747D02*
X60524762Y-65846366D01*
X60524762Y-65846366D02*
X60715238Y-65846366D01*
X60715238Y-65846366D02*
X60810476Y-65798747D01*
X60810476Y-65798747D02*
X60858095Y-65751128D01*
X60858095Y-65751128D02*
X60905714Y-65655890D01*
X79083809Y-66978628D02*
X79083809Y-67454819D01*
X78750476Y-66454819D02*
X79083809Y-66978628D01*
X79083809Y-66978628D02*
X79417142Y-66454819D01*
X79702857Y-66550057D02*
X79750476Y-66502438D01*
X79750476Y-66502438D02*
X79845714Y-66454819D01*
X79845714Y-66454819D02*
X80083809Y-66454819D01*
X80083809Y-66454819D02*
X80179047Y-66502438D01*
X80179047Y-66502438D02*
X80226666Y-66550057D01*
X80226666Y-66550057D02*
X80274285Y-66645295D01*
X80274285Y-66645295D02*
X80274285Y-66740533D01*
X80274285Y-66740533D02*
X80226666Y-66883390D01*
X80226666Y-66883390D02*
X79655238Y-67454819D01*
X79655238Y-67454819D02*
X80274285Y-67454819D01*
X76783333Y-78669580D02*
X76735714Y-78717200D01*
X76735714Y-78717200D02*
X76592857Y-78764819D01*
X76592857Y-78764819D02*
X76497619Y-78764819D01*
X76497619Y-78764819D02*
X76354762Y-78717200D01*
X76354762Y-78717200D02*
X76259524Y-78621961D01*
X76259524Y-78621961D02*
X76211905Y-78526723D01*
X76211905Y-78526723D02*
X76164286Y-78336247D01*
X76164286Y-78336247D02*
X76164286Y-78193390D01*
X76164286Y-78193390D02*
X76211905Y-78002914D01*
X76211905Y-78002914D02*
X76259524Y-77907676D01*
X76259524Y-77907676D02*
X76354762Y-77812438D01*
X76354762Y-77812438D02*
X76497619Y-77764819D01*
X76497619Y-77764819D02*
X76592857Y-77764819D01*
X76592857Y-77764819D02*
X76735714Y-77812438D01*
X76735714Y-77812438D02*
X76783333Y-77860057D01*
X77688095Y-77764819D02*
X77211905Y-77764819D01*
X77211905Y-77764819D02*
X77164286Y-78241009D01*
X77164286Y-78241009D02*
X77211905Y-78193390D01*
X77211905Y-78193390D02*
X77307143Y-78145771D01*
X77307143Y-78145771D02*
X77545238Y-78145771D01*
X77545238Y-78145771D02*
X77640476Y-78193390D01*
X77640476Y-78193390D02*
X77688095Y-78241009D01*
X77688095Y-78241009D02*
X77735714Y-78336247D01*
X77735714Y-78336247D02*
X77735714Y-78574342D01*
X77735714Y-78574342D02*
X77688095Y-78669580D01*
X77688095Y-78669580D02*
X77640476Y-78717200D01*
X77640476Y-78717200D02*
X77545238Y-78764819D01*
X77545238Y-78764819D02*
X77307143Y-78764819D01*
X77307143Y-78764819D02*
X77211905Y-78717200D01*
X77211905Y-78717200D02*
X77164286Y-78669580D01*
X56966667Y-42907200D02*
X57109524Y-42954819D01*
X57109524Y-42954819D02*
X57347619Y-42954819D01*
X57347619Y-42954819D02*
X57442857Y-42907200D01*
X57442857Y-42907200D02*
X57490476Y-42859580D01*
X57490476Y-42859580D02*
X57538095Y-42764342D01*
X57538095Y-42764342D02*
X57538095Y-42669104D01*
X57538095Y-42669104D02*
X57490476Y-42573866D01*
X57490476Y-42573866D02*
X57442857Y-42526247D01*
X57442857Y-42526247D02*
X57347619Y-42478628D01*
X57347619Y-42478628D02*
X57157143Y-42431009D01*
X57157143Y-42431009D02*
X57061905Y-42383390D01*
X57061905Y-42383390D02*
X57014286Y-42335771D01*
X57014286Y-42335771D02*
X56966667Y-42240533D01*
X56966667Y-42240533D02*
X56966667Y-42145295D01*
X56966667Y-42145295D02*
X57014286Y-42050057D01*
X57014286Y-42050057D02*
X57061905Y-42002438D01*
X57061905Y-42002438D02*
X57157143Y-41954819D01*
X57157143Y-41954819D02*
X57395238Y-41954819D01*
X57395238Y-41954819D02*
X57538095Y-42002438D01*
X57871429Y-41954819D02*
X58109524Y-42954819D01*
X58109524Y-42954819D02*
X58300000Y-42240533D01*
X58300000Y-42240533D02*
X58490476Y-42954819D01*
X58490476Y-42954819D02*
X58728572Y-41954819D01*
X59633333Y-42954819D02*
X59061905Y-42954819D01*
X59347619Y-42954819D02*
X59347619Y-41954819D01*
X59347619Y-41954819D02*
X59252381Y-42097676D01*
X59252381Y-42097676D02*
X59157143Y-42192914D01*
X59157143Y-42192914D02*
X59061905Y-42240533D01*
X68531905Y-49924819D02*
X68531905Y-48924819D01*
X68531905Y-48924819D02*
X68770000Y-48924819D01*
X68770000Y-48924819D02*
X68912857Y-48972438D01*
X68912857Y-48972438D02*
X69008095Y-49067676D01*
X69008095Y-49067676D02*
X69055714Y-49162914D01*
X69055714Y-49162914D02*
X69103333Y-49353390D01*
X69103333Y-49353390D02*
X69103333Y-49496247D01*
X69103333Y-49496247D02*
X69055714Y-49686723D01*
X69055714Y-49686723D02*
X69008095Y-49781961D01*
X69008095Y-49781961D02*
X68912857Y-49877200D01*
X68912857Y-49877200D02*
X68770000Y-49924819D01*
X68770000Y-49924819D02*
X68531905Y-49924819D01*
X69484286Y-49020057D02*
X69531905Y-48972438D01*
X69531905Y-48972438D02*
X69627143Y-48924819D01*
X69627143Y-48924819D02*
X69865238Y-48924819D01*
X69865238Y-48924819D02*
X69960476Y-48972438D01*
X69960476Y-48972438D02*
X70008095Y-49020057D01*
X70008095Y-49020057D02*
X70055714Y-49115295D01*
X70055714Y-49115295D02*
X70055714Y-49210533D01*
X70055714Y-49210533D02*
X70008095Y-49353390D01*
X70008095Y-49353390D02*
X69436667Y-49924819D01*
X69436667Y-49924819D02*
X70055714Y-49924819D01*
X34941667Y-45624700D02*
X35084524Y-45672319D01*
X35084524Y-45672319D02*
X35322619Y-45672319D01*
X35322619Y-45672319D02*
X35417857Y-45624700D01*
X35417857Y-45624700D02*
X35465476Y-45577080D01*
X35465476Y-45577080D02*
X35513095Y-45481842D01*
X35513095Y-45481842D02*
X35513095Y-45386604D01*
X35513095Y-45386604D02*
X35465476Y-45291366D01*
X35465476Y-45291366D02*
X35417857Y-45243747D01*
X35417857Y-45243747D02*
X35322619Y-45196128D01*
X35322619Y-45196128D02*
X35132143Y-45148509D01*
X35132143Y-45148509D02*
X35036905Y-45100890D01*
X35036905Y-45100890D02*
X34989286Y-45053271D01*
X34989286Y-45053271D02*
X34941667Y-44958033D01*
X34941667Y-44958033D02*
X34941667Y-44862795D01*
X34941667Y-44862795D02*
X34989286Y-44767557D01*
X34989286Y-44767557D02*
X35036905Y-44719938D01*
X35036905Y-44719938D02*
X35132143Y-44672319D01*
X35132143Y-44672319D02*
X35370238Y-44672319D01*
X35370238Y-44672319D02*
X35513095Y-44719938D01*
X35846429Y-44672319D02*
X36084524Y-45672319D01*
X36084524Y-45672319D02*
X36275000Y-44958033D01*
X36275000Y-44958033D02*
X36465476Y-45672319D01*
X36465476Y-45672319D02*
X36703572Y-44672319D01*
X37036905Y-44767557D02*
X37084524Y-44719938D01*
X37084524Y-44719938D02*
X37179762Y-44672319D01*
X37179762Y-44672319D02*
X37417857Y-44672319D01*
X37417857Y-44672319D02*
X37513095Y-44719938D01*
X37513095Y-44719938D02*
X37560714Y-44767557D01*
X37560714Y-44767557D02*
X37608333Y-44862795D01*
X37608333Y-44862795D02*
X37608333Y-44958033D01*
X37608333Y-44958033D02*
X37560714Y-45100890D01*
X37560714Y-45100890D02*
X36989286Y-45672319D01*
X36989286Y-45672319D02*
X37608333Y-45672319D01*
X87657142Y-78189580D02*
X87609523Y-78237200D01*
X87609523Y-78237200D02*
X87466666Y-78284819D01*
X87466666Y-78284819D02*
X87371428Y-78284819D01*
X87371428Y-78284819D02*
X87228571Y-78237200D01*
X87228571Y-78237200D02*
X87133333Y-78141961D01*
X87133333Y-78141961D02*
X87085714Y-78046723D01*
X87085714Y-78046723D02*
X87038095Y-77856247D01*
X87038095Y-77856247D02*
X87038095Y-77713390D01*
X87038095Y-77713390D02*
X87085714Y-77522914D01*
X87085714Y-77522914D02*
X87133333Y-77427676D01*
X87133333Y-77427676D02*
X87228571Y-77332438D01*
X87228571Y-77332438D02*
X87371428Y-77284819D01*
X87371428Y-77284819D02*
X87466666Y-77284819D01*
X87466666Y-77284819D02*
X87609523Y-77332438D01*
X87609523Y-77332438D02*
X87657142Y-77380057D01*
X88609523Y-78284819D02*
X88038095Y-78284819D01*
X88323809Y-78284819D02*
X88323809Y-77284819D01*
X88323809Y-77284819D02*
X88228571Y-77427676D01*
X88228571Y-77427676D02*
X88133333Y-77522914D01*
X88133333Y-77522914D02*
X88038095Y-77570533D01*
X89561904Y-78284819D02*
X88990476Y-78284819D01*
X89276190Y-78284819D02*
X89276190Y-77284819D01*
X89276190Y-77284819D02*
X89180952Y-77427676D01*
X89180952Y-77427676D02*
X89085714Y-77522914D01*
X89085714Y-77522914D02*
X88990476Y-77570533D01*
X43867142Y-75079580D02*
X43819523Y-75127200D01*
X43819523Y-75127200D02*
X43676666Y-75174819D01*
X43676666Y-75174819D02*
X43581428Y-75174819D01*
X43581428Y-75174819D02*
X43438571Y-75127200D01*
X43438571Y-75127200D02*
X43343333Y-75031961D01*
X43343333Y-75031961D02*
X43295714Y-74936723D01*
X43295714Y-74936723D02*
X43248095Y-74746247D01*
X43248095Y-74746247D02*
X43248095Y-74603390D01*
X43248095Y-74603390D02*
X43295714Y-74412914D01*
X43295714Y-74412914D02*
X43343333Y-74317676D01*
X43343333Y-74317676D02*
X43438571Y-74222438D01*
X43438571Y-74222438D02*
X43581428Y-74174819D01*
X43581428Y-74174819D02*
X43676666Y-74174819D01*
X43676666Y-74174819D02*
X43819523Y-74222438D01*
X43819523Y-74222438D02*
X43867142Y-74270057D01*
X44819523Y-75174819D02*
X44248095Y-75174819D01*
X44533809Y-75174819D02*
X44533809Y-74174819D01*
X44533809Y-74174819D02*
X44438571Y-74317676D01*
X44438571Y-74317676D02*
X44343333Y-74412914D01*
X44343333Y-74412914D02*
X44248095Y-74460533D01*
X45676666Y-74508152D02*
X45676666Y-75174819D01*
X45438571Y-74127200D02*
X45200476Y-74841485D01*
X45200476Y-74841485D02*
X45819523Y-74841485D01*
D14*
%TO.C,U3*%
X64090000Y-68842500D02*
X64540000Y-68842500D01*
X64090000Y-69292500D02*
X64090000Y-68842500D01*
X64090000Y-76062500D02*
X64090000Y-75612500D01*
X64540000Y-76062500D02*
X64090000Y-76062500D01*
X70860000Y-68842500D02*
X71310000Y-68842500D01*
X71310000Y-68842500D02*
X71310000Y-69292500D01*
X71310000Y-75612500D02*
X71310000Y-76062500D01*
X71310000Y-76062500D02*
X70860000Y-76062500D01*
X72290000Y-76082500D02*
X71610000Y-76082500D01*
X71950000Y-75612500D01*
X72290000Y-76082500D01*
G36*
X72290000Y-76082500D02*
G01*
X71610000Y-76082500D01*
X71950000Y-75612500D01*
X72290000Y-76082500D01*
G37*
%TO.C,J2*%
X30840000Y-75470000D02*
X30840000Y-85750000D01*
X30840000Y-75470000D02*
X39470000Y-75470000D01*
X30840000Y-75590000D02*
X39470000Y-75590000D01*
X30840000Y-75708095D02*
X39470000Y-75708095D01*
X30840000Y-75826190D02*
X39470000Y-75826190D01*
X30840000Y-75944285D02*
X39470000Y-75944285D01*
X30840000Y-76062380D02*
X39470000Y-76062380D01*
X30840000Y-76180475D02*
X39470000Y-76180475D01*
X30840000Y-76298570D02*
X39470000Y-76298570D01*
X30840000Y-76416665D02*
X39470000Y-76416665D01*
X30840000Y-76534760D02*
X39470000Y-76534760D01*
X30840000Y-76652855D02*
X39470000Y-76652855D01*
X30840000Y-76770950D02*
X39470000Y-76770950D01*
X30840000Y-76889045D02*
X39470000Y-76889045D01*
X30840000Y-77007140D02*
X39470000Y-77007140D01*
X30840000Y-77125235D02*
X39470000Y-77125235D01*
X30840000Y-77243330D02*
X39470000Y-77243330D01*
X30840000Y-77361425D02*
X39470000Y-77361425D01*
X30840000Y-77479520D02*
X39470000Y-77479520D01*
X30840000Y-77597615D02*
X39470000Y-77597615D01*
X30840000Y-77715710D02*
X39470000Y-77715710D01*
X30840000Y-77833805D02*
X39470000Y-77833805D01*
X30840000Y-77951900D02*
X39470000Y-77951900D01*
X30840000Y-78070000D02*
X39470000Y-78070000D01*
X30840000Y-80610000D02*
X39470000Y-80610000D01*
X30840000Y-83150000D02*
X39470000Y-83150000D01*
X30840000Y-85750000D02*
X39470000Y-85750000D01*
X39470000Y-75470000D02*
X39470000Y-85750000D01*
X39470000Y-76440000D02*
X39820000Y-76440000D01*
X39470000Y-77160000D02*
X39820000Y-77160000D01*
X39470000Y-78980000D02*
X39880000Y-78980000D01*
X39470000Y-79700000D02*
X39880000Y-79700000D01*
X39470000Y-81520000D02*
X39880000Y-81520000D01*
X39470000Y-82240000D02*
X39880000Y-82240000D01*
X39470000Y-84060000D02*
X39880000Y-84060000D01*
X39470000Y-84780000D02*
X39880000Y-84780000D01*
X40930000Y-75470000D02*
X42040000Y-75470000D01*
X42040000Y-75470000D02*
X42040000Y-76800000D01*
%TO.C,C4*%
X70511252Y-60840000D02*
X69088748Y-60840000D01*
X70511252Y-62660000D02*
X69088748Y-62660000D01*
%TO.C,C10*%
X90510000Y-73678748D02*
X90510000Y-75101252D01*
X92330000Y-73678748D02*
X92330000Y-75101252D01*
%TO.C,U1*%
X58915000Y-54192500D02*
X58915000Y-57952500D01*
X58915000Y-57952500D02*
X60175000Y-57952500D01*
X65735000Y-54192500D02*
X65735000Y-57952500D01*
X65735000Y-57952500D02*
X64475000Y-57952500D01*
X65965000Y-53152500D02*
X65635000Y-52912500D01*
X65965000Y-52672500D01*
X65965000Y-53152500D01*
G36*
X65965000Y-53152500D02*
G01*
X65635000Y-52912500D01*
X65965000Y-52672500D01*
X65965000Y-53152500D01*
G37*
%TO.C,U2*%
X66440000Y-54200000D02*
X66440000Y-57960000D01*
X66440000Y-57960000D02*
X67700000Y-57960000D01*
X73260000Y-54200000D02*
X73260000Y-57960000D01*
X73260000Y-57960000D02*
X72000000Y-57960000D01*
X73490000Y-53160000D02*
X73160000Y-52920000D01*
X73490000Y-52680000D01*
X73490000Y-53160000D01*
G36*
X73490000Y-53160000D02*
G01*
X73160000Y-52920000D01*
X73490000Y-52680000D01*
X73490000Y-53160000D01*
G37*
%TO.C,J3*%
X58860000Y-83610000D02*
X60190000Y-83610000D01*
X58860000Y-84720000D02*
X58860000Y-83610000D01*
X58860000Y-86180000D02*
X69140000Y-86180000D01*
X58860000Y-94810000D02*
X58860000Y-86180000D01*
X58860000Y-94810000D02*
X69140000Y-94810000D01*
X58980000Y-94810000D02*
X58980000Y-86180000D01*
X59098095Y-94810000D02*
X59098095Y-86180000D01*
X59216190Y-94810000D02*
X59216190Y-86180000D01*
X59334285Y-94810000D02*
X59334285Y-86180000D01*
X59452380Y-94810000D02*
X59452380Y-86180000D01*
X59570475Y-94810000D02*
X59570475Y-86180000D01*
X59688570Y-94810000D02*
X59688570Y-86180000D01*
X59806665Y-94810000D02*
X59806665Y-86180000D01*
X59830000Y-86180000D02*
X59830000Y-85830000D01*
X59924760Y-94810000D02*
X59924760Y-86180000D01*
X60042855Y-94810000D02*
X60042855Y-86180000D01*
X60160950Y-94810000D02*
X60160950Y-86180000D01*
X60279045Y-94810000D02*
X60279045Y-86180000D01*
X60397140Y-94810000D02*
X60397140Y-86180000D01*
X60515235Y-94810000D02*
X60515235Y-86180000D01*
X60550000Y-86180000D02*
X60550000Y-85830000D01*
X60633330Y-94810000D02*
X60633330Y-86180000D01*
X60751425Y-94810000D02*
X60751425Y-86180000D01*
X60869520Y-94810000D02*
X60869520Y-86180000D01*
X60987615Y-94810000D02*
X60987615Y-86180000D01*
X61105710Y-94810000D02*
X61105710Y-86180000D01*
X61223805Y-94810000D02*
X61223805Y-86180000D01*
X61341900Y-94810000D02*
X61341900Y-86180000D01*
X61460000Y-94810000D02*
X61460000Y-86180000D01*
X62370000Y-86180000D02*
X62370000Y-85770000D01*
X63090000Y-86180000D02*
X63090000Y-85770000D01*
X64000000Y-94810000D02*
X64000000Y-86180000D01*
X64910000Y-86180000D02*
X64910000Y-85770000D01*
X65630000Y-86180000D02*
X65630000Y-85770000D01*
X66540000Y-94810000D02*
X66540000Y-86180000D01*
X67450000Y-86180000D02*
X67450000Y-85770000D01*
X68170000Y-86180000D02*
X68170000Y-85770000D01*
X69140000Y-94810000D02*
X69140000Y-86180000D01*
%TO.C,C15*%
X43381252Y-69060000D02*
X41958748Y-69060000D01*
X43381252Y-70880000D02*
X41958748Y-70880000D01*
%TO.C,R1*%
X73330000Y-47067064D02*
X73330000Y-45612936D01*
X75150000Y-47067064D02*
X75150000Y-45612936D01*
%TO.C,J4*%
X77730000Y-40885559D02*
X77730000Y-51324462D01*
D11*
X95580000Y-40885559D02*
X77730000Y-40885559D01*
D14*
X95580000Y-40885559D02*
X95580000Y-51315537D01*
X95580000Y-51315537D02*
X77730000Y-51324462D01*
D11*
X90680000Y-41645000D02*
X83455000Y-41645000D01*
X83455000Y-43770000D01*
X90680000Y-43770000D01*
X90680000Y-41645000D01*
D14*
%TO.C,C2*%
X53522600Y-63370000D02*
X53522600Y-62630000D01*
X53562600Y-63537000D02*
X53562600Y-62463000D01*
X53602600Y-63663000D02*
X53602600Y-62337000D01*
X53642600Y-63768000D02*
X53642600Y-62232000D01*
X53682600Y-63859000D02*
X53682600Y-62141000D01*
X53722600Y-63940000D02*
X53722600Y-62060000D01*
X53762600Y-64013000D02*
X53762600Y-61987000D01*
X53802600Y-62160000D02*
X53802600Y-61920000D01*
X53802600Y-64080000D02*
X53802600Y-63840000D01*
X53842600Y-62160000D02*
X53842600Y-61858000D01*
X53842600Y-64142000D02*
X53842600Y-63840000D01*
X53882600Y-62160000D02*
X53882600Y-61801000D01*
X53882600Y-64199000D02*
X53882600Y-63840000D01*
X53922600Y-62160000D02*
X53922600Y-61747000D01*
X53922600Y-64253000D02*
X53922600Y-63840000D01*
X53962600Y-62160000D02*
X53962600Y-61697000D01*
X53962600Y-64303000D02*
X53962600Y-63840000D01*
X54002600Y-62160000D02*
X54002600Y-61649000D01*
X54002600Y-64351000D02*
X54002600Y-63840000D01*
X54042600Y-62160000D02*
X54042600Y-61604000D01*
X54042600Y-64396000D02*
X54042600Y-63840000D01*
X54082600Y-62160000D02*
X54082600Y-61562000D01*
X54082600Y-64438000D02*
X54082600Y-63840000D01*
X54122600Y-62160000D02*
X54122600Y-61522000D01*
X54122600Y-64478000D02*
X54122600Y-63840000D01*
X54162600Y-62160000D02*
X54162600Y-61484000D01*
X54162600Y-64516000D02*
X54162600Y-63840000D01*
X54202600Y-62160000D02*
X54202600Y-61448000D01*
X54202600Y-64552000D02*
X54202600Y-63840000D01*
X54242600Y-62160000D02*
X54242600Y-61414000D01*
X54242600Y-64586000D02*
X54242600Y-63840000D01*
X54282600Y-62160000D02*
X54282600Y-61381000D01*
X54282600Y-64619000D02*
X54282600Y-63840000D01*
X54322600Y-62160000D02*
X54322600Y-61350000D01*
X54322600Y-64650000D02*
X54322600Y-63840000D01*
X54362600Y-62160000D02*
X54362600Y-61320000D01*
X54362600Y-64680000D02*
X54362600Y-63840000D01*
X54402600Y-62160000D02*
X54402600Y-61292000D01*
X54402600Y-64708000D02*
X54402600Y-63840000D01*
X54442600Y-62160000D02*
X54442600Y-61266000D01*
X54442600Y-64734000D02*
X54442600Y-63840000D01*
X54482600Y-62160000D02*
X54482600Y-61240000D01*
X54482600Y-64760000D02*
X54482600Y-63840000D01*
X54522600Y-62160000D02*
X54522600Y-61216000D01*
X54522600Y-64784000D02*
X54522600Y-63840000D01*
X54562600Y-62160000D02*
X54562600Y-61193000D01*
X54562600Y-64807000D02*
X54562600Y-63840000D01*
X54602600Y-62160000D02*
X54602600Y-61171000D01*
X54602600Y-64829000D02*
X54602600Y-63840000D01*
X54642600Y-62160000D02*
X54642600Y-61150000D01*
X54642600Y-64850000D02*
X54642600Y-63840000D01*
X54682600Y-62160000D02*
X54682600Y-61130000D01*
X54682600Y-64870000D02*
X54682600Y-63840000D01*
X54722600Y-62160000D02*
X54722600Y-61111000D01*
X54722600Y-64889000D02*
X54722600Y-63840000D01*
X54762600Y-62160000D02*
X54762600Y-61094000D01*
X54762600Y-64906000D02*
X54762600Y-63840000D01*
X54802600Y-62160000D02*
X54802600Y-61077000D01*
X54802600Y-64923000D02*
X54802600Y-63840000D01*
X54842600Y-62160000D02*
X54842600Y-61061000D01*
X54842600Y-64939000D02*
X54842600Y-63840000D01*
X54882600Y-62160000D02*
X54882600Y-61046000D01*
X54882600Y-64954000D02*
X54882600Y-63840000D01*
X54922600Y-62160000D02*
X54922600Y-61032000D01*
X54922600Y-64968000D02*
X54922600Y-63840000D01*
X54962600Y-62160000D02*
X54962600Y-61019000D01*
X54962600Y-64981000D02*
X54962600Y-63840000D01*
X55002600Y-62160000D02*
X55002600Y-61007000D01*
X55002600Y-64993000D02*
X55002600Y-63840000D01*
X55042600Y-62160000D02*
X55042600Y-60995000D01*
X55042600Y-65005000D02*
X55042600Y-63840000D01*
X55082600Y-62160000D02*
X55082600Y-60985000D01*
X55082600Y-65015000D02*
X55082600Y-63840000D01*
X55122600Y-62160000D02*
X55122600Y-60975000D01*
X55122600Y-65025000D02*
X55122600Y-63840000D01*
X55162600Y-62160000D02*
X55162600Y-60966000D01*
X55162600Y-65034000D02*
X55162600Y-63840000D01*
X55202600Y-62160000D02*
X55202600Y-60958000D01*
X55202600Y-65042000D02*
X55202600Y-63840000D01*
X55242600Y-62160000D02*
X55242600Y-60951000D01*
X55242600Y-65049000D02*
X55242600Y-63840000D01*
X55282600Y-62160000D02*
X55282600Y-60944000D01*
X55282600Y-65056000D02*
X55282600Y-63840000D01*
X55322600Y-62160000D02*
X55322600Y-60939000D01*
X55322600Y-65061000D02*
X55322600Y-63840000D01*
X55362600Y-62160000D02*
X55362600Y-60934000D01*
X55362600Y-65066000D02*
X55362600Y-63840000D01*
X55402600Y-62160000D02*
X55402600Y-60929000D01*
X55402600Y-65071000D02*
X55402600Y-63840000D01*
X55442600Y-65074000D02*
X55442600Y-60926000D01*
X55482600Y-65077000D02*
X55482600Y-60923000D01*
X55522600Y-65078000D02*
X55522600Y-60922000D01*
X55562600Y-65080000D02*
X55562600Y-60920000D01*
X55602600Y-65080000D02*
X55602600Y-60920000D01*
X57672401Y-64395000D02*
X57672401Y-63995000D01*
X57872401Y-64195000D02*
X57472401Y-64195000D01*
X57722600Y-63000000D02*
G75*
G02*
X53482600Y-63000000I-2120000J0D01*
G01*
X53482600Y-63000000D02*
G75*
G02*
X57722600Y-63000000I2120000J0D01*
G01*
%TO.C,R3*%
X67872936Y-64830000D02*
X69327064Y-64830000D01*
X67872936Y-66650000D02*
X69327064Y-66650000D01*
%TO.C,C7*%
X60511252Y-73590000D02*
X59088748Y-73590000D01*
X60511252Y-75410000D02*
X59088748Y-75410000D01*
%TO.C,R2*%
X68820000Y-79462936D02*
X68820000Y-80917064D01*
X70640000Y-79462936D02*
X70640000Y-80917064D01*
%TO.C,R4*%
X41932936Y-66160000D02*
X43387064Y-66160000D01*
X41932936Y-67980000D02*
X43387064Y-67980000D01*
%TO.C,C13*%
X84531252Y-60550000D02*
X83108748Y-60550000D01*
X84531252Y-62370000D02*
X83108748Y-62370000D01*
%TO.C,J1*%
X30700000Y-51420000D02*
X45200000Y-51420000D01*
X30700000Y-60620000D02*
X30700000Y-51420000D01*
X39300000Y-60620000D02*
X30700000Y-60620000D01*
X45200000Y-51420000D02*
X45200000Y-53420000D01*
X45200000Y-58620000D02*
X45200000Y-60620000D01*
X45200000Y-60620000D02*
X43900000Y-60620000D01*
X45500000Y-51120000D02*
X44200000Y-51120000D01*
X45500000Y-52820000D02*
X45500000Y-51120000D01*
D15*
%TO.C,Y1*%
X87932500Y-63070000D02*
X87932500Y-63350000D01*
X87932500Y-68850000D02*
X87932500Y-65290000D01*
X87932500Y-71070000D02*
X87932500Y-70790000D01*
X91732500Y-63070000D02*
X87932500Y-63070000D01*
X91732500Y-63070000D02*
X91732500Y-63350000D01*
X91732500Y-68850000D02*
X91732500Y-65290000D01*
X91732500Y-71070000D02*
X87932500Y-71070000D01*
X91732500Y-71070000D02*
X91732500Y-70790000D01*
D10*
X93232500Y-69820000D02*
G75*
G02*
X93032500Y-69820000I-100000J0D01*
G01*
X93032500Y-69820000D02*
G75*
G02*
X93232500Y-69820000I100000J0D01*
G01*
D14*
%TO.C,C3*%
X56441252Y-58440000D02*
X55018748Y-58440000D01*
X56441252Y-60260000D02*
X55018748Y-60260000D01*
%TO.C,C6*%
X74888748Y-69590000D02*
X76311252Y-69590000D01*
X74888748Y-71410000D02*
X76311252Y-71410000D01*
%TO.C,C1*%
X56441252Y-55840000D02*
X55018748Y-55840000D01*
X56441252Y-57660000D02*
X55018748Y-57660000D01*
%TO.C,D1*%
X58110000Y-51850000D02*
X52600000Y-51850000D01*
X58110000Y-55150000D02*
X52600000Y-55150000D01*
X58110000Y-55150000D02*
X58110000Y-51850000D01*
%TO.C,C12*%
X84531252Y-77670000D02*
X83108748Y-77670000D01*
X84531252Y-79490000D02*
X83108748Y-79490000D01*
%TO.C,C8*%
X74848748Y-74830000D02*
X76271252Y-74830000D01*
X74848748Y-76650000D02*
X76271252Y-76650000D01*
%TO.C,C9*%
X64201252Y-64832500D02*
X62778748Y-64832500D01*
X64201252Y-66652500D02*
X62778748Y-66652500D01*
%TO.C,Y2*%
X81070000Y-63950000D02*
X81070000Y-76670000D01*
X81070000Y-76670000D02*
X86290000Y-76670000D01*
X86290000Y-76670000D02*
X86290000Y-63950000D01*
%TO.C,C5*%
X72808748Y-77420000D02*
X74231252Y-77420000D01*
X72808748Y-79240000D02*
X74231252Y-79240000D01*
%TO.C,SW1*%
X51360000Y-47220000D02*
X51360000Y-42020000D01*
X53410000Y-41270000D02*
X63310000Y-41270000D01*
X63310000Y-47970000D02*
X53410000Y-47970000D01*
X65360000Y-42020000D02*
X65360000Y-47220000D01*
X65660000Y-47620000D02*
X65660000Y-48920000D01*
X65660000Y-48920000D02*
X64360000Y-48920000D01*
%TO.C,D2*%
X66765000Y-41105000D02*
X66365000Y-41105000D01*
X68055000Y-41105000D02*
X68055000Y-46315000D01*
X68055000Y-46315000D02*
X68055000Y-41105000D01*
X70595000Y-41105000D02*
X70595000Y-46315000D01*
X70595000Y-46315000D02*
X70595000Y-41105000D01*
X71885000Y-41105000D02*
X66765000Y-41105000D01*
%TO.C,SW2*%
X32410000Y-42300000D02*
X32410000Y-44400000D01*
X32410000Y-47000000D02*
X32410000Y-47510000D01*
X32410000Y-47510000D02*
X32930000Y-47510000D01*
X32930000Y-44170000D02*
X32930000Y-44400000D01*
X32930000Y-44170000D02*
X33470000Y-44170000D01*
X32930000Y-47000000D02*
X32930000Y-47510000D01*
X34570000Y-44170000D02*
X37970000Y-44170000D01*
X39070000Y-44170000D02*
X39610000Y-44170000D01*
X39610000Y-44170000D02*
X39610000Y-44400000D01*
X39610000Y-47000000D02*
X39610000Y-47510000D01*
X39610000Y-47510000D02*
X40130000Y-47510000D01*
X40130000Y-42300000D02*
X40130000Y-44400000D01*
X40130000Y-47000000D02*
X40130000Y-47510000D01*
%TO.C,C11*%
X87390000Y-73678748D02*
X87390000Y-75101252D01*
X89210000Y-73678748D02*
X89210000Y-75101252D01*
%TO.C,C14*%
X43490000Y-77588748D02*
X43490000Y-79011252D01*
X45310000Y-77588748D02*
X45310000Y-79011252D01*
%TD*%
M02*
