%TF.GenerationSoftware,KiCad,Pcbnew,9.0.6*%
%TF.CreationDate,2026-01-14T13:32:50+01:00*%
%TF.ProjectId,DHT11 weather station,44485431-3120-4776-9561-746865722073,rev?*%
%TF.SameCoordinates,Original*%
%TF.FileFunction,Copper,L1,Top*%
%TF.FilePolarity,Positive*%
%FSLAX46Y46*%
G04 Gerber Fmt 4.6, Leading zero omitted, Abs format (unit mm)*
G04 Created by KiCad (PCBNEW 9.0.6) date 2026-01-14 13:32:50*
%MOMM*%
%LPD*%
G01*
G04 APERTURE LIST*
G04 Aperture macros list*
%AMRoundRect*
0 Rectangle with rounded corners*
0 $1 Rounding radius*
0 $2 $3 $4 $5 $6 $7 $8 $9 X,Y pos of 4 corners*
0 Add a 4 corners polygon primitive as box body*
4,1,4,$2,$3,$4,$5,$6,$7,$8,$9,$2,$3,0*
0 Add four circle primitives for the rounded corners*
1,1,$1+$1,$2,$3*
1,1,$1+$1,$4,$5*
1,1,$1+$1,$6,$7*
1,1,$1+$1,$8,$9*
0 Add four rect primitives between the rounded corners*
20,1,$1+$1,$2,$3,$4,$5,0*
20,1,$1+$1,$4,$5,$6,$7,0*
20,1,$1+$1,$6,$7,$8,$9,0*
20,1,$1+$1,$8,$9,$2,$3,0*%
G04 Aperture macros list end*
%TA.AperFunction,SMDPad,CuDef*%
%ADD10RoundRect,0.075000X0.662500X0.075000X-0.662500X0.075000X-0.662500X-0.075000X0.662500X-0.075000X0*%
%TD*%
%TA.AperFunction,SMDPad,CuDef*%
%ADD11RoundRect,0.075000X0.075000X0.662500X-0.075000X0.662500X-0.075000X-0.662500X0.075000X-0.662500X0*%
%TD*%
%TA.AperFunction,ComponentPad*%
%ADD12R,1.700000X1.700000*%
%TD*%
%TA.AperFunction,ComponentPad*%
%ADD13C,1.700000*%
%TD*%
%TA.AperFunction,SMDPad,CuDef*%
%ADD14RoundRect,0.250000X0.325000X0.650000X-0.325000X0.650000X-0.325000X-0.650000X0.325000X-0.650000X0*%
%TD*%
%TA.AperFunction,SMDPad,CuDef*%
%ADD15RoundRect,0.250000X-0.650000X0.325000X-0.650000X-0.325000X0.650000X-0.325000X0.650000X0.325000X0*%
%TD*%
%TA.AperFunction,SMDPad,CuDef*%
%ADD16RoundRect,0.375000X-0.375000X0.625000X-0.375000X-0.625000X0.375000X-0.625000X0.375000X0.625000X0*%
%TD*%
%TA.AperFunction,SMDPad,CuDef*%
%ADD17RoundRect,0.500000X-1.400000X0.500000X-1.400000X-0.500000X1.400000X-0.500000X1.400000X0.500000X0*%
%TD*%
%TA.AperFunction,SMDPad,CuDef*%
%ADD18RoundRect,0.250000X0.625000X-0.312500X0.625000X0.312500X-0.625000X0.312500X-0.625000X-0.312500X0*%
%TD*%
%TA.AperFunction,ComponentPad*%
%ADD19RoundRect,0.250000X0.350000X0.350000X-0.350000X0.350000X-0.350000X-0.350000X0.350000X-0.350000X0*%
%TD*%
%TA.AperFunction,ComponentPad*%
%ADD20C,1.200000*%
%TD*%
%TA.AperFunction,SMDPad,CuDef*%
%ADD21RoundRect,0.250000X-0.312500X-0.625000X0.312500X-0.625000X0.312500X0.625000X-0.312500X0.625000X0*%
%TD*%
%TA.AperFunction,SMDPad,CuDef*%
%ADD22RoundRect,0.250000X-0.625000X0.312500X-0.625000X-0.312500X0.625000X-0.312500X0.625000X0.312500X0*%
%TD*%
%TA.AperFunction,ComponentPad*%
%ADD23R,2.000000X4.600000*%
%TD*%
%TA.AperFunction,ComponentPad*%
%ADD24O,2.000000X4.200000*%
%TD*%
%TA.AperFunction,ComponentPad*%
%ADD25O,4.200000X2.000000*%
%TD*%
%TA.AperFunction,SMDPad,CuDef*%
%ADD26R,1.900000X1.300000*%
%TD*%
%TA.AperFunction,SMDPad,CuDef*%
%ADD27RoundRect,0.250000X-0.325000X-0.650000X0.325000X-0.650000X0.325000X0.650000X-0.325000X0.650000X0*%
%TD*%
%TA.AperFunction,SMDPad,CuDef*%
%ADD28RoundRect,0.250000X1.000000X0.650000X-1.000000X0.650000X-1.000000X-0.650000X1.000000X-0.650000X0*%
%TD*%
%TA.AperFunction,SMDPad,CuDef*%
%ADD29RoundRect,0.250000X0.750000X-2.000000X0.750000X2.000000X-0.750000X2.000000X-0.750000X-2.000000X0*%
%TD*%
%TA.AperFunction,ComponentPad*%
%ADD30C,2.000000*%
%TD*%
%TA.AperFunction,ComponentPad*%
%ADD31R,1.800000X1.800000*%
%TD*%
%TA.AperFunction,ComponentPad*%
%ADD32C,1.800000*%
%TD*%
%TA.AperFunction,ComponentPad*%
%ADD33C,2.100000*%
%TD*%
%TA.AperFunction,ComponentPad*%
%ADD34C,1.750000*%
%TD*%
%TA.AperFunction,ViaPad*%
%ADD35C,0.600000*%
%TD*%
%TA.AperFunction,Conductor*%
%ADD36C,0.200000*%
%TD*%
%TA.AperFunction,Conductor*%
%ADD37C,1.270000*%
%TD*%
G04 APERTURE END LIST*
D10*
%TO.P,U3,1,VBAT*%
%TO.N,/Microcontroller with OLED and DHT11/3.3V*%
X71862500Y-75202500D03*
%TO.P,U3,2,PC13*%
%TO.N,unconnected-(U3-PC13-Pad2)*%
X71862500Y-74702500D03*
%TO.P,U3,3,PC14*%
%TO.N,/Microcontroller with OLED and DHT11/PC14*%
X71862500Y-74202500D03*
%TO.P,U3,4,PC15*%
%TO.N,/Microcontroller with OLED and DHT11/PC15*%
X71862500Y-73702500D03*
%TO.P,U3,5,PD0*%
%TO.N,/Microcontroller with OLED and DHT11/OSC_IN*%
X71862500Y-73202500D03*
%TO.P,U3,6,PD1*%
%TO.N,/Microcontroller with OLED and DHT11/OSC_OUT*%
X71862500Y-72702500D03*
%TO.P,U3,7,NRST*%
%TO.N,/Microcontroller with OLED and DHT11/NRST*%
X71862500Y-72202500D03*
%TO.P,U3,8,VSSA*%
%TO.N,GND*%
X71862500Y-71702500D03*
%TO.P,U3,9,VDDA*%
%TO.N,/Microcontroller with OLED and DHT11/3.3V*%
X71862500Y-71202500D03*
%TO.P,U3,10,PA0*%
%TO.N,/Microcontroller with OLED and DHT11/DHT11_DATA*%
X71862500Y-70702500D03*
%TO.P,U3,11,PA1*%
%TO.N,unconnected-(U3-PA1-Pad11)*%
X71862500Y-70202500D03*
%TO.P,U3,12,PA2*%
%TO.N,unconnected-(U3-PA2-Pad12)*%
X71862500Y-69702500D03*
D11*
%TO.P,U3,13,PA3*%
%TO.N,unconnected-(U3-PA3-Pad13)*%
X70450000Y-68290000D03*
%TO.P,U3,14,PA4*%
%TO.N,unconnected-(U3-PA4-Pad14)*%
X69950000Y-68290000D03*
%TO.P,U3,15,PA5*%
%TO.N,unconnected-(U3-PA5-Pad15)*%
X69450000Y-68290000D03*
%TO.P,U3,16,PA6*%
%TO.N,unconnected-(U3-PA6-Pad16)*%
X68950000Y-68290000D03*
%TO.P,U3,17,PA7*%
%TO.N,unconnected-(U3-PA7-Pad17)*%
X68450000Y-68290000D03*
%TO.P,U3,18,PB0*%
%TO.N,unconnected-(U3-PB0-Pad18)*%
X67950000Y-68290000D03*
%TO.P,U3,19,PB1*%
%TO.N,unconnected-(U3-PB1-Pad19)*%
X67450000Y-68290000D03*
%TO.P,U3,20,PB2*%
%TO.N,/Microcontroller with OLED and DHT11/BOOT1*%
X66950000Y-68290000D03*
%TO.P,U3,21,PB10*%
%TO.N,unconnected-(U3-PB10-Pad21)*%
X66450000Y-68290000D03*
%TO.P,U3,22,PB11*%
%TO.N,unconnected-(U3-PB11-Pad22)*%
X65950000Y-68290000D03*
%TO.P,U3,23,VSS*%
%TO.N,GND*%
X65450000Y-68290000D03*
%TO.P,U3,24,VDD*%
%TO.N,/Microcontroller with OLED and DHT11/3.3V*%
X64950000Y-68290000D03*
D10*
%TO.P,U3,25,PB12*%
%TO.N,unconnected-(U3-PB12-Pad25)*%
X63537500Y-69702500D03*
%TO.P,U3,26,PB13*%
%TO.N,unconnected-(U3-PB13-Pad26)*%
X63537500Y-70202500D03*
%TO.P,U3,27,PB14*%
%TO.N,unconnected-(U3-PB14-Pad27)*%
X63537500Y-70702500D03*
%TO.P,U3,28,PB15*%
%TO.N,unconnected-(U3-PB15-Pad28)*%
X63537500Y-71202500D03*
%TO.P,U3,29,PA8*%
%TO.N,unconnected-(U3-PA8-Pad29)*%
X63537500Y-71702500D03*
%TO.P,U3,30,PA9*%
%TO.N,unconnected-(U3-PA9-Pad30)*%
X63537500Y-72202500D03*
%TO.P,U3,31,PA10*%
%TO.N,unconnected-(U3-PA10-Pad31)*%
X63537500Y-72702500D03*
%TO.P,U3,32,PA11*%
%TO.N,unconnected-(U3-PA11-Pad32)*%
X63537500Y-73202500D03*
%TO.P,U3,33,PA12*%
%TO.N,unconnected-(U3-PA12-Pad33)*%
X63537500Y-73702500D03*
%TO.P,U3,34,PA13*%
%TO.N,/Microcontroller with OLED and DHT11/SWDIO*%
X63537500Y-74202500D03*
%TO.P,U3,35,VSS*%
%TO.N,GND*%
X63537500Y-74702500D03*
%TO.P,U3,36,VDD*%
%TO.N,/Microcontroller with OLED and DHT11/3.3V*%
X63537500Y-75202500D03*
D11*
%TO.P,U3,37,PA14*%
%TO.N,/Microcontroller with OLED and DHT11/SWDCLK*%
X64950000Y-76615000D03*
%TO.P,U3,38,PA15*%
%TO.N,unconnected-(U3-PA15-Pad38)*%
X65450000Y-76615000D03*
%TO.P,U3,39,PB3*%
%TO.N,unconnected-(U3-PB3-Pad39)*%
X65950000Y-76615000D03*
%TO.P,U3,40,PB4*%
%TO.N,unconnected-(U3-PB4-Pad40)*%
X66450000Y-76615000D03*
%TO.P,U3,41,PB5*%
%TO.N,unconnected-(U3-PB5-Pad41)*%
X66950000Y-76615000D03*
%TO.P,U3,42,PB6*%
%TO.N,/Microcontroller with OLED and DHT11/SCL*%
X67450000Y-76615000D03*
%TO.P,U3,43,PB7*%
%TO.N,/Microcontroller with OLED and DHT11/SDA*%
X67950000Y-76615000D03*
%TO.P,U3,44,BOOT0*%
%TO.N,/Microcontroller with OLED and DHT11/BOOT0*%
X68450000Y-76615000D03*
%TO.P,U3,45,PB8*%
%TO.N,unconnected-(U3-PB8-Pad45)*%
X68950000Y-76615000D03*
%TO.P,U3,46,PB9*%
%TO.N,unconnected-(U3-PB9-Pad46)*%
X69450000Y-76615000D03*
%TO.P,U3,47,VSS*%
%TO.N,GND*%
X69950000Y-76615000D03*
%TO.P,U3,48,VDD*%
%TO.N,/Microcontroller with OLED and DHT11/3.3V*%
X70450000Y-76615000D03*
%TD*%
D12*
%TO.P,J2,1,Pin_1*%
%TO.N,/Microcontroller with OLED and DHT11/3.3V*%
X40930000Y-76800000D03*
D13*
%TO.P,J2,2,Pin_2*%
%TO.N,/Microcontroller with OLED and DHT11/SWDIO*%
X40930000Y-79340000D03*
%TO.P,J2,3,Pin_3*%
%TO.N,/Microcontroller with OLED and DHT11/SWDCLK*%
X40930000Y-81880000D03*
%TO.P,J2,4,Pin_4*%
%TO.N,GND*%
X40930000Y-84420000D03*
%TD*%
D14*
%TO.P,C4,1*%
%TO.N,/Microcontroller with OLED and DHT11/3.3V*%
X71275000Y-61750000D03*
%TO.P,C4,2*%
%TO.N,GND*%
X68325000Y-61750000D03*
%TD*%
D15*
%TO.P,C10,1*%
%TO.N,/Microcontroller with OLED and DHT11/PC14*%
X91420000Y-72915000D03*
%TO.P,C10,2*%
%TO.N,GND*%
X91420000Y-75865000D03*
%TD*%
D16*
%TO.P,U1,1,GND*%
%TO.N,GND*%
X64625000Y-52892500D03*
%TO.P,U1,2,VO*%
%TO.N,/Power/5V*%
X62325000Y-52892500D03*
D17*
X62325000Y-59192500D03*
D16*
%TO.P,U1,3,VI*%
%TO.N,Net-(D1-K)*%
X60025000Y-52892500D03*
%TD*%
%TO.P,U2,1,GND*%
%TO.N,GND*%
X72150000Y-52900000D03*
%TO.P,U2,2,VO*%
%TO.N,/Microcontroller with OLED and DHT11/3.3V*%
X69850000Y-52900000D03*
D17*
X69850000Y-59200000D03*
D16*
%TO.P,U2,3,VI*%
%TO.N,/Power/5V*%
X67550000Y-52900000D03*
%TD*%
D12*
%TO.P,J3,1,Pin_1*%
%TO.N,GND*%
X60190000Y-84720000D03*
D13*
%TO.P,J3,2,Pin_2*%
%TO.N,/Microcontroller with OLED and DHT11/3.3V*%
X62730000Y-84720000D03*
%TO.P,J3,3,Pin_3*%
%TO.N,/Microcontroller with OLED and DHT11/SCL*%
X65270000Y-84720000D03*
%TO.P,J3,4,Pin_4*%
%TO.N,/Microcontroller with OLED and DHT11/SDA*%
X67810000Y-84720000D03*
%TD*%
D14*
%TO.P,C15,1*%
%TO.N,/Microcontroller with OLED and DHT11/NRST*%
X44145000Y-69970000D03*
%TO.P,C15,2*%
%TO.N,GND*%
X41195000Y-69970000D03*
%TD*%
D18*
%TO.P,R1,1*%
%TO.N,Net-(D2-K)*%
X74240000Y-47802500D03*
%TO.P,R1,2*%
%TO.N,GND*%
X74240000Y-44877500D03*
%TD*%
D13*
%TO.P,J4,1,Pin_1*%
%TO.N,/Microcontroller with OLED and DHT11/DHT11_DATA*%
X89630000Y-42720000D03*
%TO.P,J4,2,Pin_2*%
%TO.N,/Microcontroller with OLED and DHT11/3.3V*%
X87090000Y-42720000D03*
%TO.P,J4,3,Pin_3*%
%TO.N,GND*%
X84550000Y-42720000D03*
%TD*%
D19*
%TO.P,C2,1*%
%TO.N,/Power/5V*%
X56602600Y-63000000D03*
D20*
%TO.P,C2,2*%
%TO.N,GND*%
X54602600Y-63000000D03*
%TD*%
D21*
%TO.P,R3,1*%
%TO.N,/Microcontroller with OLED and DHT11/BOOT1*%
X67137500Y-65740000D03*
%TO.P,R3,2*%
%TO.N,GND*%
X70062500Y-65740000D03*
%TD*%
D14*
%TO.P,C7,1*%
%TO.N,/Microcontroller with OLED and DHT11/3.3V*%
X61275000Y-74500000D03*
%TO.P,C7,2*%
%TO.N,GND*%
X58325000Y-74500000D03*
%TD*%
D22*
%TO.P,R2,1*%
%TO.N,/Microcontroller with OLED and DHT11/BOOT0*%
X69730000Y-78727500D03*
%TO.P,R2,2*%
%TO.N,GND*%
X69730000Y-81652500D03*
%TD*%
D21*
%TO.P,R4,1*%
%TO.N,/Microcontroller with OLED and DHT11/3.3V*%
X41197500Y-67070000D03*
%TO.P,R4,2*%
%TO.N,/Microcontroller with OLED and DHT11/NRST*%
X44122500Y-67070000D03*
%TD*%
D14*
%TO.P,C13,1*%
%TO.N,/Microcontroller with OLED and DHT11/OSC_OUT*%
X85295000Y-61460000D03*
%TO.P,C13,2*%
%TO.N,GND*%
X82345000Y-61460000D03*
%TD*%
D23*
%TO.P,J1,1*%
%TO.N,/Power/V_IN*%
X44500000Y-56020000D03*
D24*
%TO.P,J1,2*%
%TO.N,GND*%
X38200000Y-56020000D03*
D25*
%TO.P,J1,3*%
X41600000Y-60820000D03*
%TD*%
D26*
%TO.P,Y1,1,1*%
%TO.N,/Microcontroller with OLED and DHT11/PC14*%
X91432500Y-69820000D03*
%TO.P,Y1,2,2*%
%TO.N,unconnected-(Y1-Pad2)*%
X91432500Y-64320000D03*
%TO.P,Y1,3,3*%
%TO.N,unconnected-(Y1-Pad3)*%
X88232500Y-64320000D03*
%TO.P,Y1,4,4*%
%TO.N,/Microcontroller with OLED and DHT11/PC15*%
X88232500Y-69820000D03*
%TD*%
D14*
%TO.P,C3,1*%
%TO.N,/Power/5V*%
X57205000Y-59350000D03*
%TO.P,C3,2*%
%TO.N,GND*%
X54255000Y-59350000D03*
%TD*%
D27*
%TO.P,C6,1*%
%TO.N,/Microcontroller with OLED and DHT11/3.3V*%
X74125000Y-70500000D03*
%TO.P,C6,2*%
%TO.N,GND*%
X77075000Y-70500000D03*
%TD*%
D14*
%TO.P,C1,1*%
%TO.N,Net-(D1-K)*%
X57205000Y-56750000D03*
%TO.P,C1,2*%
%TO.N,GND*%
X54255000Y-56750000D03*
%TD*%
D28*
%TO.P,D1,1,K*%
%TO.N,Net-(D1-K)*%
X56600000Y-53500000D03*
%TO.P,D1,2,A*%
%TO.N,Net-(D1-A)*%
X52600000Y-53500000D03*
%TD*%
D14*
%TO.P,C12,1*%
%TO.N,/Microcontroller with OLED and DHT11/OSC_IN*%
X85295000Y-78580000D03*
%TO.P,C12,2*%
%TO.N,GND*%
X82345000Y-78580000D03*
%TD*%
D27*
%TO.P,C8,1*%
%TO.N,/Microcontroller with OLED and DHT11/3.3V*%
X74085000Y-75740000D03*
%TO.P,C8,2*%
%TO.N,GND*%
X77035000Y-75740000D03*
%TD*%
D14*
%TO.P,C9,1*%
%TO.N,/Microcontroller with OLED and DHT11/3.3V*%
X64965000Y-65742500D03*
%TO.P,C9,2*%
%TO.N,GND*%
X62015000Y-65742500D03*
%TD*%
D29*
%TO.P,Y2,1,1*%
%TO.N,/Microcontroller with OLED and DHT11/OSC_IN*%
X83680000Y-74160000D03*
%TO.P,Y2,2,2*%
%TO.N,/Microcontroller with OLED and DHT11/OSC_OUT*%
X83680000Y-65660000D03*
%TD*%
D27*
%TO.P,C5,1*%
%TO.N,/Microcontroller with OLED and DHT11/3.3V*%
X72045000Y-78330000D03*
%TO.P,C5,2*%
%TO.N,GND*%
X74995000Y-78330000D03*
%TD*%
D30*
%TO.P,SW1,*%
%TO.N,*%
X64360000Y-47620000D03*
X64360000Y-41620000D03*
X52360000Y-47620000D03*
X52360000Y-41620000D03*
D13*
%TO.P,SW1,1,A*%
%TO.N,unconnected-(SW1-A-Pad1)*%
X62360000Y-45870000D03*
%TO.P,SW1,2,B*%
%TO.N,/Power/V_IN*%
X58360000Y-45870000D03*
%TO.P,SW1,3,C*%
%TO.N,Net-(D1-A)*%
X54360000Y-45870000D03*
%TD*%
D31*
%TO.P,D2,1,K*%
%TO.N,Net-(D2-K)*%
X70595000Y-47395000D03*
D32*
%TO.P,D2,2,A*%
%TO.N,/Microcontroller with OLED and DHT11/3.3V*%
X68055000Y-47395000D03*
%TD*%
D33*
%TO.P,SW2,*%
%TO.N,*%
X32770000Y-45690000D03*
X39780000Y-45690000D03*
D34*
%TO.P,SW2,1,1*%
%TO.N,/Microcontroller with OLED and DHT11/NRST*%
X34020000Y-43200000D03*
%TO.P,SW2,2,2*%
%TO.N,GND*%
X38520000Y-43200000D03*
%TD*%
D15*
%TO.P,C11,1*%
%TO.N,/Microcontroller with OLED and DHT11/PC15*%
X88300000Y-72915000D03*
%TO.P,C11,2*%
%TO.N,GND*%
X88300000Y-75865000D03*
%TD*%
%TO.P,C14,1*%
%TO.N,/Microcontroller with OLED and DHT11/3.3V*%
X44400000Y-76825000D03*
%TO.P,C14,2*%
%TO.N,GND*%
X44400000Y-79775000D03*
%TD*%
D35*
%TO.N,GND*%
X95000000Y-62500000D03*
X95000000Y-57500000D03*
X95000000Y-80000000D03*
X37500000Y-50000000D03*
X47500000Y-52500000D03*
X57500000Y-67500000D03*
X77500000Y-67500000D03*
X32500000Y-75000000D03*
X39900000Y-68900000D03*
X70000000Y-45000000D03*
X55000000Y-85000000D03*
X57500000Y-85000000D03*
X90000000Y-90000000D03*
X35000000Y-57500000D03*
X50000000Y-80000000D03*
X55000000Y-67500000D03*
X55000000Y-77500000D03*
X77500000Y-57500000D03*
X82500000Y-90000000D03*
X65000000Y-45000000D03*
X32500000Y-65000000D03*
X90000000Y-87500000D03*
X85000000Y-85000000D03*
X77500000Y-82500000D03*
X42500000Y-57500000D03*
X42500000Y-47500000D03*
X55000000Y-42500000D03*
X37500000Y-72500000D03*
X62500000Y-42500000D03*
X85000000Y-50000000D03*
X47500000Y-60000000D03*
X92500000Y-90000000D03*
X65000000Y-82500000D03*
X92500000Y-57500000D03*
X47500000Y-75000000D03*
X35000000Y-60000000D03*
X71700000Y-66900000D03*
X80000000Y-67500000D03*
X47500000Y-42500000D03*
X92500000Y-67500000D03*
X59984796Y-92500000D03*
X95000000Y-72500000D03*
X57500000Y-77500000D03*
X42500000Y-90000000D03*
X32500000Y-52500000D03*
X65000000Y-92500000D03*
X52500000Y-85000000D03*
X75000000Y-82500000D03*
X92500000Y-82500000D03*
X92500000Y-85000000D03*
X77500000Y-52500000D03*
X57500000Y-80000000D03*
X35000000Y-80000000D03*
X37500000Y-67500000D03*
X47500000Y-57500000D03*
X60000000Y-77500000D03*
X47500000Y-65000000D03*
X37500000Y-45000000D03*
X90000000Y-82500000D03*
X95000000Y-55000000D03*
X72500000Y-55000000D03*
X45000000Y-62500000D03*
X60000000Y-57500000D03*
X57500000Y-47500000D03*
X82500000Y-52500000D03*
X90000000Y-57500000D03*
X80000000Y-65000000D03*
X40000000Y-42500000D03*
X90000000Y-85000000D03*
X50000000Y-85000000D03*
X45000000Y-65000000D03*
X47500000Y-80000000D03*
X75000000Y-80000000D03*
X52500000Y-67500000D03*
X87500000Y-77500000D03*
X95000000Y-42500000D03*
X42500000Y-52500000D03*
X57500000Y-50000000D03*
X80000000Y-85000000D03*
X90000000Y-62500000D03*
X80000000Y-55000000D03*
X90000000Y-67500000D03*
X50000000Y-90000000D03*
X60000000Y-80000000D03*
X40000000Y-92500000D03*
X80000000Y-90000000D03*
X95000000Y-50000000D03*
X50000000Y-92500000D03*
X50000000Y-75000000D03*
X82500000Y-45000000D03*
X32500000Y-80000000D03*
X82500000Y-47500000D03*
X50000000Y-55000000D03*
X92500000Y-50000000D03*
X95000000Y-92500000D03*
X57500000Y-42500000D03*
X92500000Y-52500000D03*
X75000000Y-87500000D03*
X82500000Y-87500000D03*
X50000000Y-60000000D03*
X60000000Y-47500000D03*
X65010000Y-74710000D03*
X95000000Y-85000000D03*
X65021054Y-62521054D03*
X35000000Y-77500000D03*
X87500000Y-55000000D03*
X90000000Y-52500000D03*
X62500000Y-82500000D03*
X90000000Y-60000000D03*
X52500000Y-62500000D03*
X70000000Y-70000000D03*
X50000000Y-50000000D03*
X77500000Y-42500000D03*
X45000000Y-85000000D03*
X40000000Y-57500000D03*
X80000000Y-47500000D03*
X82500000Y-92500000D03*
X32500000Y-55000000D03*
X92500000Y-55000000D03*
X32500000Y-57500000D03*
X60000000Y-62500000D03*
X35000000Y-82500000D03*
X47500000Y-85000000D03*
X60000000Y-75000000D03*
X72500000Y-42500000D03*
X65000000Y-72500000D03*
X55000000Y-90000000D03*
X50000000Y-70000000D03*
X77500000Y-47500000D03*
X57500000Y-90000000D03*
X82500000Y-42500000D03*
X95000000Y-47500000D03*
X72500000Y-92500000D03*
X62500000Y-62500000D03*
X70000000Y-75000000D03*
X47500000Y-55000000D03*
X95000000Y-77500000D03*
X67500000Y-45000000D03*
X65000000Y-57500000D03*
X62000000Y-67700000D03*
X60000000Y-45000000D03*
X47500000Y-77500000D03*
X50000000Y-52500000D03*
X87500000Y-57500000D03*
X40000000Y-90000000D03*
X32500000Y-92500000D03*
X47500000Y-45000000D03*
X50000000Y-65000000D03*
X77500000Y-87500000D03*
X82500000Y-85000000D03*
X32500000Y-85000000D03*
X57500000Y-92500000D03*
X95000000Y-65000000D03*
X90000000Y-50000000D03*
X77500000Y-85000000D03*
X75000000Y-90000000D03*
X62500000Y-90000000D03*
X62500000Y-77500000D03*
X47500000Y-67500000D03*
X77500000Y-92500000D03*
X75000000Y-57500000D03*
X72500000Y-57500000D03*
X32500000Y-87500000D03*
X85000000Y-92500000D03*
X40000000Y-47500000D03*
X37500000Y-60000000D03*
X92500000Y-60000000D03*
X47500000Y-92500000D03*
X37500000Y-90000000D03*
X95000000Y-82500000D03*
X65000000Y-80000000D03*
X35000000Y-85000000D03*
X35000000Y-75000000D03*
X67500000Y-42500000D03*
X40000000Y-65000000D03*
X40000000Y-52500000D03*
X52500000Y-70000000D03*
X32500000Y-82500000D03*
X80000000Y-82500000D03*
X45000000Y-42500000D03*
X60000000Y-42500000D03*
X90000000Y-55000000D03*
X45000000Y-60000000D03*
X50000000Y-57500000D03*
X85000000Y-57500000D03*
X92500000Y-92500000D03*
X55000000Y-65000000D03*
X62500000Y-50000000D03*
X42500000Y-45000000D03*
X52500000Y-50000000D03*
X75000000Y-92500000D03*
X55000000Y-70000000D03*
X77500000Y-45000000D03*
X67500000Y-50000000D03*
X77500000Y-65000000D03*
X55000000Y-92500000D03*
X47500000Y-90000000D03*
X92500000Y-80000000D03*
X50000000Y-42500000D03*
X67500000Y-92500000D03*
X42500000Y-62500000D03*
X87500000Y-85000000D03*
X70000000Y-90000000D03*
X92500000Y-47500000D03*
X60000000Y-50000000D03*
X35000000Y-87500000D03*
X55000000Y-80000000D03*
X80000000Y-50000000D03*
X70000000Y-42500000D03*
X77500000Y-90000000D03*
X85000000Y-47500000D03*
X32500000Y-90000000D03*
X67500000Y-90000000D03*
X60000000Y-90000000D03*
X95000000Y-45000000D03*
X50000000Y-62500000D03*
X42500000Y-50000000D03*
X50000000Y-77500000D03*
X40000000Y-50000000D03*
X32500000Y-77500000D03*
X65000000Y-90000000D03*
X80000000Y-52500000D03*
X95000000Y-75000000D03*
X75000000Y-42500000D03*
X87500000Y-80000000D03*
X55000000Y-75000000D03*
X40000000Y-55000000D03*
X87500000Y-87500000D03*
X87500000Y-90000000D03*
X75000000Y-85000000D03*
X42500000Y-85000000D03*
X45000000Y-75000000D03*
X72500000Y-90000000D03*
X87500000Y-92500000D03*
X35000000Y-55000000D03*
X92500000Y-62500000D03*
X95000000Y-70000000D03*
X67500000Y-70000000D03*
X80000000Y-42500000D03*
X80000000Y-45000000D03*
X32500000Y-62500000D03*
X35000000Y-67500000D03*
X80000000Y-92500000D03*
X85000000Y-70000000D03*
X35000000Y-90000000D03*
X77500000Y-77500000D03*
X75000000Y-55000000D03*
X72500000Y-45000000D03*
X57500000Y-65000000D03*
X45000000Y-90000000D03*
X45000000Y-47500000D03*
X92500000Y-45000000D03*
X47500000Y-70000000D03*
X42500000Y-42500000D03*
X35000000Y-52500000D03*
X52500000Y-90000000D03*
X42500000Y-55000000D03*
X92500000Y-42500000D03*
X72500000Y-50000000D03*
X50000000Y-67500000D03*
X85000000Y-90000000D03*
X87500000Y-67500000D03*
X32500000Y-72500000D03*
X75000000Y-60000000D03*
X37500000Y-92500000D03*
X35000000Y-50000000D03*
X87500000Y-62500000D03*
X67500000Y-75000000D03*
X35000000Y-72500000D03*
X92500000Y-87500000D03*
X52500000Y-92500000D03*
X70000000Y-92500000D03*
X90000000Y-45000000D03*
X35000000Y-70000000D03*
X80000000Y-70000000D03*
X32500000Y-50000000D03*
X85000000Y-87500000D03*
X52500000Y-80000000D03*
X52500000Y-65000000D03*
X32500000Y-60000000D03*
X32500000Y-70000000D03*
X37500000Y-87500000D03*
X65000000Y-50000000D03*
X32500000Y-67500000D03*
X82500000Y-50000000D03*
X65000000Y-60000000D03*
X37500000Y-65000000D03*
X52500000Y-77500000D03*
X60000000Y-55000000D03*
X85000000Y-45000000D03*
X62500000Y-92500000D03*
X77500000Y-80000000D03*
X35000000Y-65000000D03*
X77500000Y-55000000D03*
X47500000Y-62500000D03*
X90000000Y-92500000D03*
X37500000Y-52500000D03*
X52500000Y-57500000D03*
X95000000Y-52500000D03*
X77500000Y-50000000D03*
X67500000Y-57500000D03*
X95000000Y-67500000D03*
X70500000Y-83200000D03*
X35000000Y-92500000D03*
X90000000Y-47500000D03*
X52500000Y-75000000D03*
X75000000Y-52500000D03*
X80000000Y-62500000D03*
X40000000Y-62500000D03*
X80000000Y-87500000D03*
X75000000Y-50000000D03*
X87500000Y-60000000D03*
X72500000Y-87500000D03*
X52500000Y-60000000D03*
X37500000Y-62500000D03*
X37500000Y-47500000D03*
%TO.N,/Microcontroller with OLED and DHT11/3.3V*%
X73200000Y-65300000D03*
X60000000Y-69800000D03*
X60000000Y-67200000D03*
X74750000Y-66850000D03*
%TD*%
D36*
%TO.N,GND*%
X67500000Y-70000000D02*
X66100000Y-70000000D01*
X40970000Y-69970000D02*
X39900000Y-68900000D01*
X63537500Y-74702500D02*
X65002500Y-74702500D01*
X41195000Y-69970000D02*
X40970000Y-69970000D01*
X62015000Y-65742500D02*
X62015000Y-67685000D01*
X70000000Y-70900000D02*
X70802500Y-71702500D01*
X66100000Y-70000000D02*
X65450000Y-69350000D01*
D37*
X41600000Y-59420000D02*
X40485000Y-58305000D01*
D36*
X69950000Y-75050000D02*
X70000000Y-75000000D01*
X70062500Y-65740000D02*
X70640000Y-65740000D01*
D37*
X41600000Y-60820000D02*
X41600000Y-59420000D01*
X40485000Y-58305000D02*
X38200000Y-56020000D01*
D36*
X72005000Y-52395000D02*
X72005000Y-52782500D01*
X70500000Y-83200000D02*
X69730000Y-82430000D01*
X69950000Y-76615000D02*
X69950000Y-75050000D01*
X70640000Y-65740000D02*
X71700000Y-66800000D01*
X70802500Y-71702500D02*
X71862500Y-71702500D01*
X71700000Y-66800000D02*
X71700000Y-66900000D01*
X65450000Y-69350000D02*
X65450000Y-68290000D01*
X41197500Y-69967500D02*
X41195000Y-69970000D01*
X70000000Y-70000000D02*
X70000000Y-70900000D01*
X69730000Y-82430000D02*
X69730000Y-81652500D01*
X62015000Y-67685000D02*
X62000000Y-67700000D01*
X65002500Y-74702500D02*
X65010000Y-74710000D01*
D37*
X72005000Y-52369886D02*
X72005000Y-52782500D01*
%TO.N,Net-(D1-K)*%
X59767500Y-53150000D02*
X60025000Y-52892500D01*
X56600000Y-56145000D02*
X57205000Y-56750000D01*
X60025000Y-52892500D02*
X57207500Y-52892500D01*
X57207500Y-52892500D02*
X56600000Y-53500000D01*
X56600000Y-53500000D02*
X56600000Y-56145000D01*
%TO.N,/Power/5V*%
X67550000Y-54550000D02*
X66100000Y-56000000D01*
X57205000Y-62397600D02*
X56602600Y-63000000D01*
X62325000Y-59192500D02*
X62325000Y-56000000D01*
X57205000Y-59350000D02*
X57205000Y-62397600D01*
X62167500Y-59350000D02*
X62325000Y-59192500D01*
X66100000Y-56000000D02*
X62325000Y-56000000D01*
X67550000Y-52900000D02*
X67550000Y-54550000D01*
X62325000Y-56000000D02*
X62325000Y-52892500D01*
X57205000Y-59350000D02*
X62167500Y-59350000D01*
X62452500Y-59320000D02*
X62325000Y-59192500D01*
%TO.N,/Microcontroller with OLED and DHT11/3.3V*%
X69850000Y-59200000D02*
X69850000Y-60325000D01*
D36*
X71862500Y-75202500D02*
X73547500Y-75202500D01*
D37*
X71700000Y-63800000D02*
X64975000Y-63800000D01*
X73200000Y-65300000D02*
X71700000Y-63800000D01*
X71700000Y-63800000D02*
X73500000Y-63800000D01*
D36*
X73422500Y-71202500D02*
X74125000Y-70500000D01*
D37*
X61275000Y-74500000D02*
X61275000Y-72500000D01*
X60700000Y-63800000D02*
X64975000Y-63800000D01*
D36*
X44400000Y-76825000D02*
X40955000Y-76825000D01*
D37*
X41167500Y-67100000D02*
X39900000Y-67100000D01*
X72045000Y-85455000D02*
X70000000Y-87500000D01*
X75200000Y-67300000D02*
X75200000Y-69425000D01*
X68055000Y-48667792D02*
X69850000Y-50462792D01*
D36*
X64985000Y-65722500D02*
X64965000Y-65742500D01*
D37*
X60000000Y-69800000D02*
X60000000Y-70000000D01*
X74750000Y-66850000D02*
X75200000Y-67300000D01*
X40930000Y-76800000D02*
X40930000Y-72530000D01*
D36*
X63537500Y-75202500D02*
X61977500Y-75202500D01*
D37*
X38500000Y-74960000D02*
X40930000Y-72530000D01*
X39900000Y-67100000D02*
X38500000Y-68500000D01*
X68055000Y-47395000D02*
X68055000Y-48667792D01*
X62500000Y-87500000D02*
X62500000Y-84950000D01*
X41197500Y-67070000D02*
X41167500Y-67100000D01*
X87090000Y-50790000D02*
X87090000Y-42720000D01*
D36*
X40955000Y-76825000D02*
X40930000Y-76800000D01*
X64945000Y-68285000D02*
X64950000Y-68290000D01*
D37*
X38500000Y-70300000D02*
X40700000Y-72500000D01*
X75200000Y-69425000D02*
X74125000Y-70500000D01*
D36*
X71862500Y-71202500D02*
X73422500Y-71202500D01*
D37*
X60000000Y-67200000D02*
X60000000Y-64500000D01*
X38500000Y-85800000D02*
X38500000Y-74960000D01*
X64965000Y-63810000D02*
X64965000Y-65742500D01*
X61275000Y-72500000D02*
X40900000Y-72500000D01*
D36*
X70450000Y-76615000D02*
X72045000Y-78210000D01*
X61977500Y-75202500D02*
X61275000Y-74500000D01*
D37*
X60000000Y-70000000D02*
X61275000Y-71275000D01*
X87100000Y-50800000D02*
X87090000Y-50790000D01*
X62500000Y-84950000D02*
X62730000Y-84720000D01*
X73500000Y-63800000D02*
X74100000Y-63800000D01*
X40200000Y-87500000D02*
X38500000Y-85800000D01*
X61275000Y-71275000D02*
X61275000Y-72500000D01*
D36*
X72045000Y-77780000D02*
X72045000Y-78330000D01*
X44635000Y-76800000D02*
X44690000Y-76855000D01*
X64950000Y-68290000D02*
X64950000Y-65757500D01*
D37*
X38500000Y-68500000D02*
X38500000Y-70300000D01*
X69850000Y-50462792D02*
X69850000Y-52900000D01*
X40700000Y-72500000D02*
X40900000Y-72500000D01*
X69850000Y-60325000D02*
X71275000Y-61750000D01*
X64975000Y-65732500D02*
X64965000Y-65742500D01*
X74100000Y-63800000D02*
X87100000Y-50800000D01*
X40200000Y-87500000D02*
X62500000Y-87500000D01*
X71275000Y-61750000D02*
X71275000Y-63375000D01*
X62500000Y-87500000D02*
X70000000Y-87500000D01*
D36*
X73547500Y-75202500D02*
X74085000Y-75740000D01*
D37*
X71275000Y-63375000D02*
X71700000Y-63800000D01*
X69850000Y-59200000D02*
X69850000Y-52900000D01*
X74085000Y-75740000D02*
X72045000Y-77780000D01*
D36*
X40930000Y-72530000D02*
X40900000Y-72500000D01*
X72045000Y-78210000D02*
X72045000Y-78330000D01*
D37*
X60000000Y-64500000D02*
X60700000Y-63800000D01*
D36*
X64950000Y-65757500D02*
X64965000Y-65742500D01*
D37*
X64975000Y-63800000D02*
X64965000Y-63810000D01*
X72045000Y-78330000D02*
X72045000Y-85455000D01*
D36*
%TO.N,/Microcontroller with OLED and DHT11/PC14*%
X79890000Y-79727100D02*
X82513900Y-82351000D01*
X87236100Y-82351000D02*
X90219000Y-79368100D01*
X91432500Y-72902500D02*
X91420000Y-72915000D01*
X78932500Y-74202500D02*
X79890000Y-75160000D01*
X79890000Y-75160000D02*
X79890000Y-79727100D01*
X71862500Y-74202500D02*
X78932500Y-74202500D01*
X90219000Y-79368100D02*
X90219000Y-74116000D01*
X90219000Y-74116000D02*
X91420000Y-72915000D01*
X91432500Y-69820000D02*
X91432500Y-72902500D01*
X82513900Y-82351000D02*
X87236100Y-82351000D01*
%TO.N,/Microcontroller with OLED and DHT11/PC15*%
X88232500Y-72847500D02*
X88300000Y-72915000D01*
X87070000Y-81950000D02*
X89790000Y-79230000D01*
X89790000Y-74405000D02*
X88300000Y-72915000D01*
X71862500Y-73702500D02*
X79442500Y-73702500D01*
X89790000Y-79230000D02*
X89790000Y-74405000D01*
X79442500Y-73702500D02*
X80440000Y-74700000D01*
X88232500Y-69820000D02*
X88232500Y-72847500D01*
X82680000Y-81950000D02*
X87070000Y-81950000D01*
X80440000Y-74700000D02*
X80440000Y-79710000D01*
X80440000Y-79710000D02*
X82680000Y-81950000D01*
%TO.N,/Microcontroller with OLED and DHT11/OSC_IN*%
X80842500Y-74160000D02*
X83680000Y-74160000D01*
X85295000Y-78580000D02*
X85295000Y-75775000D01*
X79885000Y-73202500D02*
X80842500Y-74160000D01*
X79885000Y-73202500D02*
X71862500Y-73202500D01*
X85295000Y-75775000D02*
X83680000Y-74160000D01*
%TO.N,/Microcontroller with OLED and DHT11/OSC_OUT*%
X83680000Y-65660000D02*
X83680000Y-68997500D01*
X79975000Y-72702500D02*
X71862500Y-72702500D01*
X83680000Y-68997500D02*
X79975000Y-72702500D01*
X85295000Y-61460000D02*
X85295000Y-64045000D01*
X85295000Y-64045000D02*
X83680000Y-65660000D01*
%TO.N,/Microcontroller with OLED and DHT11/NRST*%
X36000000Y-46500000D02*
X33500000Y-49000000D01*
X44122500Y-67377500D02*
X44145000Y-67400000D01*
X34020000Y-43200000D02*
X36000000Y-45180000D01*
X67308824Y-72202500D02*
X63716324Y-68610000D01*
X59360000Y-68610000D02*
X56640000Y-71330000D01*
X63716324Y-68610000D02*
X59360000Y-68610000D01*
X41052500Y-64000000D02*
X44122500Y-67070000D01*
X44145000Y-67400000D02*
X44145000Y-69970000D01*
X33500000Y-49000000D02*
X33500000Y-61000000D01*
X56640000Y-71330000D02*
X45505000Y-71330000D01*
X45505000Y-71330000D02*
X44145000Y-69970000D01*
X71862500Y-72202500D02*
X67308824Y-72202500D01*
X36500000Y-64000000D02*
X41052500Y-64000000D01*
X44122500Y-67070000D02*
X44122500Y-67377500D01*
X33500000Y-61000000D02*
X36500000Y-64000000D01*
X36000000Y-45180000D02*
X36000000Y-46500000D01*
D37*
%TO.N,Net-(D1-A)*%
X54360000Y-45870000D02*
X54360000Y-50360000D01*
X54360000Y-50360000D02*
X52600000Y-52120000D01*
X52600000Y-52120000D02*
X52600000Y-53500000D01*
D36*
%TO.N,Net-(D2-K)*%
X74357500Y-47395000D02*
X74390000Y-47427500D01*
X74240000Y-47802500D02*
X71002500Y-47802500D01*
X71002500Y-47802500D02*
X70595000Y-47395000D01*
D37*
%TO.N,/Power/V_IN*%
X58360000Y-45870000D02*
X56310000Y-43820000D01*
X52740000Y-43820000D02*
X44500000Y-52060000D01*
X44500000Y-52060000D02*
X44500000Y-56020000D01*
X56310000Y-43820000D02*
X52740000Y-43820000D01*
D36*
%TO.N,/Microcontroller with OLED and DHT11/SWDIO*%
X65900000Y-74240000D02*
X65900000Y-74970000D01*
X65360000Y-73700000D02*
X65900000Y-74240000D01*
X65470000Y-75400000D02*
X64700000Y-75400000D01*
X64308824Y-74202500D02*
X64811324Y-73700000D01*
X43090000Y-81500000D02*
X40930000Y-79340000D01*
X64811324Y-73700000D02*
X65360000Y-73700000D01*
X60810000Y-81500000D02*
X43090000Y-81500000D01*
X64090000Y-76010000D02*
X64090000Y-78220000D01*
X65900000Y-74970000D02*
X65470000Y-75400000D01*
X63537500Y-74202500D02*
X64308824Y-74202500D01*
X64090000Y-78220000D02*
X60810000Y-81500000D01*
X64700000Y-75400000D02*
X64090000Y-76010000D01*
%TO.N,/Microcontroller with OLED and DHT11/SWDCLK*%
X40951000Y-81901000D02*
X60976100Y-81901000D01*
X60976100Y-81901000D02*
X64491000Y-78386100D01*
X64595000Y-76615000D02*
X64950000Y-76615000D01*
X64491000Y-76719000D02*
X64595000Y-76615000D01*
X64491000Y-78386100D02*
X64491000Y-76719000D01*
X40930000Y-81880000D02*
X40951000Y-81901000D01*
%TO.N,/Microcontroller with OLED and DHT11/SDA*%
X67950000Y-76615000D02*
X67950000Y-84580000D01*
X67950000Y-84580000D02*
X67810000Y-84720000D01*
%TO.N,/Microcontroller with OLED and DHT11/SCL*%
X67450000Y-82540000D02*
X65270000Y-84720000D01*
X67450000Y-76615000D02*
X67450000Y-82540000D01*
%TO.N,/Microcontroller with OLED and DHT11/DHT11_DATA*%
X70824000Y-70435324D02*
X71091176Y-70702500D01*
X89630000Y-42720000D02*
X89630000Y-44270000D01*
X71091176Y-70702500D02*
X71862500Y-70702500D01*
X88400000Y-45500000D02*
X88400000Y-51630000D01*
X89630000Y-44270000D02*
X88400000Y-45500000D01*
X70824000Y-69206000D02*
X70824000Y-70435324D01*
X88400000Y-51630000D02*
X70824000Y-69206000D01*
%TO.N,/Microcontroller with OLED and DHT11/BOOT0*%
X68450000Y-76615000D02*
X68450000Y-77447500D01*
X68450000Y-77447500D02*
X69730000Y-78727500D01*
%TO.N,/Microcontroller with OLED and DHT11/BOOT1*%
X67137500Y-65740000D02*
X66950000Y-65927500D01*
X66950000Y-65927500D02*
X66950000Y-68290000D01*
%TD*%
%TA.AperFunction,Conductor*%
%TO.N,GND*%
G36*
X50880098Y-41019685D02*
G01*
X50925853Y-41072489D01*
X50935797Y-41141647D01*
X50930990Y-41162318D01*
X50896447Y-41268627D01*
X50896447Y-41268630D01*
X50859500Y-41501902D01*
X50859500Y-41738097D01*
X50896446Y-41971368D01*
X50969433Y-42195996D01*
X51075295Y-42403760D01*
X51076657Y-42406433D01*
X51215483Y-42597510D01*
X51382490Y-42764517D01*
X51573567Y-42903343D01*
X51653713Y-42944179D01*
X51737656Y-42986951D01*
X51788452Y-43034926D01*
X51805247Y-43102747D01*
X51782709Y-43168882D01*
X51769042Y-43185117D01*
X43760272Y-51193889D01*
X43633891Y-51320269D01*
X43633890Y-51320270D01*
X43528833Y-51464867D01*
X43447243Y-51624997D01*
X43446184Y-51628754D01*
X43392459Y-51794101D01*
X43392457Y-51794110D01*
X43370065Y-51935498D01*
X43370065Y-51935499D01*
X43364500Y-51970634D01*
X43364500Y-53150263D01*
X43344815Y-53217302D01*
X43292011Y-53263057D01*
X43283836Y-53266444D01*
X43257665Y-53276205D01*
X43142455Y-53362452D01*
X43142452Y-53362455D01*
X43056206Y-53477664D01*
X43056202Y-53477671D01*
X43005908Y-53612517D01*
X42999501Y-53672116D01*
X42999501Y-53672123D01*
X42999500Y-53672135D01*
X42999500Y-58367870D01*
X42999501Y-58367876D01*
X43005908Y-58427483D01*
X43056202Y-58562328D01*
X43056206Y-58562335D01*
X43142452Y-58677544D01*
X43142455Y-58677547D01*
X43257664Y-58763793D01*
X43257671Y-58763797D01*
X43392517Y-58814091D01*
X43392516Y-58814091D01*
X43399444Y-58814835D01*
X43452127Y-58820500D01*
X45547872Y-58820499D01*
X45607483Y-58814091D01*
X45742331Y-58763796D01*
X45857546Y-58677546D01*
X45878157Y-58650013D01*
X53180000Y-58650013D01*
X53180000Y-59100000D01*
X54005000Y-59100000D01*
X54505000Y-59100000D01*
X55329999Y-59100000D01*
X55329999Y-58650028D01*
X55329998Y-58650013D01*
X55319505Y-58547302D01*
X55264358Y-58380880D01*
X55264356Y-58380875D01*
X55172315Y-58231654D01*
X55078342Y-58137681D01*
X55044857Y-58076358D01*
X55049841Y-58006666D01*
X55078342Y-57962319D01*
X55172315Y-57868345D01*
X55264356Y-57719124D01*
X55264358Y-57719119D01*
X55319505Y-57552697D01*
X55319506Y-57552690D01*
X55329999Y-57449986D01*
X55330000Y-57449973D01*
X55330000Y-57000000D01*
X54505000Y-57000000D01*
X54505000Y-59100000D01*
X54005000Y-59100000D01*
X54005000Y-57000000D01*
X53180001Y-57000000D01*
X53180001Y-57449986D01*
X53190494Y-57552697D01*
X53245641Y-57719119D01*
X53245643Y-57719124D01*
X53337684Y-57868345D01*
X53431658Y-57962319D01*
X53465143Y-58023642D01*
X53460159Y-58093334D01*
X53431658Y-58137681D01*
X53337684Y-58231654D01*
X53245643Y-58380875D01*
X53245641Y-58380880D01*
X53190494Y-58547302D01*
X53190493Y-58547309D01*
X53180000Y-58650013D01*
X45878157Y-58650013D01*
X45932982Y-58576777D01*
X45936145Y-58572552D01*
X45936146Y-58572551D01*
X45943793Y-58562335D01*
X45943792Y-58562335D01*
X45943796Y-58562331D01*
X45994091Y-58427483D01*
X46000500Y-58367873D01*
X46000499Y-56050013D01*
X53180000Y-56050013D01*
X53180000Y-56500000D01*
X54005000Y-56500000D01*
X54005000Y-55350000D01*
X53880027Y-55350000D01*
X53880012Y-55350001D01*
X53777302Y-55360494D01*
X53610880Y-55415641D01*
X53610875Y-55415643D01*
X53461654Y-55507684D01*
X53337684Y-55631654D01*
X53245643Y-55780875D01*
X53245641Y-55780880D01*
X53190494Y-55947302D01*
X53190493Y-55947309D01*
X53180000Y-56050013D01*
X46000499Y-56050013D01*
X46000499Y-55947309D01*
X46000499Y-53672129D01*
X46000498Y-53672123D01*
X46000497Y-53672116D01*
X45994091Y-53612517D01*
X45989841Y-53601123D01*
X45943797Y-53477671D01*
X45943793Y-53477664D01*
X45857547Y-53362455D01*
X45857544Y-53362452D01*
X45742334Y-53276205D01*
X45716164Y-53266444D01*
X45660231Y-53224571D01*
X45635816Y-53159106D01*
X45635500Y-53150263D01*
X45635500Y-52581700D01*
X45655185Y-52514661D01*
X45671814Y-52494024D01*
X50647819Y-47518018D01*
X50709142Y-47484534D01*
X50778834Y-47489518D01*
X50834767Y-47531390D01*
X50859184Y-47596854D01*
X50859500Y-47605700D01*
X50859500Y-47738097D01*
X50896446Y-47971368D01*
X50969433Y-48195996D01*
X50999539Y-48255081D01*
X51076657Y-48406433D01*
X51215483Y-48597510D01*
X51382490Y-48764517D01*
X51573567Y-48903343D01*
X51672991Y-48954002D01*
X51784003Y-49010566D01*
X51784005Y-49010566D01*
X51784008Y-49010568D01*
X51904412Y-49049689D01*
X52008631Y-49083553D01*
X52241903Y-49120500D01*
X52241908Y-49120500D01*
X52478097Y-49120500D01*
X52711368Y-49083553D01*
X52725205Y-49079057D01*
X52935992Y-49010568D01*
X53044204Y-48955430D01*
X53112874Y-48942534D01*
X53177614Y-48968810D01*
X53217872Y-49025916D01*
X53224500Y-49065915D01*
X53224500Y-49838299D01*
X53204815Y-49905338D01*
X53188181Y-49925980D01*
X51733891Y-51380269D01*
X51733890Y-51380270D01*
X51628833Y-51524867D01*
X51547243Y-51684997D01*
X51546184Y-51688754D01*
X51492458Y-51854105D01*
X51492457Y-51854107D01*
X51473896Y-51971307D01*
X51469555Y-51998716D01*
X51466413Y-52018554D01*
X51464000Y-52033788D01*
X51434069Y-52096922D01*
X51380532Y-52132092D01*
X51280674Y-52165182D01*
X51280663Y-52165187D01*
X51131342Y-52257289D01*
X51007289Y-52381342D01*
X50915187Y-52530663D01*
X50915186Y-52530666D01*
X50860001Y-52697203D01*
X50860001Y-52697204D01*
X50860000Y-52697204D01*
X50849500Y-52799983D01*
X50849500Y-54200001D01*
X50849501Y-54200018D01*
X50860000Y-54302796D01*
X50860001Y-54302799D01*
X50892211Y-54400000D01*
X50915186Y-54469334D01*
X51007288Y-54618656D01*
X51131344Y-54742712D01*
X51280666Y-54834814D01*
X51447203Y-54889999D01*
X51549991Y-54900500D01*
X53650008Y-54900499D01*
X53752797Y-54889999D01*
X53919334Y-54834814D01*
X54068656Y-54742712D01*
X54192712Y-54618656D01*
X54284814Y-54469334D01*
X54339999Y-54302797D01*
X54350500Y-54200009D01*
X54350499Y-52799992D01*
X54339999Y-52697203D01*
X54284814Y-52530666D01*
X54192712Y-52381344D01*
X54156284Y-52344916D01*
X54122799Y-52283593D01*
X54127783Y-52213901D01*
X54156284Y-52169554D01*
X54673206Y-51652633D01*
X55226111Y-51099728D01*
X55234027Y-51088833D01*
X55331167Y-50955132D01*
X55412309Y-50795881D01*
X55434141Y-50728689D01*
X55467541Y-50625897D01*
X55481520Y-50537631D01*
X55495500Y-50449370D01*
X55495500Y-46644691D01*
X55513101Y-46582290D01*
X55512839Y-46582157D01*
X55513511Y-46580837D01*
X55513778Y-46579892D01*
X55515037Y-46577834D01*
X55515051Y-46577816D01*
X55611557Y-46388412D01*
X55677246Y-46186243D01*
X55710500Y-45976287D01*
X55710500Y-45763713D01*
X55677246Y-45553757D01*
X55611557Y-45351588D01*
X55515051Y-45162184D01*
X55515047Y-45162179D01*
X55507933Y-45152387D01*
X55503700Y-45140525D01*
X55495456Y-45131011D01*
X55492182Y-45108246D01*
X55484452Y-45086581D01*
X55487304Y-45074316D01*
X55485512Y-45061853D01*
X55495067Y-45040928D01*
X55500277Y-45018527D01*
X55509305Y-45009752D01*
X55514537Y-44998297D01*
X55533888Y-44985860D01*
X55550382Y-44969831D01*
X55564128Y-44966426D01*
X55573315Y-44960523D01*
X55608250Y-44955500D01*
X55788299Y-44955500D01*
X55855338Y-44975185D01*
X55875980Y-44991819D01*
X57009289Y-46125128D01*
X57040974Y-46181699D01*
X57041249Y-46181610D01*
X57041697Y-46182989D01*
X57042178Y-46183848D01*
X57042750Y-46186230D01*
X57042753Y-46186239D01*
X57042754Y-46186243D01*
X57108152Y-46387517D01*
X57108444Y-46388414D01*
X57204951Y-46577820D01*
X57329890Y-46749786D01*
X57480213Y-46900109D01*
X57652179Y-47025048D01*
X57652181Y-47025049D01*
X57652184Y-47025051D01*
X57841588Y-47121557D01*
X58043757Y-47187246D01*
X58253713Y-47220500D01*
X58253714Y-47220500D01*
X58466286Y-47220500D01*
X58466287Y-47220500D01*
X58676243Y-47187246D01*
X58878412Y-47121557D01*
X59067816Y-47025051D01*
X59089789Y-47009086D01*
X59239786Y-46900109D01*
X59239788Y-46900106D01*
X59239792Y-46900104D01*
X59390104Y-46749792D01*
X59390106Y-46749788D01*
X59390109Y-46749786D01*
X59514149Y-46579057D01*
X59515051Y-46577816D01*
X59611557Y-46388412D01*
X59677246Y-46186243D01*
X59710500Y-45976287D01*
X59710500Y-45763713D01*
X61009500Y-45763713D01*
X61009500Y-45976286D01*
X61042374Y-46183848D01*
X61042754Y-46186243D01*
X61108152Y-46387517D01*
X61108444Y-46388414D01*
X61204951Y-46577820D01*
X61329890Y-46749786D01*
X61480213Y-46900109D01*
X61652179Y-47025048D01*
X61652181Y-47025049D01*
X61652184Y-47025051D01*
X61841588Y-47121557D01*
X62043757Y-47187246D01*
X62253713Y-47220500D01*
X62253714Y-47220500D01*
X62466286Y-47220500D01*
X62466287Y-47220500D01*
X62676243Y-47187246D01*
X62729539Y-47169928D01*
X62799377Y-47167932D01*
X62859211Y-47204012D01*
X62890040Y-47266712D01*
X62890329Y-47307257D01*
X62859500Y-47501902D01*
X62859500Y-47738097D01*
X62896446Y-47971368D01*
X62969433Y-48195996D01*
X62999539Y-48255081D01*
X63076657Y-48406433D01*
X63215483Y-48597510D01*
X63382490Y-48764517D01*
X63573567Y-48903343D01*
X63672991Y-48954002D01*
X63784003Y-49010566D01*
X63784005Y-49010566D01*
X63784008Y-49010568D01*
X63904412Y-49049689D01*
X64008631Y-49083553D01*
X64241903Y-49120500D01*
X64241908Y-49120500D01*
X64478097Y-49120500D01*
X64711368Y-49083553D01*
X64725205Y-49079057D01*
X64935992Y-49010568D01*
X65146433Y-48903343D01*
X65337510Y-48764517D01*
X65504517Y-48597510D01*
X65643343Y-48406433D01*
X65750568Y-48195992D01*
X65823553Y-47971368D01*
X65829693Y-47932603D01*
X65860500Y-47738097D01*
X65860500Y-47501902D01*
X65823553Y-47268631D01*
X65775765Y-47121557D01*
X65750568Y-47044008D01*
X65750566Y-47044005D01*
X65750566Y-47044003D01*
X65663259Y-46872655D01*
X65643343Y-46833567D01*
X65504517Y-46642490D01*
X65337510Y-46475483D01*
X65146433Y-46336657D01*
X65127001Y-46326756D01*
X64935996Y-46229433D01*
X64711368Y-46156446D01*
X64478097Y-46119500D01*
X64478092Y-46119500D01*
X64241908Y-46119500D01*
X64241903Y-46119500D01*
X64008630Y-46156447D01*
X64008627Y-46156447D01*
X63856687Y-46205816D01*
X63786846Y-46207811D01*
X63727013Y-46171731D01*
X63696185Y-46109030D01*
X63695896Y-46068492D01*
X63710500Y-45976287D01*
X63710500Y-45763713D01*
X63677246Y-45553757D01*
X63611557Y-45351588D01*
X63554693Y-45239986D01*
X72865001Y-45239986D01*
X72875494Y-45342697D01*
X72930641Y-45509119D01*
X72930643Y-45509124D01*
X73022684Y-45658345D01*
X73146654Y-45782315D01*
X73295875Y-45874356D01*
X73295880Y-45874358D01*
X73462302Y-45929505D01*
X73462309Y-45929506D01*
X73565019Y-45939999D01*
X73989999Y-45939999D01*
X74490000Y-45939999D01*
X74914972Y-45939999D01*
X74914986Y-45939998D01*
X75017697Y-45929505D01*
X75184119Y-45874358D01*
X75184124Y-45874356D01*
X75333345Y-45782315D01*
X75457315Y-45658345D01*
X75549356Y-45509124D01*
X75549358Y-45509119D01*
X75604505Y-45342697D01*
X75604506Y-45342690D01*
X75614999Y-45239986D01*
X75615000Y-45239973D01*
X75615000Y-45127500D01*
X74490000Y-45127500D01*
X74490000Y-45939999D01*
X73989999Y-45939999D01*
X73990000Y-45939998D01*
X73990000Y-45127500D01*
X72865001Y-45127500D01*
X72865001Y-45239986D01*
X63554693Y-45239986D01*
X63515051Y-45162184D01*
X63515049Y-45162181D01*
X63505489Y-45149022D01*
X63505488Y-45149021D01*
X63390109Y-44990214D01*
X63390105Y-44990209D01*
X63239786Y-44839890D01*
X63067820Y-44714951D01*
X62886078Y-44622349D01*
X62886076Y-44622347D01*
X62878416Y-44618444D01*
X62777327Y-44585598D01*
X62676243Y-44552754D01*
X62676241Y-44552753D01*
X62676240Y-44552753D01*
X62506707Y-44525902D01*
X62466287Y-44519500D01*
X62253713Y-44519500D01*
X62213293Y-44525902D01*
X62043760Y-44552753D01*
X62010537Y-44563548D01*
X61856546Y-44613583D01*
X61841585Y-44618444D01*
X61652179Y-44714951D01*
X61480213Y-44839890D01*
X61329890Y-44990213D01*
X61204951Y-45162179D01*
X61108444Y-45351585D01*
X61108443Y-45351587D01*
X61108443Y-45351588D01*
X61099772Y-45378276D01*
X61042753Y-45553760D01*
X61009500Y-45763713D01*
X59710500Y-45763713D01*
X59677246Y-45553757D01*
X59611557Y-45351588D01*
X59515051Y-45162184D01*
X59515049Y-45162181D01*
X59515048Y-45162179D01*
X59390109Y-44990213D01*
X59239786Y-44839890D01*
X59067820Y-44714951D01*
X58878414Y-44618444D01*
X58878413Y-44618443D01*
X58878412Y-44618443D01*
X58676243Y-44552754D01*
X58676241Y-44552753D01*
X58676230Y-44552750D01*
X58673848Y-44552178D01*
X58672989Y-44551697D01*
X58671610Y-44551249D01*
X58671699Y-44550974D01*
X58615128Y-44519289D01*
X58610852Y-44515013D01*
X72865000Y-44515013D01*
X72865000Y-44627500D01*
X73990000Y-44627500D01*
X74490000Y-44627500D01*
X75614999Y-44627500D01*
X75614999Y-44515028D01*
X75614998Y-44515013D01*
X75604505Y-44412302D01*
X75549358Y-44245880D01*
X75549356Y-44245875D01*
X75457315Y-44096654D01*
X75333345Y-43972684D01*
X75205048Y-43893550D01*
X75205045Y-43893547D01*
X75184130Y-43880646D01*
X75184119Y-43880641D01*
X75017697Y-43825494D01*
X75017690Y-43825493D01*
X74914986Y-43815000D01*
X74490000Y-43815000D01*
X74490000Y-44627500D01*
X73990000Y-44627500D01*
X73990000Y-43815000D01*
X73565028Y-43815000D01*
X73565012Y-43815001D01*
X73462302Y-43825494D01*
X73295880Y-43880641D01*
X73295875Y-43880643D01*
X73146654Y-43972684D01*
X73022684Y-44096654D01*
X72930643Y-44245875D01*
X72930641Y-44245880D01*
X72875494Y-44412302D01*
X72875493Y-44412309D01*
X72865000Y-44515013D01*
X58610852Y-44515013D01*
X57049729Y-42953890D01*
X56980156Y-42903342D01*
X56905132Y-42848833D01*
X56745881Y-42767691D01*
X56745875Y-42767688D01*
X56704194Y-42754146D01*
X56599102Y-42719999D01*
X56575897Y-42712459D01*
X56575895Y-42712458D01*
X56575894Y-42712458D01*
X56399370Y-42684500D01*
X56399366Y-42684500D01*
X53684679Y-42684500D01*
X53617640Y-42664815D01*
X53571885Y-42612011D01*
X53561941Y-42542853D01*
X53584361Y-42487614D01*
X53590561Y-42479081D01*
X53643343Y-42406433D01*
X53750568Y-42195992D01*
X53823553Y-41971368D01*
X53844327Y-41840208D01*
X53860500Y-41738097D01*
X53860500Y-41501902D01*
X53839005Y-41366197D01*
X53823553Y-41268632D01*
X53823552Y-41268628D01*
X53823552Y-41268627D01*
X53789010Y-41162318D01*
X53787015Y-41092477D01*
X53823095Y-41032644D01*
X53885796Y-41001816D01*
X53906941Y-41000000D01*
X62813059Y-41000000D01*
X62880098Y-41019685D01*
X62925853Y-41072489D01*
X62935797Y-41141647D01*
X62930990Y-41162318D01*
X62896447Y-41268627D01*
X62896447Y-41268630D01*
X62859500Y-41501902D01*
X62859500Y-41738097D01*
X62896446Y-41971368D01*
X62969433Y-42195996D01*
X63075295Y-42403760D01*
X63076657Y-42406433D01*
X63215483Y-42597510D01*
X63382490Y-42764517D01*
X63573567Y-42903343D01*
X63672769Y-42953889D01*
X63784003Y-43010566D01*
X63784005Y-43010566D01*
X63784008Y-43010568D01*
X63904412Y-43049689D01*
X64008631Y-43083553D01*
X64241903Y-43120500D01*
X64241908Y-43120500D01*
X64478097Y-43120500D01*
X64711368Y-43083553D01*
X64935992Y-43010568D01*
X65146433Y-42903343D01*
X65337510Y-42764517D01*
X65504517Y-42597510D01*
X65643343Y-42406433D01*
X65750568Y-42195992D01*
X65823553Y-41971368D01*
X65844327Y-41840208D01*
X65860500Y-41738097D01*
X65860500Y-41501902D01*
X65839005Y-41366197D01*
X65823553Y-41268632D01*
X65823552Y-41268628D01*
X65823552Y-41268627D01*
X65789010Y-41162318D01*
X65787015Y-41092477D01*
X65823095Y-41032644D01*
X65885796Y-41001816D01*
X65906941Y-41000000D01*
X97456000Y-41000000D01*
X97523039Y-41019685D01*
X97568794Y-41072489D01*
X97580000Y-41124000D01*
X97580000Y-58863634D01*
X97560315Y-58930673D01*
X97507511Y-58976428D01*
X97438353Y-58986372D01*
X97374797Y-58957347D01*
X97368319Y-58951315D01*
X97262743Y-58845739D01*
X97262736Y-58845733D01*
X97070293Y-58698067D01*
X97070292Y-58698066D01*
X97070289Y-58698064D01*
X96871105Y-58583065D01*
X96860214Y-58576777D01*
X96860205Y-58576773D01*
X96636104Y-58483947D01*
X96401785Y-58421161D01*
X96161289Y-58389500D01*
X96161288Y-58389500D01*
X95918712Y-58389500D01*
X95918711Y-58389500D01*
X95678214Y-58421161D01*
X95443895Y-58483947D01*
X95219794Y-58576773D01*
X95219785Y-58576777D01*
X95009706Y-58698067D01*
X94817263Y-58845733D01*
X94817256Y-58845739D01*
X94645739Y-59017256D01*
X94645733Y-59017263D01*
X94498067Y-59209706D01*
X94376777Y-59419785D01*
X94376773Y-59419794D01*
X94283947Y-59643895D01*
X94221161Y-59878214D01*
X94189500Y-60118711D01*
X94189500Y-60361288D01*
X94219914Y-60592315D01*
X94221162Y-60601789D01*
X94247612Y-60700500D01*
X94283947Y-60836104D01*
X94315943Y-60913348D01*
X94376776Y-61060212D01*
X94498064Y-61270289D01*
X94498066Y-61270292D01*
X94498067Y-61270293D01*
X94645733Y-61462736D01*
X94645739Y-61462743D01*
X94817256Y-61634260D01*
X94817262Y-61634265D01*
X95009711Y-61781936D01*
X95219788Y-61903224D01*
X95443900Y-61996054D01*
X95678211Y-62058838D01*
X95858586Y-62082584D01*
X95918711Y-62090500D01*
X95918712Y-62090500D01*
X96161289Y-62090500D01*
X96209388Y-62084167D01*
X96401789Y-62058838D01*
X96636100Y-61996054D01*
X96860212Y-61903224D01*
X97070289Y-61781936D01*
X97262738Y-61634265D01*
X97290832Y-61606171D01*
X97368319Y-61528685D01*
X97429642Y-61495200D01*
X97499334Y-61500184D01*
X97555267Y-61542056D01*
X97579684Y-61607520D01*
X97580000Y-61616366D01*
X97580000Y-86803634D01*
X97560315Y-86870673D01*
X97507511Y-86916428D01*
X97438353Y-86926372D01*
X97374797Y-86897347D01*
X97368319Y-86891315D01*
X97262743Y-86785739D01*
X97262736Y-86785733D01*
X97070293Y-86638067D01*
X97070292Y-86638066D01*
X97070289Y-86638064D01*
X96860212Y-86516776D01*
X96860205Y-86516773D01*
X96636104Y-86423947D01*
X96401785Y-86361161D01*
X96161289Y-86329500D01*
X96161288Y-86329500D01*
X95918712Y-86329500D01*
X95918711Y-86329500D01*
X95678214Y-86361161D01*
X95443895Y-86423947D01*
X95219794Y-86516773D01*
X95219785Y-86516777D01*
X95009706Y-86638067D01*
X94817263Y-86785733D01*
X94817256Y-86785739D01*
X94645739Y-86957256D01*
X94645733Y-86957263D01*
X94498067Y-87149706D01*
X94376777Y-87359785D01*
X94376773Y-87359794D01*
X94283947Y-87583895D01*
X94221161Y-87818214D01*
X94189500Y-88058711D01*
X94189500Y-88301288D01*
X94211864Y-88471168D01*
X94221162Y-88541789D01*
X94227610Y-88565853D01*
X94283947Y-88776104D01*
X94376773Y-89000205D01*
X94376776Y-89000212D01*
X94498064Y-89210289D01*
X94498066Y-89210292D01*
X94498067Y-89210293D01*
X94645733Y-89402736D01*
X94645739Y-89402743D01*
X94817256Y-89574260D01*
X94817262Y-89574265D01*
X95009711Y-89721936D01*
X95219788Y-89843224D01*
X95443900Y-89936054D01*
X95678211Y-89998838D01*
X95858586Y-90022584D01*
X95918711Y-90030500D01*
X95918712Y-90030500D01*
X96161289Y-90030500D01*
X96209388Y-90024167D01*
X96401789Y-89998838D01*
X96636100Y-89936054D01*
X96860212Y-89843224D01*
X97070289Y-89721936D01*
X97262738Y-89574265D01*
X97289483Y-89547520D01*
X97368319Y-89468685D01*
X97429642Y-89435200D01*
X97499334Y-89440184D01*
X97555267Y-89482056D01*
X97579684Y-89547520D01*
X97580000Y-89556366D01*
X97580000Y-94676000D01*
X97560315Y-94743039D01*
X97507511Y-94788794D01*
X97456000Y-94800000D01*
X45346366Y-94800000D01*
X45279327Y-94780315D01*
X45233572Y-94727511D01*
X45223628Y-94658353D01*
X45252653Y-94594797D01*
X45258685Y-94588319D01*
X45364260Y-94482743D01*
X45364265Y-94482738D01*
X45511936Y-94290289D01*
X45633224Y-94080212D01*
X45726054Y-93856100D01*
X45788838Y-93621789D01*
X45820500Y-93381288D01*
X45820500Y-93138712D01*
X45788838Y-92898211D01*
X45726054Y-92663900D01*
X45633224Y-92439788D01*
X45511936Y-92229711D01*
X45364265Y-92037262D01*
X45364260Y-92037256D01*
X45192743Y-91865739D01*
X45192736Y-91865733D01*
X45000293Y-91718067D01*
X45000292Y-91718066D01*
X45000289Y-91718064D01*
X44790212Y-91596776D01*
X44790205Y-91596773D01*
X44566104Y-91503947D01*
X44331785Y-91441161D01*
X44091289Y-91409500D01*
X44091288Y-91409500D01*
X43848712Y-91409500D01*
X43848711Y-91409500D01*
X43608214Y-91441161D01*
X43373895Y-91503947D01*
X43149794Y-91596773D01*
X43149785Y-91596777D01*
X42939706Y-91718067D01*
X42747263Y-91865733D01*
X42747256Y-91865739D01*
X42575739Y-92037256D01*
X42575733Y-92037263D01*
X42428067Y-92229706D01*
X42306777Y-92439785D01*
X42306773Y-92439794D01*
X42213947Y-92663895D01*
X42151161Y-92898214D01*
X42119500Y-93138711D01*
X42119500Y-93381288D01*
X42151161Y-93621785D01*
X42213947Y-93856104D01*
X42306773Y-94080205D01*
X42306776Y-94080212D01*
X42428064Y-94290289D01*
X42428066Y-94290292D01*
X42428067Y-94290293D01*
X42575733Y-94482736D01*
X42575739Y-94482743D01*
X42681315Y-94588319D01*
X42714800Y-94649642D01*
X42709816Y-94719334D01*
X42667944Y-94775267D01*
X42602480Y-94799684D01*
X42593634Y-94800000D01*
X31124000Y-94800000D01*
X31056961Y-94780315D01*
X31011206Y-94727511D01*
X31000000Y-94676000D01*
X31000000Y-46001723D01*
X31019685Y-45934684D01*
X31072489Y-45888929D01*
X31141647Y-45878985D01*
X31205203Y-45908010D01*
X31242977Y-45966788D01*
X31246473Y-45982325D01*
X31257382Y-46051206D01*
X31257679Y-46053076D01*
X31333096Y-46285185D01*
X31433701Y-46482635D01*
X31443896Y-46502642D01*
X31587339Y-46700076D01*
X31587343Y-46700081D01*
X31759918Y-46872656D01*
X31759923Y-46872660D01*
X31797697Y-46900104D01*
X31957361Y-47016106D01*
X32174815Y-47126904D01*
X32406924Y-47202321D01*
X32647973Y-47240500D01*
X32647974Y-47240500D01*
X32892026Y-47240500D01*
X32892027Y-47240500D01*
X33133076Y-47202321D01*
X33365185Y-47126904D01*
X33582639Y-47016106D01*
X33780083Y-46872655D01*
X33952655Y-46700083D01*
X34096106Y-46502639D01*
X34206904Y-46285185D01*
X34282321Y-46053076D01*
X34320500Y-45812027D01*
X34320500Y-45567973D01*
X34282321Y-45326924D01*
X34206904Y-45094815D01*
X34096106Y-44877361D01*
X34096104Y-44877358D01*
X34096103Y-44877356D01*
X34019838Y-44772385D01*
X33996358Y-44706578D01*
X34012184Y-44638525D01*
X34062290Y-44589830D01*
X34120156Y-44575500D01*
X34128253Y-44575500D01*
X34128254Y-44575500D01*
X34342097Y-44541630D01*
X34398365Y-44523346D01*
X34468203Y-44521351D01*
X34524362Y-44553597D01*
X35363181Y-45392416D01*
X35396666Y-45453739D01*
X35399500Y-45480097D01*
X35399500Y-46199902D01*
X35379815Y-46266941D01*
X35363181Y-46287583D01*
X33019481Y-48631282D01*
X33019475Y-48631290D01*
X32975355Y-48707710D01*
X32975355Y-48707712D01*
X32940423Y-48768214D01*
X32940423Y-48768215D01*
X32899499Y-48920943D01*
X32899499Y-48920945D01*
X32899499Y-49089046D01*
X32899500Y-49089059D01*
X32899500Y-60913330D01*
X32899499Y-60913348D01*
X32899499Y-61079054D01*
X32899498Y-61079054D01*
X32940424Y-61231789D01*
X32940425Y-61231790D01*
X32957925Y-61262100D01*
X32957926Y-61262101D01*
X33019477Y-61368712D01*
X33019481Y-61368717D01*
X33138349Y-61487585D01*
X33138354Y-61487589D01*
X36131284Y-64480520D01*
X36131286Y-64480521D01*
X36131290Y-64480524D01*
X36226904Y-64535726D01*
X36268216Y-64559577D01*
X36420943Y-64600501D01*
X36420945Y-64600501D01*
X36586654Y-64600501D01*
X36586670Y-64600500D01*
X40752403Y-64600500D01*
X40819442Y-64620185D01*
X40840084Y-64636819D01*
X41689732Y-65486468D01*
X41723217Y-65547791D01*
X41718233Y-65617483D01*
X41676361Y-65673416D01*
X41610897Y-65697833D01*
X41589450Y-65697507D01*
X41560012Y-65694500D01*
X40834998Y-65694500D01*
X40834980Y-65694501D01*
X40732203Y-65705000D01*
X40732200Y-65705001D01*
X40565668Y-65760185D01*
X40565663Y-65760187D01*
X40416342Y-65852289D01*
X40340451Y-65928181D01*
X40279128Y-65961666D01*
X40252770Y-65964500D01*
X39810630Y-65964500D01*
X39634106Y-65992458D01*
X39522517Y-66028715D01*
X39522518Y-66028716D01*
X39464114Y-66047692D01*
X39304867Y-66128833D01*
X39236673Y-66178380D01*
X39236672Y-66178379D01*
X39160278Y-66233884D01*
X39160269Y-66233891D01*
X37633890Y-67760270D01*
X37528833Y-67904867D01*
X37447243Y-68064997D01*
X37446184Y-68068754D01*
X37392458Y-68234105D01*
X37392458Y-68234106D01*
X37369380Y-68379812D01*
X37369381Y-68379813D01*
X37364500Y-68410633D01*
X37364500Y-70389367D01*
X37364499Y-70389369D01*
X37387608Y-70535271D01*
X37392459Y-70565897D01*
X37396224Y-70577483D01*
X37426288Y-70670010D01*
X37447689Y-70735878D01*
X37447691Y-70735881D01*
X37528833Y-70895132D01*
X37631053Y-71035824D01*
X37631051Y-71035825D01*
X37631064Y-71035839D01*
X37633890Y-71039730D01*
X39136479Y-72542319D01*
X39169964Y-72603642D01*
X39164980Y-72673334D01*
X39136479Y-72717681D01*
X37760272Y-74093889D01*
X37633891Y-74220269D01*
X37633890Y-74220270D01*
X37528833Y-74364867D01*
X37447691Y-74524118D01*
X37447689Y-74524121D01*
X37438632Y-74551999D01*
X37392459Y-74694101D01*
X37392457Y-74694110D01*
X37369785Y-74837265D01*
X37369785Y-74837266D01*
X37364500Y-74870634D01*
X37364500Y-85889370D01*
X37392457Y-86065887D01*
X37392462Y-86065909D01*
X37398827Y-86085494D01*
X37398827Y-86085499D01*
X37398829Y-86085499D01*
X37398829Y-86085500D01*
X37447691Y-86235881D01*
X37528833Y-86395132D01*
X37528837Y-86395137D01*
X37567019Y-86447691D01*
X37567020Y-86447691D01*
X37633889Y-86539728D01*
X39333889Y-88239728D01*
X39460272Y-88366111D01*
X39556669Y-88436148D01*
X39604869Y-88471168D01*
X39687708Y-88513375D01*
X39764119Y-88552309D01*
X39805802Y-88565851D01*
X39805804Y-88565853D01*
X39805805Y-88565853D01*
X39837880Y-88576275D01*
X39934103Y-88607541D01*
X40009759Y-88619523D01*
X40110630Y-88635500D01*
X40110634Y-88635500D01*
X70089370Y-88635500D01*
X70167824Y-88623073D01*
X70265897Y-88607541D01*
X70394193Y-88565853D01*
X70435881Y-88552309D01*
X70595132Y-88471167D01*
X70739728Y-88366111D01*
X70866111Y-88239728D01*
X72911111Y-86194728D01*
X72990469Y-86085501D01*
X72990470Y-86085501D01*
X73016164Y-86050136D01*
X73016163Y-86050136D01*
X73016167Y-86050132D01*
X73097309Y-85890881D01*
X73121603Y-85816111D01*
X73152541Y-85720897D01*
X73169316Y-85614978D01*
X73180500Y-85544370D01*
X73180500Y-79029986D01*
X73920001Y-79029986D01*
X73930494Y-79132697D01*
X73985641Y-79299119D01*
X73985643Y-79299124D01*
X74077684Y-79448345D01*
X74201654Y-79572315D01*
X74350875Y-79664356D01*
X74350880Y-79664358D01*
X74517302Y-79719505D01*
X74517309Y-79719506D01*
X74620019Y-79729999D01*
X74744999Y-79729999D01*
X75245000Y-79729999D01*
X75369972Y-79729999D01*
X75369986Y-79729998D01*
X75472697Y-79719505D01*
X75639119Y-79664358D01*
X75639124Y-79664356D01*
X75788345Y-79572315D01*
X75912315Y-79448345D01*
X76004356Y-79299124D01*
X76004358Y-79299119D01*
X76059505Y-79132697D01*
X76059506Y-79132690D01*
X76069999Y-79029986D01*
X76070000Y-79029973D01*
X76070000Y-78580000D01*
X75245000Y-78580000D01*
X75245000Y-79729999D01*
X74744999Y-79729999D01*
X74745000Y-79729998D01*
X74745000Y-78580000D01*
X73920001Y-78580000D01*
X73920001Y-79029986D01*
X73180500Y-79029986D01*
X73180500Y-78301700D01*
X73200185Y-78234661D01*
X73216814Y-78214023D01*
X73708322Y-77722516D01*
X73769642Y-77689033D01*
X73839333Y-77694017D01*
X73895267Y-77735888D01*
X73919684Y-77801353D01*
X73920000Y-77810199D01*
X73920000Y-78080000D01*
X76069999Y-78080000D01*
X76069999Y-77630028D01*
X76069998Y-77630013D01*
X76059505Y-77527302D01*
X76004358Y-77360880D01*
X76004356Y-77360875D01*
X75912315Y-77211654D01*
X75788345Y-77087684D01*
X75639124Y-76995643D01*
X75639119Y-76995641D01*
X75472697Y-76940494D01*
X75472690Y-76940493D01*
X75369986Y-76930000D01*
X75180881Y-76930000D01*
X75113842Y-76910315D01*
X75068087Y-76857511D01*
X75058143Y-76788353D01*
X75075342Y-76740904D01*
X75094810Y-76709340D01*
X75094814Y-76709334D01*
X75149999Y-76542797D01*
X75160500Y-76440009D01*
X75160500Y-76439986D01*
X75960001Y-76439986D01*
X75970494Y-76542697D01*
X76025641Y-76709119D01*
X76025643Y-76709124D01*
X76117684Y-76858345D01*
X76241654Y-76982315D01*
X76390875Y-77074356D01*
X76390880Y-77074358D01*
X76557302Y-77129505D01*
X76557309Y-77129506D01*
X76660019Y-77139999D01*
X76784999Y-77139999D01*
X77285000Y-77139999D01*
X77409972Y-77139999D01*
X77409986Y-77139998D01*
X77512697Y-77129505D01*
X77679119Y-77074358D01*
X77679124Y-77074356D01*
X77828345Y-76982315D01*
X77952315Y-76858345D01*
X78044356Y-76709124D01*
X78044358Y-76709119D01*
X78099505Y-76542697D01*
X78099506Y-76542690D01*
X78109999Y-76439986D01*
X78110000Y-76439973D01*
X78110000Y-75990000D01*
X77285000Y-75990000D01*
X77285000Y-77139999D01*
X76784999Y-77139999D01*
X76785000Y-77139998D01*
X76785000Y-75990000D01*
X75960001Y-75990000D01*
X75960001Y-76439986D01*
X75160500Y-76439986D01*
X75160499Y-76124145D01*
X75163882Y-76095381D01*
X75165033Y-76090550D01*
X75192541Y-76005897D01*
X75213639Y-75872685D01*
X75220500Y-75829370D01*
X75220500Y-75650627D01*
X75199776Y-75519782D01*
X75192541Y-75474103D01*
X75171301Y-75408735D01*
X75166568Y-75394167D01*
X75160499Y-75355849D01*
X75160499Y-75039998D01*
X75160498Y-75039981D01*
X75150244Y-74939601D01*
X75163014Y-74870909D01*
X75210895Y-74820024D01*
X75273602Y-74803000D01*
X75846901Y-74803000D01*
X75913940Y-74822685D01*
X75959695Y-74875489D01*
X75970259Y-74939603D01*
X75960000Y-75040013D01*
X75960000Y-75490000D01*
X78109999Y-75490000D01*
X78109999Y-75040028D01*
X78109998Y-75040011D01*
X78099741Y-74939601D01*
X78112511Y-74870909D01*
X78160392Y-74820024D01*
X78223099Y-74803000D01*
X78632403Y-74803000D01*
X78699442Y-74822685D01*
X78720084Y-74839319D01*
X79253181Y-75372416D01*
X79286666Y-75433739D01*
X79289500Y-75460097D01*
X79289500Y-79640430D01*
X79289499Y-79640448D01*
X79289499Y-79806154D01*
X79289498Y-79806154D01*
X79330423Y-79958885D01*
X79342902Y-79980499D01*
X79409477Y-80095812D01*
X79409481Y-80095817D01*
X79528349Y-80214685D01*
X79528355Y-80214690D01*
X82029039Y-82715374D01*
X82029049Y-82715385D01*
X82033379Y-82719715D01*
X82033380Y-82719716D01*
X82145184Y-82831520D01*
X82230021Y-82880500D01*
X82282115Y-82910577D01*
X82434843Y-82951501D01*
X82434846Y-82951501D01*
X82600553Y-82951501D01*
X82600569Y-82951500D01*
X87149431Y-82951500D01*
X87149447Y-82951501D01*
X87157043Y-82951501D01*
X87315154Y-82951501D01*
X87315157Y-82951501D01*
X87467885Y-82910577D01*
X87519979Y-82880500D01*
X87604816Y-82831520D01*
X87716620Y-82719716D01*
X87716620Y-82719714D01*
X87726824Y-82709511D01*
X87726827Y-82709506D01*
X90699520Y-79736816D01*
X90778577Y-79599884D01*
X90819501Y-79447157D01*
X90819501Y-79289042D01*
X90819501Y-79281447D01*
X90819500Y-79281429D01*
X90819500Y-77063999D01*
X90839185Y-76996960D01*
X90891989Y-76951205D01*
X90943500Y-76939999D01*
X91170000Y-76939999D01*
X91670000Y-76939999D01*
X92119972Y-76939999D01*
X92119986Y-76939998D01*
X92222697Y-76929505D01*
X92389119Y-76874358D01*
X92389124Y-76874356D01*
X92538345Y-76782315D01*
X92662315Y-76658345D01*
X92754356Y-76509124D01*
X92754358Y-76509119D01*
X92809505Y-76342697D01*
X92809506Y-76342690D01*
X92819999Y-76239986D01*
X92820000Y-76239973D01*
X92820000Y-76115000D01*
X91670000Y-76115000D01*
X91670000Y-76939999D01*
X91170000Y-76939999D01*
X91170000Y-75615000D01*
X91670000Y-75615000D01*
X92819999Y-75615000D01*
X92819999Y-75490028D01*
X92819998Y-75490013D01*
X92809505Y-75387302D01*
X92754358Y-75220880D01*
X92754356Y-75220875D01*
X92662315Y-75071654D01*
X92538345Y-74947684D01*
X92389124Y-74855643D01*
X92389119Y-74855641D01*
X92222697Y-74800494D01*
X92222690Y-74800493D01*
X92119986Y-74790000D01*
X91670000Y-74790000D01*
X91670000Y-75615000D01*
X91170000Y-75615000D01*
X91170000Y-74790000D01*
X90943500Y-74790000D01*
X90934814Y-74787449D01*
X90925853Y-74788738D01*
X90901812Y-74777759D01*
X90876461Y-74770315D01*
X90870533Y-74763474D01*
X90862297Y-74759713D01*
X90848007Y-74737478D01*
X90830706Y-74717511D01*
X90828418Y-74706996D01*
X90824523Y-74700935D01*
X90819500Y-74666000D01*
X90819500Y-74416096D01*
X90839185Y-74349057D01*
X90855815Y-74328419D01*
X91157416Y-74026817D01*
X91218739Y-73993333D01*
X91245097Y-73990499D01*
X92120002Y-73990499D01*
X92120008Y-73990499D01*
X92222797Y-73979999D01*
X92389334Y-73924814D01*
X92538656Y-73832712D01*
X92662712Y-73708656D01*
X92754814Y-73559334D01*
X92809999Y-73392797D01*
X92820500Y-73290009D01*
X92820499Y-72539992D01*
X92809999Y-72437203D01*
X92754814Y-72270666D01*
X92662712Y-72121344D01*
X92538656Y-71997288D01*
X92389334Y-71905186D01*
X92222797Y-71850001D01*
X92222794Y-71850000D01*
X92144397Y-71841991D01*
X92079705Y-71815594D01*
X92039554Y-71758413D01*
X92033000Y-71718633D01*
X92033000Y-71094499D01*
X92052685Y-71027460D01*
X92105489Y-70981705D01*
X92157000Y-70970499D01*
X92430371Y-70970499D01*
X92430372Y-70970499D01*
X92489983Y-70964091D01*
X92624831Y-70913796D01*
X92740046Y-70827546D01*
X92826296Y-70712331D01*
X92876591Y-70577483D01*
X92883000Y-70517873D01*
X92882999Y-69122128D01*
X92877053Y-69066813D01*
X92876591Y-69062516D01*
X92826297Y-68927671D01*
X92826293Y-68927664D01*
X92740047Y-68812455D01*
X92740044Y-68812452D01*
X92624835Y-68726206D01*
X92624828Y-68726202D01*
X92489982Y-68675908D01*
X92489983Y-68675908D01*
X92430383Y-68669501D01*
X92430381Y-68669500D01*
X92430373Y-68669500D01*
X92430364Y-68669500D01*
X90434629Y-68669500D01*
X90434623Y-68669501D01*
X90375016Y-68675908D01*
X90240171Y-68726202D01*
X90240164Y-68726206D01*
X90124955Y-68812452D01*
X90124952Y-68812455D01*
X90038706Y-68927664D01*
X90038702Y-68927671D01*
X89988408Y-69062517D01*
X89982001Y-69122116D01*
X89982001Y-69122123D01*
X89982000Y-69122135D01*
X89982000Y-70517870D01*
X89982001Y-70517876D01*
X89988408Y-70577483D01*
X90038702Y-70712328D01*
X90038706Y-70712335D01*
X90124952Y-70827544D01*
X90124955Y-70827547D01*
X90240164Y-70913793D01*
X90240171Y-70913797D01*
X90277544Y-70927736D01*
X90375017Y-70964091D01*
X90434627Y-70970500D01*
X90708001Y-70970499D01*
X90775039Y-70990183D01*
X90820794Y-71042987D01*
X90832000Y-71094499D01*
X90832000Y-71716080D01*
X90812315Y-71783119D01*
X90759511Y-71828874D01*
X90720602Y-71839438D01*
X90617202Y-71850001D01*
X90617200Y-71850001D01*
X90450668Y-71905185D01*
X90450663Y-71905187D01*
X90301342Y-71997289D01*
X90177289Y-72121342D01*
X90085187Y-72270663D01*
X90085185Y-72270668D01*
X90070422Y-72315220D01*
X90030001Y-72437203D01*
X90030001Y-72437204D01*
X90030000Y-72437204D01*
X90019500Y-72539983D01*
X90019500Y-73290001D01*
X90019501Y-73290019D01*
X90029849Y-73391310D01*
X90029491Y-73393233D01*
X90030175Y-73395066D01*
X90023131Y-73427441D01*
X90017079Y-73460002D01*
X90015607Y-73462031D01*
X90015323Y-73463339D01*
X89994171Y-73491593D01*
X89947679Y-73538084D01*
X89886356Y-73571568D01*
X89816664Y-73566583D01*
X89772318Y-73538083D01*
X89725828Y-73491593D01*
X89692343Y-73430270D01*
X89690151Y-73391309D01*
X89696283Y-73331284D01*
X89700500Y-73290009D01*
X89700499Y-72539992D01*
X89689999Y-72437203D01*
X89634814Y-72270666D01*
X89542712Y-72121344D01*
X89418656Y-71997288D01*
X89269334Y-71905186D01*
X89102797Y-71850001D01*
X89102795Y-71850000D01*
X89000016Y-71839500D01*
X89000009Y-71839500D01*
X88957000Y-71839500D01*
X88889961Y-71819815D01*
X88844206Y-71767011D01*
X88833000Y-71715500D01*
X88833000Y-71094499D01*
X88852685Y-71027460D01*
X88905489Y-70981705D01*
X88957000Y-70970499D01*
X89230371Y-70970499D01*
X89230372Y-70970499D01*
X89289983Y-70964091D01*
X89424831Y-70913796D01*
X89540046Y-70827546D01*
X89626296Y-70712331D01*
X89676591Y-70577483D01*
X89683000Y-70517873D01*
X89682999Y-69122128D01*
X89677053Y-69066813D01*
X89676591Y-69062516D01*
X89626297Y-68927671D01*
X89626293Y-68927664D01*
X89540047Y-68812455D01*
X89540044Y-68812452D01*
X89424835Y-68726206D01*
X89424828Y-68726202D01*
X89289982Y-68675908D01*
X89289983Y-68675908D01*
X89230383Y-68669501D01*
X89230381Y-68669500D01*
X89230373Y-68669500D01*
X89230364Y-68669500D01*
X87234629Y-68669500D01*
X87234623Y-68669501D01*
X87175016Y-68675908D01*
X87040171Y-68726202D01*
X87040164Y-68726206D01*
X86924955Y-68812452D01*
X86924952Y-68812455D01*
X86838706Y-68927664D01*
X86838702Y-68927671D01*
X86788408Y-69062517D01*
X86782001Y-69122116D01*
X86782001Y-69122123D01*
X86782000Y-69122135D01*
X86782000Y-70517870D01*
X86782001Y-70517876D01*
X86788408Y-70577483D01*
X86838702Y-70712328D01*
X86838706Y-70712335D01*
X86924952Y-70827544D01*
X86924955Y-70827547D01*
X87040164Y-70913793D01*
X87040171Y-70913797D01*
X87077544Y-70927736D01*
X87175017Y-70964091D01*
X87234627Y-70970500D01*
X87508001Y-70970499D01*
X87575039Y-70990183D01*
X87620794Y-71042987D01*
X87632000Y-71094499D01*
X87632000Y-71724252D01*
X87612315Y-71791291D01*
X87559511Y-71837046D01*
X87520605Y-71847610D01*
X87497201Y-71850001D01*
X87497200Y-71850001D01*
X87330668Y-71905185D01*
X87330663Y-71905187D01*
X87181342Y-71997289D01*
X87057289Y-72121342D01*
X86965187Y-72270663D01*
X86965185Y-72270668D01*
X86950422Y-72315220D01*
X86910001Y-72437203D01*
X86910001Y-72437204D01*
X86910000Y-72437204D01*
X86899500Y-72539983D01*
X86899500Y-73290001D01*
X86899501Y-73290019D01*
X86910000Y-73392796D01*
X86910001Y-73392799D01*
X86942739Y-73491593D01*
X86965186Y-73559334D01*
X87057288Y-73708656D01*
X87181344Y-73832712D01*
X87330666Y-73924814D01*
X87497203Y-73979999D01*
X87599991Y-73990500D01*
X88474902Y-73990499D01*
X88541941Y-74010183D01*
X88562583Y-74026818D01*
X89116371Y-74580606D01*
X89149856Y-74641929D01*
X89144872Y-74711621D01*
X89103000Y-74767554D01*
X89037536Y-74791971D01*
X89016091Y-74791645D01*
X88999996Y-74790001D01*
X88999974Y-74790000D01*
X88550000Y-74790000D01*
X88550000Y-76939999D01*
X88999972Y-76939999D01*
X88999986Y-76939998D01*
X89052898Y-76934593D01*
X89121591Y-76947363D01*
X89172475Y-76995243D01*
X89189500Y-77057951D01*
X89189500Y-78929903D01*
X89169815Y-78996942D01*
X89153181Y-79017584D01*
X86857584Y-81313181D01*
X86796261Y-81346666D01*
X86769903Y-81349500D01*
X82980097Y-81349500D01*
X82913058Y-81329815D01*
X82892416Y-81313181D01*
X81758766Y-80179531D01*
X81725281Y-80118208D01*
X81730265Y-80048516D01*
X81772137Y-79992583D01*
X81837601Y-79968166D01*
X81860471Y-79969769D01*
X81860569Y-79968818D01*
X81970019Y-79979999D01*
X82094999Y-79979999D01*
X82595000Y-79979999D01*
X82719972Y-79979999D01*
X82719986Y-79979998D01*
X82822697Y-79969505D01*
X82989119Y-79914358D01*
X82989124Y-79914356D01*
X83138345Y-79822315D01*
X83262315Y-79698345D01*
X83354356Y-79549124D01*
X83354358Y-79549119D01*
X83409505Y-79382697D01*
X83409506Y-79382690D01*
X83419999Y-79279986D01*
X83420000Y-79279973D01*
X83420000Y-78830000D01*
X82595000Y-78830000D01*
X82595000Y-79979999D01*
X82094999Y-79979999D01*
X82095000Y-79979998D01*
X82095000Y-78330000D01*
X82595000Y-78330000D01*
X83419999Y-78330000D01*
X83419999Y-77880028D01*
X83419998Y-77880013D01*
X83409505Y-77777302D01*
X83354358Y-77610880D01*
X83354356Y-77610875D01*
X83262315Y-77461654D01*
X83138345Y-77337684D01*
X82989124Y-77245643D01*
X82989119Y-77245641D01*
X82822697Y-77190494D01*
X82822690Y-77190493D01*
X82719986Y-77180000D01*
X82595000Y-77180000D01*
X82595000Y-78330000D01*
X82095000Y-78330000D01*
X82095000Y-77180000D01*
X81970027Y-77180000D01*
X81970012Y-77180001D01*
X81867302Y-77190494D01*
X81700880Y-77245641D01*
X81700875Y-77245643D01*
X81551654Y-77337684D01*
X81427684Y-77461654D01*
X81335643Y-77610875D01*
X81335641Y-77610880D01*
X81282206Y-77772138D01*
X81242433Y-77829583D01*
X81177917Y-77856406D01*
X81109142Y-77844091D01*
X81057942Y-77796548D01*
X81040500Y-77733134D01*
X81040500Y-74884500D01*
X81060185Y-74817461D01*
X81112989Y-74771706D01*
X81164500Y-74760500D01*
X82055501Y-74760500D01*
X82122540Y-74780185D01*
X82168295Y-74832989D01*
X82179501Y-74884500D01*
X82179501Y-76210018D01*
X82190000Y-76312796D01*
X82190001Y-76312799D01*
X82245185Y-76479331D01*
X82245187Y-76479336D01*
X82280069Y-76535888D01*
X82337288Y-76628656D01*
X82461344Y-76752712D01*
X82610666Y-76844814D01*
X82777203Y-76899999D01*
X82879991Y-76910500D01*
X84480008Y-76910499D01*
X84557899Y-76902542D01*
X84572971Y-76905343D01*
X84588147Y-76903162D01*
X84606621Y-76911598D01*
X84626591Y-76915311D01*
X84637757Y-76925818D01*
X84651703Y-76932187D01*
X84662683Y-76949273D01*
X84677475Y-76963192D01*
X84681751Y-76978943D01*
X84689477Y-76990965D01*
X84694500Y-77025900D01*
X84694500Y-77148942D01*
X84674815Y-77215981D01*
X84635598Y-77254479D01*
X84557266Y-77302795D01*
X84501342Y-77337289D01*
X84377289Y-77461342D01*
X84285187Y-77610663D01*
X84285185Y-77610668D01*
X84285115Y-77610880D01*
X84230001Y-77777203D01*
X84230001Y-77777204D01*
X84230000Y-77777204D01*
X84219500Y-77879983D01*
X84219500Y-79280001D01*
X84219501Y-79280018D01*
X84230000Y-79382796D01*
X84230001Y-79382799D01*
X84277122Y-79525000D01*
X84285186Y-79549334D01*
X84377288Y-79698656D01*
X84501344Y-79822712D01*
X84650666Y-79914814D01*
X84817203Y-79969999D01*
X84919991Y-79980500D01*
X85670008Y-79980499D01*
X85670016Y-79980498D01*
X85670019Y-79980498D01*
X85726302Y-79974748D01*
X85772797Y-79969999D01*
X85939334Y-79914814D01*
X86088656Y-79822712D01*
X86212712Y-79698656D01*
X86304814Y-79549334D01*
X86359999Y-79382797D01*
X86370500Y-79280009D01*
X86370499Y-77879992D01*
X86366143Y-77837354D01*
X86359999Y-77777203D01*
X86359998Y-77777200D01*
X86348569Y-77742710D01*
X86304814Y-77610666D01*
X86212712Y-77461344D01*
X86088656Y-77337288D01*
X85954402Y-77254480D01*
X85907679Y-77202533D01*
X85895500Y-77148942D01*
X85895500Y-76239986D01*
X86900001Y-76239986D01*
X86910494Y-76342697D01*
X86965641Y-76509119D01*
X86965643Y-76509124D01*
X87057684Y-76658345D01*
X87181654Y-76782315D01*
X87330875Y-76874356D01*
X87330880Y-76874358D01*
X87497302Y-76929505D01*
X87497309Y-76929506D01*
X87600019Y-76939999D01*
X88049999Y-76939999D01*
X88050000Y-76939998D01*
X88050000Y-76115000D01*
X86900001Y-76115000D01*
X86900001Y-76239986D01*
X85895500Y-76239986D01*
X85895500Y-75864059D01*
X85895501Y-75864046D01*
X85895501Y-75695945D01*
X85895501Y-75695943D01*
X85854577Y-75543215D01*
X85823861Y-75490013D01*
X86900000Y-75490013D01*
X86900000Y-75615000D01*
X88050000Y-75615000D01*
X88050000Y-74790000D01*
X87600028Y-74790000D01*
X87600012Y-74790001D01*
X87497302Y-74800494D01*
X87330880Y-74855641D01*
X87330875Y-74855643D01*
X87181654Y-74947684D01*
X87057684Y-75071654D01*
X86965643Y-75220875D01*
X86965641Y-75220880D01*
X86910494Y-75387302D01*
X86910493Y-75387309D01*
X86900000Y-75490013D01*
X85823861Y-75490013D01*
X85812980Y-75471167D01*
X85775520Y-75406284D01*
X85663716Y-75294480D01*
X85663715Y-75294479D01*
X85659385Y-75290149D01*
X85659374Y-75290139D01*
X85216818Y-74847583D01*
X85183333Y-74786260D01*
X85180499Y-74759902D01*
X85180499Y-72109998D01*
X85180498Y-72109981D01*
X85169999Y-72007203D01*
X85169998Y-72007200D01*
X85146470Y-71936198D01*
X85114814Y-71840666D01*
X85022712Y-71691344D01*
X84898656Y-71567288D01*
X84749334Y-71475186D01*
X84582797Y-71420001D01*
X84582795Y-71420000D01*
X84480010Y-71409500D01*
X82879998Y-71409500D01*
X82879981Y-71409501D01*
X82777203Y-71420000D01*
X82777200Y-71420001D01*
X82610668Y-71475185D01*
X82610663Y-71475187D01*
X82461342Y-71567289D01*
X82337289Y-71691342D01*
X82245187Y-71840663D01*
X82245185Y-71840668D01*
X82226586Y-71896797D01*
X82190001Y-72007203D01*
X82190001Y-72007204D01*
X82190000Y-72007204D01*
X82179500Y-72109983D01*
X82179500Y-73435500D01*
X82159815Y-73502539D01*
X82107011Y-73548294D01*
X82055500Y-73559500D01*
X81142597Y-73559500D01*
X81075558Y-73539815D01*
X81054916Y-73523181D01*
X80616915Y-73085180D01*
X80583430Y-73023857D01*
X80588414Y-72954165D01*
X80616911Y-72909823D01*
X84048713Y-69478021D01*
X84048716Y-69478020D01*
X84160520Y-69366216D01*
X84210639Y-69279404D01*
X84239577Y-69229285D01*
X84280500Y-69076558D01*
X84280500Y-68918443D01*
X84280500Y-68534499D01*
X84300185Y-68467460D01*
X84352989Y-68421705D01*
X84404500Y-68410499D01*
X84480002Y-68410499D01*
X84480008Y-68410499D01*
X84582797Y-68399999D01*
X84749334Y-68344814D01*
X84898656Y-68252712D01*
X85022712Y-68128656D01*
X85114814Y-67979334D01*
X85169999Y-67812797D01*
X85180500Y-67710009D01*
X85180499Y-65060095D01*
X85200184Y-64993057D01*
X85216813Y-64972420D01*
X85663713Y-64525521D01*
X85663716Y-64525520D01*
X85775520Y-64413716D01*
X85825639Y-64326904D01*
X85854577Y-64276785D01*
X85895501Y-64124057D01*
X85895501Y-63965943D01*
X85895501Y-63958348D01*
X85895500Y-63958330D01*
X85895500Y-63622135D01*
X86782000Y-63622135D01*
X86782000Y-65017870D01*
X86782001Y-65017876D01*
X86788408Y-65077483D01*
X86838702Y-65212328D01*
X86838706Y-65212335D01*
X86924952Y-65327544D01*
X86924955Y-65327547D01*
X87040164Y-65413793D01*
X87040171Y-65413797D01*
X87175017Y-65464091D01*
X87175016Y-65464091D01*
X87181944Y-65464835D01*
X87234627Y-65470500D01*
X89230372Y-65470499D01*
X89289983Y-65464091D01*
X89424831Y-65413796D01*
X89540046Y-65327546D01*
X89626296Y-65212331D01*
X89676591Y-65077483D01*
X89683000Y-65017873D01*
X89682999Y-63622135D01*
X89982000Y-63622135D01*
X89982000Y-65017870D01*
X89982001Y-65017876D01*
X89988408Y-65077483D01*
X90038702Y-65212328D01*
X90038706Y-65212335D01*
X90124952Y-65327544D01*
X90124955Y-65327547D01*
X90240164Y-65413793D01*
X90240171Y-65413797D01*
X90375017Y-65464091D01*
X90375016Y-65464091D01*
X90381944Y-65464835D01*
X90434627Y-65470500D01*
X92430372Y-65470499D01*
X92489983Y-65464091D01*
X92624831Y-65413796D01*
X92740046Y-65327546D01*
X92826296Y-65212331D01*
X92876591Y-65077483D01*
X92883000Y-65017873D01*
X92882999Y-63622128D01*
X92876591Y-63562517D01*
X92871997Y-63550201D01*
X92826297Y-63427671D01*
X92826293Y-63427664D01*
X92740047Y-63312455D01*
X92740044Y-63312452D01*
X92624835Y-63226206D01*
X92624828Y-63226202D01*
X92489982Y-63175908D01*
X92489983Y-63175908D01*
X92430383Y-63169501D01*
X92430381Y-63169500D01*
X92430373Y-63169500D01*
X92430364Y-63169500D01*
X90434629Y-63169500D01*
X90434623Y-63169501D01*
X90375016Y-63175908D01*
X90240171Y-63226202D01*
X90240164Y-63226206D01*
X90124955Y-63312452D01*
X90124952Y-63312455D01*
X90038706Y-63427664D01*
X90038702Y-63427671D01*
X89988408Y-63562517D01*
X89983204Y-63610929D01*
X89982001Y-63622123D01*
X89982000Y-63622135D01*
X89682999Y-63622135D01*
X89682999Y-63622128D01*
X89676591Y-63562517D01*
X89671997Y-63550201D01*
X89626297Y-63427671D01*
X89626293Y-63427664D01*
X89540047Y-63312455D01*
X89540044Y-63312452D01*
X89424835Y-63226206D01*
X89424828Y-63226202D01*
X89289982Y-63175908D01*
X89289983Y-63175908D01*
X89230383Y-63169501D01*
X89230381Y-63169500D01*
X89230373Y-63169500D01*
X89230364Y-63169500D01*
X87234629Y-63169500D01*
X87234623Y-63169501D01*
X87175016Y-63175908D01*
X87040171Y-63226202D01*
X87040164Y-63226206D01*
X86924955Y-63312452D01*
X86924952Y-63312455D01*
X86838706Y-63427664D01*
X86838702Y-63427671D01*
X86788408Y-63562517D01*
X86783204Y-63610929D01*
X86782001Y-63622123D01*
X86782000Y-63622135D01*
X85895500Y-63622135D01*
X85895500Y-62891057D01*
X85915185Y-62824018D01*
X85954401Y-62785520D01*
X86088656Y-62702712D01*
X86212712Y-62578656D01*
X86304814Y-62429334D01*
X86359999Y-62262797D01*
X86370500Y-62160009D01*
X86370499Y-60759992D01*
X86369607Y-60751264D01*
X86359999Y-60657203D01*
X86359998Y-60657200D01*
X86344192Y-60609500D01*
X86304814Y-60490666D01*
X86212712Y-60341344D01*
X86088656Y-60217288D01*
X85939334Y-60125186D01*
X85772797Y-60070001D01*
X85772795Y-60070000D01*
X85670010Y-60059500D01*
X84919998Y-60059500D01*
X84919980Y-60059501D01*
X84817203Y-60070000D01*
X84817200Y-60070001D01*
X84650668Y-60125185D01*
X84650663Y-60125187D01*
X84501342Y-60217289D01*
X84377289Y-60341342D01*
X84285187Y-60490663D01*
X84285185Y-60490668D01*
X84268938Y-60539698D01*
X84230001Y-60657203D01*
X84230001Y-60657204D01*
X84230000Y-60657204D01*
X84219500Y-60759983D01*
X84219500Y-62160001D01*
X84219501Y-62160018D01*
X84230000Y-62262796D01*
X84230001Y-62262799D01*
X84271842Y-62389066D01*
X84285186Y-62429334D01*
X84377096Y-62578345D01*
X84377289Y-62578657D01*
X84496451Y-62697819D01*
X84529936Y-62759142D01*
X84524952Y-62828834D01*
X84483080Y-62884767D01*
X84417616Y-62909184D01*
X84408770Y-62909500D01*
X83230522Y-62909500D01*
X83163483Y-62889815D01*
X83117728Y-62837011D01*
X83107784Y-62767853D01*
X83136809Y-62704297D01*
X83142841Y-62697818D01*
X83262317Y-62578342D01*
X83354356Y-62429124D01*
X83354358Y-62429119D01*
X83409505Y-62262697D01*
X83409506Y-62262690D01*
X83419999Y-62159986D01*
X83420000Y-62159973D01*
X83420000Y-61710000D01*
X82595000Y-61710000D01*
X82595000Y-62911361D01*
X82593117Y-62911361D01*
X82589829Y-62957342D01*
X82547957Y-63013275D01*
X82538745Y-63019546D01*
X82461344Y-63067287D01*
X82337289Y-63191342D01*
X82245187Y-63340663D01*
X82245185Y-63340668D01*
X82237725Y-63363181D01*
X82190001Y-63507203D01*
X82190001Y-63507204D01*
X82190000Y-63507204D01*
X82179500Y-63609983D01*
X82179500Y-67710001D01*
X82179501Y-67710018D01*
X82190000Y-67812796D01*
X82190001Y-67812799D01*
X82220510Y-67904867D01*
X82245186Y-67979334D01*
X82337288Y-68128656D01*
X82461344Y-68252712D01*
X82610666Y-68344814D01*
X82777203Y-68399999D01*
X82879991Y-68410500D01*
X82955500Y-68410499D01*
X82964184Y-68413049D01*
X82973147Y-68411761D01*
X82997186Y-68422739D01*
X83022538Y-68430183D01*
X83028466Y-68437024D01*
X83036703Y-68440786D01*
X83050989Y-68463016D01*
X83068294Y-68482986D01*
X83070581Y-68493502D01*
X83074477Y-68499564D01*
X83079500Y-68534499D01*
X83079500Y-68697403D01*
X83059815Y-68764442D01*
X83043181Y-68785084D01*
X79762584Y-72065681D01*
X79701261Y-72099166D01*
X79674903Y-72102000D01*
X77679856Y-72102000D01*
X77612817Y-72082315D01*
X77567062Y-72029511D01*
X77557118Y-71960353D01*
X77586143Y-71896797D01*
X77640852Y-71860294D01*
X77719119Y-71834358D01*
X77719124Y-71834356D01*
X77868345Y-71742315D01*
X77992315Y-71618345D01*
X78084356Y-71469124D01*
X78084358Y-71469119D01*
X78139505Y-71302697D01*
X78139506Y-71302690D01*
X78149999Y-71199986D01*
X78150000Y-71199973D01*
X78150000Y-70750000D01*
X76000001Y-70750000D01*
X76000001Y-71199986D01*
X76010494Y-71302697D01*
X76065641Y-71469119D01*
X76065643Y-71469124D01*
X76157684Y-71618345D01*
X76281654Y-71742315D01*
X76430875Y-71834356D01*
X76430880Y-71834358D01*
X76509149Y-71860294D01*
X76566594Y-71900067D01*
X76593417Y-71964582D01*
X76581102Y-72033358D01*
X76533559Y-72084558D01*
X76470145Y-72102000D01*
X74731444Y-72102000D01*
X74664405Y-72082315D01*
X74618650Y-72029511D01*
X74608706Y-71960353D01*
X74637731Y-71896797D01*
X74692439Y-71860294D01*
X74769334Y-71834814D01*
X74918656Y-71742712D01*
X75042712Y-71618656D01*
X75134814Y-71469334D01*
X75189999Y-71302797D01*
X75200500Y-71200009D01*
X75200499Y-71081699D01*
X75220183Y-71014661D01*
X75236813Y-70994024D01*
X75944520Y-70286317D01*
X76005842Y-70252834D01*
X76032200Y-70250000D01*
X76825000Y-70250000D01*
X77325000Y-70250000D01*
X78149999Y-70250000D01*
X78149999Y-69800028D01*
X78149998Y-69800013D01*
X78139505Y-69697302D01*
X78084358Y-69530880D01*
X78084356Y-69530875D01*
X77992315Y-69381654D01*
X77868345Y-69257684D01*
X77719124Y-69165643D01*
X77719119Y-69165641D01*
X77552697Y-69110494D01*
X77552690Y-69110493D01*
X77449986Y-69100000D01*
X77325000Y-69100000D01*
X77325000Y-70250000D01*
X76825000Y-70250000D01*
X76825000Y-69100000D01*
X76700027Y-69100000D01*
X76700012Y-69100001D01*
X76597302Y-69110494D01*
X76498504Y-69143233D01*
X76428676Y-69145635D01*
X76368634Y-69109903D01*
X76337441Y-69047383D01*
X76335500Y-69025527D01*
X76335500Y-67210633D01*
X76333816Y-67199999D01*
X76333816Y-67199998D01*
X76307541Y-67034106D01*
X76307541Y-67034103D01*
X76253815Y-66868754D01*
X76252754Y-66864993D01*
X76252309Y-66864119D01*
X76171167Y-66704868D01*
X76138754Y-66660256D01*
X76109696Y-66620262D01*
X76066114Y-66560274D01*
X76066112Y-66560272D01*
X75489730Y-65983891D01*
X75489728Y-65983889D01*
X75345131Y-65878833D01*
X75345130Y-65878832D01*
X75345128Y-65878831D01*
X75268829Y-65839954D01*
X75218034Y-65791980D01*
X75201239Y-65724158D01*
X75223777Y-65658024D01*
X75237438Y-65641795D01*
X78719248Y-62159986D01*
X81270001Y-62159986D01*
X81280494Y-62262697D01*
X81335641Y-62429119D01*
X81335643Y-62429124D01*
X81427684Y-62578345D01*
X81551654Y-62702315D01*
X81700875Y-62794356D01*
X81700880Y-62794358D01*
X81867302Y-62849505D01*
X81867309Y-62849506D01*
X81970019Y-62859999D01*
X82094999Y-62859999D01*
X82095000Y-62859998D01*
X82095000Y-61710000D01*
X81270001Y-61710000D01*
X81270001Y-62159986D01*
X78719248Y-62159986D01*
X80119221Y-60760013D01*
X81270000Y-60760013D01*
X81270000Y-61210000D01*
X82095000Y-61210000D01*
X82595000Y-61210000D01*
X83419999Y-61210000D01*
X83419999Y-60760028D01*
X83419998Y-60760013D01*
X83409505Y-60657302D01*
X83354358Y-60490880D01*
X83354356Y-60490875D01*
X83262315Y-60341654D01*
X83138345Y-60217684D01*
X82989124Y-60125643D01*
X82989119Y-60125641D01*
X82822697Y-60070494D01*
X82822690Y-60070493D01*
X82719986Y-60060000D01*
X82595000Y-60060000D01*
X82595000Y-61210000D01*
X82095000Y-61210000D01*
X82095000Y-60060000D01*
X81970027Y-60060000D01*
X81970012Y-60060001D01*
X81867302Y-60070494D01*
X81700880Y-60125641D01*
X81700875Y-60125643D01*
X81551654Y-60217684D01*
X81427684Y-60341654D01*
X81335643Y-60490875D01*
X81335641Y-60490880D01*
X81280494Y-60657302D01*
X81280493Y-60657309D01*
X81270000Y-60760013D01*
X80119221Y-60760013D01*
X88880520Y-51998716D01*
X88959577Y-51861784D01*
X89000501Y-51709057D01*
X89000501Y-51550942D01*
X89000501Y-51543347D01*
X89000500Y-51543329D01*
X89000500Y-45800097D01*
X89020185Y-45733058D01*
X89036819Y-45712416D01*
X89509262Y-45239973D01*
X90110520Y-44638716D01*
X90189577Y-44501784D01*
X90230501Y-44349057D01*
X90230501Y-44190942D01*
X90230501Y-44183347D01*
X90230500Y-44183329D01*
X90230500Y-44005718D01*
X90250185Y-43938679D01*
X90298207Y-43895233D01*
X90337815Y-43875052D01*
X90337815Y-43875051D01*
X90337816Y-43875051D01*
X90472412Y-43777262D01*
X90509786Y-43750109D01*
X90509788Y-43750106D01*
X90509792Y-43750104D01*
X90660104Y-43599792D01*
X90660106Y-43599788D01*
X90660109Y-43599786D01*
X90785048Y-43427820D01*
X90785047Y-43427820D01*
X90785051Y-43427816D01*
X90881557Y-43238412D01*
X90947246Y-43036243D01*
X90980500Y-42826287D01*
X90980500Y-42613713D01*
X90947246Y-42403757D01*
X90881557Y-42201588D01*
X90785051Y-42012184D01*
X90785049Y-42012181D01*
X90785048Y-42012179D01*
X90660109Y-41840213D01*
X90509786Y-41689890D01*
X90337820Y-41564951D01*
X90148414Y-41468444D01*
X90148413Y-41468443D01*
X90148412Y-41468443D01*
X89946243Y-41402754D01*
X89946241Y-41402753D01*
X89946240Y-41402753D01*
X89784957Y-41377208D01*
X89736287Y-41369500D01*
X89523713Y-41369500D01*
X89475042Y-41377208D01*
X89313760Y-41402753D01*
X89111585Y-41468444D01*
X88922179Y-41564951D01*
X88750213Y-41689890D01*
X88599890Y-41840213D01*
X88474949Y-42012182D01*
X88470484Y-42020946D01*
X88422509Y-42071742D01*
X88354688Y-42088536D01*
X88288553Y-42065998D01*
X88249516Y-42020946D01*
X88245050Y-42012182D01*
X88120109Y-41840213D01*
X87969786Y-41689890D01*
X87797820Y-41564951D01*
X87608414Y-41468444D01*
X87608413Y-41468443D01*
X87608412Y-41468443D01*
X87406243Y-41402754D01*
X87406241Y-41402753D01*
X87406240Y-41402753D01*
X87244957Y-41377208D01*
X87196287Y-41369500D01*
X86983713Y-41369500D01*
X86935042Y-41377208D01*
X86773760Y-41402753D01*
X86571585Y-41468444D01*
X86382179Y-41564951D01*
X86210213Y-41689890D01*
X86059890Y-41840213D01*
X85934949Y-42012182D01*
X85930202Y-42021499D01*
X85882227Y-42072293D01*
X85814405Y-42089087D01*
X85748271Y-42066548D01*
X85709234Y-42021495D01*
X85704626Y-42012452D01*
X85665270Y-41958282D01*
X85665269Y-41958282D01*
X85032962Y-42590590D01*
X85015925Y-42527007D01*
X84950099Y-42412993D01*
X84857007Y-42319901D01*
X84742993Y-42254075D01*
X84679409Y-42237037D01*
X85311716Y-41604728D01*
X85257550Y-41565375D01*
X85068217Y-41468904D01*
X84866129Y-41403242D01*
X84656246Y-41370000D01*
X84443754Y-41370000D01*
X84233872Y-41403242D01*
X84233869Y-41403242D01*
X84031782Y-41468904D01*
X83842439Y-41565380D01*
X83788282Y-41604727D01*
X83788282Y-41604728D01*
X84420591Y-42237037D01*
X84357007Y-42254075D01*
X84242993Y-42319901D01*
X84149901Y-42412993D01*
X84084075Y-42527007D01*
X84067037Y-42590591D01*
X83434728Y-41958282D01*
X83434727Y-41958282D01*
X83395380Y-42012439D01*
X83298904Y-42201782D01*
X83233242Y-42403869D01*
X83233242Y-42403872D01*
X83200000Y-42613753D01*
X83200000Y-42826246D01*
X83233242Y-43036127D01*
X83233242Y-43036130D01*
X83298904Y-43238217D01*
X83395375Y-43427550D01*
X83434728Y-43481716D01*
X84067037Y-42849408D01*
X84084075Y-42912993D01*
X84149901Y-43027007D01*
X84242993Y-43120099D01*
X84357007Y-43185925D01*
X84420590Y-43202962D01*
X83788282Y-43835269D01*
X83788282Y-43835270D01*
X83842449Y-43874624D01*
X84031782Y-43971095D01*
X84233870Y-44036757D01*
X84443754Y-44070000D01*
X84656246Y-44070000D01*
X84866127Y-44036757D01*
X84866130Y-44036757D01*
X85068217Y-43971095D01*
X85257554Y-43874622D01*
X85311716Y-43835270D01*
X85311717Y-43835270D01*
X84679408Y-43202962D01*
X84742993Y-43185925D01*
X84857007Y-43120099D01*
X84950099Y-43027007D01*
X85015925Y-42912993D01*
X85032962Y-42849408D01*
X85665270Y-43481717D01*
X85665270Y-43481716D01*
X85704622Y-43427555D01*
X85709232Y-43418507D01*
X85716801Y-43410491D01*
X85720687Y-43400175D01*
X85740365Y-43385540D01*
X85757205Y-43367709D01*
X85767906Y-43365058D01*
X85776752Y-43358480D01*
X85801219Y-43356807D01*
X85825025Y-43350912D01*
X85835460Y-43354467D01*
X85846460Y-43353716D01*
X85867948Y-43365537D01*
X85891161Y-43373447D01*
X85899619Y-43382961D01*
X85907677Y-43387394D01*
X85925753Y-43412358D01*
X85928738Y-43415715D01*
X85929494Y-43417110D01*
X85934949Y-43427816D01*
X85936315Y-43429696D01*
X85939519Y-43435608D01*
X85944840Y-43460444D01*
X85954500Y-43494691D01*
X85954500Y-50288298D01*
X85934815Y-50355337D01*
X85918181Y-50375979D01*
X73665980Y-62628181D01*
X73604657Y-62661666D01*
X73578299Y-62664500D01*
X72534500Y-62664500D01*
X72467461Y-62644815D01*
X72421706Y-62592011D01*
X72410500Y-62540500D01*
X72410500Y-61660634D01*
X72382540Y-61484102D01*
X72356568Y-61404170D01*
X72350499Y-61365851D01*
X72350499Y-61049998D01*
X72350498Y-61049981D01*
X72339999Y-60947203D01*
X72339998Y-60947200D01*
X72331296Y-60920939D01*
X72284814Y-60780666D01*
X72192712Y-60631344D01*
X72068656Y-60507288D01*
X72065318Y-60505229D01*
X72063511Y-60503219D01*
X72062989Y-60502807D01*
X72063059Y-60502717D01*
X72018595Y-60453285D01*
X72007371Y-60384323D01*
X72034314Y-60321330D01*
X72035399Y-60320000D01*
X72089698Y-60253407D01*
X72183909Y-60073049D01*
X72239886Y-59877418D01*
X72250500Y-59758037D01*
X72250499Y-58641964D01*
X72239886Y-58522582D01*
X72183909Y-58326951D01*
X72089698Y-58146593D01*
X71964225Y-57992712D01*
X71961109Y-57988890D01*
X71845933Y-57894977D01*
X71803407Y-57860302D01*
X71623049Y-57766091D01*
X71623048Y-57766090D01*
X71623045Y-57766089D01*
X71505829Y-57732550D01*
X71427418Y-57710114D01*
X71427415Y-57710113D01*
X71427413Y-57710113D01*
X71354631Y-57703642D01*
X71308037Y-57699500D01*
X71308033Y-57699500D01*
X71109500Y-57699500D01*
X71042461Y-57679815D01*
X70996706Y-57627011D01*
X70985500Y-57575500D01*
X70985500Y-54271789D01*
X71005185Y-54204750D01*
X71057989Y-54158995D01*
X71127147Y-54149051D01*
X71187187Y-54175142D01*
X71300975Y-54266607D01*
X71300977Y-54266609D01*
X71471476Y-54351168D01*
X71656175Y-54397102D01*
X71698903Y-54400000D01*
X71900000Y-54400000D01*
X72400000Y-54400000D01*
X72601097Y-54400000D01*
X72643824Y-54397102D01*
X72828523Y-54351168D01*
X72999022Y-54266609D01*
X72999025Y-54266607D01*
X73147366Y-54147367D01*
X73147367Y-54147366D01*
X73266607Y-53999025D01*
X73266609Y-53999022D01*
X73351168Y-53828523D01*
X73397102Y-53643824D01*
X73400000Y-53601096D01*
X73400000Y-53150000D01*
X72400000Y-53150000D01*
X72400000Y-54400000D01*
X71900000Y-54400000D01*
X71900000Y-52650000D01*
X72400000Y-52650000D01*
X73400000Y-52650000D01*
X73400000Y-52198903D01*
X73397102Y-52156175D01*
X73351168Y-51971476D01*
X73266609Y-51800977D01*
X73266607Y-51800974D01*
X73147367Y-51652633D01*
X73147366Y-51652632D01*
X72999025Y-51533392D01*
X72999022Y-51533390D01*
X72828523Y-51448831D01*
X72643824Y-51402897D01*
X72601097Y-51400000D01*
X72400000Y-51400000D01*
X72400000Y-52650000D01*
X71900000Y-52650000D01*
X71900000Y-51400000D01*
X71698903Y-51400000D01*
X71656175Y-51402897D01*
X71471476Y-51448831D01*
X71300977Y-51533390D01*
X71300974Y-51533392D01*
X71187187Y-51624857D01*
X71122603Y-51651516D01*
X71053859Y-51639025D01*
X71002780Y-51591352D01*
X70985500Y-51528210D01*
X70985500Y-50373426D01*
X70969219Y-50270634D01*
X70957540Y-50196895D01*
X70957539Y-50196891D01*
X70957539Y-50196890D01*
X70902310Y-50026913D01*
X70902308Y-50026910D01*
X70840365Y-49905338D01*
X70821167Y-49867660D01*
X70734004Y-49747691D01*
X70716111Y-49723063D01*
X70000228Y-49007180D01*
X69966743Y-48945857D01*
X69971727Y-48876165D01*
X70013599Y-48820232D01*
X70079063Y-48795815D01*
X70087909Y-48795499D01*
X71542871Y-48795499D01*
X71542872Y-48795499D01*
X71602483Y-48789091D01*
X71737331Y-48738796D01*
X71852546Y-48652546D01*
X71938796Y-48537331D01*
X71945455Y-48519478D01*
X71958812Y-48483667D01*
X72000683Y-48427733D01*
X72066148Y-48403316D01*
X72074994Y-48403000D01*
X72841652Y-48403000D01*
X72908691Y-48422685D01*
X72947189Y-48461901D01*
X73022288Y-48583656D01*
X73146344Y-48707712D01*
X73295666Y-48799814D01*
X73462203Y-48854999D01*
X73564991Y-48865500D01*
X74915008Y-48865499D01*
X75017797Y-48854999D01*
X75184334Y-48799814D01*
X75333656Y-48707712D01*
X75457712Y-48583656D01*
X75549814Y-48434334D01*
X75604999Y-48267797D01*
X75615500Y-48165009D01*
X75615499Y-47439992D01*
X75604999Y-47337203D01*
X75549814Y-47170666D01*
X75457712Y-47021344D01*
X75333656Y-46897288D01*
X75184334Y-46805186D01*
X75017797Y-46750001D01*
X75017795Y-46750000D01*
X74915010Y-46739500D01*
X73564998Y-46739500D01*
X73564981Y-46739501D01*
X73462203Y-46750000D01*
X73462200Y-46750001D01*
X73295668Y-46805185D01*
X73295663Y-46805187D01*
X73146342Y-46897289D01*
X73022289Y-47021342D01*
X73008312Y-47044003D01*
X72955571Y-47129511D01*
X72947191Y-47143097D01*
X72895243Y-47189821D01*
X72841652Y-47202000D01*
X72119499Y-47202000D01*
X72052460Y-47182315D01*
X72006705Y-47129511D01*
X71995499Y-47078000D01*
X71995499Y-46447129D01*
X71995498Y-46447123D01*
X71989091Y-46387516D01*
X71938797Y-46252671D01*
X71938793Y-46252664D01*
X71852547Y-46137455D01*
X71852544Y-46137452D01*
X71737335Y-46051206D01*
X71737328Y-46051202D01*
X71602482Y-46000908D01*
X71602483Y-46000908D01*
X71542883Y-45994501D01*
X71542881Y-45994500D01*
X71542873Y-45994500D01*
X71542864Y-45994500D01*
X69647129Y-45994500D01*
X69647123Y-45994501D01*
X69587516Y-46000908D01*
X69452671Y-46051202D01*
X69452664Y-46051206D01*
X69337455Y-46137452D01*
X69337452Y-46137455D01*
X69251206Y-46252664D01*
X69251203Y-46252669D01*
X69221398Y-46332581D01*
X69179526Y-46388514D01*
X69114062Y-46412931D01*
X69045789Y-46398079D01*
X69017535Y-46376928D01*
X68967363Y-46326756D01*
X68967358Y-46326752D01*
X68789025Y-46197187D01*
X68789024Y-46197186D01*
X68789022Y-46197185D01*
X68709068Y-46156446D01*
X68592606Y-46097104D01*
X68592603Y-46097103D01*
X68382952Y-46028985D01*
X68274086Y-46011742D01*
X68165222Y-45994500D01*
X67944778Y-45994500D01*
X67899174Y-46001723D01*
X67727047Y-46028985D01*
X67517396Y-46097103D01*
X67517393Y-46097104D01*
X67320974Y-46197187D01*
X67142641Y-46326752D01*
X67142636Y-46326756D01*
X66986756Y-46482636D01*
X66986752Y-46482641D01*
X66857187Y-46660974D01*
X66757104Y-46857393D01*
X66757103Y-46857396D01*
X66688985Y-47067047D01*
X66654500Y-47284778D01*
X66654500Y-47505221D01*
X66688985Y-47722952D01*
X66757103Y-47932603D01*
X66757104Y-47932606D01*
X66776855Y-47971368D01*
X66857185Y-48129022D01*
X66883336Y-48165016D01*
X66895818Y-48182195D01*
X66919298Y-48248001D01*
X66919500Y-48255081D01*
X66919500Y-48757162D01*
X66947458Y-48933686D01*
X66972439Y-49010568D01*
X67002692Y-49103677D01*
X67083833Y-49262924D01*
X67150914Y-49355252D01*
X67188886Y-49407516D01*
X67188891Y-49407522D01*
X68678181Y-50896812D01*
X68711666Y-50958135D01*
X68714500Y-50984493D01*
X68714500Y-51527570D01*
X68694815Y-51594609D01*
X68642011Y-51640364D01*
X68572853Y-51650308D01*
X68512813Y-51624217D01*
X68399295Y-51532969D01*
X68399292Y-51532967D01*
X68228697Y-51448360D01*
X68043892Y-51402400D01*
X68022506Y-51400950D01*
X68001123Y-51399500D01*
X68001120Y-51399500D01*
X67098877Y-51399500D01*
X67098874Y-51399501D01*
X67056113Y-51402399D01*
X67056112Y-51402399D01*
X66871303Y-51448360D01*
X66700707Y-51532967D01*
X66700704Y-51532969D01*
X66552278Y-51652277D01*
X66552277Y-51652278D01*
X66432969Y-51800704D01*
X66432967Y-51800707D01*
X66348360Y-51971302D01*
X66302400Y-52156107D01*
X66299500Y-52198879D01*
X66299500Y-53601122D01*
X66299501Y-53601125D01*
X66302399Y-53643886D01*
X66302399Y-53643887D01*
X66348359Y-53828694D01*
X66401588Y-53936019D01*
X66404496Y-53948428D01*
X66409477Y-53956179D01*
X66414500Y-53991114D01*
X66414500Y-54028299D01*
X66394815Y-54095338D01*
X66378181Y-54115980D01*
X65665980Y-54828181D01*
X65604657Y-54861666D01*
X65578299Y-54864500D01*
X63584500Y-54864500D01*
X63517461Y-54844815D01*
X63471706Y-54792011D01*
X63460500Y-54740500D01*
X63460500Y-54264289D01*
X63480185Y-54197250D01*
X63532989Y-54151495D01*
X63602147Y-54141551D01*
X63662187Y-54167642D01*
X63775975Y-54259107D01*
X63775977Y-54259109D01*
X63946476Y-54343668D01*
X64131175Y-54389602D01*
X64173903Y-54392500D01*
X64375000Y-54392500D01*
X64875000Y-54392500D01*
X65076097Y-54392500D01*
X65118824Y-54389602D01*
X65303523Y-54343668D01*
X65474022Y-54259109D01*
X65474025Y-54259107D01*
X65622366Y-54139867D01*
X65622367Y-54139866D01*
X65741607Y-53991525D01*
X65741609Y-53991522D01*
X65826168Y-53821023D01*
X65872102Y-53636324D01*
X65875000Y-53593596D01*
X65875000Y-53142500D01*
X64875000Y-53142500D01*
X64875000Y-54392500D01*
X64375000Y-54392500D01*
X64375000Y-52642500D01*
X64875000Y-52642500D01*
X65875000Y-52642500D01*
X65875000Y-52191403D01*
X65872102Y-52148675D01*
X65826168Y-51963976D01*
X65741609Y-51793477D01*
X65741607Y-51793474D01*
X65622367Y-51645133D01*
X65622366Y-51645132D01*
X65474025Y-51525892D01*
X65474022Y-51525890D01*
X65303523Y-51441331D01*
X65118824Y-51395397D01*
X65076097Y-51392500D01*
X64875000Y-51392500D01*
X64875000Y-52642500D01*
X64375000Y-52642500D01*
X64375000Y-51392500D01*
X64173903Y-51392500D01*
X64131175Y-51395397D01*
X63946476Y-51441331D01*
X63775977Y-51525890D01*
X63775974Y-51525892D01*
X63627635Y-51645131D01*
X63571967Y-51714385D01*
X63514624Y-51754303D01*
X63444801Y-51756883D01*
X63384669Y-51721304D01*
X63378673Y-51714384D01*
X63322722Y-51644778D01*
X63322721Y-51644777D01*
X63174295Y-51525469D01*
X63174292Y-51525467D01*
X63003697Y-51440860D01*
X62818892Y-51394900D01*
X62797506Y-51393450D01*
X62776123Y-51392000D01*
X62776120Y-51392000D01*
X61873877Y-51392000D01*
X61873874Y-51392001D01*
X61831113Y-51394899D01*
X61831112Y-51394899D01*
X61646303Y-51440860D01*
X61475707Y-51525467D01*
X61475704Y-51525469D01*
X61327278Y-51644777D01*
X61327277Y-51644778D01*
X61271647Y-51713986D01*
X61214304Y-51753905D01*
X61144482Y-51756485D01*
X61084349Y-51720906D01*
X61078353Y-51713986D01*
X61022722Y-51644778D01*
X61022721Y-51644777D01*
X60874295Y-51525469D01*
X60874292Y-51525467D01*
X60703697Y-51440860D01*
X60518892Y-51394900D01*
X60497506Y-51393450D01*
X60476123Y-51392000D01*
X60476120Y-51392000D01*
X59573877Y-51392000D01*
X59573874Y-51392001D01*
X59531113Y-51394899D01*
X59531112Y-51394899D01*
X59346303Y-51440860D01*
X59175707Y-51525467D01*
X59175704Y-51525469D01*
X59027278Y-51644777D01*
X59027277Y-51644778D01*
X58974299Y-51710687D01*
X58916956Y-51750606D01*
X58877652Y-51757000D01*
X57118130Y-51757000D01*
X56941605Y-51784958D01*
X56813305Y-51826646D01*
X56813304Y-51826645D01*
X56771618Y-51840190D01*
X56612367Y-51921333D01*
X56467766Y-52026393D01*
X56430977Y-52063182D01*
X56369654Y-52096667D01*
X56343297Y-52099500D01*
X55549998Y-52099500D01*
X55549980Y-52099501D01*
X55447203Y-52110000D01*
X55447200Y-52110001D01*
X55280668Y-52165185D01*
X55280663Y-52165187D01*
X55131342Y-52257289D01*
X55007289Y-52381342D01*
X54915187Y-52530663D01*
X54915186Y-52530666D01*
X54860001Y-52697203D01*
X54860001Y-52697204D01*
X54860000Y-52697204D01*
X54849500Y-52799983D01*
X54849500Y-54200001D01*
X54849501Y-54200018D01*
X54860000Y-54302796D01*
X54860001Y-54302799D01*
X54892211Y-54400000D01*
X54915186Y-54469334D01*
X55007288Y-54618656D01*
X55131344Y-54742712D01*
X55280666Y-54834814D01*
X55379506Y-54867566D01*
X55436949Y-54907337D01*
X55463772Y-54971853D01*
X55464500Y-54985271D01*
X55464500Y-55668121D01*
X55444815Y-55735160D01*
X55392011Y-55780915D01*
X55322853Y-55790859D01*
X55259297Y-55761834D01*
X55234962Y-55733218D01*
X55172319Y-55631659D01*
X55172316Y-55631655D01*
X55048345Y-55507684D01*
X54899124Y-55415643D01*
X54899119Y-55415641D01*
X54732697Y-55360494D01*
X54732690Y-55360493D01*
X54629986Y-55350000D01*
X54505000Y-55350000D01*
X54505000Y-56500000D01*
X55329998Y-56500000D01*
X55331385Y-56498613D01*
X55392707Y-56465127D01*
X55462399Y-56470111D01*
X55518333Y-56511981D01*
X55536998Y-56547973D01*
X55547691Y-56580881D01*
X55628833Y-56740132D01*
X55720363Y-56866111D01*
X55720362Y-56866111D01*
X55720365Y-56866114D01*
X55733883Y-56884721D01*
X55733887Y-56884726D01*
X56093181Y-57244021D01*
X56126666Y-57305344D01*
X56129500Y-57331701D01*
X56129500Y-57450000D01*
X56129501Y-57450019D01*
X56140000Y-57552796D01*
X56140001Y-57552799D01*
X56195185Y-57719331D01*
X56195187Y-57719336D01*
X56219400Y-57758591D01*
X56287096Y-57868345D01*
X56287289Y-57868657D01*
X56380951Y-57962319D01*
X56414436Y-58023642D01*
X56409452Y-58093334D01*
X56380951Y-58137681D01*
X56287289Y-58231342D01*
X56195187Y-58380663D01*
X56195185Y-58380668D01*
X56181767Y-58421161D01*
X56140001Y-58547203D01*
X56140001Y-58547204D01*
X56140000Y-58547204D01*
X56129500Y-58649983D01*
X56129500Y-58965853D01*
X56123431Y-59004171D01*
X56097460Y-59084101D01*
X56069500Y-59260634D01*
X56069500Y-61830501D01*
X56049815Y-61897540D01*
X55997011Y-61943295D01*
X55984505Y-61948207D01*
X55933266Y-61965186D01*
X55783942Y-62057289D01*
X55659889Y-62181342D01*
X55567786Y-62330666D01*
X55548434Y-62389066D01*
X55518409Y-62437742D01*
X54956153Y-62999999D01*
X54956153Y-63000000D01*
X55518407Y-63562254D01*
X55548431Y-63610929D01*
X55567784Y-63669331D01*
X55567785Y-63669332D01*
X55567786Y-63669334D01*
X55659888Y-63818656D01*
X55783944Y-63942712D01*
X55933266Y-64034814D01*
X56099803Y-64089999D01*
X56202591Y-64100500D01*
X56295390Y-64100499D01*
X56333714Y-64106569D01*
X56336703Y-64107541D01*
X56389053Y-64115832D01*
X56513230Y-64135500D01*
X56513234Y-64135500D01*
X56691970Y-64135500D01*
X56770424Y-64123073D01*
X56868497Y-64107541D01*
X56870428Y-64106913D01*
X56871489Y-64106569D01*
X56909809Y-64100499D01*
X57002602Y-64100499D01*
X57002608Y-64100499D01*
X57105397Y-64089999D01*
X57271934Y-64034814D01*
X57421256Y-63942712D01*
X57545312Y-63818656D01*
X57637414Y-63669334D01*
X57676891Y-63550197D01*
X57706911Y-63501526D01*
X58071111Y-63137329D01*
X58127096Y-63060272D01*
X58176167Y-62992732D01*
X58257309Y-62833481D01*
X58270021Y-62794358D01*
X58312539Y-62663501D01*
X58312539Y-62663500D01*
X58312540Y-62663497D01*
X58340500Y-62486966D01*
X58340500Y-60609500D01*
X58360185Y-60542461D01*
X58412989Y-60496706D01*
X58464500Y-60485500D01*
X60270176Y-60485500D01*
X60337215Y-60505185D01*
X60348532Y-60513394D01*
X60371593Y-60532198D01*
X60551951Y-60626409D01*
X60551953Y-60626409D01*
X60551954Y-60626410D01*
X60569191Y-60631342D01*
X60747582Y-60682386D01*
X60866963Y-60693000D01*
X63783036Y-60692999D01*
X63902418Y-60682386D01*
X64098049Y-60626409D01*
X64278407Y-60532198D01*
X64436109Y-60403609D01*
X64564698Y-60245907D01*
X64658909Y-60065549D01*
X64714886Y-59869918D01*
X64725500Y-59750537D01*
X64725499Y-58634464D01*
X64714886Y-58515082D01*
X64658909Y-58319451D01*
X64564698Y-58139093D01*
X64492052Y-58050000D01*
X64436109Y-57981390D01*
X64320933Y-57887477D01*
X64278407Y-57852802D01*
X64098049Y-57758591D01*
X64098048Y-57758590D01*
X64098045Y-57758589D01*
X63980829Y-57725050D01*
X63902418Y-57702614D01*
X63902415Y-57702613D01*
X63902413Y-57702613D01*
X63825800Y-57695802D01*
X63783037Y-57692000D01*
X63783033Y-57692000D01*
X63584500Y-57692000D01*
X63517461Y-57672315D01*
X63471706Y-57619511D01*
X63460500Y-57568000D01*
X63460500Y-57259500D01*
X63480185Y-57192461D01*
X63532989Y-57146706D01*
X63584500Y-57135500D01*
X66189370Y-57135500D01*
X66267824Y-57123073D01*
X66365897Y-57107541D01*
X66494193Y-57065853D01*
X66535881Y-57052309D01*
X66695132Y-56971167D01*
X66839728Y-56866111D01*
X66966111Y-56739728D01*
X68416111Y-55289728D01*
X68490182Y-55187777D01*
X68545512Y-55145113D01*
X68615126Y-55139134D01*
X68676921Y-55171740D01*
X68711278Y-55232579D01*
X68714500Y-55260664D01*
X68714500Y-57575500D01*
X68694815Y-57642539D01*
X68642011Y-57688294D01*
X68590501Y-57699500D01*
X68391971Y-57699500D01*
X68391965Y-57699500D01*
X68391964Y-57699501D01*
X68380316Y-57700536D01*
X68272584Y-57710113D01*
X68076954Y-57766089D01*
X67986772Y-57813196D01*
X67896593Y-57860302D01*
X67896591Y-57860303D01*
X67896590Y-57860304D01*
X67738890Y-57988890D01*
X67616418Y-58139092D01*
X67610302Y-58146593D01*
X67566033Y-58231342D01*
X67516089Y-58326954D01*
X67487325Y-58427482D01*
X67462260Y-58515084D01*
X67460114Y-58522583D01*
X67460113Y-58522586D01*
X67449500Y-58641966D01*
X67449500Y-59758028D01*
X67449501Y-59758034D01*
X67460113Y-59877415D01*
X67516089Y-60073045D01*
X67516090Y-60073048D01*
X67516091Y-60073049D01*
X67606385Y-60245909D01*
X67610305Y-60253412D01*
X67632541Y-60280682D01*
X67659650Y-60345078D01*
X67647640Y-60413908D01*
X67601536Y-60464581D01*
X67531654Y-60507684D01*
X67407684Y-60631654D01*
X67315643Y-60780875D01*
X67315641Y-60780880D01*
X67260494Y-60947302D01*
X67260493Y-60947309D01*
X67250000Y-61050013D01*
X67250000Y-61500000D01*
X69367799Y-61500000D01*
X69434838Y-61519685D01*
X69455480Y-61536319D01*
X70103181Y-62184020D01*
X70136666Y-62245343D01*
X70139500Y-62271701D01*
X70139500Y-62540500D01*
X70119815Y-62607539D01*
X70067011Y-62653294D01*
X70015500Y-62664500D01*
X69515398Y-62664500D01*
X69448359Y-62644815D01*
X69402604Y-62592011D01*
X69392040Y-62527898D01*
X69399999Y-62449988D01*
X69400000Y-62449973D01*
X69400000Y-62000000D01*
X67250001Y-62000000D01*
X67250001Y-62449986D01*
X67257961Y-62527898D01*
X67245191Y-62596591D01*
X67197311Y-62647475D01*
X67134603Y-62664500D01*
X65064366Y-62664500D01*
X60610634Y-62664500D01*
X60551790Y-62673820D01*
X60434101Y-62692460D01*
X60434098Y-62692460D01*
X60264121Y-62747689D01*
X60264118Y-62747691D01*
X60104867Y-62828833D01*
X60050057Y-62868656D01*
X60050056Y-62868656D01*
X59960276Y-62933883D01*
X59960272Y-62933887D01*
X59260272Y-63633889D01*
X59133891Y-63760269D01*
X59133890Y-63760270D01*
X59028833Y-63904867D01*
X58947692Y-64064115D01*
X58942836Y-64079061D01*
X58892458Y-64234106D01*
X58892457Y-64234107D01*
X58873707Y-64352501D01*
X58873707Y-64352503D01*
X58864500Y-64410630D01*
X58864500Y-67289365D01*
X58892460Y-67465898D01*
X58892460Y-67465901D01*
X58947689Y-67635878D01*
X58947691Y-67635881D01*
X59028835Y-67795136D01*
X59107922Y-67903988D01*
X59131403Y-67969794D01*
X59115578Y-68037848D01*
X59069605Y-68084261D01*
X58991287Y-68129477D01*
X58991282Y-68129481D01*
X58886661Y-68234103D01*
X58879480Y-68241284D01*
X58879478Y-68241286D01*
X57642744Y-69478021D01*
X56427584Y-70693181D01*
X56366261Y-70726666D01*
X56339903Y-70729500D01*
X45805097Y-70729500D01*
X45738058Y-70709815D01*
X45717416Y-70693181D01*
X45256818Y-70232583D01*
X45223333Y-70171260D01*
X45220499Y-70144902D01*
X45220499Y-69269998D01*
X45220498Y-69269981D01*
X45209999Y-69167203D01*
X45209998Y-69167200D01*
X45195063Y-69122129D01*
X45154814Y-69000666D01*
X45062712Y-68851344D01*
X44938656Y-68727288D01*
X44804402Y-68644480D01*
X44797578Y-68636893D01*
X44788297Y-68632655D01*
X44774608Y-68611355D01*
X44757679Y-68592533D01*
X44755034Y-68580897D01*
X44750523Y-68573877D01*
X44745500Y-68538942D01*
X44745500Y-68454470D01*
X44765185Y-68387431D01*
X44804401Y-68348932D01*
X44903656Y-68287712D01*
X45027712Y-68163656D01*
X45119814Y-68014334D01*
X45174999Y-67847797D01*
X45185500Y-67745009D01*
X45185499Y-66394992D01*
X45174999Y-66292203D01*
X45119814Y-66125666D01*
X45027712Y-65976344D01*
X44903656Y-65852288D01*
X44754334Y-65760186D01*
X44587797Y-65705001D01*
X44587795Y-65705000D01*
X44485010Y-65694500D01*
X43759998Y-65694500D01*
X43759980Y-65694501D01*
X43670031Y-65703690D01*
X43601338Y-65690920D01*
X43569749Y-65668013D01*
X41878446Y-63976711D01*
X41838024Y-63936289D01*
X54019861Y-63936289D01*
X54019862Y-63936290D01*
X54026071Y-63940801D01*
X54180342Y-64019408D01*
X54345015Y-64072914D01*
X54516029Y-64100000D01*
X54689171Y-64100000D01*
X54860184Y-64072914D01*
X55024857Y-64019408D01*
X55179125Y-63940803D01*
X55185336Y-63936289D01*
X55185337Y-63936289D01*
X54602601Y-63353553D01*
X54602600Y-63353553D01*
X54019861Y-63936289D01*
X41838024Y-63936289D01*
X41540090Y-63638355D01*
X41540088Y-63638352D01*
X41421217Y-63519481D01*
X41421216Y-63519480D01*
X41325755Y-63464366D01*
X41284285Y-63440423D01*
X41131557Y-63399499D01*
X40973443Y-63399499D01*
X40965847Y-63399499D01*
X40965831Y-63399500D01*
X36800098Y-63399500D01*
X36733059Y-63379815D01*
X36712417Y-63363181D01*
X36262664Y-62913428D01*
X53502600Y-62913428D01*
X53502600Y-63086571D01*
X53529685Y-63257584D01*
X53583192Y-63422259D01*
X53661796Y-63576525D01*
X53666309Y-63582736D01*
X53666309Y-63582737D01*
X54249046Y-63000001D01*
X54249046Y-62999999D01*
X54209551Y-62960504D01*
X54302600Y-62960504D01*
X54302600Y-63039496D01*
X54323044Y-63115796D01*
X54362540Y-63184205D01*
X54418395Y-63240060D01*
X54486804Y-63279556D01*
X54563104Y-63300000D01*
X54642096Y-63300000D01*
X54718396Y-63279556D01*
X54786805Y-63240060D01*
X54842660Y-63184205D01*
X54882156Y-63115796D01*
X54902600Y-63039496D01*
X54902600Y-62960504D01*
X54882156Y-62884204D01*
X54842660Y-62815795D01*
X54786805Y-62759940D01*
X54718396Y-62720444D01*
X54642096Y-62700000D01*
X54563104Y-62700000D01*
X54486804Y-62720444D01*
X54418395Y-62759940D01*
X54362540Y-62815795D01*
X54323044Y-62884204D01*
X54302600Y-62960504D01*
X54209551Y-62960504D01*
X53666309Y-62417261D01*
X53666308Y-62417261D01*
X53661803Y-62423463D01*
X53661793Y-62423480D01*
X53583192Y-62577740D01*
X53529685Y-62742415D01*
X53502600Y-62913428D01*
X36262664Y-62913428D01*
X34136819Y-60787583D01*
X34122115Y-60760655D01*
X34105523Y-60734837D01*
X34104631Y-60728636D01*
X34103334Y-60726260D01*
X34100500Y-60699902D01*
X34100500Y-60570000D01*
X39020898Y-60570000D01*
X40066988Y-60570000D01*
X40034075Y-60627007D01*
X40000000Y-60754174D01*
X40000000Y-60885826D01*
X40034075Y-61012993D01*
X40066988Y-61070000D01*
X39020898Y-61070000D01*
X39036934Y-61171247D01*
X39109897Y-61395802D01*
X39217085Y-61606171D01*
X39355866Y-61797186D01*
X39522813Y-61964133D01*
X39713828Y-62102914D01*
X39924197Y-62210102D01*
X40148752Y-62283065D01*
X40148751Y-62283065D01*
X40381948Y-62320000D01*
X41350000Y-62320000D01*
X41350000Y-61320000D01*
X41850000Y-61320000D01*
X41850000Y-62320000D01*
X42818052Y-62320000D01*
X43051247Y-62283065D01*
X43275802Y-62210102D01*
X43486171Y-62102914D01*
X43540134Y-62063708D01*
X54019861Y-62063708D01*
X54019861Y-62063709D01*
X54602600Y-62646446D01*
X54602601Y-62646446D01*
X55185337Y-62063709D01*
X55179125Y-62059196D01*
X55024859Y-61980592D01*
X54860184Y-61927085D01*
X54689171Y-61900000D01*
X54516029Y-61900000D01*
X54345015Y-61927085D01*
X54180340Y-61980592D01*
X54026080Y-62059193D01*
X54026063Y-62059203D01*
X54019861Y-62063708D01*
X43540134Y-62063708D01*
X43613165Y-62010648D01*
X43677186Y-61964133D01*
X43844133Y-61797186D01*
X43982914Y-61606171D01*
X44090102Y-61395802D01*
X44163065Y-61171247D01*
X44179102Y-61070000D01*
X43133012Y-61070000D01*
X43165925Y-61012993D01*
X43200000Y-60885826D01*
X43200000Y-60754174D01*
X43165925Y-60627007D01*
X43133012Y-60570000D01*
X44179102Y-60570000D01*
X44163065Y-60468752D01*
X44090102Y-60244197D01*
X43991147Y-60049986D01*
X53180001Y-60049986D01*
X53190494Y-60152697D01*
X53245641Y-60319119D01*
X53245643Y-60319124D01*
X53337684Y-60468345D01*
X53461654Y-60592315D01*
X53610875Y-60684356D01*
X53610880Y-60684358D01*
X53777302Y-60739505D01*
X53777309Y-60739506D01*
X53880019Y-60749999D01*
X54004999Y-60749999D01*
X54505000Y-60749999D01*
X54629972Y-60749999D01*
X54629986Y-60749998D01*
X54732697Y-60739505D01*
X54899119Y-60684358D01*
X54899124Y-60684356D01*
X55048345Y-60592315D01*
X55172315Y-60468345D01*
X55264356Y-60319124D01*
X55264358Y-60319119D01*
X55319505Y-60152697D01*
X55319506Y-60152690D01*
X55329999Y-60049986D01*
X55330000Y-60049973D01*
X55330000Y-59600000D01*
X54505000Y-59600000D01*
X54505000Y-60749999D01*
X54004999Y-60749999D01*
X54005000Y-60749998D01*
X54005000Y-59600000D01*
X53180001Y-59600000D01*
X53180001Y-60049986D01*
X43991147Y-60049986D01*
X43982914Y-60033828D01*
X43844133Y-59842813D01*
X43677185Y-59675865D01*
X43640148Y-59648956D01*
X43640146Y-59648954D01*
X43486174Y-59537087D01*
X43275802Y-59429897D01*
X43051247Y-59356934D01*
X43051248Y-59356934D01*
X42818052Y-59320000D01*
X41850000Y-59320000D01*
X41850000Y-60320000D01*
X41350000Y-60320000D01*
X41350000Y-59320000D01*
X40381948Y-59320000D01*
X40148752Y-59356934D01*
X39924197Y-59429897D01*
X39713828Y-59537085D01*
X39522813Y-59675866D01*
X39355866Y-59842813D01*
X39217085Y-60033828D01*
X39109897Y-60244197D01*
X39036934Y-60468752D01*
X39020898Y-60570000D01*
X34100500Y-60570000D01*
X34100500Y-54801947D01*
X36700000Y-54801947D01*
X36700000Y-55770000D01*
X37700000Y-55770000D01*
X37700000Y-56270000D01*
X36700000Y-56270000D01*
X36700000Y-57238052D01*
X36736934Y-57471247D01*
X36809897Y-57695802D01*
X36917085Y-57906171D01*
X37055866Y-58097186D01*
X37222813Y-58264133D01*
X37413828Y-58402914D01*
X37624195Y-58510102D01*
X37848744Y-58583063D01*
X37848750Y-58583065D01*
X37950000Y-58599101D01*
X37950000Y-57553012D01*
X38007007Y-57585925D01*
X38134174Y-57620000D01*
X38265826Y-57620000D01*
X38392993Y-57585925D01*
X38450000Y-57553012D01*
X38450000Y-58599100D01*
X38551249Y-58583065D01*
X38551255Y-58583063D01*
X38775804Y-58510102D01*
X38986171Y-58402914D01*
X39177186Y-58264133D01*
X39344133Y-58097186D01*
X39482914Y-57906171D01*
X39590102Y-57695802D01*
X39663065Y-57471247D01*
X39700000Y-57238052D01*
X39700000Y-56270000D01*
X38700000Y-56270000D01*
X38700000Y-55770000D01*
X39700000Y-55770000D01*
X39700000Y-54801947D01*
X39663065Y-54568752D01*
X39590102Y-54344197D01*
X39482914Y-54133828D01*
X39344133Y-53942813D01*
X39177186Y-53775866D01*
X38986171Y-53637085D01*
X38775802Y-53529897D01*
X38551247Y-53456934D01*
X38450000Y-53440897D01*
X38450000Y-54486988D01*
X38392993Y-54454075D01*
X38265826Y-54420000D01*
X38134174Y-54420000D01*
X38007007Y-54454075D01*
X37950000Y-54486988D01*
X37950000Y-53440897D01*
X37848752Y-53456934D01*
X37624197Y-53529897D01*
X37413828Y-53637085D01*
X37222813Y-53775866D01*
X37055866Y-53942813D01*
X36917085Y-54133828D01*
X36809897Y-54344197D01*
X36736934Y-54568752D01*
X36700000Y-54801947D01*
X34100500Y-54801947D01*
X34100500Y-49300096D01*
X34120185Y-49233057D01*
X34136814Y-49212420D01*
X36358506Y-46990727D01*
X36358511Y-46990724D01*
X36368714Y-46980520D01*
X36368716Y-46980520D01*
X36480520Y-46868716D01*
X36549060Y-46750001D01*
X36559577Y-46731785D01*
X36600501Y-46579057D01*
X36600501Y-46420943D01*
X36600501Y-46413348D01*
X36600500Y-46413330D01*
X36600500Y-45269059D01*
X36600501Y-45269046D01*
X36600501Y-45100945D01*
X36600501Y-45100943D01*
X36559577Y-44948215D01*
X36514708Y-44870500D01*
X36480520Y-44811284D01*
X36368716Y-44699480D01*
X36368715Y-44699479D01*
X36364385Y-44695149D01*
X36364374Y-44695139D01*
X35373597Y-43704362D01*
X35340112Y-43643039D01*
X35343346Y-43578365D01*
X35361630Y-43522097D01*
X35395500Y-43308254D01*
X35395500Y-43091779D01*
X37145000Y-43091779D01*
X37145000Y-43308220D01*
X37178857Y-43521981D01*
X37245735Y-43727814D01*
X37245736Y-43727817D01*
X37343996Y-43920660D01*
X37386829Y-43979615D01*
X37386830Y-43979616D01*
X38041119Y-43325327D01*
X38058734Y-43391063D01*
X38123902Y-43503937D01*
X38216063Y-43596098D01*
X38328937Y-43661266D01*
X38394672Y-43678880D01*
X37740382Y-44333168D01*
X37799342Y-44376005D01*
X37992182Y-44474263D01*
X37992185Y-44474264D01*
X38198018Y-44541142D01*
X38411780Y-44575000D01*
X38430208Y-44575000D01*
X38497247Y-44594685D01*
X38543002Y-44647489D01*
X38552946Y-44716647D01*
X38530526Y-44771885D01*
X38453896Y-44877357D01*
X38343097Y-45094812D01*
X38267678Y-45326927D01*
X38257306Y-45392416D01*
X38229500Y-45567973D01*
X38229500Y-45812027D01*
X38230797Y-45820214D01*
X38267382Y-46051206D01*
X38267679Y-46053076D01*
X38343096Y-46285185D01*
X38443701Y-46482635D01*
X38453896Y-46502642D01*
X38597339Y-46700076D01*
X38597343Y-46700081D01*
X38769918Y-46872656D01*
X38769923Y-46872660D01*
X38807697Y-46900104D01*
X38967361Y-47016106D01*
X39184815Y-47126904D01*
X39416924Y-47202321D01*
X39657973Y-47240500D01*
X39657974Y-47240500D01*
X39902026Y-47240500D01*
X39902027Y-47240500D01*
X40143076Y-47202321D01*
X40375185Y-47126904D01*
X40592639Y-47016106D01*
X40790083Y-46872655D01*
X40962655Y-46700083D01*
X41106106Y-46502639D01*
X41216904Y-46285185D01*
X41292321Y-46053076D01*
X41330500Y-45812027D01*
X41330500Y-45567973D01*
X41292321Y-45326924D01*
X41216904Y-45094815D01*
X41106794Y-44878711D01*
X43389500Y-44878711D01*
X43389500Y-45121288D01*
X43421161Y-45361785D01*
X43483947Y-45596104D01*
X43568444Y-45800097D01*
X43576776Y-45820212D01*
X43698064Y-46030289D01*
X43698066Y-46030292D01*
X43698067Y-46030293D01*
X43845733Y-46222736D01*
X43845739Y-46222743D01*
X44017256Y-46394260D01*
X44017263Y-46394266D01*
X44086156Y-46447129D01*
X44209711Y-46541936D01*
X44419788Y-46663224D01*
X44643900Y-46756054D01*
X44878211Y-46818838D01*
X45058586Y-46842584D01*
X45118711Y-46850500D01*
X45118712Y-46850500D01*
X45361289Y-46850500D01*
X45409388Y-46844167D01*
X45601789Y-46818838D01*
X45836100Y-46756054D01*
X46060212Y-46663224D01*
X46270289Y-46541936D01*
X46462738Y-46394265D01*
X46634265Y-46222738D01*
X46781936Y-46030289D01*
X46903224Y-45820212D01*
X46996054Y-45596100D01*
X47058838Y-45361789D01*
X47090500Y-45121288D01*
X47090500Y-44878712D01*
X47090321Y-44877356D01*
X47068941Y-44714951D01*
X47058838Y-44638211D01*
X46996054Y-44403900D01*
X46903224Y-44179788D01*
X46781936Y-43969711D01*
X46634265Y-43777262D01*
X46634260Y-43777256D01*
X46462743Y-43605739D01*
X46462736Y-43605733D01*
X46270293Y-43458067D01*
X46270292Y-43458066D01*
X46270289Y-43458064D01*
X46094907Y-43356807D01*
X46060214Y-43336777D01*
X46060205Y-43336773D01*
X45836104Y-43243947D01*
X45672089Y-43199999D01*
X45601789Y-43181162D01*
X45601788Y-43181161D01*
X45601785Y-43181161D01*
X45361289Y-43149500D01*
X45361288Y-43149500D01*
X45118712Y-43149500D01*
X45118711Y-43149500D01*
X44878214Y-43181161D01*
X44643895Y-43243947D01*
X44419794Y-43336773D01*
X44419785Y-43336777D01*
X44209706Y-43458067D01*
X44017263Y-43605733D01*
X44017256Y-43605739D01*
X43845739Y-43777256D01*
X43845733Y-43777263D01*
X43698067Y-43969706D01*
X43576777Y-44179785D01*
X43576773Y-44179794D01*
X43483947Y-44403895D01*
X43421161Y-44638214D01*
X43389500Y-44878711D01*
X41106794Y-44878711D01*
X41106106Y-44877361D01*
X41078882Y-44839890D01*
X40962660Y-44679923D01*
X40962656Y-44679918D01*
X40790081Y-44507343D01*
X40790076Y-44507339D01*
X40592642Y-44363896D01*
X40592641Y-44363895D01*
X40592639Y-44363894D01*
X40375185Y-44253096D01*
X40143076Y-44177679D01*
X40143074Y-44177678D01*
X40143072Y-44177678D01*
X39974769Y-44151021D01*
X39902027Y-44139500D01*
X39780371Y-44139500D01*
X39713332Y-44119815D01*
X39667577Y-44067011D01*
X39657633Y-43997853D01*
X39680053Y-43942614D01*
X39696005Y-43920657D01*
X39794263Y-43727817D01*
X39794264Y-43727814D01*
X39861142Y-43521981D01*
X39895000Y-43308220D01*
X39895000Y-43091779D01*
X39861142Y-42878018D01*
X39794264Y-42672185D01*
X39794263Y-42672182D01*
X39696005Y-42479342D01*
X39653168Y-42420383D01*
X39653168Y-42420382D01*
X38998880Y-43074672D01*
X38981266Y-43008937D01*
X38916098Y-42896063D01*
X38823937Y-42803902D01*
X38711063Y-42738734D01*
X38645326Y-42721119D01*
X39299616Y-42066830D01*
X39299615Y-42066829D01*
X39240660Y-42023996D01*
X39047817Y-41925736D01*
X39047814Y-41925735D01*
X38841981Y-41858857D01*
X38628220Y-41825000D01*
X38411780Y-41825000D01*
X38198018Y-41858857D01*
X37992185Y-41925735D01*
X37992182Y-41925736D01*
X37799346Y-42023992D01*
X37740383Y-42066830D01*
X38394673Y-42721119D01*
X38328937Y-42738734D01*
X38216063Y-42803902D01*
X38123902Y-42896063D01*
X38058734Y-43008937D01*
X38041119Y-43074672D01*
X37386830Y-42420383D01*
X37343992Y-42479346D01*
X37245736Y-42672182D01*
X37245735Y-42672185D01*
X37178857Y-42878018D01*
X37145000Y-43091779D01*
X35395500Y-43091779D01*
X35395500Y-43091746D01*
X35361630Y-42877903D01*
X35324788Y-42764514D01*
X35294727Y-42671993D01*
X35294726Y-42671990D01*
X35244642Y-42573697D01*
X35196433Y-42479081D01*
X35069172Y-42303922D01*
X34916078Y-42150828D01*
X34740919Y-42023567D01*
X34736860Y-42021499D01*
X34548009Y-41925273D01*
X34548006Y-41925272D01*
X34342098Y-41858370D01*
X34227429Y-41840208D01*
X34128254Y-41824500D01*
X33911746Y-41824500D01*
X33840465Y-41835790D01*
X33697901Y-41858370D01*
X33491993Y-41925272D01*
X33491990Y-41925273D01*
X33299080Y-42023567D01*
X33209659Y-42088536D01*
X33123922Y-42150828D01*
X33123920Y-42150830D01*
X33123919Y-42150830D01*
X32970830Y-42303919D01*
X32970830Y-42303920D01*
X32970828Y-42303922D01*
X32916174Y-42379145D01*
X32843567Y-42479080D01*
X32745273Y-42671990D01*
X32745272Y-42671993D01*
X32678370Y-42877901D01*
X32653309Y-43036127D01*
X32644500Y-43091746D01*
X32644500Y-43308254D01*
X32653573Y-43365537D01*
X32678370Y-43522098D01*
X32745272Y-43728006D01*
X32745273Y-43728009D01*
X32843567Y-43920920D01*
X32849969Y-43929731D01*
X32856470Y-43938679D01*
X32859329Y-43942613D01*
X32882810Y-44008419D01*
X32866985Y-44076473D01*
X32816881Y-44125169D01*
X32759012Y-44139500D01*
X32647973Y-44139500D01*
X32592093Y-44148350D01*
X32406927Y-44177678D01*
X32174812Y-44253097D01*
X31957357Y-44363896D01*
X31759923Y-44507339D01*
X31759918Y-44507343D01*
X31587343Y-44679918D01*
X31587339Y-44679923D01*
X31443896Y-44877357D01*
X31333097Y-45094812D01*
X31257678Y-45326927D01*
X31246473Y-45397674D01*
X31216544Y-45460809D01*
X31157232Y-45497740D01*
X31087370Y-45496742D01*
X31029137Y-45458132D01*
X31001023Y-45394168D01*
X31000000Y-45378276D01*
X31000000Y-41124000D01*
X31019685Y-41056961D01*
X31072489Y-41011206D01*
X31124000Y-41000000D01*
X50813059Y-41000000D01*
X50880098Y-41019685D01*
G37*
%TD.AperFunction*%
%TA.AperFunction,Conductor*%
G36*
X66724589Y-77838114D02*
G01*
X66724764Y-77838187D01*
X66742023Y-77840459D01*
X66773841Y-77854638D01*
X66805579Y-77868678D01*
X66805676Y-77868826D01*
X66805840Y-77868899D01*
X66824955Y-77898052D01*
X66844052Y-77927002D01*
X66844054Y-77927179D01*
X66844152Y-77927329D01*
X66849500Y-77963353D01*
X66849500Y-82239902D01*
X66829815Y-82306941D01*
X66813181Y-82327583D01*
X65754522Y-83386241D01*
X65693199Y-83419726D01*
X65628523Y-83416491D01*
X65586245Y-83402754D01*
X65446272Y-83380584D01*
X65376287Y-83369500D01*
X65163713Y-83369500D01*
X65115042Y-83377208D01*
X64953760Y-83402753D01*
X64751585Y-83468444D01*
X64562179Y-83564951D01*
X64390213Y-83689890D01*
X64239890Y-83840213D01*
X64114949Y-84012182D01*
X64110484Y-84020946D01*
X64062509Y-84071742D01*
X63994688Y-84088536D01*
X63928553Y-84065998D01*
X63889516Y-84020946D01*
X63885050Y-84012182D01*
X63760109Y-83840213D01*
X63609786Y-83689890D01*
X63437820Y-83564951D01*
X63248414Y-83468444D01*
X63248413Y-83468443D01*
X63248412Y-83468443D01*
X63046243Y-83402754D01*
X63046241Y-83402753D01*
X63046240Y-83402753D01*
X62884957Y-83377208D01*
X62836287Y-83369500D01*
X62623713Y-83369500D01*
X62575042Y-83377208D01*
X62413760Y-83402753D01*
X62211585Y-83468444D01*
X62022179Y-83564951D01*
X61850215Y-83689889D01*
X61736285Y-83803819D01*
X61674962Y-83837303D01*
X61605270Y-83832319D01*
X61549337Y-83790447D01*
X61532422Y-83759470D01*
X61483354Y-83627913D01*
X61483350Y-83627906D01*
X61397190Y-83512812D01*
X61397187Y-83512809D01*
X61282093Y-83426649D01*
X61282086Y-83426645D01*
X61147379Y-83376403D01*
X61147372Y-83376401D01*
X61087844Y-83370000D01*
X60440000Y-83370000D01*
X60440000Y-84286988D01*
X60382993Y-84254075D01*
X60255826Y-84220000D01*
X60124174Y-84220000D01*
X59997007Y-84254075D01*
X59940000Y-84286988D01*
X59940000Y-83370000D01*
X59292155Y-83370000D01*
X59232627Y-83376401D01*
X59232620Y-83376403D01*
X59097913Y-83426645D01*
X59097906Y-83426649D01*
X58982812Y-83512809D01*
X58982809Y-83512812D01*
X58896649Y-83627906D01*
X58896645Y-83627913D01*
X58846403Y-83762620D01*
X58846401Y-83762627D01*
X58840000Y-83822155D01*
X58840000Y-84470000D01*
X59756988Y-84470000D01*
X59724075Y-84527007D01*
X59690000Y-84654174D01*
X59690000Y-84785826D01*
X59724075Y-84912993D01*
X59756988Y-84970000D01*
X58840000Y-84970000D01*
X58840000Y-85617844D01*
X58846401Y-85677372D01*
X58846403Y-85677379D01*
X58896645Y-85812086D01*
X58896649Y-85812093D01*
X58982809Y-85927187D01*
X58982812Y-85927190D01*
X59097906Y-86013350D01*
X59097913Y-86013354D01*
X59232620Y-86063596D01*
X59232627Y-86063598D01*
X59292155Y-86069999D01*
X59292172Y-86070000D01*
X59940000Y-86070000D01*
X59940000Y-85153012D01*
X59997007Y-85185925D01*
X60124174Y-85220000D01*
X60255826Y-85220000D01*
X60382993Y-85185925D01*
X60440000Y-85153012D01*
X60440000Y-86070000D01*
X61087828Y-86070000D01*
X61087844Y-86069999D01*
X61147372Y-86063598D01*
X61147376Y-86063597D01*
X61197166Y-86045027D01*
X61266858Y-86040043D01*
X61328181Y-86073528D01*
X61361666Y-86134851D01*
X61364500Y-86161209D01*
X61364500Y-86240500D01*
X61344815Y-86307539D01*
X61292011Y-86353294D01*
X61240500Y-86364500D01*
X40721701Y-86364500D01*
X40654662Y-86344815D01*
X40634020Y-86328181D01*
X40078791Y-85772952D01*
X40045306Y-85711629D01*
X40050290Y-85641937D01*
X40092162Y-85586004D01*
X40157626Y-85561587D01*
X40222767Y-85574786D01*
X40411782Y-85671095D01*
X40613870Y-85736757D01*
X40823754Y-85770000D01*
X41036246Y-85770000D01*
X41246127Y-85736757D01*
X41246130Y-85736757D01*
X41448217Y-85671095D01*
X41637554Y-85574622D01*
X41691716Y-85535270D01*
X41691717Y-85535270D01*
X41059408Y-84902962D01*
X41122993Y-84885925D01*
X41237007Y-84820099D01*
X41330099Y-84727007D01*
X41395925Y-84612993D01*
X41412962Y-84549409D01*
X42045270Y-85181717D01*
X42045270Y-85181716D01*
X42084622Y-85127554D01*
X42181096Y-84938215D01*
X42199907Y-84880321D01*
X42199907Y-84880320D01*
X42246757Y-84736130D01*
X42246757Y-84736127D01*
X42280000Y-84526246D01*
X42280000Y-84313753D01*
X42246757Y-84103872D01*
X42246757Y-84103869D01*
X42181094Y-83901780D01*
X42167524Y-83875147D01*
X42167523Y-83875146D01*
X42084624Y-83712449D01*
X42045270Y-83658282D01*
X42045269Y-83658282D01*
X41412962Y-84290590D01*
X41395925Y-84227007D01*
X41330099Y-84112993D01*
X41237007Y-84019901D01*
X41122993Y-83954075D01*
X41059409Y-83937037D01*
X41691716Y-83304728D01*
X41637547Y-83265373D01*
X41637547Y-83265372D01*
X41628500Y-83260763D01*
X41577706Y-83212788D01*
X41560912Y-83144966D01*
X41583451Y-83078832D01*
X41628508Y-83039793D01*
X41637816Y-83035051D01*
X41752815Y-82951500D01*
X41809786Y-82910109D01*
X41809788Y-82910106D01*
X41809792Y-82910104D01*
X41960104Y-82759792D01*
X41960106Y-82759788D01*
X41960109Y-82759786D01*
X42085050Y-82587817D01*
X42094535Y-82569204D01*
X42142510Y-82518408D01*
X42205019Y-82501500D01*
X60889431Y-82501500D01*
X60889447Y-82501501D01*
X60897043Y-82501501D01*
X61055154Y-82501501D01*
X61055157Y-82501501D01*
X61207885Y-82460577D01*
X61260747Y-82430057D01*
X61260748Y-82430057D01*
X61344809Y-82381524D01*
X61344808Y-82381524D01*
X61344816Y-82381520D01*
X61456620Y-82269716D01*
X61456620Y-82269714D01*
X61466824Y-82259511D01*
X61466828Y-82259506D01*
X64849506Y-78876828D01*
X64849511Y-78876824D01*
X64859714Y-78866620D01*
X64859716Y-78866620D01*
X64971520Y-78754816D01*
X65026806Y-78659057D01*
X65050577Y-78617885D01*
X65091500Y-78465158D01*
X65091500Y-78307043D01*
X65091500Y-77962037D01*
X65111185Y-77894998D01*
X65163989Y-77849243D01*
X65231684Y-77839098D01*
X65308500Y-77849211D01*
X65337264Y-77852998D01*
X65337280Y-77853000D01*
X65337287Y-77853000D01*
X65562713Y-77853000D01*
X65562720Y-77853000D01*
X65675236Y-77838187D01*
X65675236Y-77838186D01*
X65683295Y-77837126D01*
X65683698Y-77840189D01*
X65716302Y-77840189D01*
X65716705Y-77837126D01*
X65724763Y-77838186D01*
X65724764Y-77838187D01*
X65837280Y-77853000D01*
X65837287Y-77853000D01*
X66062713Y-77853000D01*
X66062720Y-77853000D01*
X66175236Y-77838187D01*
X66175236Y-77838186D01*
X66183295Y-77837126D01*
X66183698Y-77840189D01*
X66216302Y-77840189D01*
X66216705Y-77837126D01*
X66224763Y-77838186D01*
X66224764Y-77838187D01*
X66337280Y-77853000D01*
X66337287Y-77853000D01*
X66562713Y-77853000D01*
X66562720Y-77853000D01*
X66675236Y-77838187D01*
X66675237Y-77838186D01*
X66681096Y-77837415D01*
X66681228Y-77837354D01*
X66681588Y-77837350D01*
X66683295Y-77837126D01*
X66683322Y-77837334D01*
X66716521Y-77837030D01*
X66724589Y-77838114D01*
G37*
%TD.AperFunction*%
%TA.AperFunction,Conductor*%
G36*
X39840703Y-82683802D02*
G01*
X39859819Y-82704630D01*
X39899896Y-82759792D01*
X40050213Y-82910109D01*
X40222179Y-83035048D01*
X40222181Y-83035049D01*
X40222184Y-83035051D01*
X40231493Y-83039794D01*
X40282290Y-83087766D01*
X40299087Y-83155587D01*
X40276552Y-83221722D01*
X40231505Y-83260760D01*
X40222446Y-83265376D01*
X40222440Y-83265380D01*
X40168282Y-83304727D01*
X40168282Y-83304728D01*
X40800591Y-83937037D01*
X40737007Y-83954075D01*
X40622993Y-84019901D01*
X40529901Y-84112993D01*
X40464075Y-84227007D01*
X40447037Y-84290591D01*
X39814728Y-83658282D01*
X39769229Y-83661863D01*
X39700852Y-83647499D01*
X39651095Y-83598448D01*
X39635500Y-83538245D01*
X39635500Y-82777515D01*
X39655185Y-82710476D01*
X39707989Y-82664721D01*
X39777147Y-82654777D01*
X39840703Y-82683802D01*
G37*
%TD.AperFunction*%
%TA.AperFunction,Conductor*%
G36*
X57144203Y-73639819D02*
G01*
X57159524Y-73639191D01*
X57177047Y-73649463D01*
X57196533Y-73655185D01*
X57206572Y-73666770D01*
X57219800Y-73674525D01*
X57228988Y-73692640D01*
X57242288Y-73707989D01*
X57244941Y-73724092D01*
X57251406Y-73736838D01*
X57252852Y-73772101D01*
X57252852Y-73772102D01*
X57250000Y-73800011D01*
X57250000Y-74250000D01*
X59399999Y-74250000D01*
X59399999Y-73800028D01*
X59399998Y-73800011D01*
X59397147Y-73772101D01*
X59409917Y-73703409D01*
X59457798Y-73652524D01*
X59520505Y-73635500D01*
X60015500Y-73635500D01*
X60082539Y-73655185D01*
X60128294Y-73707989D01*
X60139500Y-73759500D01*
X60139500Y-74589365D01*
X60167460Y-74765898D01*
X60175932Y-74791971D01*
X60190648Y-74837265D01*
X60193431Y-74845828D01*
X60199500Y-74884146D01*
X60199500Y-75200000D01*
X60199501Y-75200019D01*
X60210000Y-75302796D01*
X60210001Y-75302799D01*
X60265185Y-75469331D01*
X60265187Y-75469336D01*
X60268129Y-75474105D01*
X60357288Y-75618656D01*
X60481344Y-75742712D01*
X60630666Y-75834814D01*
X60797203Y-75889999D01*
X60899991Y-75900500D01*
X61650008Y-75900499D01*
X61650016Y-75900498D01*
X61650019Y-75900498D01*
X61706302Y-75894748D01*
X61752797Y-75889999D01*
X61919334Y-75834814D01*
X61922562Y-75832822D01*
X61940983Y-75821462D01*
X61957537Y-75816766D01*
X61971141Y-75808024D01*
X62006073Y-75803001D01*
X62006076Y-75803001D01*
X62056557Y-75803001D01*
X62056560Y-75803000D01*
X62064167Y-75803000D01*
X62615151Y-75803000D01*
X62662603Y-75812438D01*
X62724764Y-75838187D01*
X62837280Y-75853000D01*
X63365499Y-75853000D01*
X63374184Y-75855550D01*
X63383145Y-75854262D01*
X63407186Y-75865240D01*
X63432538Y-75872685D01*
X63438464Y-75879524D01*
X63446701Y-75883286D01*
X63460991Y-75905521D01*
X63478293Y-75925489D01*
X63480580Y-75936001D01*
X63484476Y-75942064D01*
X63489498Y-75976997D01*
X63489499Y-75976999D01*
X63489499Y-76089057D01*
X63489499Y-76089059D01*
X63489500Y-76099053D01*
X63489500Y-77919903D01*
X63469815Y-77986942D01*
X63453181Y-78007584D01*
X60597584Y-80863181D01*
X60536261Y-80896666D01*
X60509903Y-80899500D01*
X45610523Y-80899500D01*
X45543484Y-80879815D01*
X45497729Y-80827011D01*
X45487785Y-80757853D01*
X45516810Y-80694297D01*
X45522842Y-80687819D01*
X45642315Y-80568345D01*
X45734356Y-80419124D01*
X45734358Y-80419119D01*
X45789505Y-80252697D01*
X45789506Y-80252690D01*
X45799999Y-80149986D01*
X45800000Y-80149973D01*
X45800000Y-80025000D01*
X43000001Y-80025000D01*
X43000001Y-80149986D01*
X43011182Y-80259431D01*
X43008498Y-80259705D01*
X43004182Y-80317283D01*
X42962119Y-80373073D01*
X42896572Y-80397266D01*
X42828350Y-80382180D01*
X42800468Y-80361233D01*
X42263757Y-79824522D01*
X42230272Y-79763199D01*
X42233507Y-79698523D01*
X42247246Y-79656243D01*
X42280500Y-79446287D01*
X42280500Y-79400013D01*
X43000000Y-79400013D01*
X43000000Y-79525000D01*
X44150000Y-79525000D01*
X44650000Y-79525000D01*
X45799999Y-79525000D01*
X45799999Y-79400028D01*
X45799998Y-79400013D01*
X45789505Y-79297302D01*
X45734358Y-79130880D01*
X45734356Y-79130875D01*
X45642315Y-78981654D01*
X45518345Y-78857684D01*
X45369124Y-78765643D01*
X45369119Y-78765641D01*
X45202697Y-78710494D01*
X45202690Y-78710493D01*
X45099986Y-78700000D01*
X44650000Y-78700000D01*
X44650000Y-79525000D01*
X44150000Y-79525000D01*
X44150000Y-78700000D01*
X43700028Y-78700000D01*
X43700012Y-78700001D01*
X43597302Y-78710494D01*
X43430880Y-78765641D01*
X43430875Y-78765643D01*
X43281654Y-78857684D01*
X43157684Y-78981654D01*
X43065643Y-79130875D01*
X43065641Y-79130880D01*
X43010494Y-79297302D01*
X43010493Y-79297309D01*
X43000000Y-79400013D01*
X42280500Y-79400013D01*
X42280500Y-79233713D01*
X42247246Y-79023757D01*
X42181557Y-78821588D01*
X42085051Y-78632184D01*
X42085049Y-78632181D01*
X42085048Y-78632179D01*
X41960109Y-78460213D01*
X41846569Y-78346673D01*
X41813084Y-78285350D01*
X41818068Y-78215658D01*
X41859940Y-78159725D01*
X41890915Y-78142810D01*
X42022331Y-78093796D01*
X42137546Y-78007546D01*
X42223796Y-77892331D01*
X42274091Y-77757483D01*
X42280500Y-77697873D01*
X42280500Y-77549500D01*
X42300185Y-77482461D01*
X42352989Y-77436706D01*
X42404500Y-77425500D01*
X42968942Y-77425500D01*
X43035981Y-77445185D01*
X43074479Y-77484401D01*
X43157288Y-77618656D01*
X43281344Y-77742712D01*
X43430666Y-77834814D01*
X43597203Y-77889999D01*
X43699991Y-77900500D01*
X45100008Y-77900499D01*
X45202797Y-77889999D01*
X45369334Y-77834814D01*
X45518656Y-77742712D01*
X45642712Y-77618656D01*
X45734814Y-77469334D01*
X45789999Y-77302797D01*
X45800500Y-77200009D01*
X45800499Y-76449992D01*
X45794499Y-76391260D01*
X45789999Y-76347203D01*
X45789998Y-76347200D01*
X45788504Y-76342690D01*
X45734814Y-76180666D01*
X45642712Y-76031344D01*
X45518656Y-75907288D01*
X45369334Y-75815186D01*
X45202797Y-75760001D01*
X45202795Y-75760000D01*
X45100010Y-75749500D01*
X43699998Y-75749500D01*
X43699981Y-75749501D01*
X43597203Y-75760000D01*
X43597200Y-75760001D01*
X43430668Y-75815185D01*
X43430663Y-75815187D01*
X43281342Y-75907289D01*
X43157289Y-76031342D01*
X43157288Y-76031344D01*
X43082861Y-76152011D01*
X43074481Y-76165597D01*
X43022533Y-76212321D01*
X42968942Y-76224500D01*
X42404499Y-76224500D01*
X42337460Y-76204815D01*
X42291705Y-76152011D01*
X42280499Y-76100500D01*
X42280499Y-75902129D01*
X42280498Y-75902123D01*
X42280323Y-75900499D01*
X42274091Y-75842517D01*
X42271217Y-75834812D01*
X42223797Y-75707671D01*
X42223793Y-75707664D01*
X42137548Y-75592457D01*
X42137546Y-75592454D01*
X42137544Y-75592452D01*
X42137542Y-75592450D01*
X42115188Y-75575716D01*
X42073318Y-75519782D01*
X42065500Y-75476450D01*
X42065500Y-75199986D01*
X57250001Y-75199986D01*
X57260494Y-75302697D01*
X57315641Y-75469119D01*
X57315643Y-75469124D01*
X57407684Y-75618345D01*
X57531654Y-75742315D01*
X57680875Y-75834356D01*
X57680880Y-75834358D01*
X57847302Y-75889505D01*
X57847309Y-75889506D01*
X57950019Y-75899999D01*
X58074999Y-75899999D01*
X58575000Y-75899999D01*
X58699972Y-75899999D01*
X58699986Y-75899998D01*
X58802697Y-75889505D01*
X58969119Y-75834358D01*
X58969124Y-75834356D01*
X59118345Y-75742315D01*
X59242315Y-75618345D01*
X59334356Y-75469124D01*
X59334358Y-75469119D01*
X59389505Y-75302697D01*
X59389506Y-75302690D01*
X59399999Y-75199986D01*
X59400000Y-75199973D01*
X59400000Y-74750000D01*
X58575000Y-74750000D01*
X58575000Y-75899999D01*
X58074999Y-75899999D01*
X58075000Y-75899998D01*
X58075000Y-74750000D01*
X57250001Y-74750000D01*
X57250001Y-75199986D01*
X42065500Y-75199986D01*
X42065500Y-73759500D01*
X42085185Y-73692461D01*
X42137989Y-73646706D01*
X42189500Y-73635500D01*
X57129494Y-73635500D01*
X57144203Y-73639819D01*
G37*
%TD.AperFunction*%
%TA.AperFunction,Conductor*%
G36*
X64924432Y-70698361D02*
G01*
X64932439Y-70698228D01*
X64955753Y-70712665D01*
X64980703Y-70724060D01*
X64987181Y-70730092D01*
X66823963Y-72566874D01*
X66823973Y-72566885D01*
X66828303Y-72571215D01*
X66828304Y-72571216D01*
X66940108Y-72683020D01*
X67007591Y-72721981D01*
X67077039Y-72762077D01*
X67229766Y-72803000D01*
X67229767Y-72803000D01*
X70514146Y-72803000D01*
X70514713Y-72803166D01*
X70515283Y-72803005D01*
X70548209Y-72813002D01*
X70581185Y-72822685D01*
X70581572Y-72823131D01*
X70582139Y-72823304D01*
X70604451Y-72849535D01*
X70626940Y-72875489D01*
X70627152Y-72876224D01*
X70627408Y-72876525D01*
X70634802Y-72902726D01*
X70637041Y-72910479D01*
X70639313Y-72927736D01*
X70639383Y-72927907D01*
X70640469Y-72935979D01*
X70637399Y-72956023D01*
X70637399Y-72968816D01*
X70640374Y-72969208D01*
X70624500Y-73089772D01*
X70624500Y-73315227D01*
X70640374Y-73435792D01*
X70637399Y-73436183D01*
X70637399Y-73468816D01*
X70640374Y-73469208D01*
X70624500Y-73589772D01*
X70624500Y-73815227D01*
X70635499Y-73898771D01*
X70638928Y-73924814D01*
X70640374Y-73935792D01*
X70637399Y-73936183D01*
X70637399Y-73968816D01*
X70640374Y-73969208D01*
X70639313Y-73977262D01*
X70639313Y-73977264D01*
X70635938Y-74002893D01*
X70624500Y-74089772D01*
X70624500Y-74315227D01*
X70640374Y-74435792D01*
X70637399Y-74436183D01*
X70637399Y-74468816D01*
X70640374Y-74469208D01*
X70624500Y-74589772D01*
X70624500Y-74815227D01*
X70640374Y-74935792D01*
X70637399Y-74936183D01*
X70637399Y-74968816D01*
X70640374Y-74969208D01*
X70624500Y-75089772D01*
X70624500Y-75253000D01*
X70604815Y-75320039D01*
X70552011Y-75365794D01*
X70500500Y-75377000D01*
X70337272Y-75377000D01*
X70235265Y-75390430D01*
X70235263Y-75390430D01*
X70224764Y-75391813D01*
X70084767Y-75449802D01*
X70025486Y-75495289D01*
X69960319Y-75520484D01*
X69891874Y-75506446D01*
X69874515Y-75495290D01*
X69848512Y-75475338D01*
X69807310Y-75418910D01*
X69801120Y-75383394D01*
X69799999Y-75382411D01*
X69717270Y-75393304D01*
X69683527Y-75391093D01*
X69683293Y-75392874D01*
X69675236Y-75391813D01*
X69655451Y-75389208D01*
X69562727Y-75377000D01*
X69562720Y-75377000D01*
X69337280Y-75377000D01*
X69337272Y-75377000D01*
X69259028Y-75387302D01*
X69224764Y-75391813D01*
X69224762Y-75391813D01*
X69216708Y-75392874D01*
X69216316Y-75389899D01*
X69183684Y-75389899D01*
X69183292Y-75392874D01*
X69175237Y-75391813D01*
X69175236Y-75391813D01*
X69140972Y-75387302D01*
X69062727Y-75377000D01*
X69062720Y-75377000D01*
X68837280Y-75377000D01*
X68837272Y-75377000D01*
X68759028Y-75387302D01*
X68724764Y-75391813D01*
X68724762Y-75391813D01*
X68716708Y-75392874D01*
X68716316Y-75389899D01*
X68683684Y-75389899D01*
X68683292Y-75392874D01*
X68675237Y-75391813D01*
X68675236Y-75391813D01*
X68640972Y-75387302D01*
X68562727Y-75377000D01*
X68562720Y-75377000D01*
X68337280Y-75377000D01*
X68337272Y-75377000D01*
X68259028Y-75387302D01*
X68224764Y-75391813D01*
X68224762Y-75391813D01*
X68216708Y-75392874D01*
X68216316Y-75389899D01*
X68183684Y-75389899D01*
X68183292Y-75392874D01*
X68175237Y-75391813D01*
X68175236Y-75391813D01*
X68140972Y-75387302D01*
X68062727Y-75377000D01*
X68062720Y-75377000D01*
X67837280Y-75377000D01*
X67837272Y-75377000D01*
X67759028Y-75387302D01*
X67724764Y-75391813D01*
X67724762Y-75391813D01*
X67716708Y-75392874D01*
X67716316Y-75389899D01*
X67683684Y-75389899D01*
X67683292Y-75392874D01*
X67675237Y-75391813D01*
X67675236Y-75391813D01*
X67640972Y-75387302D01*
X67562727Y-75377000D01*
X67562720Y-75377000D01*
X67337280Y-75377000D01*
X67337272Y-75377000D01*
X67259028Y-75387302D01*
X67224764Y-75391813D01*
X67224762Y-75391813D01*
X67216708Y-75392874D01*
X67216316Y-75389899D01*
X67183684Y-75389899D01*
X67183292Y-75392874D01*
X67175237Y-75391813D01*
X67175236Y-75391813D01*
X67140972Y-75387302D01*
X67062727Y-75377000D01*
X67062720Y-75377000D01*
X66837280Y-75377000D01*
X66837272Y-75377000D01*
X66747750Y-75388786D01*
X66724764Y-75391813D01*
X66724763Y-75391813D01*
X66719290Y-75392534D01*
X66719193Y-75392580D01*
X66719012Y-75392570D01*
X66716708Y-75392874D01*
X66716651Y-75392446D01*
X66703432Y-75391753D01*
X66683901Y-75393025D01*
X66675509Y-75391926D01*
X66675236Y-75391813D01*
X66562720Y-75377000D01*
X66561513Y-75377000D01*
X66556327Y-75376321D01*
X66527888Y-75363763D01*
X66498704Y-75353075D01*
X66496201Y-75349772D01*
X66492411Y-75348099D01*
X66475276Y-75322162D01*
X66456503Y-75297390D01*
X66456182Y-75293259D01*
X66453899Y-75289802D01*
X66453507Y-75258720D01*
X66451106Y-75227729D01*
X66453037Y-75221495D01*
X66453018Y-75219938D01*
X66454013Y-75218344D01*
X66457865Y-75205916D01*
X66459570Y-75201796D01*
X66459577Y-75201785D01*
X66500501Y-75049057D01*
X66500501Y-74890943D01*
X66500501Y-74883348D01*
X66500500Y-74883330D01*
X66500500Y-74160946D01*
X66500500Y-74160943D01*
X66484037Y-74099500D01*
X66459577Y-74008215D01*
X66416893Y-73934285D01*
X66416893Y-73934283D01*
X66380524Y-73871290D01*
X66380521Y-73871286D01*
X66380520Y-73871284D01*
X66268716Y-73759480D01*
X66268715Y-73759479D01*
X66264385Y-73755149D01*
X66264374Y-73755139D01*
X65847590Y-73338355D01*
X65847588Y-73338352D01*
X65728717Y-73219481D01*
X65728716Y-73219480D01*
X65634675Y-73165186D01*
X65634674Y-73165185D01*
X65591783Y-73140422D01*
X65535881Y-73125443D01*
X65439057Y-73099499D01*
X65280943Y-73099499D01*
X65273347Y-73099499D01*
X65273331Y-73099500D01*
X64885525Y-73099500D01*
X64884978Y-73099339D01*
X64884431Y-73099495D01*
X64851479Y-73089502D01*
X64818486Y-73079815D01*
X64818113Y-73079385D01*
X64817568Y-73079220D01*
X64795215Y-73052958D01*
X64772731Y-73027011D01*
X64772526Y-73026303D01*
X64772280Y-73026014D01*
X64765140Y-73000733D01*
X64762636Y-72992063D01*
X64762606Y-72991846D01*
X64760687Y-72977264D01*
X64760619Y-72977100D01*
X64759536Y-72969063D01*
X64762689Y-72948428D01*
X64762689Y-72936198D01*
X64759626Y-72935795D01*
X64763046Y-72909818D01*
X64775500Y-72815220D01*
X64775500Y-72589780D01*
X64760687Y-72477264D01*
X64760686Y-72477263D01*
X64759626Y-72469205D01*
X64762689Y-72468801D01*
X64762689Y-72436198D01*
X64759626Y-72435795D01*
X64760687Y-72427736D01*
X64775500Y-72315220D01*
X64775500Y-72089780D01*
X64760687Y-71977264D01*
X64760686Y-71977263D01*
X64759626Y-71969205D01*
X64762689Y-71968801D01*
X64762689Y-71936198D01*
X64759626Y-71935795D01*
X64762915Y-71910811D01*
X64775500Y-71815220D01*
X64775500Y-71589780D01*
X64760687Y-71477264D01*
X64760686Y-71477263D01*
X64759626Y-71469205D01*
X64762689Y-71468801D01*
X64762689Y-71436198D01*
X64759626Y-71435795D01*
X64761705Y-71420000D01*
X64775500Y-71315220D01*
X64775500Y-71089780D01*
X64760687Y-70977264D01*
X64760685Y-70977261D01*
X64760027Y-70972256D01*
X64760000Y-70972198D01*
X64760005Y-70972088D01*
X64759626Y-70969205D01*
X64760158Y-70969134D01*
X64760786Y-70957000D01*
X64759409Y-70936909D01*
X64760520Y-70928137D01*
X64760687Y-70927736D01*
X64775500Y-70815220D01*
X64775500Y-70809946D01*
X64776484Y-70802182D01*
X64787459Y-70777044D01*
X64795185Y-70750734D01*
X64801235Y-70745490D01*
X64804441Y-70738150D01*
X64827266Y-70722935D01*
X64847989Y-70704979D01*
X64855914Y-70703839D01*
X64862579Y-70699397D01*
X64890001Y-70698938D01*
X64917147Y-70695035D01*
X64924432Y-70698361D01*
G37*
%TD.AperFunction*%
%TA.AperFunction,Conductor*%
G36*
X65128995Y-74334076D02*
G01*
X65173342Y-74362577D01*
X65263181Y-74452416D01*
X65296666Y-74513739D01*
X65299500Y-74540097D01*
X65299500Y-74669903D01*
X65279815Y-74736942D01*
X65263181Y-74757584D01*
X65257584Y-74763181D01*
X65196261Y-74796666D01*
X65169903Y-74799500D01*
X64860422Y-74799500D01*
X64839179Y-74793262D01*
X64817095Y-74791684D01*
X64806308Y-74783610D01*
X64793383Y-74779815D01*
X64778886Y-74763084D01*
X64761159Y-74749816D01*
X64756449Y-74737191D01*
X64747628Y-74727011D01*
X64744477Y-74705099D01*
X64736738Y-74684353D01*
X64739601Y-74671187D01*
X64737684Y-74657853D01*
X64746880Y-74637715D01*
X64751586Y-74616079D01*
X64764858Y-74598348D01*
X64766709Y-74594297D01*
X64772736Y-74587824D01*
X64789344Y-74571216D01*
X64789345Y-74571213D01*
X64997983Y-74362574D01*
X65059303Y-74329092D01*
X65128995Y-74334076D01*
G37*
%TD.AperFunction*%
%TA.AperFunction,Conductor*%
G36*
X69724763Y-69513186D02*
G01*
X69724764Y-69513187D01*
X69837280Y-69528000D01*
X69837287Y-69528000D01*
X70062713Y-69528000D01*
X70062720Y-69528000D01*
X70083314Y-69525288D01*
X70152346Y-69536052D01*
X70204604Y-69582430D01*
X70223500Y-69648227D01*
X70223500Y-70348654D01*
X70223499Y-70348672D01*
X70223499Y-70514378D01*
X70223498Y-70514378D01*
X70264423Y-70667108D01*
X70264422Y-70667108D01*
X70264423Y-70667109D01*
X70290532Y-70712331D01*
X70343477Y-70804036D01*
X70343481Y-70804041D01*
X70462349Y-70922909D01*
X70462355Y-70922914D01*
X70588181Y-71048740D01*
X70621666Y-71110063D01*
X70624500Y-71136421D01*
X70624500Y-71315227D01*
X70640129Y-71433935D01*
X70640384Y-71434476D01*
X70640804Y-71469767D01*
X70637590Y-71494183D01*
X70609325Y-71558080D01*
X70551001Y-71596552D01*
X70514651Y-71602000D01*
X67608921Y-71602000D01*
X67541882Y-71582315D01*
X67521240Y-71565681D01*
X65688230Y-69732671D01*
X65654745Y-69671348D01*
X65659729Y-69601656D01*
X65701601Y-69545723D01*
X65767065Y-69521306D01*
X65792091Y-69522050D01*
X65837280Y-69528000D01*
X65837287Y-69528000D01*
X66062713Y-69528000D01*
X66062720Y-69528000D01*
X66175236Y-69513187D01*
X66175236Y-69513186D01*
X66183295Y-69512126D01*
X66183698Y-69515189D01*
X66216302Y-69515189D01*
X66216705Y-69512126D01*
X66224763Y-69513186D01*
X66224764Y-69513187D01*
X66337280Y-69528000D01*
X66337287Y-69528000D01*
X66562713Y-69528000D01*
X66562720Y-69528000D01*
X66675236Y-69513187D01*
X66675236Y-69513186D01*
X66683295Y-69512126D01*
X66683698Y-69515189D01*
X66716302Y-69515189D01*
X66716705Y-69512126D01*
X66724763Y-69513186D01*
X66724764Y-69513187D01*
X66837280Y-69528000D01*
X66837287Y-69528000D01*
X67062713Y-69528000D01*
X67062720Y-69528000D01*
X67175236Y-69513187D01*
X67175236Y-69513186D01*
X67183295Y-69512126D01*
X67183698Y-69515189D01*
X67216302Y-69515189D01*
X67216705Y-69512126D01*
X67224763Y-69513186D01*
X67224764Y-69513187D01*
X67337280Y-69528000D01*
X67337287Y-69528000D01*
X67562713Y-69528000D01*
X67562720Y-69528000D01*
X67675236Y-69513187D01*
X67675236Y-69513186D01*
X67683295Y-69512126D01*
X67683698Y-69515189D01*
X67716302Y-69515189D01*
X67716705Y-69512126D01*
X67724763Y-69513186D01*
X67724764Y-69513187D01*
X67837280Y-69528000D01*
X67837287Y-69528000D01*
X68062713Y-69528000D01*
X68062720Y-69528000D01*
X68175236Y-69513187D01*
X68175236Y-69513186D01*
X68183295Y-69512126D01*
X68183698Y-69515189D01*
X68216302Y-69515189D01*
X68216705Y-69512126D01*
X68224763Y-69513186D01*
X68224764Y-69513187D01*
X68337280Y-69528000D01*
X68337287Y-69528000D01*
X68562713Y-69528000D01*
X68562720Y-69528000D01*
X68675236Y-69513187D01*
X68675236Y-69513186D01*
X68683295Y-69512126D01*
X68683698Y-69515189D01*
X68716302Y-69515189D01*
X68716705Y-69512126D01*
X68724763Y-69513186D01*
X68724764Y-69513187D01*
X68837280Y-69528000D01*
X68837287Y-69528000D01*
X69062713Y-69528000D01*
X69062720Y-69528000D01*
X69175236Y-69513187D01*
X69175236Y-69513186D01*
X69183295Y-69512126D01*
X69183698Y-69515189D01*
X69216302Y-69515189D01*
X69216705Y-69512126D01*
X69224763Y-69513186D01*
X69224764Y-69513187D01*
X69337280Y-69528000D01*
X69337287Y-69528000D01*
X69562713Y-69528000D01*
X69562720Y-69528000D01*
X69675236Y-69513187D01*
X69675236Y-69513186D01*
X69683295Y-69512126D01*
X69683698Y-69515189D01*
X69716302Y-69515189D01*
X69716705Y-69512126D01*
X69724763Y-69513186D01*
G37*
%TD.AperFunction*%
%TA.AperFunction,Conductor*%
G36*
X58944691Y-54047685D02*
G01*
X58974299Y-54074313D01*
X59027277Y-54140221D01*
X59027278Y-54140222D01*
X59175704Y-54259530D01*
X59175707Y-54259532D01*
X59346302Y-54344139D01*
X59346303Y-54344139D01*
X59346307Y-54344141D01*
X59531111Y-54390100D01*
X59573877Y-54393000D01*
X60476122Y-54392999D01*
X60518889Y-54390100D01*
X60703693Y-54344141D01*
X60874296Y-54259530D01*
X60987814Y-54168281D01*
X61052397Y-54141623D01*
X61121141Y-54154113D01*
X61172219Y-54201787D01*
X61189500Y-54264929D01*
X61189500Y-57568000D01*
X61169815Y-57635039D01*
X61117011Y-57680794D01*
X61065501Y-57692000D01*
X60866971Y-57692000D01*
X60866965Y-57692000D01*
X60866964Y-57692001D01*
X60855316Y-57693036D01*
X60747584Y-57702613D01*
X60551954Y-57758589D01*
X60461772Y-57805696D01*
X60371593Y-57852802D01*
X60371591Y-57852803D01*
X60371590Y-57852804D01*
X60213890Y-57981390D01*
X60085302Y-58139092D01*
X60080695Y-58147913D01*
X60032208Y-58198220D01*
X59970787Y-58214500D01*
X58157230Y-58214500D01*
X58127789Y-58205855D01*
X58097803Y-58199332D01*
X58092787Y-58195577D01*
X58090191Y-58194815D01*
X58069549Y-58178181D01*
X58029049Y-58137681D01*
X57995564Y-58076358D01*
X58000548Y-58006666D01*
X58029049Y-57962319D01*
X58122712Y-57868656D01*
X58214814Y-57719334D01*
X58269999Y-57552797D01*
X58280500Y-57450009D01*
X58280499Y-57134145D01*
X58286568Y-57095827D01*
X58296307Y-57065854D01*
X58312540Y-57015897D01*
X58340500Y-56839366D01*
X58340500Y-56660634D01*
X58322656Y-56547973D01*
X58312540Y-56484102D01*
X58286568Y-56404170D01*
X58280499Y-56365851D01*
X58280499Y-56049998D01*
X58280498Y-56049981D01*
X58269999Y-55947203D01*
X58269998Y-55947200D01*
X58257881Y-55910634D01*
X58214814Y-55780666D01*
X58122712Y-55631344D01*
X57998656Y-55507288D01*
X57849334Y-55415186D01*
X57849333Y-55415185D01*
X57849325Y-55415182D01*
X57820495Y-55405629D01*
X57763050Y-55365856D01*
X57736228Y-55301340D01*
X57735500Y-55287924D01*
X57735500Y-54985271D01*
X57755185Y-54918232D01*
X57807989Y-54872477D01*
X57820484Y-54867569D01*
X57919334Y-54834814D01*
X58068656Y-54742712D01*
X58192712Y-54618656D01*
X58284814Y-54469334D01*
X58339999Y-54302797D01*
X58350500Y-54200009D01*
X58350500Y-54152000D01*
X58370185Y-54084961D01*
X58422989Y-54039206D01*
X58474500Y-54028000D01*
X58877652Y-54028000D01*
X58944691Y-54047685D01*
G37*
%TD.AperFunction*%
%TD*%
M02*
