%TF.GenerationSoftware,KiCad,Pcbnew,9.0.6*%
%TF.CreationDate,2026-01-14T13:32:50+01:00*%
%TF.ProjectId,DHT11 weather station,44485431-3120-4776-9561-746865722073,rev?*%
%TF.SameCoordinates,Original*%
%TF.FileFunction,Paste,Top*%
%TF.FilePolarity,Positive*%
%FSLAX46Y46*%
G04 Gerber Fmt 4.6, Leading zero omitted, Abs format (unit mm)*
G04 Created by KiCad (PCBNEW 9.0.6) date 2026-01-14 13:32:50*
%MOMM*%
%LPD*%
G01*
G04 APERTURE LIST*
G04 Aperture macros list*
%AMRoundRect*
0 Rectangle with rounded corners*
0 $1 Rounding radius*
0 $2 $3 $4 $5 $6 $7 $8 $9 X,Y pos of 4 corners*
0 Add a 4 corners polygon primitive as box body*
4,1,4,$2,$3,$4,$5,$6,$7,$8,$9,$2,$3,0*
0 Add four circle primitives for the rounded corners*
1,1,$1+$1,$2,$3*
1,1,$1+$1,$4,$5*
1,1,$1+$1,$6,$7*
1,1,$1+$1,$8,$9*
0 Add four rect primitives between the rounded corners*
20,1,$1+$1,$2,$3,$4,$5,0*
20,1,$1+$1,$4,$5,$6,$7,0*
20,1,$1+$1,$6,$7,$8,$9,0*
20,1,$1+$1,$8,$9,$2,$3,0*%
G04 Aperture macros list end*
%ADD10RoundRect,0.075000X0.662500X0.075000X-0.662500X0.075000X-0.662500X-0.075000X0.662500X-0.075000X0*%
%ADD11RoundRect,0.075000X0.075000X0.662500X-0.075000X0.662500X-0.075000X-0.662500X0.075000X-0.662500X0*%
%ADD12RoundRect,0.250000X0.325000X0.650000X-0.325000X0.650000X-0.325000X-0.650000X0.325000X-0.650000X0*%
%ADD13RoundRect,0.250000X-0.650000X0.325000X-0.650000X-0.325000X0.650000X-0.325000X0.650000X0.325000X0*%
%ADD14RoundRect,0.375000X-0.375000X0.625000X-0.375000X-0.625000X0.375000X-0.625000X0.375000X0.625000X0*%
%ADD15RoundRect,0.500000X-1.400000X0.500000X-1.400000X-0.500000X1.400000X-0.500000X1.400000X0.500000X0*%
%ADD16RoundRect,0.250000X0.625000X-0.312500X0.625000X0.312500X-0.625000X0.312500X-0.625000X-0.312500X0*%
%ADD17RoundRect,0.250000X-0.312500X-0.625000X0.312500X-0.625000X0.312500X0.625000X-0.312500X0.625000X0*%
%ADD18RoundRect,0.250000X-0.625000X0.312500X-0.625000X-0.312500X0.625000X-0.312500X0.625000X0.312500X0*%
%ADD19R,1.900000X1.300000*%
%ADD20RoundRect,0.250000X-0.325000X-0.650000X0.325000X-0.650000X0.325000X0.650000X-0.325000X0.650000X0*%
%ADD21RoundRect,0.250000X1.000000X0.650000X-1.000000X0.650000X-1.000000X-0.650000X1.000000X-0.650000X0*%
%ADD22RoundRect,0.250000X0.750000X-2.000000X0.750000X2.000000X-0.750000X2.000000X-0.750000X-2.000000X0*%
G04 APERTURE END LIST*
D10*
%TO.C,U3*%
X71862500Y-75202500D03*
X71862500Y-74702500D03*
X71862500Y-74202500D03*
X71862500Y-73702500D03*
X71862500Y-73202500D03*
X71862500Y-72702500D03*
X71862500Y-72202500D03*
X71862500Y-71702500D03*
X71862500Y-71202500D03*
X71862500Y-70702500D03*
X71862500Y-70202500D03*
X71862500Y-69702500D03*
D11*
X70450000Y-68290000D03*
X69950000Y-68290000D03*
X69450000Y-68290000D03*
X68950000Y-68290000D03*
X68450000Y-68290000D03*
X67950000Y-68290000D03*
X67450000Y-68290000D03*
X66950000Y-68290000D03*
X66450000Y-68290000D03*
X65950000Y-68290000D03*
X65450000Y-68290000D03*
X64950000Y-68290000D03*
D10*
X63537500Y-69702500D03*
X63537500Y-70202500D03*
X63537500Y-70702500D03*
X63537500Y-71202500D03*
X63537500Y-71702500D03*
X63537500Y-72202500D03*
X63537500Y-72702500D03*
X63537500Y-73202500D03*
X63537500Y-73702500D03*
X63537500Y-74202500D03*
X63537500Y-74702500D03*
X63537500Y-75202500D03*
D11*
X64950000Y-76615000D03*
X65450000Y-76615000D03*
X65950000Y-76615000D03*
X66450000Y-76615000D03*
X66950000Y-76615000D03*
X67450000Y-76615000D03*
X67950000Y-76615000D03*
X68450000Y-76615000D03*
X68950000Y-76615000D03*
X69450000Y-76615000D03*
X69950000Y-76615000D03*
X70450000Y-76615000D03*
%TD*%
D12*
%TO.C,C4*%
X71275000Y-61750000D03*
X68325000Y-61750000D03*
%TD*%
D13*
%TO.C,C10*%
X91420000Y-72915000D03*
X91420000Y-75865000D03*
%TD*%
D14*
%TO.C,U1*%
X64625000Y-52892500D03*
X62325000Y-52892500D03*
D15*
X62325000Y-59192500D03*
D14*
X60025000Y-52892500D03*
%TD*%
%TO.C,U2*%
X72150000Y-52900000D03*
X69850000Y-52900000D03*
D15*
X69850000Y-59200000D03*
D14*
X67550000Y-52900000D03*
%TD*%
D12*
%TO.C,C15*%
X44145000Y-69970000D03*
X41195000Y-69970000D03*
%TD*%
D16*
%TO.C,R1*%
X74240000Y-47802500D03*
X74240000Y-44877500D03*
%TD*%
D17*
%TO.C,R3*%
X67137500Y-65740000D03*
X70062500Y-65740000D03*
%TD*%
D12*
%TO.C,C7*%
X61275000Y-74500000D03*
X58325000Y-74500000D03*
%TD*%
D18*
%TO.C,R2*%
X69730000Y-78727500D03*
X69730000Y-81652500D03*
%TD*%
D17*
%TO.C,R4*%
X41197500Y-67070000D03*
X44122500Y-67070000D03*
%TD*%
D12*
%TO.C,C13*%
X85295000Y-61460000D03*
X82345000Y-61460000D03*
%TD*%
D19*
%TO.C,Y1*%
X91432500Y-69820000D03*
X91432500Y-64320000D03*
X88232500Y-64320000D03*
X88232500Y-69820000D03*
%TD*%
D12*
%TO.C,C3*%
X57205000Y-59350000D03*
X54255000Y-59350000D03*
%TD*%
D20*
%TO.C,C6*%
X74125000Y-70500000D03*
X77075000Y-70500000D03*
%TD*%
D12*
%TO.C,C1*%
X57205000Y-56750000D03*
X54255000Y-56750000D03*
%TD*%
D21*
%TO.C,D1*%
X56600000Y-53500000D03*
X52600000Y-53500000D03*
%TD*%
D12*
%TO.C,C12*%
X85295000Y-78580000D03*
X82345000Y-78580000D03*
%TD*%
D20*
%TO.C,C8*%
X74085000Y-75740000D03*
X77035000Y-75740000D03*
%TD*%
D12*
%TO.C,C9*%
X64965000Y-65742500D03*
X62015000Y-65742500D03*
%TD*%
D22*
%TO.C,Y2*%
X83680000Y-74160000D03*
X83680000Y-65660000D03*
%TD*%
D20*
%TO.C,C5*%
X72045000Y-78330000D03*
X74995000Y-78330000D03*
%TD*%
D13*
%TO.C,C11*%
X88300000Y-72915000D03*
X88300000Y-75865000D03*
%TD*%
%TO.C,C14*%
X44400000Y-76825000D03*
X44400000Y-79775000D03*
%TD*%
M02*
