%TF.GenerationSoftware,KiCad,Pcbnew,9.0.6*%
%TF.CreationDate,2026-01-14T13:32:50+01:00*%
%TF.ProjectId,DHT11 weather station,44485431-3120-4776-9561-746865722073,rev?*%
%TF.SameCoordinates,Original*%
%TF.FileFunction,Soldermask,Top*%
%TF.FilePolarity,Negative*%
%FSLAX46Y46*%
G04 Gerber Fmt 4.6, Leading zero omitted, Abs format (unit mm)*
G04 Created by KiCad (PCBNEW 9.0.6) date 2026-01-14 13:32:50*
%MOMM*%
%LPD*%
G01*
G04 APERTURE LIST*
G04 Aperture macros list*
%AMRoundRect*
0 Rectangle with rounded corners*
0 $1 Rounding radius*
0 $2 $3 $4 $5 $6 $7 $8 $9 X,Y pos of 4 corners*
0 Add a 4 corners polygon primitive as box body*
4,1,4,$2,$3,$4,$5,$6,$7,$8,$9,$2,$3,0*
0 Add four circle primitives for the rounded corners*
1,1,$1+$1,$2,$3*
1,1,$1+$1,$4,$5*
1,1,$1+$1,$6,$7*
1,1,$1+$1,$8,$9*
0 Add four rect primitives between the rounded corners*
20,1,$1+$1,$2,$3,$4,$5,0*
20,1,$1+$1,$4,$5,$6,$7,0*
20,1,$1+$1,$6,$7,$8,$9,0*
20,1,$1+$1,$8,$9,$2,$3,0*%
G04 Aperture macros list end*
%ADD10RoundRect,0.075000X0.662500X0.075000X-0.662500X0.075000X-0.662500X-0.075000X0.662500X-0.075000X0*%
%ADD11RoundRect,0.075000X0.075000X0.662500X-0.075000X0.662500X-0.075000X-0.662500X0.075000X-0.662500X0*%
%ADD12R,1.700000X1.700000*%
%ADD13C,1.700000*%
%ADD14RoundRect,0.250000X0.325000X0.650000X-0.325000X0.650000X-0.325000X-0.650000X0.325000X-0.650000X0*%
%ADD15RoundRect,0.250000X-0.650000X0.325000X-0.650000X-0.325000X0.650000X-0.325000X0.650000X0.325000X0*%
%ADD16RoundRect,0.375000X-0.375000X0.625000X-0.375000X-0.625000X0.375000X-0.625000X0.375000X0.625000X0*%
%ADD17RoundRect,0.500000X-1.400000X0.500000X-1.400000X-0.500000X1.400000X-0.500000X1.400000X0.500000X0*%
%ADD18C,3.200000*%
%ADD19RoundRect,0.250000X0.625000X-0.312500X0.625000X0.312500X-0.625000X0.312500X-0.625000X-0.312500X0*%
%ADD20RoundRect,0.250000X0.350000X0.350000X-0.350000X0.350000X-0.350000X-0.350000X0.350000X-0.350000X0*%
%ADD21C,1.200000*%
%ADD22RoundRect,0.250000X-0.312500X-0.625000X0.312500X-0.625000X0.312500X0.625000X-0.312500X0.625000X0*%
%ADD23RoundRect,0.250000X-0.625000X0.312500X-0.625000X-0.312500X0.625000X-0.312500X0.625000X0.312500X0*%
%ADD24R,2.000000X4.600000*%
%ADD25O,2.000000X4.200000*%
%ADD26O,4.200000X2.000000*%
%ADD27RoundRect,0.102000X0.950000X0.650000X-0.950000X0.650000X-0.950000X-0.650000X0.950000X-0.650000X0*%
%ADD28RoundRect,0.250000X-0.325000X-0.650000X0.325000X-0.650000X0.325000X0.650000X-0.325000X0.650000X0*%
%ADD29RoundRect,0.250000X1.000000X0.650000X-1.000000X0.650000X-1.000000X-0.650000X1.000000X-0.650000X0*%
%ADD30RoundRect,0.250000X0.750000X-2.000000X0.750000X2.000000X-0.750000X2.000000X-0.750000X-2.000000X0*%
%ADD31C,2.000000*%
%ADD32R,1.800000X1.800000*%
%ADD33C,1.800000*%
%ADD34C,2.100000*%
%ADD35C,1.750000*%
G04 APERTURE END LIST*
D10*
%TO.C,U3*%
X71862500Y-75202500D03*
X71862500Y-74702500D03*
X71862500Y-74202500D03*
X71862500Y-73702500D03*
X71862500Y-73202500D03*
X71862500Y-72702500D03*
X71862500Y-72202500D03*
X71862500Y-71702500D03*
X71862500Y-71202500D03*
X71862500Y-70702500D03*
X71862500Y-70202500D03*
X71862500Y-69702500D03*
D11*
X70450000Y-68290000D03*
X69950000Y-68290000D03*
X69450000Y-68290000D03*
X68950000Y-68290000D03*
X68450000Y-68290000D03*
X67950000Y-68290000D03*
X67450000Y-68290000D03*
X66950000Y-68290000D03*
X66450000Y-68290000D03*
X65950000Y-68290000D03*
X65450000Y-68290000D03*
X64950000Y-68290000D03*
D10*
X63537500Y-69702500D03*
X63537500Y-70202500D03*
X63537500Y-70702500D03*
X63537500Y-71202500D03*
X63537500Y-71702500D03*
X63537500Y-72202500D03*
X63537500Y-72702500D03*
X63537500Y-73202500D03*
X63537500Y-73702500D03*
X63537500Y-74202500D03*
X63537500Y-74702500D03*
X63537500Y-75202500D03*
D11*
X64950000Y-76615000D03*
X65450000Y-76615000D03*
X65950000Y-76615000D03*
X66450000Y-76615000D03*
X66950000Y-76615000D03*
X67450000Y-76615000D03*
X67950000Y-76615000D03*
X68450000Y-76615000D03*
X68950000Y-76615000D03*
X69450000Y-76615000D03*
X69950000Y-76615000D03*
X70450000Y-76615000D03*
%TD*%
D12*
%TO.C,J2*%
X40930000Y-76800000D03*
D13*
X40930000Y-79340000D03*
X40930000Y-81880000D03*
X40930000Y-84420000D03*
%TD*%
D14*
%TO.C,C4*%
X71275000Y-61750000D03*
X68325000Y-61750000D03*
%TD*%
D15*
%TO.C,C10*%
X91420000Y-72915000D03*
X91420000Y-75865000D03*
%TD*%
D16*
%TO.C,U1*%
X64625000Y-52892500D03*
X62325000Y-52892500D03*
D17*
X62325000Y-59192500D03*
D16*
X60025000Y-52892500D03*
%TD*%
%TO.C,U2*%
X72150000Y-52900000D03*
X69850000Y-52900000D03*
D17*
X69850000Y-59200000D03*
D16*
X67550000Y-52900000D03*
%TD*%
D18*
%TO.C,H1*%
X45240000Y-45000000D03*
%TD*%
%TO.C,H4*%
X43970000Y-93260000D03*
%TD*%
D12*
%TO.C,J3*%
X60190000Y-84720000D03*
D13*
X62730000Y-84720000D03*
X65270000Y-84720000D03*
X67810000Y-84720000D03*
%TD*%
D14*
%TO.C,C15*%
X44145000Y-69970000D03*
X41195000Y-69970000D03*
%TD*%
D19*
%TO.C,R1*%
X74240000Y-47802500D03*
X74240000Y-44877500D03*
%TD*%
D13*
%TO.C,J4*%
X89630000Y-42720000D03*
X87090000Y-42720000D03*
X84550000Y-42720000D03*
%TD*%
D20*
%TO.C,C2*%
X56602600Y-63000000D03*
D21*
X54602600Y-63000000D03*
%TD*%
D22*
%TO.C,R3*%
X67137500Y-65740000D03*
X70062500Y-65740000D03*
%TD*%
D14*
%TO.C,C7*%
X61275000Y-74500000D03*
X58325000Y-74500000D03*
%TD*%
D23*
%TO.C,R2*%
X69730000Y-78727500D03*
X69730000Y-81652500D03*
%TD*%
D22*
%TO.C,R4*%
X41197500Y-67070000D03*
X44122500Y-67070000D03*
%TD*%
D14*
%TO.C,C13*%
X85295000Y-61460000D03*
X82345000Y-61460000D03*
%TD*%
D24*
%TO.C,J1*%
X44500000Y-56020000D03*
D25*
X38200000Y-56020000D03*
D26*
X41600000Y-60820000D03*
%TD*%
D27*
%TO.C,Y1*%
X91432500Y-69820000D03*
X91432500Y-64320000D03*
X88232500Y-64320000D03*
X88232500Y-69820000D03*
%TD*%
D14*
%TO.C,C3*%
X57205000Y-59350000D03*
X54255000Y-59350000D03*
%TD*%
D28*
%TO.C,C6*%
X74125000Y-70500000D03*
X77075000Y-70500000D03*
%TD*%
D14*
%TO.C,C1*%
X57205000Y-56750000D03*
X54255000Y-56750000D03*
%TD*%
D29*
%TO.C,D1*%
X56600000Y-53500000D03*
X52600000Y-53500000D03*
%TD*%
D18*
%TO.C,H3*%
X96040000Y-88180000D03*
%TD*%
D14*
%TO.C,C12*%
X85295000Y-78580000D03*
X82345000Y-78580000D03*
%TD*%
D28*
%TO.C,C8*%
X74085000Y-75740000D03*
X77035000Y-75740000D03*
%TD*%
D14*
%TO.C,C9*%
X64965000Y-65742500D03*
X62015000Y-65742500D03*
%TD*%
D30*
%TO.C,Y2*%
X83680000Y-74160000D03*
X83680000Y-65660000D03*
%TD*%
D28*
%TO.C,C5*%
X72045000Y-78330000D03*
X74995000Y-78330000D03*
%TD*%
D31*
%TO.C,SW1*%
X64360000Y-47620000D03*
X64360000Y-41620000D03*
X52360000Y-47620000D03*
X52360000Y-41620000D03*
D13*
X62360000Y-45870000D03*
X58360000Y-45870000D03*
X54360000Y-45870000D03*
%TD*%
D32*
%TO.C,D2*%
X70595000Y-47395000D03*
D33*
X68055000Y-47395000D03*
%TD*%
D34*
%TO.C,SW2*%
X32770000Y-45690000D03*
X39780000Y-45690000D03*
D35*
X34020000Y-43200000D03*
X38520000Y-43200000D03*
%TD*%
D15*
%TO.C,C11*%
X88300000Y-72915000D03*
X88300000Y-75865000D03*
%TD*%
%TO.C,C14*%
X44400000Y-76825000D03*
X44400000Y-79775000D03*
%TD*%
D18*
%TO.C,H2*%
X96040000Y-60240000D03*
%TD*%
M02*
