M48
; DRILL file {KiCad 9.0.6} date 2026-01-14T13:32:33+0100
; FORMAT={-:-/ absolute / metric / decimal}
; #@! TF.CreationDate,2026-01-14T13:32:33+01:00
; #@! TF.GenerationSoftware,Kicad,Pcbnew,9.0.6
; #@! TF.FileFunction,MixedPlating,1,2
FMAT,2
METRIC
; #@! TA.AperFunction,Plated,PTH,ViaDrill
T1C0.300
; #@! TA.AperFunction,Plated,PTH,ComponentDrill
T2C0.600
; #@! TA.AperFunction,Plated,PTH,ComponentDrill
T3C0.900
; #@! TA.AperFunction,Plated,PTH,ComponentDrill
T4C0.990
; #@! TA.AperFunction,Plated,PTH,ComponentDrill
T5C1.000
; #@! TA.AperFunction,Plated,PTH,ComponentDrill
T6C1.200
; #@! TA.AperFunction,Plated,PTH,ComponentDrill
T7C1.300
; #@! TA.AperFunction,NonPlated,NPTH,ComponentDrill
T8C3.200
%
G90
G05
T1
X32.5Y-50.0
X32.5Y-52.5
X32.5Y-55.0
X32.5Y-57.5
X32.5Y-60.0
X32.5Y-62.5
X32.5Y-65.0
X32.5Y-67.5
X32.5Y-70.0
X32.5Y-72.5
X32.5Y-75.0
X32.5Y-77.5
X32.5Y-80.0
X32.5Y-82.5
X32.5Y-85.0
X32.5Y-87.5
X32.5Y-90.0
X32.5Y-92.5
X35.0Y-50.0
X35.0Y-52.5
X35.0Y-55.0
X35.0Y-57.5
X35.0Y-60.0
X35.0Y-65.0
X35.0Y-67.5
X35.0Y-70.0
X35.0Y-72.5
X35.0Y-75.0
X35.0Y-77.5
X35.0Y-80.0
X35.0Y-82.5
X35.0Y-85.0
X35.0Y-87.5
X35.0Y-90.0
X35.0Y-92.5
X37.5Y-45.0
X37.5Y-47.5
X37.5Y-50.0
X37.5Y-52.5
X37.5Y-60.0
X37.5Y-62.5
X37.5Y-65.0
X37.5Y-67.5
X37.5Y-72.5
X37.5Y-87.5
X37.5Y-90.0
X37.5Y-92.5
X39.9Y-68.9
X40.0Y-42.5
X40.0Y-47.5
X40.0Y-50.0
X40.0Y-52.5
X40.0Y-55.0
X40.0Y-57.5
X40.0Y-62.5
X40.0Y-65.0
X40.0Y-90.0
X40.0Y-92.5
X42.5Y-42.5
X42.5Y-45.0
X42.5Y-47.5
X42.5Y-50.0
X42.5Y-52.5
X42.5Y-55.0
X42.5Y-57.5
X42.5Y-62.5
X42.5Y-85.0
X42.5Y-90.0
X45.0Y-42.5
X45.0Y-47.5
X45.0Y-60.0
X45.0Y-62.5
X45.0Y-65.0
X45.0Y-75.0
X45.0Y-85.0
X45.0Y-90.0
X47.5Y-42.5
X47.5Y-45.0
X47.5Y-52.5
X47.5Y-55.0
X47.5Y-57.5
X47.5Y-60.0
X47.5Y-62.5
X47.5Y-65.0
X47.5Y-67.5
X47.5Y-70.0
X47.5Y-75.0
X47.5Y-77.5
X47.5Y-80.0
X47.5Y-85.0
X47.5Y-90.0
X47.5Y-92.5
X50.0Y-42.5
X50.0Y-50.0
X50.0Y-52.5
X50.0Y-55.0
X50.0Y-57.5
X50.0Y-60.0
X50.0Y-62.5
X50.0Y-65.0
X50.0Y-67.5
X50.0Y-70.0
X50.0Y-75.0
X50.0Y-77.5
X50.0Y-80.0
X50.0Y-85.0
X50.0Y-90.0
X50.0Y-92.5
X52.5Y-50.0
X52.5Y-57.5
X52.5Y-60.0
X52.5Y-62.5
X52.5Y-65.0
X52.5Y-67.5
X52.5Y-70.0
X52.5Y-75.0
X52.5Y-77.5
X52.5Y-80.0
X52.5Y-85.0
X52.5Y-90.0
X52.5Y-92.5
X55.0Y-42.5
X55.0Y-65.0
X55.0Y-67.5
X55.0Y-70.0
X55.0Y-75.0
X55.0Y-77.5
X55.0Y-80.0
X55.0Y-85.0
X55.0Y-90.0
X55.0Y-92.5
X57.5Y-42.5
X57.5Y-47.5
X57.5Y-50.0
X57.5Y-65.0
X57.5Y-67.5
X57.5Y-77.5
X57.5Y-80.0
X57.5Y-85.0
X57.5Y-90.0
X57.5Y-92.5
X59.985Y-92.5
X60.0Y-42.5
X60.0Y-45.0
X60.0Y-47.5
X60.0Y-50.0
X60.0Y-55.0
X60.0Y-57.5
X60.0Y-62.5
X60.0Y-67.2
X60.0Y-69.8
X60.0Y-75.0
X60.0Y-77.5
X60.0Y-80.0
X60.0Y-90.0
X62.0Y-67.7
X62.5Y-42.5
X62.5Y-50.0
X62.5Y-62.5
X62.5Y-77.5
X62.5Y-82.5
X62.5Y-90.0
X62.5Y-92.5
X65.0Y-45.0
X65.0Y-50.0
X65.0Y-57.5
X65.0Y-60.0
X65.0Y-72.5
X65.0Y-80.0
X65.0Y-82.5
X65.0Y-90.0
X65.0Y-92.5
X65.01Y-74.71
X65.021Y-62.521
X67.5Y-42.5
X67.5Y-45.0
X67.5Y-50.0
X67.5Y-57.5
X67.5Y-70.0
X67.5Y-75.0
X67.5Y-90.0
X67.5Y-92.5
X70.0Y-42.5
X70.0Y-45.0
X70.0Y-70.0
X70.0Y-75.0
X70.0Y-90.0
X70.0Y-92.5
X70.5Y-83.2
X71.7Y-66.9
X72.5Y-42.5
X72.5Y-45.0
X72.5Y-50.0
X72.5Y-55.0
X72.5Y-57.5
X72.5Y-87.5
X72.5Y-90.0
X72.5Y-92.5
X73.2Y-65.3
X74.75Y-66.85
X75.0Y-42.5
X75.0Y-50.0
X75.0Y-52.5
X75.0Y-55.0
X75.0Y-57.5
X75.0Y-60.0
X75.0Y-80.0
X75.0Y-82.5
X75.0Y-85.0
X75.0Y-87.5
X75.0Y-90.0
X75.0Y-92.5
X77.5Y-42.5
X77.5Y-45.0
X77.5Y-47.5
X77.5Y-50.0
X77.5Y-52.5
X77.5Y-55.0
X77.5Y-57.5
X77.5Y-65.0
X77.5Y-67.5
X77.5Y-77.5
X77.5Y-80.0
X77.5Y-82.5
X77.5Y-85.0
X77.5Y-87.5
X77.5Y-90.0
X77.5Y-92.5
X80.0Y-42.5
X80.0Y-45.0
X80.0Y-47.5
X80.0Y-50.0
X80.0Y-52.5
X80.0Y-55.0
X80.0Y-62.5
X80.0Y-65.0
X80.0Y-67.5
X80.0Y-70.0
X80.0Y-82.5
X80.0Y-85.0
X80.0Y-87.5
X80.0Y-90.0
X80.0Y-92.5
X82.5Y-42.5
X82.5Y-45.0
X82.5Y-47.5
X82.5Y-50.0
X82.5Y-52.5
X82.5Y-85.0
X82.5Y-87.5
X82.5Y-90.0
X82.5Y-92.5
X85.0Y-45.0
X85.0Y-47.5
X85.0Y-50.0
X85.0Y-57.5
X85.0Y-70.0
X85.0Y-85.0
X85.0Y-87.5
X85.0Y-90.0
X85.0Y-92.5
X87.5Y-55.0
X87.5Y-57.5
X87.5Y-60.0
X87.5Y-62.5
X87.5Y-67.5
X87.5Y-77.5
X87.5Y-80.0
X87.5Y-85.0
X87.5Y-87.5
X87.5Y-90.0
X87.5Y-92.5
X90.0Y-45.0
X90.0Y-47.5
X90.0Y-50.0
X90.0Y-52.5
X90.0Y-55.0
X90.0Y-57.5
X90.0Y-60.0
X90.0Y-62.5
X90.0Y-67.5
X90.0Y-82.5
X90.0Y-85.0
X90.0Y-87.5
X90.0Y-90.0
X90.0Y-92.5
X92.5Y-42.5
X92.5Y-45.0
X92.5Y-47.5
X92.5Y-50.0
X92.5Y-52.5
X92.5Y-55.0
X92.5Y-57.5
X92.5Y-60.0
X92.5Y-62.5
X92.5Y-67.5
X92.5Y-80.0
X92.5Y-82.5
X92.5Y-85.0
X92.5Y-87.5
X92.5Y-90.0
X92.5Y-92.5
X95.0Y-42.5
X95.0Y-45.0
X95.0Y-47.5
X95.0Y-50.0
X95.0Y-52.5
X95.0Y-55.0
X95.0Y-57.5
X95.0Y-62.5
X95.0Y-65.0
X95.0Y-67.5
X95.0Y-70.0
X95.0Y-72.5
X95.0Y-75.0
X95.0Y-77.5
X95.0Y-80.0
X95.0Y-82.5
X95.0Y-85.0
X95.0Y-92.5
T2
X54.603Y-63.0
X56.603Y-63.0
T3
X54.36Y-45.87
X58.36Y-45.87
X62.36Y-45.87
X68.055Y-47.395
X70.595Y-47.395
T4
X34.02Y-43.2
X38.52Y-43.2
T5
X40.93Y-76.8
X40.93Y-79.34
X40.93Y-81.88
X40.93Y-84.42
X60.19Y-84.72
X62.73Y-84.72
X65.27Y-84.72
X67.81Y-84.72
X84.55Y-42.72
X87.09Y-42.72
X89.63Y-42.72
T6
X52.36Y-41.62
X52.36Y-47.62
X64.36Y-41.62
X64.36Y-47.62
T7
X32.77Y-45.69
X39.78Y-45.69
T8
X43.97Y-93.26
X45.24Y-45.0
X96.04Y-60.24
X96.04Y-88.18
T5
G00X38.2Y-54.92
M15
G01X38.2Y-57.12
M16
G05
G00X42.7Y-60.82
M15
G01X40.5Y-60.82
M16
G05
G00X44.5Y-54.72
M15
G01X44.5Y-57.32
M16
G05
M30
